<?xml version="1.0" standalone="no"?>
<!DOCTYPE svg PUBLIC "-//W3C//DTD SVG 20010904//EN"
 "http://www.w3.org/TR/2001/REC-SVG-20010904/DTD/svg10.dtd">
<svg version="1.0" xmlns="http://www.w3.org/2000/svg"
 width="400.000000pt" height="400.000000pt" viewBox="0 0 400.000000 400.000000"
 preserveAspectRatio="xMidYMid meet">

<g transform="translate(0.000000,400.000000) scale(0.100000,-0.100000)"
fill="#000000" stroke="none">
<path d="M1000 3441 c0 -5 -11 -12 -25 -15 -33 -8 -72 -47 -80 -79 -4 -15 -11
-27 -16 -27 -5 0 -9 -22 -9 -48 0 -46 15 -86 53 -143 17 -26 16 -68 -3 -94 -4
-5 -10 -22 -14 -36 -10 -46 -45 -60 -115 -48 -34 6 -61 15 -61 20 0 5 -5 9
-11 9 -16 0 -99 82 -99 97 0 7 -4 13 -9 13 -5 0 -12 14 -16 30 -4 17 -10 30
-15 30 -5 0 -10 8 -13 18 -2 10 -7 2 -11 -20 -5 -21 -12 -38 -17 -38 -5 0 -9
-27 -9 -60 0 -33 4 -60 10 -60 6 0 10 -6 10 -13 0 -16 82 -97 98 -97 7 0 12
-4 12 -8 0 -5 30 -9 68 -9 37 -1 69 -2 71 -2 8 -2 -77 -81 -87 -81 -6 0 -15
-6 -19 -13 -12 -20 -78 -57 -102 -57 -11 0 -21 -4 -21 -8 0 -5 -6 -9 -12 -10
-7 -1 -37 -4 -65 -8 l-53 -7 38 -20 c20 -11 39 -22 42 -26 3 -3 15 -12 28 -18
12 -7 30 -18 41 -25 15 -9 27 -8 57 7 37 17 114 87 114 104 0 4 11 18 25 31
14 13 25 18 25 11 0 -20 -22 -105 -31 -116 -4 -5 -10 -27 -14 -47 -4 -21 -11
-38 -15 -38 -4 0 -13 -29 -20 -65 -7 -36 -16 -65 -20 -65 -5 0 -11 -18 -15
-40 -4 -22 -11 -40 -16 -40 -6 0 -9 -23 -7 -52 l3 -53 95 -47 c52 -26 86 -48
75 -48 -27 -1 -55 -23 -55 -44 0 -9 -7 -16 -15 -16 -9 0 -15 -9 -15 -24 0 -14
-4 -27 -9 -30 -4 -3 -14 -62 -21 -131 -7 -69 -16 -125 -21 -125 -4 0 -11 -36
-15 -80 -3 -44 -10 -80 -14 -80 -4 0 -11 -41 -15 -92 -4 -50 -10 -98 -15 -107
-11 -22 -30 -164 -30 -225 0 -38 5 -56 22 -74 22 -22 23 -31 21 -154 -1 -75
-7 -136 -13 -142 -5 -5 -10 -53 -10 -106 0 -107 11 -130 63 -130 26 0 67 40
67 66 0 8 5 14 10 14 13 0 14 177 1 184 -5 3 -12 37 -16 76 -4 38 -11 70 -16
70 -5 0 -9 5 -9 10 0 17 18 11 25 -7 3 -10 20 -29 36 -42 l30 -24 30 28 c16
16 32 38 35 49 18 57 82 85 106 46 15 -24 50 -26 72 -5 8 8 23 15 33 15 10 0
32 9 48 20 38 25 71 26 84 2 6 -12 8 -93 4 -215 -5 -172 -4 -199 10 -221 10
-14 17 -32 17 -39 0 -16 32 -47 48 -47 7 0 22 10 34 22 21 21 23 32 23 149 0
90 -4 130 -13 142 -19 23 -21 173 -2 214 l14 31 23 -24 c12 -13 31 -24 43 -24
21 0 60 33 60 51 0 7 10 5 25 -5 32 -21 41 -20 67 4 12 11 30 20 40 20 17 0
18 12 18 165 0 139 2 165 15 165 16 0 40 -50 51 -105 3 -19 10 -35 14 -35 4 0
11 -15 14 -33 7 -36 87 -123 119 -129 17 -3 19 -17 20 -175 l2 -172 30 -31
c37 -38 69 -37 73 2 2 16 8 28 13 28 5 0 9 66 9 155 0 133 2 155 15 155 9 0
18 -7 21 -15 4 -8 13 -15 20 -15 16 0 72 37 89 58 8 9 30 12 70 10 l60 -3 3
33 c2 17 7 32 11 32 15 0 21 -42 21 -141 0 -80 3 -99 18 -112 25 -23 81 -22
88 1 3 9 10 25 15 34 12 24 12 88 -1 88 -5 0 -10 6 -10 14 0 10 20 16 68 21
37 4 72 10 77 15 6 4 29 10 53 13 35 4 46 1 63 -16 17 -19 31 -22 95 -22 50 0
74 -4 74 -12 0 -6 -5 -13 -11 -15 -6 -2 -13 -32 -16 -66 -5 -55 -3 -65 15 -82
12 -11 27 -20 35 -20 22 0 47 35 54 74 3 20 10 36 14 36 5 0 9 17 9 38 0 52
10 82 27 82 12 0 13 -15 7 -88 -3 -48 -10 -91 -15 -96 -12 -13 -12 -146 0
-146 5 0 12 -28 15 -63 6 -52 13 -70 40 -100 18 -20 38 -37 44 -37 20 0 52 39
59 70 3 17 9 30 14 30 5 0 9 87 9 194 0 181 1 195 21 220 19 24 25 26 70 20
46 -6 51 -5 56 15 3 11 9 21 14 21 5 0 9 14 9 30 0 19 6 33 16 37 9 3 27 16
40 28 20 19 24 32 24 81 0 47 7 73 35 129 19 39 35 75 35 82 0 6 3 13 8 15 4
2 21 30 38 63 23 46 31 75 33 125 l2 65 -136 135 c-74 74 -135 138 -135 142 0
5 20 8 45 8 l45 0 0 70 c0 40 4 70 10 70 6 0 10 31 10 72 0 68 -2 74 -32 105
-33 34 -33 34 -33 138 l0 104 30 3 c24 2 31 8 33 31 2 15 9 27 16 27 9 0 16
22 21 68 4 37 10 72 14 77 3 6 7 30 7 55 1 40 -3 50 -39 88 l-41 42 -83 0
c-67 0 -83 3 -83 15 0 12 -20 15 -112 16 -62 1 -160 5 -218 10 -58 5 -132 10
-165 12 l-60 3 -80 -80 -80 -79 -5 79 c-5 87 -13 99 -84 143 -32 20 -47 23
-94 18 -50 -4 -117 -29 -132 -49 -3 -3 -18 -10 -33 -13 -15 -4 -27 -11 -27
-16 0 -5 -3 -8 -7 -7 -5 1 -21 -4 -37 -11 l-29 -12 7 -80 7 -81 -27 21 c-15
12 -33 21 -40 21 -8 0 -14 4 -14 9 0 5 -13 12 -30 16 -16 4 -30 10 -30 14 0 4
-18 14 -40 21 -22 7 -40 17 -40 22 0 4 -7 8 -15 8 -21 0 -19 27 3 39 14 8 17
24 17 87 0 53 -4 79 -12 82 -7 2 -13 9 -13 16 0 15 -42 56 -57 56 -6 0 -13 6
-16 13 -5 15 -154 17 -165 2 -10 -14 -71 -45 -88 -45 -8 0 -14 4 -14 10 0 5
-16 12 -35 16 -19 3 -35 10 -35 15 0 12 -147 11 -155 -1 -11 -17 -40 -11 -50
11 -6 12 -14 21 -19 19 -5 -1 -13 5 -18 14 -5 9 -16 16 -23 16 -8 0 -15 5 -15
10 0 6 -28 10 -65 10 -36 0 -65 -4 -65 -9z m125 -41 c33 -13 55 -34 55 -54 0
-14 17 -15 117 -13 86 1 117 -1 120 -10 3 -7 10 -13 16 -13 7 0 25 -7 40 -15
30 -16 52 -10 76 19 7 9 28 18 47 22 19 3 34 10 34 14 0 4 17 7 38 6 25 -1 36
-5 34 -14 -1 -8 2 -11 7 -8 18 12 60 -13 77 -45 22 -44 13 -89 -28 -131 -32
-31 -88 -50 -88 -29 0 5 -13 12 -30 16 -16 4 -30 10 -30 15 0 5 -15 12 -32 15
-18 4 -39 12 -45 17 -7 6 -19 8 -27 5 -8 -3 -16 -1 -19 6 -3 9 -60 13 -199 17
-108 3 -194 2 -191 -2 2 -5 -6 -8 -19 -8 -13 0 -36 -7 -52 -15 -16 -9 -31 -13
-34 -11 -2 3 -12 -4 -22 -16 l-17 -22 -17 27 c-10 14 -15 30 -12 36 3 5 -1 11
-9 15 -9 3 -15 19 -15 40 0 26 4 34 14 30 8 -3 17 0 22 7 5 8 3 10 -6 4 -10
-6 -11 -2 -6 20 8 30 32 54 54 55 6 0 12 5 12 11 0 6 9 9 20 6 11 -3 18 -1 14
4 -7 12 68 11 101 -1z m362 -236 c7 -7 13 -20 13 -28 0 -22 -37 -20 -49 2 -8
14 -13 15 -30 5 -12 -7 -25 -13 -31 -13 -17 0 -11 38 8 49 20 12 70 4 89 -15z
m853 -42 c0 -37 4 -72 9 -77 5 -6 11 -47 14 -92 l5 -82 -118 4 c-64 3 -122 5
-129 5 -15 0 -14 53 2 69 10 10 9 11 -5 6 -16 -6 -18 -1 -18 38 0 26 -5 47
-12 49 -27 9 6 38 95 82 52 25 102 46 111 46 9 0 16 5 16 10 0 6 7 10 15 10
12 0 15 -14 15 -68z m-1117 37 c14 -19 16 -19 25 -3 12 22 42 11 42 -15 0 -23
-30 -35 -76 -29 -25 2 -29 8 -32 36 -4 38 18 44 41 11z m-194 -26 c6 -10 11
-12 11 -5 0 6 7 12 15 12 16 0 20 -28 7 -45 -4 -5 -18 -16 -31 -23 -20 -12
-26 -11 -39 1 -13 13 -13 20 -2 46 14 35 25 39 39 14z m541 -43 c0 -11 7 -20
15 -20 8 0 15 -7 15 -15 0 -13 -7 -15 -37 -9 -21 4 -46 11 -55 16 -27 13 -22
31 7 26 13 -3 24 -2 23 1 -1 15 3 21 17 21 8 0 15 -9 15 -20z m1145 -44 c14
-30 25 -62 25 -70 0 -9 5 -16 10 -16 6 0 10 -12 10 -26 0 -14 4 -23 10 -19 6
3 10 44 10 91 l0 84 74 0 c44 0 76 -4 78 -11 2 -7 47 -10 125 -10 99 0 122 -3
127 -15 4 -10 17 -15 38 -14 18 1 48 2 66 1 l33 -1 -7 -52 c-4 -29 -11 -58
-16 -64 -4 -6 -6 -18 -2 -27 3 -8 1 -18 -5 -22 -6 -3 -11 -15 -11 -27 0 -18
-4 -20 -37 -15 -21 4 -69 9 -106 13 -37 4 -70 11 -73 15 -3 5 -16 9 -30 9 -23
0 -24 -2 -24 -75 l0 -74 108 -4 107 -3 -108 -2 c-101 -2 -109 -1 -114 18 -4
14 -15 20 -37 22 l-31 1 33 4 c40 5 42 23 3 23 -17 0 -33 5 -36 11 -8 12 -205
10 -205 -3 0 -4 -6 -8 -13 -8 -7 0 -29 -9 -50 -19 -20 -10 -37 -15 -37 -11 0
4 8 11 17 14 15 6 15 8 3 16 -11 7 -3 10 28 10 23 0 42 5 42 11 0 7 -40 10
-125 7 -69 -2 -121 -1 -115 0 26 9 5 19 -32 15 -42 -4 -42 -4 -24 16 10 11 24
17 30 14 23 -15 19 -15 346 -32 91 -5 173 -12 184 -17 14 -5 17 -3 14 7 -3 8
-15 13 -27 11 -12 -2 -28 1 -34 6 -7 6 -110 13 -229 17 -120 4 -218 12 -218
16 0 5 -8 9 -17 9 -12 0 5 23 52 69 38 38 73 67 78 64 4 -2 6 0 5 4 -3 8 70
93 79 93 2 0 14 -24 28 -54z m-1521 6 c-6 -4 -15 -23 -19 -42 -4 -19 -12 -41
-17 -47 -6 -7 -8 -22 -5 -33 5 -19 0 -20 -83 -20 -49 0 -91 4 -95 9 -3 5 -16
8 -29 5 -20 -3 -23 -1 -19 17 4 15 8 17 14 8 10 -17 199 -27 199 -10 0 7 -28
11 -81 11 -59 0 -84 4 -96 15 -14 14 -14 18 1 34 9 10 35 24 59 31 23 8 47 18
54 23 7 5 22 8 35 6 13 -1 34 3 48 8 27 12 55 -1 34 -15z m226 1 c23 -9 32
-12 83 -24 26 -6 47 -14 47 -19 0 -4 9 -10 21 -13 16 -4 19 -10 14 -28 -4 -13
-13 -28 -19 -34 -15 -15 -156 -20 -156 -6 0 6 -22 11 -52 11 -46 1 -51 2 -35
14 24 19 21 36 -13 78 l-30 36 63 -5 c34 -2 69 -7 77 -10z m324 5 c-4 -7 -3
-8 5 -4 6 4 24 -2 40 -13 16 -12 39 -21 50 -21 12 0 21 -4 21 -9 0 -5 14 -12
30 -16 17 -4 30 -10 30 -14 0 -5 14 -12 70 -33 13 -5 26 -23 27 -39 2 -16 -5
-17 -55 -14 -31 3 -117 8 -189 11 -73 4 -133 11 -133 15 0 5 4 9 9 9 5 0 12
14 16 30 4 17 11 30 16 30 5 0 8 3 7 8 -3 14 21 60 34 65 22 9 29 8 22 -5z
m-971 -132 c6 -16 -11 -36 -30 -36 -16 0 -17 22 -1 38 16 16 25 15 31 -2z
m467 -8 c0 -10 2 -10 8 0 5 7 15 10 23 8 8 -3 48 -7 89 -10 117 -7 190 -18
190 -27 0 -13 -138 -11 -146 2 -3 6 -22 9 -40 7 -20 -2 -34 0 -34 7 0 5 -4 4
-9 -4 -5 -8 -16 -11 -25 -8 -8 3 -18 2 -21 -3 -4 -6 22 -11 62 -12 66 -2 67
-2 13 -5 -30 -2 -73 0 -95 6 -33 7 -35 9 -12 10 32 1 37 20 5 20 -85 2 -84 2
-63 11 30 13 55 12 55 -2z m-310 -31 c-8 -7 -16 -19 -18 -27 -8 -34 -21 -44
-15 -10 3 19 13 40 22 47 21 15 31 5 11 -10z m40 19 c0 -3 -4 -8 -10 -11 -5
-3 -10 -1 -10 4 0 6 5 11 10 11 6 0 10 -2 10 -4z m999 -28 c32 -2 56 -8 59
-15 3 -10 -20 -13 -91 -13 -62 0 -97 4 -99 11 -3 8 -36 11 -103 10 -103 -2
-137 -10 -95 -22 25 -7 25 -7 2 -8 -13 -1 -32 -11 -43 -23 -12 -16 -10 -7 8
27 l26 50 141 -7 c78 -4 165 -8 195 -10z m-816 5 c-35 -2 -91 -2 -125 0 -35 2
-7 3 62 3 69 0 97 -1 63 -3z m372 -25 c3 -2 -21 -5 -53 -5 -41 -1 -49 1 -27 6
34 7 72 7 80 -1z m818 -8 c18 0 27 -5 27 -15 0 -11 -11 -15 -39 -15 -22 0 -43
5 -46 10 -3 6 -40 10 -81 10 -45 0 -74 4 -74 11 0 5 5 7 10 4 6 -3 10 -2 10 2
0 5 37 5 83 0 45 -4 94 -8 110 -7z m-328 -21 c12 -5 -23 -8 -97 -7 -65 1 -118
6 -118 10 0 4 -28 9 -62 11 -35 2 9 2 97 0 87 -3 168 -9 180 -14z m196 -17
c-41 -2 -78 1 -82 5 -4 4 29 6 74 3 l82 -5 -74 -3z m-1311 -6 c0 -2 -8 -10
-17 -17 -16 -13 -17 -12 -4 4 13 16 21 21 21 13z m893 -16 c-5 -19 -23 -39
-23 -25 0 9 20 45 24 45 2 0 2 -9 -1 -20z m540 13 c-7 -2 -21 -2 -30 0 -10 3
-4 5 12 5 17 0 24 -2 18 -5z m-752 -36 c-12 -31 -55 -98 -47 -72 13 40 41 94
48 95 4 0 4 -10 -1 -23z m1016 16 c-20 -2 -52 -2 -70 0 -17 2 0 4 38 4 39 0
53 -2 32 -4z m-444 -23 c3 -11 1 -18 -4 -14 -5 3 -9 12 -9 20 0 20 7 17 13 -6z
m625 13 c-15 -4 -18 -16 -18 -69 0 -35 -3 -64 -7 -64 -5 0 -7 31 -5 70 3 65 5
70 25 69 17 -1 18 -2 5 -6z m110 0 c-15 -2 -42 -2 -60 0 -18 2 -6 4 27 4 33 0
48 -2 33 -4z m-2126 -15 c6 -17 -1 -38 -13 -38 -5 0 -9 11 -9 25 0 26 14 34
22 13z m110 -18 c-2 -16 -8 -30 -13 -30 -5 0 -6 7 -4 15 3 8 7 22 10 30 8 25
12 17 7 -15z m894 -25 c-12 -38 -27 -49 -19 -12 5 19 21 47 28 47 1 0 -3 -16
-9 -35z m824 10 c0 -8 -9 -15 -19 -15 -11 0 -27 -7 -36 -16 -17 -17 -29 -16
-17 1 5 8 54 38 70 44 1 1 2 -6 2 -14z m-420 -45 c4 -3 10 -45 13 -95 4 -64 3
-77 -3 -45 -5 25 -9 64 -9 87 -1 23 -5 45 -11 48 -5 3 -9 18 -9 33 l2 27 4
-25 c3 -14 8 -27 13 -30z m-1317 -7 c-7 -2 -13 -12 -13 -21 0 -9 -5 -24 -10
-32 -8 -11 -9 -7 -4 15 9 39 13 45 27 44 9 0 9 -2 0 -6z m887 -40 c-11 -17
-11 -17 -6 0 3 10 6 24 7 30 0 9 2 9 5 0 3 -7 0 -20 -6 -30z m-1110 2 c0 -16
-27 -32 -37 -22 -3 4 -3 13 0 22 8 20 37 20 37 0z m504 6 c3 -4 -6 -6 -19 -3
-14 2 -25 6 -25 8 0 8 39 4 44 -5z m106 -46 c14 -15 12 -15 -15 -1 -16 9 -38
16 -47 16 -10 0 -18 4 -18 9 0 14 61 -5 80 -24z m-160 5 c-6 -11 -12 -20 -14
-20 -2 0 -2 9 1 20 3 11 9 20 15 20 5 0 4 -9 -2 -20z m-281 -64 c-9 -8 -10 -7
-5 7 3 10 7 26 7 35 1 9 4 6 6 -7 3 -13 -1 -28 -8 -35z m252 -1 c-16 -35 -35
-49 -24 -17 5 15 32 52 38 52 1 0 -5 -16 -14 -35z m-259 -37 c-7 -7 -12 -8
-12 -2 0 14 12 26 19 19 2 -3 -1 -11 -7 -17z m-19 -43 c-3 -9 -8 -14 -10 -11
-3 3 -2 9 2 15 9 16 15 13 8 -4z m1450 -69 c8 -51 -3 -39 -13 14 -4 23 -4 38
0 33 4 -4 10 -25 13 -47z m-1461 22 c-7 -7 -12 -8 -12 -2 0 14 12 26 19 19 2
-3 -1 -11 -7 -17z m-9 -35 c-7 -2 -13 -13 -13 -24 0 -10 -4 -19 -9 -19 -4 0
-6 11 -3 25 2 15 11 25 21 24 10 0 11 -2 4 -6z m1157 -79 c0 -15 6 -24 15 -24
10 0 15 -10 15 -33 0 -60 17 -71 100 -65 40 3 75 10 79 15 16 27 110 26 111 0
1 -7 14 -23 30 -37 17 -13 30 -28 30 -32 0 -4 -60 -8 -134 -8 l-133 0 -7 -37
c-3 -21 -6 -57 -6 -80 0 -23 -4 -45 -10 -48 -5 -3 -10 -30 -10 -58 0 -49 -1
-51 -13 -27 -21 40 -42 75 -47 80 -8 8 -29 43 -43 70 -17 36 -50 84 -62 92
-13 9 -9 108 5 122 5 5 10 31 10 57 0 42 3 48 23 51 29 5 47 -9 47 -38z m317
4 c-3 -8 -6 -5 -6 6 -1 11 2 17 5 13 3 -3 4 -12 1 -19z m-1502 -7 c-3 -6 -11
-11 -16 -11 -5 0 -4 6 3 14 14 16 24 13 13 -3z m1527 -31 c3 -16 1 -30 -4 -30
-4 0 -8 14 -8 30 0 17 2 30 4 30 2 0 6 -13 8 -30z m391 -41 c15 -11 27 -24 27
-29 0 -5 -34 -14 -75 -21 -41 -7 -75 -17 -75 -21 0 -4 -9 -8 -20 -8 -13 0 -20
-7 -20 -20 0 -11 -7 -20 -15 -20 -11 0 -15 -11 -15 -39 0 -22 -4 -43 -10 -46
-5 -3 -10 -25 -10 -48 l0 -41 -27 54 c-16 30 -31 57 -34 60 -4 3 -10 16 -14
30 -4 14 -13 28 -19 32 -6 4 5 8 25 8 25 0 44 8 60 24 14 13 43 27 67 31 26 4
42 12 42 21 0 8 10 14 25 14 22 0 25 4 25 37 0 35 1 36 18 20 9 -10 29 -27 45
-38z m-1034 3 c3 -5 21 -13 39 -17 17 -3 32 -10 32 -15 0 -5 8 -10 18 -12 9
-2 -25 -8 -75 -12 -51 -4 -95 -12 -98 -17 -6 -9 -85 -13 -85 -4 0 3 19 26 43
50 38 41 46 44 81 41 21 -3 42 -9 45 -14z m1141 -65 c0 -7 9 -23 21 -35 l20
-23 -28 6 c-21 5 -24 4 -13 -4 8 -6 10 -11 4 -11 -6 0 -9 -12 -6 -29 2 -16 -3
-44 -12 -62 -8 -19 -17 -69 -20 -112 -2 -43 -10 -84 -16 -92 -9 -10 -9 -23 -2
-43 7 -20 6 -35 -4 -54 -7 -14 -16 -69 -18 -122 -3 -53 -9 -104 -14 -113 -5
-10 -13 -34 -17 -53 -5 -19 -10 -29 -13 -22 -3 10 -8 8 -19 -5 -11 -13 -13
-14 -10 -3 3 11 -14 7 -62 -17 -36 -18 -66 -38 -66 -45 0 -6 -7 -13 -15 -15
-13 -4 -13 -3 0 6 9 7 10 11 3 11 -6 0 -15 -5 -18 -10 -4 -6 -11 -8 -16 -5 -5
4 -6 -2 -2 -12 6 -16 5 -17 -12 -3 -15 12 -17 12 -10 1 6 -11 4 -13 -9 -8 -10
4 -21 7 -26 7 -5 0 -11 14 -15 30 -4 17 -11 30 -16 30 -5 0 -8 3 -8 8 2 12
-25 72 -33 72 -4 0 -10 15 -13 34 -4 19 -15 43 -25 54 -10 11 -16 23 -13 26 4
3 2 6 -4 6 -10 0 -27 36 -24 53 1 5 -3 6 -9 2 -5 -3 -10 2 -10 12 0 11 -7 28
-15 39 -13 18 -14 16 -11 -23 2 -23 -2 -53 -9 -67 -7 -14 -9 -26 -4 -28 5 -2
5 -16 0 -36 -6 -20 -6 -30 0 -27 5 4 9 4 9 1 0 -2 3 -11 6 -19 4 -10 -1 -15
-13 -14 -14 2 -19 -7 -21 -41 -2 -23 -7 -40 -12 -37 -5 3 -11 1 -15 -4 -3 -6
-12 -8 -20 -4 -10 3 -15 -1 -15 -16 0 -15 -4 -19 -17 -14 -11 4 -14 3 -9 -5 4
-7 2 -12 -3 -12 -6 0 -11 5 -11 11 0 5 -5 7 -10 4 -6 -4 -8 -11 -5 -16 4 -5
-1 -9 -10 -9 -9 0 -13 5 -10 10 3 6 2 10 -4 10 -5 0 -13 -4 -16 -10 -11 -18
-32 13 -27 39 5 23 3 25 -11 12 -21 -17 -22 -8 -1 13 14 15 14 16 0 16 -9 0
-16 -5 -16 -11 0 -5 -4 -8 -9 -5 -14 9 -42 -30 -35 -50 5 -15 4 -16 -5 -4 -8
12 -15 10 -44 -18 -32 -31 -35 -32 -51 -17 -9 9 -16 27 -16 41 0 13 -4 24 -9
24 -5 0 -12 18 -16 40 -4 22 -10 42 -15 45 -4 3 -11 21 -14 40 -4 19 -10 35
-14 35 -4 0 -13 9 -20 21 -10 15 -10 19 -1 14 8 -5 10 -4 5 3 -4 7 -14 12 -22
12 -8 0 -12 5 -9 10 3 6 1 10 -4 10 -6 0 -11 -4 -11 -9 0 -5 -9 -11 -21 -14
-13 -4 -18 -10 -13 -18 4 -8 3 -10 -5 -5 -6 4 -8 12 -5 18 4 6 1 9 -7 6 -11
-4 -15 -37 -17 -150 -2 -116 -5 -147 -17 -152 -8 -3 -17 -1 -20 4 -4 6 -20 10
-36 10 -17 0 -28 4 -25 8 3 5 -8 8 -24 7 -17 -1 -28 0 -25 3 2 3 -3 11 -13 18
-13 9 -19 9 -24 1 -5 -8 -8 -6 -8 6 0 9 -4 17 -10 17 -12 0 -34 -40 -26 -48 3
-3 6 1 6 8 0 7 3 11 6 8 8 -9 -26 -58 -40 -58 -6 0 -4 5 4 10 28 18 -9 10 -44
-9 -23 -13 -36 -16 -38 -9 -3 8 -9 8 -24 0 -12 -7 -14 -11 -5 -12 8 0 12 -2
10 -4 -3 -3 -21 -1 -42 4 -20 4 -39 4 -42 0 -3 -5 -13 -6 -24 -3 -10 3 -32 -2
-47 -9 -16 -8 -41 -13 -56 -12 -15 2 -30 -2 -33 -7 -4 -5 -11 -7 -16 -3 -6 3
-18 3 -27 -1 -9 -4 -26 -9 -37 -11 -11 -2 -33 -6 -50 -9 -16 -3 -48 -8 -70 -9
-22 -2 -42 -5 -45 -6 -3 -1 -9 -2 -14 -1 -5 1 -6 -5 -3 -12 4 -11 0 -13 -15
-9 -15 4 -17 7 -6 14 9 6 6 7 -9 3 -12 -3 -24 -1 -28 5 -8 13 14 210 26 225 4
6 10 51 14 100 4 50 11 95 15 100 4 6 11 42 15 80 4 39 11 75 16 80 4 6 8 20
8 30 0 45 23 201 31 217 6 10 10 27 10 38 0 11 7 20 15 20 8 0 15 8 15 18 0
25 31 41 95 48 30 4 55 11 55 15 0 15 105 10 126 -6 12 -9 14 -14 6 -15 -7 0
-10 -5 -6 -12 4 -6 -2 -18 -12 -26 -18 -13 -18 -14 6 -8 24 7 24 6 6 -8 -10
-8 -18 -27 -18 -41 0 -14 -4 -28 -9 -31 -18 -10 -9 -22 13 -17 21 4 21 3 5 -7
-9 -6 -15 -16 -11 -21 3 -5 0 -8 -7 -7 -12 3 -20 -29 -33 -132 -2 -14 -7 -38
-11 -54 -6 -23 -5 -27 5 -21 15 9 6 -9 -17 -36 -8 -10 -12 -31 -10 -52 3 -22
0 -34 -6 -30 -6 3 -8 -10 -6 -34 4 -33 1 -40 -11 -35 -12 4 -13 2 -3 -8 10
-11 19 -11 53 3 22 8 38 12 36 9 -2 -4 18 -5 45 -4 34 3 49 8 49 18 0 10 12
14 39 14 21 0 52 3 69 6 30 6 32 9 38 65 4 33 10 59 15 59 4 0 11 41 15 90 4
61 11 90 19 90 12 0 25 70 25 138 0 17 5 32 10 32 6 0 10 9 10 20 0 15 7 20
25 20 16 0 25 6 25 15 0 11 12 15 48 15 26 0 52 4 57 9 6 5 46 13 91 16 l81 7
12 -31 c8 -17 18 -28 24 -24 6 4 8 0 4 -10 -3 -9 -2 -27 3 -39 5 -13 9 -17 9
-10 1 6 6 12 12 12 5 0 7 -4 4 -10 -3 -5 -2 -10 4 -10 5 0 12 8 14 18 3 9 4 5
4 -9 -1 -21 -5 -25 -22 -22 -12 3 -16 1 -9 -4 6 -4 15 -21 21 -37 5 -17 15
-31 21 -32 7 -1 8 0 2 3 -5 2 -10 9 -10 15 0 7 5 7 13 -1 8 -6 16 -9 19 -6 2
3 5 -2 5 -10 0 -8 -4 -12 -8 -9 -4 2 -10 0 -13 -4 -3 -5 7 -19 21 -32 17 -15
23 -25 15 -28 -9 -3 -7 -12 5 -35 10 -18 22 -35 27 -38 5 -4 5 -13 2 -20 -4
-8 2 -3 13 10 25 28 27 20 5 -14 -15 -24 -15 -25 7 -34 13 -5 17 -10 9 -10
-10 -1 -4 -10 15 -26 17 -13 24 -24 18 -25 -15 0 -18 -20 -4 -20 5 0 14 13 19
29 12 33 -4 84 -23 77 -6 -2 -11 8 -12 23 -1 14 1 19 4 11 3 -8 12 -19 19 -23
8 -4 14 -15 14 -24 0 -12 3 -14 10 -7 6 6 13 47 17 93 3 45 10 84 15 87 4 3 8
24 8 47 0 23 3 59 6 80 l7 37 102 0 c84 0 102 -3 102 -15 0 -8 -4 -15 -9 -15
-5 0 -6 -5 -3 -10 4 -6 9 -8 13 -6 4 2 16 -2 27 -10 16 -12 17 -16 5 -27 -10
-10 -11 -9 -5 3 6 11 5 12 -4 4 -15 -14 5 -64 26 -64 9 0 11 5 7 13 -4 6 -4 9
1 5 4 -4 17 -2 29 4 20 10 20 10 -1 -11 -25 -24 -32 -49 -10 -35 7 5 4 1 -6
-8 -17 -16 -17 -18 -3 -18 10 0 14 -4 11 -10 -3 -5 2 -10 12 -11 10 0 13 -3 6
-6 -7 -2 -13 -10 -13 -15 0 -6 3 -8 7 -5 7 8 33 -11 33 -24 0 -5 -8 -6 -17 -3
-11 4 -14 3 -7 -3 6 -4 14 -18 18 -30 4 -13 12 -23 17 -23 5 0 9 -7 9 -16 0
-9 6 -14 13 -11 6 2 12 11 12 20 0 8 4 19 8 23 4 4 2 13 -5 21 -6 7 -8 16 -4
20 3 3 6 1 6 -6 0 -7 4 -10 9 -7 5 4 12 44 16 91 4 47 11 88 16 91 5 3 9 23 9
45 0 28 4 39 15 39 8 0 15 9 15 20 0 13 7 20 20 20 11 0 20 4 20 9 0 4 34 14
75 20 41 7 75 17 75 22 0 5 11 9 25 9 14 0 25 -6 25 -13z m606 -167 c164 -164
164 -165 164 -210 0 -25 -7 -55 -15 -66 -8 -12 -11 -24 -8 -28 3 -3 2 -6 -4
-6 -10 0 -26 -36 -24 -52 1 -5 -3 -8 -8 -8 -5 0 -12 -13 -16 -30 -4 -16 -11
-30 -15 -30 -5 0 -15 -18 -21 -40 -7 -22 -15 -40 -19 -40 -5 0 -11 -12 -15
-27 -3 -15 -10 -30 -13 -33 -4 -3 -16 -22 -26 -42 -11 -21 -22 -38 -26 -38
-10 0 -42 50 -33 50 5 0 2 4 -5 9 -14 8 -105 -8 -118 -22 -4 -4 -17 -7 -29 -7
-12 0 -25 -3 -29 -7 -4 -5 -20 -8 -34 -8 -15 0 -26 -5 -25 -11 1 -7 -6 -10
-17 -7 -11 3 -28 2 -37 -2 -10 -5 -22 -7 -28 -6 -5 1 -1 -6 9 -14 21 -16 10
-21 -14 -5 -9 6 -17 5 -22 -3 -6 -9 -8 -9 -8 1 0 9 -7 8 -25 -4 -14 -9 -25
-13 -25 -9 0 4 -7 2 -15 -5 -8 -6 -18 -9 -24 -6 -11 7 -43 -3 -37 -13 2 -3
-16 -7 -41 -8 -34 -1 -45 2 -49 15 -3 9 -9 24 -14 34 -6 11 -5 18 5 22 13 5
15 60 3 111 -3 11 -3 14 -1 8 3 -7 8 -13 12 -13 4 0 8 6 8 13 0 6 4 32 8 57 5
25 9 69 10 99 0 30 5 56 11 58 5 2 7 28 6 59 -2 31 1 61 6 66 7 7 7 19 1 35
-6 16 -5 22 1 18 5 -3 10 4 9 17 0 41 13 133 22 150 5 9 9 28 9 41 0 22 4 24
46 25 26 0 49 5 53 10 3 5 30 13 58 17 29 4 55 11 58 15 3 5 33 12 66 16 32 4
62 11 65 16 15 24 59 -10 210 -162z m-486 130 c0 -5 -4 -10 -10 -10 -5 0 -10
5 -10 10 0 6 5 10 10 10 6 0 10 -4 10 -10z m-1500 -30 c0 -11 -4 -20 -10 -20
-5 0 -10 -15 -10 -32 0 -68 -13 -138 -25 -138 -8 0 -15 -29 -19 -90 -4 -49
-11 -92 -16 -95 -4 -2 -11 -29 -14 -59 -7 -50 -9 -54 -38 -60 -17 -3 -46 -6
-64 -6 -32 0 -34 2 -34 35 0 19 4 35 9 35 4 0 14 41 20 90 7 50 17 90 21 90 5
0 12 29 15 65 4 36 11 65 16 65 5 0 9 20 9 45 0 37 -5 51 -26 70 l-27 25 97 0
c89 0 96 -1 96 -20z m-224 -22 c3 -4 -1 -5 -10 -4 -8 1 -18 5 -22 8 -3 4 1 5
10 4 8 -1 18 -5 22 -8z m1184 -32 c0 -3 -4 -8 -10 -11 -5 -3 -10 -1 -10 4 0 6
5 11 10 11 6 0 10 -2 10 -4z m-1188 -13 c-6 -2 -10 -8 -8 -12 3 -4 -1 -8 -9
-8 -11 0 -12 4 -4 14 6 7 17 13 23 12 7 0 6 -2 -2 -6z m24 -38 c-10 -8 -15
-19 -10 -26 4 -8 3 -10 -4 -5 -18 11 -14 34 6 39 28 7 28 7 8 -8z m-26 -51 c0
-8 -19 -13 -24 -6 -3 5 1 9 9 9 8 0 15 -2 15 -3z m-2 -38 c-7 -8 -15 -12 -17
-11 -5 6 10 25 20 25 5 0 4 -6 -3 -14z m1251 0 c9 -11 8 -15 -4 -20 -10 -4
-14 -2 -9 5 4 6 0 15 -7 20 -8 5 -9 9 -3 9 6 0 17 -6 23 -14z m-1244 -36 c3
-5 1 -10 -4 -10 -6 0 -11 5 -11 10 0 6 2 10 4 10 3 0 8 -4 11 -10z m1575 -84
c0 -3 -4 -8 -10 -11 -5 -3 -10 -1 -10 4 0 6 5 11 10 11 6 0 10 -2 10 -4z
m-1640 -30 c0 -2 -7 -9 -15 -16 -13 -11 -14 -10 -9 4 5 14 24 23 24 12z m3
-37 c-6 -6 -9 -18 -6 -27 4 -10 2 -13 -5 -8 -15 9 -15 5 -2 -28 5 -14 7 -26 5
-26 -3 0 -10 11 -15 25 -11 29 3 75 22 75 9 0 9 -3 1 -11z m28 -12 c-6 -8 -7
-18 -3 -22 4 -5 2 -5 -5 -1 -14 8 -6 36 9 36 7 0 6 -5 -1 -13z m1626 -9 c-3
-8 -6 -5 -6 6 -1 11 2 17 5 13 3 -3 4 -12 1 -19z m-36 -40 c-4 -35 -6 -38 -9
-15 -3 26 3 57 10 57 2 0 1 -19 -1 -42z m-7 -82 c-3 -15 -8 -25 -11 -23 -2 3
-1 17 3 31 3 15 8 25 11 23 2 -3 1 -17 -3 -31z m-501 9 c-3 -9 -8 -14 -10 -11
-3 3 -2 9 2 15 9 16 15 13 8 -4z m24 -17 c-3 -8 -6 -5 -6 6 -1 11 2 17 5 13 3
-3 4 -12 1 -19z m513 12 c0 -5 -5 -10 -11 -10 -5 0 -7 5 -4 10 3 6 8 10 11 10
2 0 4 -4 4 -10z m-524 -52 c5 -7 3 -8 -6 -3 -10 6 -12 1 -7 -26 5 -29 4 -31
-5 -12 -15 32 1 69 18 41z m18 -34 c3 -8 2 -12 -4 -9 -6 3 -10 10 -10 16 0 14
7 11 14 -7z m-613 -37 c-10 -9 -11 -8 -5 6 3 10 9 15 12 12 3 -3 0 -11 -7 -18z
m1067 -22 c-3 -3 -9 2 -12 12 -6 14 -5 15 5 6 7 -7 10 -15 7 -18z m559 -41
c-3 -3 -12 -4 -19 -1 -8 3 -5 6 6 6 11 1 17 -2 13 -5z m-936 -61 c2 -36 3 -41
13 -50 5 -5 6 -3 2 5 -4 6 -2 12 3 12 6 0 11 -6 11 -14 0 -8 3 -16 8 -18 4 -1
18 -24 32 -50 24 -47 26 -48 75 -50 l50 -2 -47 -3 c-47 -4 -48 -5 -48 -39 0
-18 5 -34 10 -34 6 0 10 -13 10 -30 0 -16 -4 -30 -10 -30 -5 0 -10 -9 -10 -21
0 -15 -5 -20 -22 -17 -22 3 -23 7 -26 116 -2 88 -6 117 -20 132 -29 35 -72 19
-72 -27 0 -14 -6 -23 -15 -23 -8 0 -15 8 -15 17 0 13 -3 14 -12 5 -7 -7 -22
-12 -35 -12 -13 0 -26 -7 -29 -15 -5 -12 -10 -13 -20 -4 -11 9 -14 8 -14 -4 0
-9 -9 -22 -21 -30 -18 -13 -24 -13 -50 1 -39 23 -37 50 4 43 11 -2 8 6 -9 23
-11 12 -12 16 -2 16 21 0 41 -17 34 -28 -7 -11 21 -25 35 -16 5 3 6 11 2 17
-4 7 0 6 10 -2 17 -13 18 -13 21 11 0 7 10 14 21 16 11 2 34 10 50 17 26 12
31 20 33 52 2 21 7 40 12 41 6 2 10 16 10 30 1 26 1 26 15 8 8 -11 16 -30 16
-43z m-387 22 c-4 -8 -11 -12 -16 -9 -6 4 -5 10 3 15 19 12 19 11 13 -6z
m1216 5 c-8 -5 -19 -10 -25 -10 -5 0 -3 5 5 10 8 5 20 10 25 10 6 0 3 -5 -5
-10z m246 -26 c-4 -14 -9 -24 -12 -21 -3 2 -2 17 2 31 3 15 9 25 11 22 3 -3 2
-17 -1 -32z m-826 22 c0 -3 -4 -8 -10 -11 -5 -3 -10 -1 -10 4 0 6 5 11 10 11
6 0 10 -2 10 -4z m-632 -57 c-6 -4 -8 -11 -5 -16 3 -5 -3 -17 -13 -26 -11 -9
-22 -12 -25 -7 -3 5 4 12 16 15 17 6 19 9 8 17 -10 7 -11 11 -2 14 7 3 9 13 6
22 -6 14 -5 15 9 2 10 -9 12 -17 6 -21z m1306 11 c7 -7 3 -10 -13 -10 -18 0
-61 -27 -49 -31 18 -8 45 -4 42 5 -3 7 4 12 15 12 11 0 17 -4 14 -9 -3 -5 0
-7 8 -5 8 3 13 12 11 19 -3 11 -1 11 9 2 7 -7 17 -9 23 -4 6 4 25 11 41 14 28
6 28 6 7 -5 -12 -6 -25 -23 -28 -37 -12 -57 -22 -66 -72 -66 -37 0 -52 -5 -72
-25 -25 -25 -25 -26 -28 -232 -2 -122 -7 -208 -13 -208 -5 0 -9 -8 -9 -17 0
-18 -28 -53 -42 -53 -4 0 -8 6 -8 14 0 8 -6 16 -14 19 -12 5 -25 58 -29 115 0
12 -5 22 -9 22 -12 0 -10 138 2 145 6 4 10 28 10 53 -1 26 2 66 6 90 7 47 -6
72 -39 72 -36 0 -54 -34 -61 -117 -3 -43 -11 -79 -16 -81 -6 -2 -10 -10 -10
-19 0 -8 -7 -13 -17 -11 -25 4 -31 82 -9 104 17 17 22 59 8 68 -5 3 -8 18 -6
33 1 15 3 39 4 53 1 23 2 23 10 5 8 -18 9 -19 9 -1 1 12 6 16 15 13 10 -4 13
-1 9 9 -3 8 -11 13 -18 10 -17 -6 -28 21 -13 30 7 4 8 3 4 -4 -4 -7 -1 -13 8
-13 9 -1 21 -3 26 -4 6 -1 15 -3 21 -4 8 -1 8 -6 -1 -16 -8 -10 -9 -15 -2 -15
6 0 9 -8 6 -17 -4 -13 -3 -15 4 -5 13 20 63 22 89 5 21 -14 23 -14 23 1 0 9
-4 16 -9 16 -15 0 -20 38 -5 44 8 3 13 10 12 15 -2 5 6 16 17 25 23 16 121 14
139 -4z m-1346 -15 c-3 -3 -9 2 -12 12 -6 14 -5 15 5 6 7 -7 10 -15 7 -18z
m809 3 c-3 -8 -6 -5 -6 6 -1 11 2 17 5 13 3 -3 4 -12 1 -19z m-840 -3 c0 -8
-4 -12 -9 -9 -4 3 -8 0 -8 -7 0 -7 -3 -9 -6 -6 -4 4 -1 13 6 22 15 19 17 19
17 0z m650 -30 c-8 -9 -14 -10 -19 -2 -9 16 0 27 17 21 11 -5 12 -9 2 -19z
m143 21 c0 -2 -8 -10 -17 -17 -16 -13 -17 -12 -4 4 13 16 21 21 21 13z m-40
-21 c0 -2 -6 -5 -13 -8 -8 -3 -14 1 -14 8 0 7 6 11 14 8 7 -3 13 -6 13 -8z
m-1167 -2 c-7 -2 -21 -2 -30 0 -10 3 -4 5 12 5 17 0 24 -2 18 -5z m67 -2 c-23
-6 -22 -8 23 -33 26 -15 49 -23 52 -18 3 5 0 10 -7 12 -7 3 -3 7 9 10 17 5 20
2 16 -11 -3 -9 -9 -20 -13 -26 -4 -5 -6 -18 -5 -28 4 -23 -22 -34 -46 -19 -27
17 -47 15 -54 -7 -3 -11 -12 -25 -21 -32 -12 -10 -19 -8 -37 8 -12 11 -32 26
-44 32 -26 13 -24 45 3 48 18 3 18 2 0 -5 -20 -9 -20 -9 0 -14 20 -5 44 12 44
32 0 5 12 11 28 11 24 1 23 2 -8 9 -30 6 -32 8 -15 14 11 4 29 11 40 16 11 5
29 9 40 8 16 0 15 -1 -5 -7z m82 -13 c-7 -7 -12 -8 -12 -2 0 14 12 26 19 19 2
-3 -1 -11 -7 -17z m1198 11 c0 -5 6 -7 13 -4 6 4 4 0 -5 -8 -14 -11 -15 -16
-5 -27 10 -12 9 -12 -5 -1 -10 7 -14 19 -11 28 5 13 2 15 -11 10 -10 -4 -15
-3 -11 3 8 13 35 13 35 -1z m-914 -25 c19 -17 22 -22 8 -16 -20 10 -52 42 -42
42 3 0 18 -12 34 -26z m61 13 c0 -8 -6 -14 -14 -14 -9 0 -10 4 -2 14 6 7 12
13 14 13 1 0 2 -6 2 -13z m493 3 c0 -5 -2 -10 -4 -10 -3 0 -8 5 -11 10 -3 6
-1 10 4 10 6 0 11 -4 11 -10z m-406 -25 c-5 -18 -3 -24 7 -22 8 2 11 2 7 0 -4
-3 -10 -4 -13 -3 -3 0 -12 -6 -20 -14 -12 -12 -15 -49 -15 -185 0 -107 -4
-171 -10 -171 -5 0 -10 -10 -10 -22 l0 -22 -22 24 c-20 21 -23 36 -26 149 -2
69 1 146 7 170 5 25 7 50 3 55 -8 14 -12 40 -5 32 8 -7 34 14 29 23 -2 3 14 7
35 9 38 2 39 1 33 -23z m66 15 c0 -5 -4 -10 -10 -10 -5 0 -10 5 -10 10 0 6 5
10 10 10 6 0 10 -4 10 -10z m-760 -15 c-10 -11 -10 -19 -2 -27 6 -6 8 -17 5
-26 -4 -9 -2 -13 4 -9 7 4 6 -19 -3 -66 -16 -81 -18 -137 -6 -137 5 0 14 -56
21 -125 12 -120 9 -206 -9 -234 -9 -16 -30 -6 -30 14 0 7 -6 15 -12 18 -10 3
-13 58 -13 231 l0 228 -28 24 c-28 24 -28 26 -13 49 9 14 13 25 9 25 -5 0 -1
5 7 10 8 5 16 14 16 20 1 5 2 12 3 15 0 3 15 5 32 5 27 0 30 -2 19 -15z m1398
-22 c29 -33 37 -37 77 -36 34 1 43 -1 38 -13 -6 -15 -83 -20 -83 -5 0 5 -11
12 -24 15 -14 3 -26 16 -30 31 -7 28 -36 34 -56 10 -7 -9 -29 -15 -51 -15 -22
0 -39 -4 -39 -10 0 -5 -11 -10 -25 -10 -46 0 -26 17 35 30 33 7 60 16 60 21 0
7 18 13 55 18 5 0 24 -16 43 -36z m-1098 -14 c0 -5 -7 -9 -15 -9 -9 0 -12 6
-9 15 6 15 24 11 24 -6z m-620 -14 c0 -8 -4 -15 -10 -15 -5 0 -10 7 -10 15 0
8 5 15 10 15 6 0 10 -7 10 -15z m-72 -20 c3 -3 -2 -19 -11 -34 -9 -16 -17 -36
-17 -45 0 -9 -6 -19 -14 -22 -8 -3 -17 -17 -21 -31 -13 -53 -60 -72 -71 -29
-3 14 -7 42 -8 64 -1 22 -8 47 -15 56 -12 14 -10 16 12 16 13 0 30 7 37 15 7
9 19 14 26 11 7 -3 16 -1 18 3 6 9 54 6 64 -4z m-151 -11 c-3 -3 -12 -4 -19
-1 -8 3 -5 6 6 6 11 1 17 -2 13 -5z m-27 -18 c0 -2 -7 -7 -16 -10 -8 -3 -12
-2 -9 4 6 10 25 14 25 6z m408 -3 c-10 -2 -18 -8 -18 -13 0 -4 -13 -10 -30
-12 -16 -3 -30 -3 -30 -2 0 1 -3 9 -6 18 -5 13 2 16 47 15 30 -1 46 -3 37 -6z
m-100 -16 c9 -10 6 -17 -8 -29 -17 -15 -20 -15 -36 3 -9 10 -29 20 -43 21 -16
0 -8 4 19 8 25 4 48 8 51 8 4 1 11 -4 17 -11z m-348 -32 c0 -5 -5 -3 -10 5 -5
8 -10 20 -10 25 0 6 5 3 10 -5 5 -8 10 -19 10 -25z m23 -153 c7 -39 16 -74 20
-78 11 -11 8 -162 -3 -169 -5 -3 -10 -15 -10 -25 0 -10 -10 -26 -21 -34 -37
-26 -49 -1 -49 103 0 49 5 93 10 96 6 3 10 28 10 54 0 74 12 143 22 133 5 -5
15 -41 21 -80z"/>
<path d="M987 3332 c-21 -23 -24 -112 -4 -112 7 0 28 11 47 25 19 14 38 25 42
25 5 0 19 9 31 20 33 31 13 54 -50 58 -38 2 -53 -1 -66 -16z"/>
<path d="M1576 3307 c3 -10 9 -15 12 -12 3 3 0 11 -7 18 -10 9 -11 8 -5 -6z"/>
<path d="M1608 3283 c-22 -6 -25 -53 -3 -53 14 0 20 -12 16 -33 -1 -5 3 -6 9
-2 6 3 8 11 5 16 -4 5 -1 9 4 9 6 0 11 -4 11 -10 0 -5 6 -10 14 -10 8 0 24 -9
37 -19 34 -28 59 -12 59 38 0 52 -23 71 -86 70 -27 -1 -57 -3 -66 -6z"/>
<path d="M2255 2020 c-3 -5 -1 -10 4 -10 6 0 11 5 11 10 0 6 -2 10 -4 10 -3 0
-8 -4 -11 -10z"/>
<path d="M1579 1883 c-13 -3 -16 -19 -16 -83 1 -44 4 -80 9 -80 4 0 5 8 2 18
-4 13 -2 12 7 -3 17 -28 31 -36 45 -25 6 6 14 6 19 2 12 -11 -4 80 -21 112 -7
16 -14 37 -14 48 0 18 -2 19 -31 11z"/>
<path d="M3057 1863 c-13 -12 -8 -35 6 -27 8 5 8 3 -2 -9 -17 -22 -22 -80 -7
-90 6 -5 0 -5 -13 -2 -20 6 -23 4 -17 -10 3 -9 3 -22 -1 -28 -13 -21 -10 -47
6 -48 12 0 11 -2 -3 -8 -11 -4 -15 -10 -10 -14 16 -9 54 4 54 18 0 7 3 15 8
17 9 4 62 110 62 126 0 6 5 12 10 12 6 0 10 16 10 35 l0 35 -48 0 c-27 0 -52
-3 -55 -7z m40 -9 c-3 -3 -12 -4 -19 -1 -8 3 -5 6 6 6 11 1 17 -2 13 -5z m-18
-61 c0 -5 -4 -17 -9 -28 -8 -17 -8 -16 -7 8 1 15 5 27 9 27 4 0 8 -3 7 -7z"/>
<path d="M3100 1290 c-8 -5 -10 -10 -5 -10 6 0 17 5 25 10 8 5 11 10 5 10 -5
0 -17 -5 -25 -10z"/>
<path d="M3248 1249 c-10 -5 -18 -14 -18 -19 0 -17 15 -11 28 10 14 23 13 23
-10 9z"/>
<path d="M3052 1175 c3 -5 11 -25 18 -42 8 -18 18 -33 23 -33 4 0 5 5 2 10 -3
6 -1 10 4 10 6 0 11 7 11 15 0 8 5 15 10 15 6 0 10 7 10 15 0 13 -4 13 -26 -2
-25 -16 -27 -16 -41 3 -9 10 -13 15 -11 9z"/>
<path d="M3067 1053 c-19 -24 -16 -60 3 -48 15 9 12 27 -2 19 -7 -4 -3 4 10
18 13 14 20 28 15 31 -4 3 -16 -6 -26 -20z"/>
<path d="M3060 866 c5 -13 6 -27 3 -30 -8 -8 1 -8 21 0 9 3 16 16 16 28 0 16
-7 22 -25 24 -22 2 -23 -1 -15 -22z"/>
<path d="M1443 1148 c-2 -16 1 -18 10 -9 7 7 8 14 1 21 -6 6 -10 2 -11 -12z"/>
<path d="M1288 1093 c7 -3 16 -2 19 1 4 3 -2 6 -13 5 -11 0 -14 -3 -6 -6z"/>
<path d="M826 1007 c3 -10 9 -15 12 -12 3 3 0 11 -7 18 -10 9 -11 8 -5 -6z"/>
<path d="M700 790 c0 -5 5 -10 11 -10 5 0 7 5 4 10 -3 6 -8 10 -11 10 -2 0 -4
-4 -4 -10z"/>
<path d="M690 671 c0 -5 5 -13 10 -16 6 -3 10 -2 10 4 0 5 -4 13 -10 16 -5 3
-10 2 -10 -4z"/>
</g>
</svg>
