<svg xmlns="http://www.w3.org/2000/svg" fill="none" viewBox="0 0 128 128"><g clip-path="url(#a)"><mask id="b" width="128" height="128" x="0" y="0" maskUnits="userSpaceOnUse" style="mask-type:alpha"><circle cx="64" cy="64" r="64" fill="#d9d9d9"/></mask><g mask="url(#b)"><path fill="url(#c)" d="M96 0H32C14.327 0 0 14.327 0 32v64c0 17.673 14.327 32 32 32h64c17.673 0 32-14.327 32-32V32c0-17.673-14.327-32-32-32"/><path fill="url(#d)" d="M96 0H32C14.327 0 0 14.327 0 32v64c0 17.673 14.327 32 32 32h64c17.673 0 32-14.327 32-32V32c0-17.673-14.327-32-32-32"/><mask id="f" width="80" height="80" x="24" y="24" maskUnits="userSpaceOnUse" style="mask-type:luminance"><path fill="#fff" d="M24 24h80v80H24z"/></mask><g filter="url(#e)" mask="url(#f)"><path fill="#fff" d="M41.168 43.584c-1.642 0-3.12-1.51-3.12-3.18 0-3.85 9.526-6.702 20.368-6.702.982 0 1.638 0 1.638-.832 0-1.507-3.283-2.006-3.283-4.518 0-2.678 3.12-4.352 7.063-4.352s7.068 1.674 7.068 4.352c0 2.512-3.286 2.845-3.286 4.518 0 .503.493.836 1.638.836 10.839 0 20.535 2.678 20.535 6.697a3.147 3.147 0 0 1-3.123 3.178zm49.107 15.222c3.943 2.512 5.421 7.03 4.768 11.216L90.442 95.29c-.99 5.03-5.261 8.707-10.356 8.707H47.904c-5.088 0-9.36-3.68-10.346-8.704l-4.601-25.27a11.04 11.04 0 0 1 4.934-11.05c2.301-1.67 2.784-4.515 0-5.52-3.945-1.504-3.126-6.359.816-6.359h23.978c3.776 0 8.38 2.842 8.38 12.048 0 9.207-4.275 8.368-4.275 14.893 0 2.848 2.301 5.863 5.088 6.199 4.768.499 7.559-1.341 7.559-8.032 0-6.868-3.94-10.045-3.94-15.735 0-6.864 4.266-9.542 7.06-9.542h6.902c3.936 0 4.768 4.854.82 6.361-2.791 1.168-2.305 4.016-.004 5.52"/><path fill="#fff" d="M41.168 43.584c-1.642 0-3.12-1.51-3.12-3.18 0-3.85 9.526-6.702 20.368-6.702.982 0 1.638 0 1.638-.832 0-1.507-3.283-2.006-3.283-4.518 0-2.678 3.12-4.352 7.063-4.352s7.068 1.674 7.068 4.352c0 2.512-3.286 2.845-3.286 4.518 0 .503.493.836 1.638.836 10.839 0 20.535 2.678 20.535 6.697a3.147 3.147 0 0 1-3.123 3.178zm49.107 15.222c3.943 2.512 5.421 7.03 4.768 11.216L90.442 95.29c-.99 5.03-5.261 8.707-10.356 8.707H47.904c-5.088 0-9.36-3.68-10.346-8.704l-4.601-25.27a11.04 11.04 0 0 1 4.934-11.05c2.301-1.67 2.784-4.515 0-5.52-3.945-1.504-3.126-6.359.816-6.359h23.978c3.776 0 8.38 2.842 8.38 12.048 0 9.207-4.275 8.368-4.275 14.893 0 2.848 2.301 5.863 5.088 6.199 4.768.499 7.559-1.341 7.559-8.032 0-6.868-3.94-10.045-3.94-15.735 0-6.864 4.266-9.542 7.06-9.542h6.902c3.936 0 4.768 4.854.82 6.361-2.791 1.168-2.305 4.016-.004 5.52"/><path stroke="#000" stroke-width=".3" d="M82.554 47.408h6.899c1.744 0 2.723 1.05 2.893 2.205.16 1.088-.384 2.374-1.92 3.094l-.32.135-.016.006c-1.552.65-2.279 1.824-2.202 3.104.074 1.235.883 2.448 2.125 3.26 3.753 2.391 5.184 6.705 4.553 10.737L89.968 95.2c-.944 4.816-5.027 8.32-9.882 8.32H47.904c-4.845 0-8.928-3.504-9.875-8.31L33.43 69.94a10.56 10.56 0 0 1 4.09-10.122l.63-.436.023-.016c1.229-.896 2.035-2.144 2.105-3.372a2.72 2.72 0 0 0-.496-1.767 3.5 3.5 0 0 0-1.721-1.216c-1.783-.681-2.413-2.073-2.247-3.232.17-1.152 1.146-2.201 2.893-2.201h23.978c1.766 0 3.721.662 5.245 2.406 1.523 1.75 2.656 4.637 2.656 9.162 0 2.265-.263 3.89-.647 5.152-.384 1.26-.896 2.188-1.42 3.052-.519.855-1.089 1.696-1.505 2.72-.428 1.047-.704 2.282-.704 3.968 0 1.55.624 3.12 1.607 4.343.979 1.222 2.358 2.144 3.904 2.333h.01c2.438.256 4.502-.07 5.948-1.45 1.434-1.37 2.141-3.667 2.141-7.06 0-3.535-1.024-6.12-2.01-8.495-.992-2.378-1.932-4.509-1.932-7.239 0-6.633 4.08-9.062 6.576-9.062ZM63.834 24.48c1.913 0 3.59.406 4.768 1.104s1.82 1.645 1.82 2.768c0 .998-.633 1.584-1.45 2.189-.383.281-.84.592-1.183.931-.352.352-.653.8-.653 1.395 0 .448.237.81.64 1.03.368.202.874.289 1.478.289 5.386 0 10.47.668 14.19 1.82 1.862.576 3.353 1.268 4.367 2.039 1.021.768 1.495 1.568 1.495 2.358v.007a2.67 2.67 0 0 1-2.647 2.688H41.12c-1.347-.03-2.592-1.296-2.592-2.695 0-.745.46-1.52 1.469-2.288 1.001-.761 2.473-1.462 4.317-2.048 3.676-1.177 8.716-1.881 14.102-1.881q.365.003.7-.016.334-.011.65-.119a1.12 1.12 0 0 0 .57-.435 1.3 1.3 0 0 0 .198-.749c0-.566-.316-.998-.659-1.331-.336-.32-.79-.64-1.171-.928-.816-.624-1.453-1.248-1.453-2.256 0-1.12.647-2.074 1.818-2.768 1.18-.698 2.851-1.104 4.765-1.104Z"/></g></g></g><defs><radialGradient id="c" cx="0" cy="0" r="1" gradientTransform="rotate(48.888 -17.44 50.4)scale(116.8)" gradientUnits="userSpaceOnUse"><stop stop-color="#8a7beb"/><stop offset="1" stop-color="#7464e5"/></radialGradient><radialGradient id="d" cx="0" cy="0" r="1" gradientTransform="rotate(90 0 64)scale(64)" gradientUnits="userSpaceOnUse"><stop stop-color="#c7c2eb"/><stop offset="1" stop-color="#7464e5"/></radialGradient><clipPath id="a"><path fill="#fff" d="M0 0h128v128H0z"/></clipPath><filter id="e" width="70.376" height="87.997" x="28.816" y="18" color-interpolation-filters="sRGB" filterUnits="userSpaceOnUse"><feFlood flood-opacity="0" result="BackgroundImageFix"/><feColorMatrix in="SourceAlpha" result="hardAlpha" values="0 0 0 0 0 0 0 0 0 0 0 0 0 0 0 0 0 0 127 0"/><feOffset dy="-2"/><feGaussianBlur stdDeviation="2"/><feComposite in2="hardAlpha" operator="out"/><feColorMatrix values="0 0 0 0 0.454902 0 0 0 0 0.392157 0 0 0 0 0.898039 0 0 0 0.75 0"/><feBlend in2="BackgroundImageFix" result="effect1_dropShadow_2016_93"/><feBlend in="SourceGraphic" in2="effect1_dropShadow_2016_93" result="shape"/><feColorMatrix in="SourceAlpha" result="hardAlpha" values="0 0 0 0 0 0 0 0 0 0 0 0 0 0 0 0 0 0 127 0"/><feOffset dy=".5"/><feGaussianBlur stdDeviation=".5"/><feComposite in2="hardAlpha" k2="-1" k3="1" operator="arithmetic"/><feColorMatrix values="0 0 0 0 0 0 0 0 0 0 0 0 0 0 0 0 0 0 0.45 0"/><feBlend in2="shape" result="effect2_innerShadow_2016_93"/></filter></defs></svg>
