<svg width="40" height="40" viewBox="0 0 40 40" fill="none" xmlns="http://www.w3.org/2000/svg" class="h-xl w-xl"><rect width="40" height="40" rx="10" fill="url(#paint0_radial_184_10379)"></rect><rect width="40" height="40" rx="10" fill="url(#paint1_radial_184_10379)"></rect><g clip-path="url(#clip0_184_10379)"><g filter="url(#filter0_dd_184_10379)"><path d="M12.8649 13.6198C12.3524 13.6198 11.8899 13.1479 11.8899 12.626C11.8899 11.4229 14.867 10.5323 18.2545 10.5323C18.5618 10.5323 18.767 10.5323 18.767 10.2719C18.767 9.80104 17.741 9.64479 17.741 8.86042C17.741 8.02292 18.716 7.5 19.9482 7.5C21.1805 7.5 22.1566 8.02292 22.1566 8.86042C22.1566 9.64479 21.1295 9.74896 21.1295 10.2719C21.1295 10.4292 21.2837 10.5333 21.642 10.5333C25.0295 10.5333 28.0587 11.3698 28.0587 12.626C28.0599 12.7554 28.0356 12.8836 27.9872 13.0035C27.9388 13.1235 27.8672 13.2326 27.7766 13.3249C27.6859 13.4171 27.5779 13.4905 27.4589 13.5409C27.3398 13.5913 27.2119 13.6178 27.0826 13.6187H12.866L12.8649 13.6198ZM28.2107 18.3781C29.443 19.1625 29.9045 20.575 29.7003 21.8833L28.2628 29.7792C27.9545 31.351 26.6191 32.5 25.0274 32.5H14.9691C13.3795 32.5 12.0441 31.35 11.7357 29.7802L10.2982 21.8833C10.1909 21.2201 10.2795 20.54 10.5534 19.9266C10.8273 19.3131 11.2745 18.793 11.8399 18.4302C12.5587 17.9083 12.7107 17.0187 11.8399 16.7052C10.6066 16.2344 10.8628 14.7177 12.0951 14.7177H19.5878C20.768 14.7177 22.2066 15.6062 22.2066 18.4833C22.2066 21.3604 20.8712 21.0979 20.8712 23.1375C20.8712 24.0271 21.5899 24.9688 22.4618 25.074C23.9514 25.2302 24.8232 24.6552 24.8232 22.5635C24.8232 20.4177 23.592 19.425 23.592 17.6469C23.592 15.5021 24.9253 14.6646 25.7982 14.6646H27.9545C29.1857 14.6646 29.4441 16.1823 28.2107 16.6531C27.3389 17.0177 27.492 17.9083 28.2107 18.3781Z" fill="white"></path><path d="M12.8649 13.6198C12.3524 13.6198 11.8899 13.1479 11.8899 12.626C11.8899 11.4229 14.867 10.5323 18.2545 10.5323C18.5618 10.5323 18.767 10.5323 18.767 10.2719C18.767 9.80104 17.741 9.64479 17.741 8.86042C17.741 8.02292 18.716 7.5 19.9482 7.5C21.1805 7.5 22.1566 8.02292 22.1566 8.86042C22.1566 9.64479 21.1295 9.74896 21.1295 10.2719C21.1295 10.4292 21.2837 10.5333 21.642 10.5333C25.0295 10.5333 28.0587 11.3698 28.0587 12.626C28.0599 12.7554 28.0356 12.8836 27.9872 13.0035C27.9388 13.1235 27.8672 13.2326 27.7766 13.3249C27.6859 13.4171 27.5779 13.4905 27.4589 13.5409C27.3398 13.5913 27.2119 13.6178 27.0826 13.6187H12.866L12.8649 13.6198ZM28.2107 18.3781C29.443 19.1625 29.9045 20.575 29.7003 21.8833L28.2628 29.7792C27.9545 31.351 26.6191 32.5 25.0274 32.5H14.9691C13.3795 32.5 12.0441 31.35 11.7357 29.7802L10.2982 21.8833C10.1909 21.2201 10.2795 20.54 10.5534 19.9266C10.8273 19.3131 11.2745 18.793 11.8399 18.4302C12.5587 17.9083 12.7107 17.0187 11.8399 16.7052C10.6066 16.2344 10.8628 14.7177 12.0951 14.7177H19.5878C20.768 14.7177 22.2066 15.6062 22.2066 18.4833C22.2066 21.3604 20.8712 21.0979 20.8712 23.1375C20.8712 24.0271 21.5899 24.9688 22.4618 25.074C23.9514 25.2302 24.8232 24.6552 24.8232 22.5635C24.8232 20.4177 23.592 19.425 23.592 17.6469C23.592 15.5021 24.9253 14.6646 25.7982 14.6646H27.9545C29.1857 14.6646 29.4441 16.1823 28.2107 16.6531C27.3389 17.0177 27.492 17.9083 28.2107 18.3781Z" fill="white"></path><path d="M25.7979 14.8145H27.9541C28.4989 14.8145 28.8053 15.1429 28.8584 15.5039C28.9082 15.8432 28.7386 16.2463 28.2578 16.4707L28.1572 16.5127L28.1533 16.5146C27.6681 16.7175 27.4414 17.0851 27.4648 17.4854C27.4876 17.8713 27.7408 18.2502 28.1289 18.5039L28.1299 18.5049C29.3025 19.2513 29.7482 20.5987 29.5518 21.8594L28.1152 29.75C27.82 31.2551 26.5437 32.3496 25.0273 32.3496H14.9688C13.4552 32.3495 12.1786 31.2551 11.8828 29.7529H11.8838L10.4463 21.8564C10.3443 21.223 10.4289 20.5732 10.6904 19.9873C10.9197 19.474 11.2759 19.029 11.7236 18.6934L11.9209 18.5566L11.9277 18.5518C12.3118 18.2729 12.5636 17.8824 12.5859 17.498C12.5972 17.3036 12.5492 17.1121 12.4307 16.9463C12.3129 16.7816 12.1319 16.652 11.8926 16.5654H11.8936C11.3358 16.3525 11.1387 15.9182 11.1914 15.5566C11.244 15.1961 11.5495 14.8683 12.0947 14.8682H19.5879C20.14 14.8682 20.7513 15.075 21.2266 15.6201C21.7029 16.1665 22.0566 17.0687 22.0566 18.4834C22.0566 19.1908 21.9746 19.6987 21.8545 20.0938C21.7346 20.4882 21.5753 20.777 21.4111 21.0469C21.2486 21.3142 21.0714 21.5761 20.9404 21.8975C20.8074 22.2239 20.7207 22.6099 20.7207 23.1377C20.7208 23.6211 20.9157 24.1116 21.2227 24.4941C21.5294 24.8763 21.9598 25.1641 22.4434 25.2227H22.4463C23.2077 25.3025 23.8532 25.2012 24.3047 24.7705C24.7535 24.3422 24.9736 23.6235 24.9736 22.5635C24.9736 21.4591 24.6548 20.6508 24.3457 19.9092C24.0358 19.1655 23.7422 18.5003 23.7422 17.6465C23.7423 15.5742 25.0183 14.8147 25.7979 14.8145ZM19.9482 7.65039C20.5456 7.65039 21.0697 7.77699 21.4385 7.99512C21.805 8.21193 22.0068 8.50939 22.0068 8.86035C22.0068 9.17247 21.8094 9.35532 21.5537 9.54395C21.4338 9.63241 21.291 9.72934 21.1846 9.83496C21.0738 9.9449 20.9796 10.0851 20.9795 10.2715C20.9795 10.411 21.0539 10.5238 21.1797 10.5928C21.2952 10.6561 21.4525 10.6836 21.6416 10.6836C23.3251 10.6836 24.9138 10.8915 26.0762 11.252C26.658 11.4324 27.1239 11.6484 27.4414 11.8887C27.7598 12.1297 27.9082 12.3785 27.9082 12.626V12.6279C27.9092 12.7374 27.8886 12.8458 27.8477 12.9473C27.8067 13.0488 27.7467 13.1416 27.6699 13.2197C27.5931 13.2978 27.5012 13.3596 27.4004 13.4023C27.2995 13.4451 27.1906 13.4679 27.0811 13.4688H12.8496C12.4285 13.4593 12.04 13.0625 12.04 12.626C12.0401 12.3926 12.1843 12.1507 12.499 11.9111C12.8121 11.6729 13.2721 11.4544 13.8477 11.2705C14.997 10.9034 16.5724 10.6826 18.2549 10.6826C18.3301 10.6826 18.4055 10.6822 18.4736 10.6777C18.5412 10.6733 18.6123 10.664 18.6768 10.6406C18.7439 10.6163 18.8095 10.5749 18.8555 10.5049C18.9004 10.4364 18.917 10.3555 18.917 10.2715C18.9168 10.0937 18.8182 9.95929 18.7109 9.85547C18.6063 9.75422 18.4637 9.65535 18.3447 9.56445C18.0904 9.37017 17.8906 9.17454 17.8906 8.86035C17.8906 8.50926 18.0927 8.21191 18.459 7.99512C18.8275 7.77705 19.3509 7.65039 19.9482 7.65039Z" stroke="black" stroke-width="0.3"></path></g></g><defs><filter id="filter0_dd_184_10379" x="6.25391" y="1.5" width="27.4932" height="33" filterUnits="userSpaceOnUse" color-interpolation-filters="sRGB"><feFlood flood-opacity="0" result="BackgroundImageFix"></feFlood><feColorMatrix in="SourceAlpha" type="matrix" values="0 0 0 0 0 0 0 0 0 0 0 0 0 0 0 0 0 0 127 0" result="hardAlpha"></feColorMatrix><feOffset dy="0.5"></feOffset><feGaussianBlur stdDeviation="0.5"></feGaussianBlur><feComposite in2="hardAlpha" operator="out"></feComposite><feColorMatrix type="matrix" values="0 0 0 0 0 0 0 0 0 0 0 0 0 0 0 0 0 0 0.45 0"></feColorMatrix><feBlend mode="normal" in2="BackgroundImageFix" result="effect1_dropShadow_184_10379"></feBlend><feColorMatrix in="SourceAlpha" type="matrix" values="0 0 0 0 0 0 0 0 0 0 0 0 0 0 0 0 0 0 127 0" result="hardAlpha"></feColorMatrix><feOffset dy="-2"></feOffset><feGaussianBlur stdDeviation="2"></feGaussianBlur><feComposite in2="hardAlpha" operator="out"></feComposite><feColorMatrix type="matrix" values="0 0 0 0 0.454902 0 0 0 0 0.392157 0 0 0 0 0.898039 0 0 0 0.75 0"></feColorMatrix><feBlend mode="normal" in2="effect1_dropShadow_184_10379" result="effect2_dropShadow_184_10379"></feBlend><feBlend mode="normal" in="SourceGraphic" in2="effect2_dropShadow_184_10379" result="shape"></feBlend></filter><radialGradient id="paint0_radial_184_10379" cx="0" cy="0" r="1" gradientUnits="userSpaceOnUse" gradientTransform="translate(10 9.5) rotate(48.8879) scale(36.5)"><stop stop-color="#8A7BEB"></stop><stop offset="1" stop-color="#7464E5"></stop></radialGradient><radialGradient id="paint1_radial_184_10379" cx="0" cy="0" r="1" gradientUnits="userSpaceOnUse" gradientTransform="translate(20 20) rotate(90) scale(20)"><stop stop-color="#C7C2EB"></stop><stop offset="1" stop-color="#7464E5"></stop></radialGradient><clipPath id="clip0_184_10379"><rect width="25" height="25" fill="white" transform="translate(7.5 7.5)"></rect></clipPath></defs></svg>
