<svg xmlns="http://www.w3.org/2000/svg" fill="none" viewBox="0 0 134 118"><g clip-path="url(#a)"><path fill="url(#b)" fill-rule="evenodd" d="M133.4 92.5c-.6-13-11.3-23.3-24.4-23.3-2.7 0-5.4.5-7.9 1.3l-.1.1a20.2 20.2 0 0 0-4.7 2.2l-5-15.1c1.2-4.1 2.2-8.4 2-11.8v-.8c-.6-8.4-3.1-15.9-3.2-16.3a.66.66 0 0 0-.3-.3l-16.1-12-28.1-7.8 2.7-4.2.1-.2c.1-.3.7-1.9.1-2.9q-.3-.6-.9-.7C46.4.4 32.4.8 25.5 2c-2 .4-3.1.7-3.7 1.2-2.9 2-7.7 6.8-7.9 7l-.2.3 1.9 4.9 1.7-.3-1.4 3.7-6.1 5.7 3.3 5v.1l.9 1.3 15.4 2.7 8 10.2c-1.8.8-4.4 1.8-5.6 1.8h-.1q-.3 0-.5.1l-9 6.1 4.9 7h.3c.3.1 3.3.5 6.7.8l4.4 5.7-3.1 5.5c-3.2-1.5-6.7-2.3-10.3-2.3-4.8 0-9.2 1.3-12.9 3.7q-.1 0-.2.1C5.2 76.6.7 84.2.7 92.9c0 8.9 4.7 16.7 11.9 20.9q.1.1.1.2c3.7 2.1 7.9 3.3 12.4 3.3 13.4 0 24.4-10.9 24.4-24.4 0-7.3-3.3-13.9-8.4-18.4l2.1-2.8 16.5 17.1-7.3 4.5 15.2 1.6-6.7 8.2 14.7-.4q1.1.4 2.4.4 1.4 0 2.7-.6l5.6-.1c1.6 4.1 4.3 7.7 7.7 10.4l.1.1h.1c4.1 3.2 9.2 5.1 14.8 5.1 13.5 0 24.4-10.9 24.4-24.4zm-24.4-22c12.2 0 22.2 9.4 23.1 21.4h-17c-1-2.5-3.4-4.2-6.2-4.2q-.6 0-1.1.1L102 71.5c2.2-.7 4.6-1 7-1m5.4 23.9c0 3-2.5 5.5-5.5 5.5s-5.5-2.5-5.5-5.5c0-2.5 1.7-4.7 4.1-5.3q.4-.1.8-.1.3-.1.6-.1c3 0 5.5 2.5 5.5 5.5M85.6 69.6l-23.1-4 29.6-18.9c-.1 7.8-5.5 20.4-6.5 22.9M56.1 56.5l8-16.6 27 5.9L61 65.1zm3.8 9.3-7.2 5.6-6.8-6.9 13.4.2zM39.3 21 56 23.9l-7.7 7.8zm8.2 11.7L39 42.4l.2-19.6zm9.5-8.1 6 14.6-7.5 15.6L49 32.9zm15.6 56.6 13-9.9 1.7 3.6-6.8 13.4h-2.6c-2.3 0-4.3 1-5.6 2.6zm-.5-1.2-10-13.1 22.2 3.9zm19.7-35.2-27.7-6.2-5.9-14.3 30.6 5.3c.5 1.6 2.5 8 3 15.2M73 17.7 86.8 28l-29.2-5.1-.7-.1-18.2-3.2 6.1-9.8zM47.1 2c.1 0 .1 0 .1.1.2.3 0 1.2-.2 1.8l-2.9 4.5L28 2.9c7.3-.8 18.3-1.1 19.1-.9m-31 12-1.2-3.1c1.1-1.1 5-5 7.4-6.7.2-.1.9-.5 3-.9L42 9l-24.1 4.7h-.1zm3.2 16.6-4.8-.8v-.1l4.8-.8zm0-3-5.3.8v-6.3l2.6-2.4 2.7 4.7zm-.2-6.2 1.9-2.3c1.6.1 4.8-2.6 4.8-2.6l-5.3.3-2 3.7-1.3-2.3 1.3-3.4L43.1 10l-5.8 9.4-.1.1-16.9 4zm1.5 9.4v-6.1L36.2 21l-7 11.3zm9.7 2.2 7.4-11.8.1.1-.2 20.9zM38 44.8q.3-.2.5-.2l.1-.1.2-.2 9.1-10.4 6.6 22.3c-1.5.6-5.8 2.3-9 2.9L32.8 46.8c1.8-.4 4.2-1.5 5.2-2M27.6 57.7l-3.9-5.5 7.6-5.1 12.6 12.2h-.8c-3.4-.2-13.6-1.4-15.5-1.6m8.1 14.8q1.8 1 3.4 2.2L28.6 88.9q-.9-.6-1.8-.9zm-5.5 21.8v.1c0 3-2.4 5.4-5.4 5.4-1 0-1.9-.3-2.7-.8-1.6-1-2.6-2.7-2.6-4.6 0-3 2.4-5.4 5.3-5.4q.5 0 .9.1c2.6.4 4.5 2.6 4.5 5.2m-5.4-24.5c3.5 0 6.8.8 9.7 2.1l-9 15.9q-.3-.1-.7-.1-1.2 0-2.3.5L13.1 73c3.4-2 7.5-3.2 11.7-3.2M1.7 93c0-8.1 4.1-15.1 10.3-19.3l9.3 15c-1.8 1.2-3.1 3.3-3.1 5.7 0 2.1 1.1 4.1 2.7 5.3l-8.3 12.9C6 108.5 1.7 101.2 1.7 93m23.1 23.1c-4 0-7.8-1-11.1-2.9l8.2-12.9c.9.5 1.9.7 2.9.7 3.5 0 6.4-2.7 6.7-6L48 93.6c-.4 12.5-10.6 22.5-23.2 22.5M48 92.4l-16.6 1.3c-.1-1.6-.8-3-1.9-4l10.6-14.1c4.7 4.1 7.7 10.1 7.9 16.8m-5.2-22.6-2.9 4a21 21 0 0 0-3.6-2.4l3.5-6.1-4.2-5.4c2.9.3 5.9.6 7.4.7.7 0 1.5 0 2.4-.2 3.5-.6 8-2.4 9.6-3l3.4 6.1-15.7-.2 9.2 9.4 6.3 13zm13.1 22.7 5.5-3.4-.4-.5-7.8-16 7.2-5.7 10.8 14.2-.4 12.1a4 4 0 0 0-.3.8l-1.8-.2zm7.5 9.4 5.5-6.7 1.4.1v.5c0 2.3 1.1 4.4 2.9 5.8zm16.8-.5q-1.2.5-2.5.5a5.6 5.6 0 0 1-2.1-.4c-2.4-.8-4-3.1-4-5.7v-.3l5.1.5h.1q.45 0 .6-.6c0-.3-.2-.6-.6-.7l-5-.5q0-.3.1-.5c.9-2.4 3.2-4.1 5.8-4.1 3.4 0 6.1 2.8 6.1 6.2 0 2.5-1.5 4.7-3.6 5.6m2.4-.1c1-.8 1.7-2 2.2-3.3a26.5 26.5 0 0 0 .8 3.3zm3-7.7q0-2.1.4-4.2l-1.3.1a45 45 0 0 0-.3 3.1c-.6-1.3-1.5-2.3-2.7-3.1h3q.1-.7.3-1.3h-3.3l6.8-13.3-2.1-4.5c.5-1.2 2.3-5.6 4-10.7L95 73.5c-5 3.4-8.6 8.6-10 14.7h1.3c1.8-7.5 7.2-13.5 14.3-16.2l5.7 15.9-20 .3q-.2.6-.3 1.2l18.4-.2c-1.5 1.2-2.5 3.1-2.5 5.2 0 2.5 1.3 4.6 3.2 5.8h-.4l-7.2.6-10.6.3c-.8-2.3-1.3-4.8-1.3-7.5m1.7 8.8 10.3-.3 5.6-.5-9.1 9.9c-2.9-2.4-5.3-5.5-6.8-9.1m21.5 14.4c-5.1 0-9.9-1.7-13.7-4.5l10-10.8 3.6-.3c3.7-.1 6.6-3.1 6.6-6.8q0-.6-.1-1.2h16.7v.4c0 12.8-10.4 23.2-23.1 23.2" clip-rule="evenodd"/></g><defs><linearGradient id="b" x1="1" x2="133" y1="71.581" y2="71.581" gradientUnits="userSpaceOnUse"><stop stop-color="#FEAFE7"/><stop offset="1" stop-color="#C100C0"/></linearGradient><clipPath id="a"><path fill="#fff" d="M0 0h134v118H0z"/></clipPath></defs></svg>
