<svg xmlns="http://www.w3.org/2000/svg" viewBox="0 0 657 128"><path fill="#000" d="M564.559 39.777c8.586-.514 17.346-.35 25.941-.078.203 9.979-.078 19.957.107 29.935 13.144.02 26.367.039 39.511-.039q1.092-.914.961-2.075c.068-9.31-.077-18.618.136-27.927 8.469-.185 16.996-.204 25.465.02.242 9.57-.146 19.17-.136 28.75-.184 16.98.223 33.969.204 50.948-1.203.194-2.406.408-3.599.631-7.383.436-14.639-.437-22.002-.485-.136-9.309.058-18.628-.058-27.927.058-1.92-1.591-2.172-3.153-2.076-10.681.03-21.362.108-32.052.02-1.824-.01-3.638.194-5.452.436.281 9.804.213 19.627.106 29.43-5.064 1.116-9.885.553-15.026.669-3.716.117-7.363-.349-11.04-.717-.087-4.063.194-8.077.543-12.121.369-17.144.272-34.27.107-51.413.107-5.43-1.077-10.531-.563-15.981m-47.001-2.017c10.923.921 21.759 3.588 31.799 8.01 1.572.717 3.134 1.444 4.706 2.152-2.174 7.157-5.084 14.139-7.47 21.237a226 226 0 0 0-6.102-3.52c-3.997-1.794-8.139-3.103-12.35-4.286-2.968-.534-5.926-1.203-8.856-1.91a118 118 0 0 0-21.013-.088c-2.959.378-4.647 1.426-6.616 3.598.03.785.059 1.57.078 2.356 3.88 3.957 9.681 4.383 14.9 4.5 11.797.048 24.961.426 36.156 4.47 6.121 2.308 11.351 6.788 12.699 13.43.902 7.855-.146 16.64-6.044 22.449-6.112 6.487-15.861 8.717-24.359 9.939-6.917.378-13.31 1.425-20.198.572-14.192-.514-28.452-3.927-41.394-9.774-.756-2.066.922-3.482 1.843-5.217 3.599-5.189 5.646-10.929 8.207-16.65 2.61.805 5.045 1.978 7.548 3.054 12.427 4.898 25.824 7.03 39.124 5.46 3.143-.485 5.054-1.28 7.47-3.375a349 349 0 0 1-.165-3.064c-1.776-1.736-3.444-3.093-5.966-3.559-8.013-1.813-16.618-.911-24.835-1.454l-.679-.495c-6.858.156-13.591-1.105-20.023-3.433-4.006-1.648-8.168-4.431-9.963-8.524-2.697-5.682-1.61-12.887.65-18.54 3.299-7.137 9.633-11.074 16.774-13.692 1.212-.465 2.434-.921 3.647-1.396 10.04-2.803 20.119-2.58 30.432-2.25m-127.627 1.978c4.26-.446 8.615-.184 12.903-.252 17.006.068 34.031-.184 51.027.155.146 7.176.242 14.371.01 21.547-6.442.184-12.864-.291-19.315-.184-.145 12.354.194 24.727-.107 37.081 1.824.437 3.464.591 5.355.33 4.666-.524 9.333-.582 14.019-.515.31 7.176.242 14.381.096 21.567-21.352.077-42.723.174-64.084-.039a466 466 0 0 1 .019-21.498c6.49-.64 12.96 1.425 19.325.232-.331-12.364-.02-24.756-.136-37.139-6.442-.087-12.864.33-19.305.194.058-7.147-.233-14.352.193-21.479m-175.636.02c8.915-.485 18.025-.369 26.949-.04.185 19.084.058 38.178.058 57.271l2.445.524c13.902-.63 27.881-.388 41.802-.893 2.774-.397 5.549-.387 8.342-.368-1.135 7.709-1.542 15.428-2.017 23.195-5.724-.165-11.37.708-17.093.524-14.552.009-29.103-.02-43.655 0-5.365.116-10.68-.66-16.055-.553l-.573 1.484c-.853-8.33.505-17.028.418-25.387.097-12.15.135-24.31-.049-36.46-.436-6.41-.718-12.878-.572-19.297m86.417.038c8.876-.6 17.946-.368 26.842-.106.184 19.16.058 38.332.068 57.493 12.126.252 24.282-.3 36.418-.33 5.413-.126 10.739.146 16.123-.678-.098 3.685-.951 7.253-1.097 10.918-.203 4.131-.261 8.243-.844 12.335-3.812.077-7.499-.039-11.292.397-5.199.611-10.282-.717-15.521-.271-7.392.717-14.882.397-22.312.397-9.468-.853-19.014-.193-28.521-.533-.165-4.683.174-9.28.601-13.944.262-17.57.262-35.113-.029-52.684-.31-4.373-.786-8.552-.436-12.994m-170.631-.484c3.152.203 6.305.184 9.468.339.311 14.74.029 29.508.136 44.247.116 2.493.417 5.1 1.222 7.467 2.358 4.44 6.898 6.506 11.709 7.079 5.588.581 11.787.485 17.093-1.533 2.823-1.211 6.189-3.413 7.14-6.496 1.717-5.819 1.125-11.22 1.203-17.203.049-11.21-.175-22.439.097-33.648 4.103-.136 8.139.029 12.223-.34 5.064-.446 9.847.282 15.008.475.107 13.11.038 26.23.038 39.35.078 6.915-.591 13.993-3.54 20.325-3.561 7.555-9.458 13.886-17.316 16.999-8.848 3.938-17.676 4.092-27.164 4.616-9.322-.553-17.917-.524-26.667-4.286-6.083-2.395-10.846-6.992-13.863-12.752-3.628-6.235-4.278-13.003-4.511-20.072.029-14.71-.145-29.43.097-44.14 5.85-.195 11.787-.951 17.627-.427M66.064 4.044C74.368.582 83.778-1.27 92.354 2.386c4.18 1.774 6.528 5.061 9.041 8.659a308 308 0 0 1 2.648 7.03c.883 5.043.931 10.337.437 15.418-1.048 5.75-4.24 11.21-8.295 15.38-4.452 4.354-9.895 7.253-15.618 9.58-4.763 2.182-9.827 2.463-14.765 4.199 6.276-.66 12.514-.29 18.761.456 6.588 1.144 12.65 3.481 16.763 8.999 4.609 5.992 5.724 13.12 5.433 20.499.156 10.278-4.278 20.761-12.766 26.822-7.315 5.43-16.763 8.136-25.843 7.874-4.511.097-8.945-.242-13.262-1.61-6.45-1.765-13.581-5.245-17.22-11.103-2.997-4.451-3.375-10.143-1.92-15.214C38.3 90.52 44.344 84.48 51.221 78.778c5.85-4.276 12.418-8.039 19.78-8.66 3.658-.184 8.48 1.388 10.05 4.995.767 3.122.273 6.652-.862 9.638-2.561 6.885-6.742 12.723-11.224 18.464-.709 1.008-1.66 1.416-2.746 1.91 1.048-1.843 2.503-3.588 3.25-5.576.534-2.521-.932-4.519-3.24-5.382-3.94-1.473-8.702-.068-12.69.873-6.751 2.142-13.89 5.149-16.898 12.092.844 2.483 1.533 4.674 3.86 6.148 5.385 3.335 12.486 1.891 18.103-.039 9.487-3.549 18.888-10.279 23.311-19.636 3.26-6.284 4.414-13.48 2.871-20.422-.824-3.161-3.007-5.013-5.364-7.069a81 81 0 0 1-3.434-.902c-6.46-.863-12.495 1.454-18.937.737a53 53 0 0 1-.048-5.692c5.81-.95 10.39.785 15.55-2.376 5.17-3.714 6.966-9.745 8.382-15.631.272-2.948.922-5.848 1.097-8.795-.262-7.651-1.766-15.312-8.353-20.073-4.346-3.433-9.7-3.433-14.9-2.454-7.286 2.26-12.942 8.36-17.52 14.197-4.793 6.109-8.742 14.293-14.96 18.84-2.027 1.659-4.19 1.475-6.674 1.63-4.152-2.589-5.869-6.361-6.344-11.122-.398-5.799-.33-11.792.33-17.571.756-3.19 1.406-6.41 2.192-9.59a39.6 39.6 0 0 1 3.162-5.625c.184 3.162.204 6.323.379 9.484 1.242 3.064 2.415 6.41 5.122 8.504 1.775 1.377 3.725 1.755 5.82 2.347 2.387-.485 4.773-.795 7.092-1.6 5.917-2.037 10.448-5.74 15.647-9.057 4.181-2.744 8.576-5.081 13.039-7.321"/><path fill="#000" d="M67.14 26.986c-1.018 2.58-2.308 5.024-3.608 7.467-5.675 11.675-10.72 23.593-16.22 35.336-6.549 15.02-13.494 32.049-24.253 44.567-5.898 6.837-13.222 11.88-22.574 11.976-.155-7.66 1.824-14.623 2.454-22.245l.456-.679c.486-6.012 1.407-12.033 2.348-17.988 8.062 0 14.26-2.492 20.15-7.912 7.925-8.369 11.97-18.26 16.83-28.577 3.007-6.885 5.918-13.799 8.964-20.664 5.112-1.29 10.225-1.27 15.454-1.28"/></svg>
