<svg id="Layer_1" data-name="Layer 1" xmlns="http://www.w3.org/2000/svg" viewBox="0 0 119.26 119.66"><defs><style>.cls-1{fill:#0b65ff;}.cls-2{fill:#fff;}</style></defs><path class="cls-1" d="M59.53,8a20.88,20.88,0,0,0-9.86,2.58L20.08,26.88A19.08,19.08,0,0,0,10,43.52v32.6A19,19,0,0,0,20.05,92.76l29.62,16.33a21,21,0,0,0,20.13,0l29.59-16.3a19.06,19.06,0,0,0,10.07-16.64l0-32.64A19,19,0,0,0,99.42,26.88L69.8,10.58A20.83,20.83,0,0,0,59.53,8Z"/><path class="cls-2" d="M59.74,68.13v33.78A5,5,0,0,1,52.22,106L21.6,89.17a14.26,14.26,0,0,1-7.52-12.43L14.1,43A4.89,4.89,0,0,1,19,38.19a5.12,5.12,0,0,1,2.65.64L52.22,55.7A14.26,14.26,0,0,1,59.74,68.13Z"/></svg>