<svg xmlns="http://www.w3.org/2000/svg" viewBox="0 0 128 128"><path fill="#0b65ff" d="M64.142 3.201a24.85 24.85 0 0 0-11.708 3.054L17.301 25.544a22.6 22.6 0 0 0-8.69 8.21 22.5 22.5 0 0 0-3.278 11.48v38.577a22.4 22.4 0 0 0 3.248 11.482 22.5 22.5 0 0 0 8.685 8.209l35.168 19.325a25.01 25.01 0 0 0 23.9 0l35.134-19.289a22.6 22.6 0 0 0 8.688-8.211 22.5 22.5 0 0 0 3.268-11.48V45.221a22.4 22.4 0 0 0-3.246-11.473 22.5 22.5 0 0 0-8.674-8.205L76.336 6.254A24.8 24.8 0 0 0 64.141 3.2"/><path fill="#fff" d="M64.39 74.357v39.973a5.933 5.933 0 0 1-6.022 5.65 5.95 5.95 0 0 1-2.906-.81L19.106 99.254a16.85 16.85 0 0 1-8.928-14.71l.024-39.924a5.78 5.78 0 0 1 1.738-4.036 5.8 5.8 0 0 1 4.08-1.657 6.1 6.1 0 0 1 3.146.757l36.296 19.963a16.9 16.9 0 0 1 6.485 6.137 16.86 16.86 0 0 1 2.443 8.573"/></svg>
