<svg xmlns="http://www.w3.org/2000/svg" viewBox="0 0 128 128"><path fill="#0F0C09" d="m53.988 16.071.07.054c.511.404 1.017.841 1.442 1.337q.119.134.24.265.138.164.267.335c2.569.308 5.153.534 7.726.793l7.663.772 3.385.318c2.503.279 2.503.279 3.1.734l.403.297q.22.162.436.329.416.317.84.626.498.364.99.741.207.157.417.311.286.21.569.427.416.317.84.626.498.365.99.74.207.159.417.312.286.21.569.427.416.318.84.625.498.366.99.742.207.157.417.31.286.211.569.428.353.269.712.532.234.172.466.348l.378.279q.367.27.728.549.208.157.418.311.286.21.57.427.415.318.838.626.501.366.993.742.242.184.486.367c.025.986.029 1.973.022 2.96l-.01 1.649-.012 1.279.114.057c.337.238.663.49.99.741q.208.158.418.311.363.268.72.542.208.157.418.312.362.267.72.542.208.157.418.31.362.269.72.543.207.158.417.311.364.268.72.543.208.157.418.31.363.268.72.543.208.157.418.31.362.269.72.543.208.158.418.311.362.268.72.543.207.157.418.31.362.268.72.543.207.157.417.31.364.269.72.543.208.158.418.311.362.268.72.542.208.157.418.312.513.379 1.019.77.643.49 1.299.965c-.136.285-.289.558-.446.831q-.149.26-.293.52-.225.4-.454.8l-.286.508q-.225.403-.455.804-.229.4-.455.803l-.278.492-.181.321q-.252.446-.507.89-.268.47-.531.942l-.375.665-.18.319-.506.89q-.269.47-.532.942a95 95 0 0 1-.555.984l-.506.89q-.268.47-.532.942l-.374.664-.182.322-.279.494-.105.186a11.3 11.3 0 0 1-1.501 2.095l-.165.187a9 9 0 0 1-.361.378l-.13.13a8 8 0 0 1-.355.323l-.083.073c-.763.657-1.609 1.182-2.506 1.634l-.132.067c-.717.353-1.521.673-2.314.786l.042.056q.499.663.982 1.338l.083.116c3.719 5.22 4.824 11.494 3.82 17.78-.589 3.486-1.694 6.968-3.476 10.037l-.078.137a23 23 0 0 1-2.465 3.472q-.105.124-.206.25-.155.19-.32.37-.08.087-.156.176-.205.233-.416.459l-.13.144c-.25.27-.511.529-.772.789l-.311.312q-.24.238-.494.461l-.194.182a8 8 0 0 1-.442.382 5 5 0 0 0-.226.201 7 7 0 0 1-.46.379q-.143.114-.281.234a10 10 0 0 1-.518.406q-.21.158-.42.319-.349.267-.714.512-.188.128-.375.262a18 18 0 0 1-.722.48l-.125.08a35 35 0 0 1-4.398 2.394l-.203.095c-8.225 3.781-17.9 4.621-26.762 3.063l-.277-.049c-3.662-.668-7.332-1.918-10.586-3.739q-.252-.139-.506-.273a27 27 0 0 1-1.146-.661l-.153-.091a36 36 0 0 1-4.512-3.18l-.153-.125a38 38 0 0 1-.53-.444l-.101-.086a19 19 0 0 1-.54-.477l-.18-.159c-.166-.144-.326-.295-.487-.444l-.199-.184c-.314-.298-.62-.603-.927-.91l-.348-.348a12 12 0 0 1-.49-.521l-.227-.242a16 16 0 0 1-.586-.656l-.368-.425a12 12 0 0 1-.422-.517q-.104-.131-.213-.26c-.18-.213-.347-.437-.516-.66l-.184-.24a29 29 0 0 1-.555-.755l-.077-.106c-1.335-1.865-2.477-3.877-3.45-5.952l-.102-.214c-5.47-11.506-6.068-25.092-1.491-42.31a50 50 0 0 1 1.735-4.296l.108-.233c.369-.792.748-1.58 1.173-2.344q.157-.288.31-.578.291-.546.6-1.083l.102-.18c.769-1.34 1.57-2.67 2.486-3.916l.185-.256.462-.64.184-.255q.285-.398.578-.791.143-.195.283-.39.34-.469.684-.933l.504-.687.09-.125c.076-.103.076-.103.13-.218a5 5 0 0 0-.119-.318c-1.344-3.391-1.444-7.21 0-10.59.593-1.333 1.34-2.596 2.332-3.673q.075-.081.145-.165c.164-.184.339-.356.513-.53l.21-.211a8 8 0 0 1 .418-.385l.09-.078c4.745-4.045 12.358-4.843 17.432-.86"/><path fill="#2ACFFC" d="m48.981 22.073.135.02c1.357.23 2.732.94 3.734 1.886l.105.089q.496.434.89.963c.162.009.162.009.349-.005l.19-.01.386-.028c1.317-.074 2.628.008 3.94.128l.455.041q.653.065 1.304.15.978.123 1.956.242.87.104 1.74.22.585.074 1.172.144l.455.055.234.028 1.102.135 1.838.221c1.353.162 2.703.335 4.05.528l.463.063.427.06.372.05c.306.055.567.118.812.314l.085.067.089.072.094.073q.27.21.534.426.246.202.5.394.222.174.44.354.145.118.295.232.267.205.527.42.254.204.511.405.316.246.628.5.202.166.41.325c.18.136.353.278.527.42q.255.204.512.405.373.292.741.592.203.163.41.323l.323.261q.233.19.473.372.31.238.611.49.205.167.413.329.166.13.328.264.266.215.534.425.162.128.32.26.366.301.74.595.22.172.438.348l.11.089c.172.146.315.285.425.484l.056.097c.145.299.195.625.26.948l.076.367.085.412.096.462c.254 1.226.254 1.226.35 1.728q.07.374.155.745c.045.2.09.401.126.604.096.484.333.843.734 1.128l.132.088c.215.145.422.296.629.453q.22.162.448.314.254.177.501.358.304.22.612.434.368.258.734.523.344.248.692.49.44.305.874.621.265.192.536.375.293.2.58.413.267.194.538.38l.626.44.241.172 1.088.768.241.17q.31.216.616.44.263.19.53.37.337.23.667.472l.214.153.084.06.071.05c.094.077.141.14.159.26-.015.101-.015.101-.062.18-.236.159-.567.165-.843.197q-.732.085-1.461.18c-.602.075-1.202.145-1.806.199-.21.03-.357.06-.491.228-.246.462-.035 1.258.097 1.734l.035.127a4.36 4.36 0 0 0 1.743 2.41c.138.11.257.21.292.387-.049.27-.245.485-.42.688l-.051.06a1.73 1.73 0 0 1-1.193.57l-.11.002h-.11c-.23-.011-.454-.055-.68-.093-1.137-.189-2.288-.288-3.435-.391-1.112-.11-1.112-.11-1.584-.429l-.172-.115-.174-.116-.32-.204-.156-.099-.424-.267q-.346-.219-.688-.444l-.46-.294a89 89 0 0 1-.882-.569q-.416-.27-.834-.537-.4-.255-.798-.515l-.615-.399-.242-.156-.12-.078-.485-.314-.238-.154-.65-.421q-.652-.424-1.307-.842a58 58 0 0 0-.746-.49l-.126-.08-.125-.082a395 395 0 0 1-1.536-.995l-1.294-.84-1.053-.682-1.052-.683-1.056-.684-.239-.155-.141-.091-.141-.092-.129-.083c-.1-.075-.1-.075-.157-.189-.014-.104-.011-.153.046-.243a.5.5 0 0 1 .249-.139l.116-.036q.288-.082.578-.158c.268-.075.532-.159.797-.242q.442-.137.887-.263l.15-.043q.308-.089.614-.173.59-.165 1.174-.349.32-.098.64-.188.27-.076.537-.157.415-.123.832-.242.636-.18 1.269-.372.476-.144.953-.276.49-.138.98-.285c.45-.134.906-.184 1.37-.249.891-.116.891-.116 1.664-.539.145-.29-.024-.69-.111-.97a13 13 0 0 1-.175-.658 15 15 0 0 0-.241-.882c-.063-.205-.116-.413-.17-.622-.134-.442-.422-.636-.788-.895q-.257-.186-.508-.381-.224-.173-.453-.342l-.085-.072c-.16-.098-.315-.125-.498-.164l-.238-.051-1.097-.226a67 67 0 0 1-.95-.204l-.766-.163q-.518-.108-1.034-.224c-.549-.123-1.098-.238-1.648-.354a201 201 0 0 1-1.73-.377q-.383-.085-.768-.158-.315-.06-.627-.134a32 32 0 0 0-1.52-.322 11 11 0 0 1-.505-.113q-.15-.036-.303-.067a17 17 0 0 1-.506-.117 5 5 0 0 0-.59-.114c-.087-.014-.165-.042-.248-.07l-.113-.014a1.4 1.4 0 0 1-.285-.07l-.114-.015a1.4 1.4 0 0 1-.284-.071l-.114-.014a1.4 1.4 0 0 1-.284-.072l-.228-.028-.028-.028q-.136-.023-.273-.04a2 2 0 0 1-.268-.074l-.194-.034c-1.178-.2-1.178-.2-1.256-.28l-.185-.028c-.182-.025-.182-.025-.214-.056l-.21-.038q-.354-.061-.704-.14c-.345-.069-.709.051-1.045.123l-.332.07a136 136 0 0 0-1.094.241q-.41.089-.82.172a40 40 0 0 0-.963.206c-.515.118-1.033.226-1.55.335q-.762.161-1.523.327-.32.069-.641.13c-.238.027-.238.027-.334.138a14 14 0 0 0-.167.306q-.187.351-.386.699c-.205.36-.394.73-.584 1.1l-.14.267a149 149 0 0 0-1.596 3.118l-.307.613q-.234.465-.457.936-.16.334-.324.666-.299.617-.58 1.243-.082.184-.168.367a30.7 30.7 0 0 0-1.748 4.794q-.067.236-.139.47a32 32 0 0 0-.629 2.573l-.055.26c-1.405 6.649-1.659 14.215-.087 20.846l.042.18c.093.401.204.793.328 1.185l.067.218c.752 2.428 1.676 4.855 2.948 7.064l.123.25c.102.196.219.385.332.575l.086.146c.316.54.645 1.07.995 1.589l.135.204q.57.859 1.202 1.673l.137.18q.209.269.425.532.129.159.254.321.175.223.367.428.1.111.193.228.184.223.384.433.178.196.348.4.114.131.232.259.129.14.247.29c.11.14.23.27.351.4q.104.114.2.236c.138.171.288.33.44.49q.149.16.29.326l.125.137q.13.144.25.295c.139.17.29.329.44.489q.15.164.287.338.114.134.235.263.19.203.362.42.107.126.221.248.183.198.35.408.093.112.19.218.163.18.313.368.126.152.257.3a19 19 0 0 1 .569.683l.064.079.124.15.196.24.088.108q.25.306.49.619l.27.345q.248.32.483.65l.181.25c1.463 1.996 2.501 4.191 2.868 6.647l.018.117c.054.38.054.38.039.566-.085.113-.085.113-.204.145-.173-.004-.244-.061-.365-.174l-.087-.078q-.247-.225-.481-.462-.106-.103-.22-.197-.128-.118-.25-.244c-.144-.146-.144-.146-.297-.283-.149-.126-.282-.267-.42-.406a5 5 0 0 0-.265-.242c-.102-.091-.197-.191-.294-.289a5 5 0 0 0-.245-.222c-.095-.085-.183-.177-.273-.267a4 4 0 0 0-.24-.217q-.129-.119-.25-.245a4 4 0 0 0-.236-.213c-.089-.078-.17-.164-.253-.247l-.105-.092a14 14 0 0 1-.361-.331 20 20 0 0 0-.462-.426l-.242-.221q-.291-.266-.59-.52a15 15 0 0 1-.35-.307 7 7 0 0 0-.292-.249 7 7 0 0 1-.315-.272 8 8 0 0 0-.384-.328q-.204-.17-.403-.345a25 25 0 0 0-.662-.562q-.242-.2-.477-.407a45 45 0 0 0-.477-.406l-.185-.156-.277-.234-.578-.493-.283-.24q-.293-.248-.583-.498l-.108-.093c-.523-.451-1.033-.92-1.485-1.443q-.106-.115-.213-.228a14 14 0 0 1-.413-.455l-.063-.072-.136-.156c.384 1.992 1.25 3.889 2.105 5.718l.105.227c.334.714.67 1.43 1.06 2.115q.08.146.152.294c.114.233.244.456.373.681q.16.287.313.578.252.47.524.928.152.265.292.537.085.158.18.311.085.143.165.29.14.247.283.49l.071.122q.06.102.123.202c.075.124.126.217.117.364-.032.114-.032.114-.146.199-.975.074-2.129-.175-3.092-.382a27 27 0 0 0-.89-.169 10 10 0 0 1-.654-.16l-.26-.059q-.306-.074-.609-.157a8 8 0 0 0-.347-.082c-.196-.044-.385-.107-.575-.169a12 12 0 0 0-.412-.119 15 15 0 0 1-1.637-.551l-.343-.125c-1.773-.654-1.773-.654-1.961-.843-.014-1.564-.02-3.128-.029-4.693v4.693c-1.011-.421-1.902-1.021-2.73-1.735l-.062-.053-.166-.146-.07-.062c-.355-.32-.7-.656-1.01-1.019l-.09-.101c-1.34-1.533-2.36-3.354-3.096-5.246l-.057-.137c-.232-.57-.41-1.156-.598-1.74l-.062-.186a8 8 0 0 1-.146-.513q-.074-.297-.154-.593c-.15-.56-.265-1.126-.377-1.695l-.047-.232c-.906-4.654-.7-9.505-.721-14.218l-.007-1.498-.015-3.274a784 784 0 0 0-.12-11.84c-.215.264-.423.524-.625.797q-.178.233-.366.459-.205.252-.403.508-.246.316-.5.628-.2.245-.392.497-.133.173-.267.343a23 23 0 0 0-.406.537q-.246.336-.505.665l-.24.31q-.357.464-.728.919-.126.154-.248.31-.26.33-.526.655l-.071.087-.185.226-.058.072a195 195 0 0 1-1.657 1.999q-.105.125-.208.252a9 9 0 0 1-.317.364q-.098.111-.19.227a8 8 0 0 1-.348.398q-.109.12-.215.243-.12.137-.244.273-.08.088-.156.177-.175.198-.356.391l-.18.196c-.246.268-.246.268-.375.394-.103.102-.103.102-.186.201-.163.183-.336.355-.509.528l-.207.21c-.195.186-.195.186-.38.2-.14-.01-.18-.022-.273-.123-.15-.301-.117-.722-.143-1.053l-.018-.224a29 29 0 0 1 .018-4.014l.018-.276a44 44 0 0 1 .41-3.507l.087-.623q.03-.196.065-.393.083-.48.158-.963c.436-2.67.945-5.367 1.766-7.948l.096-.347c.513-1.82 1.222-3.595 2.008-5.314l.137-.307q.133-.294.278-.581l.166-.332c.215-.433.436-.86.671-1.283l.105-.194q.397-.724.834-1.427l.096-.159c.336-.549.696-1.08 1.07-1.605l.167-.238q.47-.661.97-1.298l.143-.185q.547-.713 1.11-1.415.2-.252.397-.505l.157-.199.078-.1.625-.795q.082-.103.161-.208c.308-.4.308-.4.487-.49.335.005.506.218.738.433q.155.14.32.27l.26.218q.236.2.482.39.237.189.47.384.21.171.425.336c.093.074.093.074.186.178.205.146.4.144.65.168l.324.034.355.036.768.085.395.044q.485.054.968.112.915.11 1.83.204.339.04.675.095l.004-.095q.021-.433.053-.865c.027-.377.04-.754.05-1.132l.007-.212.005-.233.023-.194c.128-.099.228-.158.37-.227.293-.17.571-.344.825-.569.194-.17.194-.17.256-.17l.029-.114q.081-.183.167-.365l.101-.218q.131-.275.267-.548c.228-.477.374-.979.508-1.49q.045-.17.098-.34c.354-1.233.384-2.672-.203-3.838-.666-1.201-1.885-2.125-3.201-2.503-.444-.103-.966-.116-1.407 0l-.101.023c-.886.215-1.691.852-2.203 1.599-.692 1.146-1.024 2.82-.71 4.124.234.87.799 1.632 1.52 2.16l.072.059v.057l-.07.029-.094.038-.092.038a4 4 0 0 0-.2.094c-1.103.293-2.358.002-3.386-.452-.626-.396-.931-1.566-1.107-2.25-.394-1.91-.116-3.807.915-5.474.484-.734 1.063-1.437 1.758-1.979l.065-.054a6.8 6.8 0 0 1 3.064-1.425l.132-.026a7.4 7.4 0 0 1 2.428.026"/><path fill="#1D4E3F" d="M49.408 52.082h.028c-.017.236-.063.46-.113.691-1.367 6.552-1.576 14.028-.029 20.557l.042.18c.093.401.204.793.328 1.185l.067.219c.752 2.427 1.676 4.854 2.948 7.063l.123.25c.102.196.219.385.332.575l.086.146c.316.54.645 1.07.995 1.589l.135.204q.57.859 1.202 1.673l.137.18q.209.269.425.532.129.159.254.321.175.223.367.428.1.111.193.228.184.223.384.433.178.196.348.4.114.131.232.259.129.14.247.29c.11.14.23.27.351.4q.104.114.2.236c.138.171.288.33.44.49q.149.16.29.326l.125.137q.13.144.25.295c.139.17.29.329.44.489q.15.164.287.338.114.135.235.263.19.203.362.42.107.126.221.248.183.198.35.408.093.112.19.218.163.18.313.368.126.152.257.3a19 19 0 0 1 .569.683l.064.079.124.15.196.24.088.108q.25.306.49.619l.27.345q.248.32.483.65l.181.25c1.463 1.996 2.501 4.191 2.868 6.647l.018.117c.054.38.054.38.039.566-.085.113-.085.113-.204.145-.173-.004-.244-.061-.365-.174l-.087-.078q-.247-.225-.481-.462-.106-.103-.22-.197-.128-.118-.25-.244c-.144-.146-.144-.146-.297-.283-.149-.126-.282-.267-.42-.406a5 5 0 0 0-.265-.242c-.102-.091-.197-.191-.294-.289a5 5 0 0 0-.245-.222c-.095-.085-.183-.177-.273-.267a4 4 0 0 0-.24-.217q-.129-.119-.25-.245a4 4 0 0 0-.236-.213c-.089-.078-.17-.164-.253-.247l-.105-.092a14 14 0 0 1-.361-.331 20 20 0 0 0-.462-.426l-.242-.221q-.291-.266-.59-.52a15 15 0 0 1-.35-.307 7 7 0 0 0-.292-.249 7 7 0 0 1-.315-.272 8 8 0 0 0-.384-.328q-.204-.17-.403-.345a25 25 0 0 0-.662-.562q-.242-.2-.477-.407a45 45 0 0 0-.477-.406l-.185-.156-.277-.234-.578-.493-.283-.24q-.293-.248-.583-.498l-.108-.093c-.523-.451-1.033-.92-1.485-1.443q-.106-.115-.213-.228a14 14 0 0 1-.413-.455l-.063-.072-.136-.156c.384 1.992 1.25 3.889 2.105 5.718l.105.227c.334.714.67 1.43 1.06 2.115q.08.146.152.294c.114.233.244.456.373.681q.16.287.313.578.252.47.524.928.152.265.292.537.085.158.18.311.085.143.165.29.14.247.283.49l.071.122q.06.102.123.202c.075.124.126.217.117.364-.032.114-.032.114-.146.199-.975.074-2.129-.175-3.092-.382a27 27 0 0 0-.89-.169 10 10 0 0 1-.654-.16l-.26-.059q-.306-.074-.609-.157a8 8 0 0 0-.347-.082c-.196-.044-.385-.107-.575-.169a12 12 0 0 0-.412-.119 16 16 0 0 1-1.637-.551l-.343-.125c-1.773-.654-1.773-.654-1.961-.843-.014-1.564-.02-3.128-.029-4.693v4.693c-1.011-.421-1.902-1.021-2.73-1.735l-.062-.053-.166-.146-.07-.062c-.355-.32-.7-.656-1.01-1.019l-.09-.101c-1.34-1.533-2.36-3.354-3.096-5.246l-.057-.137c-.232-.57-.41-1.156-.598-1.74l-.062-.186a8 8 0 0 1-.146-.513q-.074-.297-.154-.593c-.15-.56-.265-1.126-.377-1.695l-.047-.232c-.518-2.663-.598-5.37-.654-8.076l-.022-1.064q-.024-1.572-.017-3.144h.029l.017.121c.067.368.195.725.316 1.078q.045.138.088.278c.097.315.207.626.314.938l.161.47c.832 2.45 2 4.584 3.513 6.673.006-2.322-.012-4.644-.043-6.966-.05-3.897.003-7.79.49-18.23l.121-.12q.112-.143.22-.29l.106-.143q.225-.306.442-.62l.109-.153a29 29 0 0 0 1.058-1.638l.068-.111c.467-.762.83-1.6 1.183-2.421l.09-.205q.32-.733.621-1.473l.08-.193c.266-.653.53-1.308.784-1.967.047-.116.047-.116.075-.144"/><path fill="#FEF3BA" d="M55.893 24.974c1.522-.052 3.07.14 4.576.333q.978.123 1.956.242.87.104 1.74.22.585.074 1.172.144l.689.083 1.102.135 1.838.221c1.353.162 2.703.335 4.05.528l.463.063.427.06.372.05c.306.055.567.118.812.314l.085.067.089.072.094.073q.27.21.534.426.246.202.5.394.222.174.44.354.145.118.295.232.267.205.527.42.254.204.511.405.316.246.628.5.202.166.41.325c.18.136.353.278.527.42q.255.204.512.405.373.292.741.592.203.163.41.323l.323.261q.233.19.473.372.31.238.611.49.205.167.413.329.166.13.328.264.266.215.534.425.162.128.32.26.366.301.74.595.22.172.438.348l.11.089c.172.146.315.285.425.484l.056.097c.145.299.195.625.26.948l.076.367.085.412.096.462c.254 1.226.254 1.226.35 1.728q.07.374.155.745c.045.2.09.401.126.604.096.484.333.843.734 1.128l.132.088c.215.145.422.296.629.453q.22.162.448.314.254.177.501.358.304.22.612.434.368.258.734.523.344.248.692.49.44.305.874.621.265.192.536.375.293.2.58.413.267.194.538.38l.626.44.241.172 1.088.768.241.17q.31.216.616.44.263.19.53.37.337.23.667.472l.214.153.084.06.071.05c.094.077.141.14.159.26-.015.101-.015.101-.062.18-.236.159-.567.165-.843.197q-.732.085-1.461.18c-.602.075-1.202.145-1.806.199-.21.03-.357.06-.491.228-.246.462-.035 1.258.097 1.734l.035.127a4.36 4.36 0 0 0 1.743 2.41c.138.11.257.21.292.387-.049.27-.245.485-.42.688l-.051.06a1.73 1.73 0 0 1-1.193.57l-.11.002h-.11c-.23-.011-.454-.055-.68-.093-1.137-.189-2.288-.288-3.435-.391-1.112-.11-1.112-.11-1.584-.429l-.172-.115-.174-.116-.32-.204-.156-.099-.424-.267q-.346-.219-.688-.444l-.46-.294a89 89 0 0 1-.882-.569q-.416-.27-.834-.537-.4-.255-.798-.515l-.615-.399-.242-.156-.12-.078-.485-.314-.238-.154-.65-.421q-.652-.424-1.307-.842a58 58 0 0 0-.746-.49l-.126-.08-.125-.082a395 395 0 0 1-1.536-.995l-1.294-.84-1.053-.682-1.052-.683-1.056-.684-.239-.155-.141-.091-.141-.092-.129-.083c-.1-.075-.1-.075-.157-.189-.014-.104-.011-.153.046-.243a.5.5 0 0 1 .249-.139l.116-.036q.288-.082.578-.158c.268-.075.532-.159.797-.242q.442-.137.887-.263l.15-.043q.308-.089.614-.173.59-.165 1.174-.349.32-.098.64-.188.27-.076.537-.157.415-.123.832-.242.636-.18 1.269-.372.476-.144.953-.276.49-.138.98-.285c.45-.134.906-.184 1.37-.249.891-.116.891-.116 1.664-.539.145-.29-.024-.69-.111-.97a13 13 0 0 1-.175-.658 15 15 0 0 0-.241-.882c-.063-.205-.116-.413-.17-.622-.134-.442-.422-.636-.788-.895q-.257-.186-.508-.381-.224-.173-.453-.342l-.085-.072c-.16-.098-.315-.125-.498-.164l-.238-.051-1.097-.226a67 67 0 0 1-.95-.204l-.766-.163q-.518-.108-1.034-.224c-.549-.123-1.098-.238-1.648-.354a201 201 0 0 1-1.73-.377q-.383-.085-.768-.158-.315-.06-.627-.134a32 32 0 0 0-1.52-.322 11 11 0 0 1-.505-.113q-.15-.036-.303-.067a17 17 0 0 1-.506-.117 5 5 0 0 0-.59-.114c-.087-.014-.165-.042-.248-.07l-.113-.014a1.4 1.4 0 0 1-.285-.07l-.114-.015a1.4 1.4 0 0 1-.284-.071l-.114-.014a1.4 1.4 0 0 1-.284-.072l-.228-.028-.028-.028q-.136-.023-.273-.04a2 2 0 0 1-.268-.074l-.194-.034c-1.178-.2-1.178-.2-1.256-.28l-.185-.028c-.182-.025-.182-.025-.214-.056l-.21-.038q-.354-.061-.704-.14c-.105-.024-.105-.024-.195-.022-.175-.14-.33-.3-.487-.459a5 5 0 0 0-.255-.232c-.086-.076-.166-.16-.247-.242a4 4 0 0 0-.177-.162 5 5 0 0 1-.307-.293 3 3 0 0 0-.177-.162 5 5 0 0 1-.306-.293 5 5 0 0 0-.235-.212q-.118-.107-.227-.221a3 3 0 0 0-.169-.154 4 4 0 0 1-.243-.23 4 4 0 0 0-.242-.227 5 5 0 0 1-.307-.293 3 3 0 0 0-.177-.162 5 5 0 0 1-.306-.293 5 5 0 0 0-.235-.212c-.08-.07-.152-.146-.227-.221a3 3 0 0 0-.169-.154 5 5 0 0 1-.308-.295 5 5 0 0 0-.235-.212 4 4 0 0 1-.22-.215q-.141-.134-.29-.26-.374-.344-.731-.704a4 4 0 0 0-.227-.203c-.134-.122-.259-.253-.386-.382a5 5 0 0 0-.217-.2c-.192-.17-.368-.355-.548-.537a7 7 0 0 0-.366-.336l-.099-.084-.095-.081a11 11 0 0 1-.66-.603"/><path fill="#E47F00" d="M60.602 36.608c.477.11.942.245 1.407.398l.2.066a9 9 0 0 1 1.905.901l.11.07c.25.162.484.34.715.528l.084.066c1.77 1.436 2.654 3.499 2.927 5.72.118.89.456 1.517.942 2.263l.497.78c.892 1.392 1.255 2.351 1.23 4.038.027 1.348.606 2.44 1.5 3.409q.082.09.16.182c.14.157.29.304.44.452.305.302.305.302.422.436.158.181.33.349.5.519l.21.21c.137.134.272.262.417.385l.2.183.097.09.073.068c-.095.096-.224.117-.35.159-.796.265-.796.265-1.5.709-.056.043-.056.043-.17.1l-.056.113-.084.123a1.16 1.16 0 0 0-.2.816c.076.31.216.556.438.782.083.113.084.176.076.314-.016.394.307.765.55 1.043.212.228.432.4.698.564a.7.7 0 0 1 .172.141v.057l-.09.035c-.427.17-.826.365-1.19.648l-.171.126a11 11 0 0 0-.484.386l-.084.072c-.453.399-.796.923-1.11 1.436.667.193 1.295-.045 1.92-.269.236-.067.42-.069.64.041.198.164.335.374.398.626.017.224-.014.423-.163.598l-.116.11c-.25.24-.592.614-.65.966.012.269.181.526.296.761.332.684.572 1.332.358 2.093-.147.42-.386.722-.778.933l-.142.057q-.35-.568-.697-1.138-.233-.384-.469-.768-.298-.483-.591-.969-.172-.284-.348-.567-.297-.483-.59-.969l-.348-.567q-.236-.382-.47-.768-.291-.48-.588-.96l-.406-.666-.323-.527q-.3-.487-.596-.977l-.348-.568q-.297-.483-.591-.968-.172-.285-.348-.568-.296-.48-.589-.966l-.252-.408-.126-.2-.114-.18c-.085-.151-.085-.151-.113-.322.048-.087.048-.087.12-.18.559-.743 1.014-1.575 1.398-2.42a.66.66 0 0 1 .274-.244c.297-.008.586.014.881.042.911.13.911.13 1.766-.103.08-.118.089-.196.083-.338a1.4 1.4 0 0 0-.335-.368c-.24-.22-.461-.487-.498-.82-.035-.895.423-1.747.812-2.523.147-.292.147-.292.164-.612-.33-.407-1.058-.528-1.536-.598q-.307-.01-.616-.01h-.315c-.26-.005-.26-.005-.463.096-.137.179-.215.386-.302.592l-.092.215-.24.592c-.605 1.496-1.468 2.881-2.493 4.126q-.124.152-.244.308c-.236.3-.49.586-.748.868l-.16.18q-.295.339-.612.654a4 4 0 0 0-.16.175 4 4 0 0 1-.432.432 7 7 0 0 0-.348.334q-.22.223-.455.427l-.1.1q-.124.122-.256.235-.2.18-.393.364-.157.146-.318.289-.271.246-.54.497c-.272.252-.272.252-.385.348q-.118.102-.227.215c-.393.397-.393.397-.512.496-.262.222-.488.494-.711.755l-.076.089-.175.204-.18.209q-.258.3-.508.608l-.088.107q-.289.354-.566.718l-.106.137q-.41.533-.797 1.083a5 5 0 0 1-.37.47c-.155.177-.293.369-.434.557l-.081.108c-.303.407-.577.83-.835 1.268-.223.37-.223.37-.335.444-.109.017-.156.01-.25-.05-.542-.783-.28-2.708-.32-3.62l-.016-.315a42 42 0 0 1 .415-7.677l.052-.347c.312-2.047.721-4.088 1.285-6.081l.05-.18q.176-.64.377-1.271l.081-.264c.31-.99.648-1.968 1.056-2.922l.08-.19a31 31 0 0 1 1.715-3.506q.111-.195.218-.391c.162-.293.337-.577.512-.863q.16-.262.314-.527c.447-.758.937-1.49 1.445-2.209q.229-.325.452-.653c.224-.309.359-.377.741-.308"/><path fill="#0157A2" d="M52.764 42.553c0 .16-.098.306-.165.448l-.103.22-.254.53a33 33 0 0 0-2.038 5.43q-.067.235-.139.47a27 27 0 0 0-.562 2.272l-.038.159-.057.028a11 11 0 0 0-.135.338 95 95 0 0 1-1.003 2.478l-.082.197c-.52 1.234-1.05 2.465-1.738 3.615l-.077.13a27 27 0 0 1-1.146 1.719l-.091.127q-.306.425-.626.839c-.668.88-.381 2.345-.393 3.386l-.036 1.977c-.082 4.652-.14 9.3-.077 13.952.019 1.972.033 3.944.028 5.916-.292-.292-.514-.651-.74-.996l-.128-.19a32 32 0 0 1-.952-1.516l-.104-.175c-.515-.876-.91-1.803-1.262-2.755l-.064-.17c-1.151-3.082-1.245-5.334-1.258-8.719-.02-4.537-.04-9.074-.128-13.61a23 23 0 0 0-.625.796q-.178.233-.366.459-.205.252-.403.508-.246.316-.5.628-.2.245-.392.497-.133.173-.267.343a23 23 0 0 0-.406.537q-.246.336-.505.665l-.24.31q-.357.464-.728.919-.126.154-.248.31-.26.33-.526.655l-.071.087-.185.226-.058.072a195 195 0 0 1-1.657 1.999q-.105.125-.208.252a9 9 0 0 1-.317.364q-.098.111-.19.227a8 8 0 0 1-.348.398q-.109.12-.215.243-.12.137-.244.273-.08.088-.156.177-.175.198-.356.391l-.18.196c-.246.268-.246.268-.375.394-.103.102-.103.102-.186.201-.163.183-.336.355-.509.528l-.207.21c-.195.186-.195.186-.38.2-.14-.01-.18-.022-.273-.123-.15-.301-.117-.722-.143-1.053l-.018-.224a29 29 0 0 1 .018-4.014l.018-.276a44 44 0 0 1 .41-3.507l.063-.453q.06-.415.135-.827l-.001-.09c.03-.08.03-.08.156-.152l.158-.071q.141-.084.281-.172.292-.183.588-.361.549-.329 1.094-.662l.598-.363.393-.24q.642-.39 1.288-.77.41-.245.816-.494.34-.205.68-.406.393-.23.779-.473.215-.135.433-.265.439-.267.872-.544l.27-.17.136-.087.267-.168.552-.349a91 91 0 0 0 3.44-2.298l.13-.09q.382-.27.757-.548l.274-.202q.7-.514 1.37-1.066l.086-.069q.452-.37.895-.755l.203-.174q.274-.232.54-.474.117-.108.239-.213l.269-.24.141-.127q.247-.222.49-.448l.276-.254c.438-.402.438-.402.86-.82q.145-.138.297-.266l1.054-1.05.579-.58c.343-.344.343-.344.67-.702l.186-.185q.152-.148.293-.308.122-.14.256-.268c.091-.094.175-.194.261-.292l.21-.224q.24-.255.473-.515l.06-.067c.184-.202.36-.409.537-.616"/><path fill="#0158A2" d="M81.18 65.764c.293.26.516.609.738.927q.226.32.457.637l.463.641a108 108 0 0 1 1.016 1.435l.2.285.1.143.196.28c3.544 5.06 3.544 5.06 4.539 7.968l.053.153a17 17 0 0 1 .601 8.238l-.03.18c-.289 1.651-.91 3.257-1.733 4.713h-.057l-.035-.072c-.197-.399-.409-.789-.62-1.18l-.67-1.255q-.266-.501-.536-1.001l-.344-.645c-.37-.701-.37-.701-.754-1.394l-.04.406-.052.536-.052.53q-.114 1.06-.282 2.112l-.025.164-.023.149-.02.13c-.018.097-.018.097-.046.154l-.012.116a4 4 0 0 1-.073.396l-.04.206c-.355 1.778-1.352 3.27-2.407 4.715l-.183.256a23 23 0 0 1-.585.768l-.2.26q-.28.356-.568.707l-.069.085q-.171.21-.347.417-.18.213-.352.437c-.054-.163.023-.349.057-.512.108-.596.178-1.19.228-1.792l.028-.313q.007-.563.007-1.125l.003-.614c-.053-3.38-1.026-6.46-2.9-9.253-.609-.914-.75-1.286-.557-2.42.1-.587.1-.587.196-1.174q.04-.255.092-.507c.058-.28.102-.56.146-.842q.039-.24.09-.479.059-.306.108-.613.039-.205.085-.41l.064-.336c.171-.886.358-1.771.576-2.648q.064-.265.124-.532c.14-.608.29-1.214.475-1.81q.068-.228.13-.457c.357-1.278.762-2.55 1.276-3.774l.066-.16c.237-.576.484-1.146.73-1.717l.13-.302.123-.28.11-.252c.104-.213.164-.31.405-.275"/><path fill="#FA7C05" d="M49.18 73.017c.102.153.121.342.162.519.094.392.2.775.322 1.16l.067.217c.752 2.427 1.676 4.855 2.948 7.064l.123.25c.102.196.219.385.332.575l.086.146c.316.54.645 1.07.995 1.589l.135.204q.57.859 1.202 1.673l.137.18q.209.269.425.532.129.159.254.321.175.223.367.428.1.111.193.228.184.223.384.433.178.196.348.4.114.131.232.259.129.14.247.29c.11.14.23.27.351.4q.104.114.2.236c.138.171.288.33.44.49q.149.16.29.326l.125.137q.13.144.25.295c.139.17.29.329.44.489q.15.164.287.338.114.135.235.263.19.203.362.42.107.126.221.248.183.198.35.408.093.112.19.218.163.18.313.368.126.152.257.3a19 19 0 0 1 .569.683l.064.079.124.15.196.24.088.108q.25.306.49.619l.27.345q.248.32.483.65l.181.25c1.463 1.996 2.501 4.191 2.868 6.647l.018.117c.054.38.054.38.039.566-.085.113-.085.113-.204.145-.173-.004-.244-.061-.365-.174l-.087-.078q-.247-.225-.481-.462-.106-.103-.22-.197-.128-.118-.25-.244c-.144-.146-.144-.146-.297-.283-.149-.126-.282-.267-.42-.406a5 5 0 0 0-.265-.242c-.102-.091-.197-.191-.294-.289a5 5 0 0 0-.245-.222c-.095-.085-.183-.177-.273-.267a4 4 0 0 0-.24-.217q-.129-.119-.25-.245a4 4 0 0 0-.236-.213c-.089-.078-.17-.164-.253-.247l-.105-.092a14 14 0 0 1-.361-.331 20 20 0 0 0-.462-.426l-.242-.221q-.291-.266-.59-.52a15 15 0 0 1-.35-.307 7 7 0 0 0-.292-.249 7 7 0 0 1-.315-.272 8 8 0 0 0-.384-.328q-.204-.17-.403-.345a25 25 0 0 0-.662-.562q-.242-.2-.477-.407a45 45 0 0 0-.477-.406l-.185-.156-.277-.234-.578-.493-.283-.24q-.293-.248-.583-.498l-.108-.093c-.523-.451-1.033-.92-1.485-1.443q-.106-.115-.213-.228a14 14 0 0 1-.413-.455l-.063-.072-.136-.156c.384 1.992 1.25 3.889 2.105 5.718l.105.227c.334.714.67 1.43 1.06 2.115q.08.146.152.294c.114.233.244.456.373.681q.16.287.313.578.252.47.524.928.152.265.292.537.085.158.18.311.085.143.165.29.14.247.283.49l.071.122q.06.102.123.202c.075.124.126.217.117.364-.032.114-.032.114-.146.199-.975.074-2.129-.175-3.092-.382a27 27 0 0 0-.89-.169 10 10 0 0 1-.654-.16l-.26-.059q-.306-.074-.609-.157a8 8 0 0 0-.347-.082c-.196-.044-.385-.107-.575-.169a12 12 0 0 0-.412-.119 15 15 0 0 1-1.637-.551l-.343-.125c-1.773-.654-1.773-.654-1.961-.843q-.008-1.078-.014-2.158a786 786 0 0 0-.057-6.622c-.02-1.486-.026-2.972-.035-4.457q-.008-1.11-.025-2.216c-.011-.93-.011-.93.017-1.357l.07-2.582.037-1.425q.049-2.007.092-4.015l.045-1.635q.032-1.14.056-2.28.01-.588.041-1.176"/><path fill="#E27C00" d="M56.292 66.475c.126.09.155.214.202.359.837 2.474 2.227 4.71 3.979 6.638l.058.065c.44.493.892.981 1.393 1.414l.199.2.166.145q.1.088.198.178.149.133.302.258.162.13.315.272.188.17.386.33.243.201.482.41.277.24.567.467.254.2.5.415.195.164.4.32.142.114.282.234.234.198.477.385.175.14.348.283.218.181.44.356.286.225.565.457.157.129.317.254.286.225.565.457.157.129.317.254.286.225.564.457.16.13.323.257.254.2.498.414.127.108.256.212.201.165.392.343.09.083.184.164.328.283.632.59.08.076.165.15c.187.162.357.338.519.527q.086.095.18.185.17.171.326.356l.08.092q.264.305.518.619l.091.114c.24.304.462.617.677.938l.074.11c.673.99 1.397 2.189 1.69 3.36l-.03.086a219 219 0 0 1-1.514-.793l-.166-.087-.333-.173a40 40 0 0 1-.815-.433q-.305-.168-.62-.324a69 69 0 0 1-1.423-.736q-.335-.177-.671-.35l-.602-.318a4 4 0 0 0-.312-.142q.138.398.307.785.186.428.357.86.056.143.122.282c.13.28.231.573.324.867.033.094.074.186.113.278l.139.41.072.219q.194.59.36 1.19l.072.258c.096.361.184.722.244 1.09l.028.168c.227 1.56-.08 3.466-.545 4.97l-.057.057c-.114-.213-.196-.436-.283-.661a20 20 0 0 0-1.51-3.065l-.084-.146c-.582-.99-1.288-1.91-2.033-2.784q-.098-.118-.195-.238a9 9 0 0 0-.434-.482q-.15-.164-.297-.332a21 21 0 0 0-.755-.782q-.153-.16-.297-.328l-2.489-2.488c-2.467-2.464-2.467-2.464-2.688-2.717q-.176-.178-.356-.355a11 11 0 0 1-.554-.584l-.2-.199a7 7 0 0 1-.398-.426l-.21-.222a8 8 0 0 1-.414-.475 5 5 0 0 0-.188-.215 8 8 0 0 1-.354-.425l-.167-.208q-.386-.483-.743-.987l-.076-.106a26 26 0 0 1-1.444-2.242l-.222-.377a7 7 0 0 1-.282-.526q-.094-.186-.193-.37c-.788-1.502-1.017-3.07-.55-4.715.301-.94.766-1.82 1.26-2.672l.104-.183q.296-.514.598-1.024.209-.354.412-.71c.11-.179.16-.175.365-.16"/><path fill="#FEC500" d="m53.618 40.704.085.028-.088.176A55 55 0 0 0 53 42.162c-.098.201-.191.387-.347.55l-.075.08-.07.075-.098.112q-.168.19-.34.375l-.169.19c-.13.15-.267.293-.402.438l-.254.275c-.272.297-.545.594-.834.875-.092.094-.177.195-.264.295l-1.065 1.068-.587.587c-.482.478-.482.478-.71.677l-.184.185q-.148.154-.31.295c-.104.088-.104.088-.202.189q-.1.099-.206.192-.175.155-.345.316-.255.24-.516.473l-.146.132q-.325.29-.657.572l-.32.277c-.306.265-.611.528-.925.783l-.103.085q-.412.334-.836.654l-.146.113q-.401.31-.816.6l-.364.261a74 74 0 0 1-3.14 2.127l-.125.081a127 127 0 0 1-4.429 2.743q-.41.245-.816.494-.34.205-.68.406-.392.23-.776.472-.315.193-.633.382-.495.297-.988.598l-.99.603-.18.11-.16.1c-.121.07-.121.07-.178.07.198-2.806.97-5.803 1.82-8.477l.097-.347c.513-1.82 1.222-3.595 2.008-5.314l.137-.307q.133-.294.278-.581l.166-.332c.215-.433.436-.86.671-1.283l.105-.194q.397-.724.834-1.427l.096-.159c.62-1.012.62-1.012.757-1.15 4.332-.227 4.332-.227 5.916-.227-.498 1.038-1.115 2.036-1.763 2.987l-.088.129c-.395.58-.798 1.152-1.249 1.691l-.075.09q-.224.267-.458.523l-.157.176c-.271.312-.56.606-.855.896a5 5 0 0 0-.209.226 3 3 0 0 1-.242.244c-.218.196-.423.405-.629.613a7 7 0 0 1-.362.332l-.238.224a22 22 0 0 1-.599.55 10 10 0 0 1-.45.386 14 14 0 0 0-.277.234 52 52 0 0 0 1.906-.768l.243-.101c.916-.381 1.835-.772 2.709-1.242q.303-.16.61-.317.404-.207.804-.416.515-.27 1.032-.534l.618-.32q.543-.282 1.09-.562l.645-.334 1.603-.827.247-.127.223-.115q.225-.116.45-.227.283-.142.561-.295.559-.299 1.123-.587l.624-.326.488-.255q.313-.162.626-.327.404-.212.809-.422l.442-.232.81-.422.442-.232q.312-.165.626-.327l.66-.345.128-.067c.105-.054.105-.054.188-.11z"/><path fill="#FEF8C7" d="M64.683 38.4c.101.05.172.1.26.172l.074.062c.43.368.863.761 1.202 1.217l.073.095c.98 1.299 1.461 2.811 1.658 4.41.118.891.456 1.518.942 2.264l.497.78c.892 1.392 1.255 2.351 1.23 4.038.027 1.348.606 2.44 1.5 3.409q.082.09.16.182c.14.157.29.304.44.452.305.302.305.302.422.436.158.181.33.349.5.519l.21.21c.137.134.272.262.417.385l.2.183.097.09.073.068c-.095.096-.224.117-.35.159-.796.265-.796.265-1.5.709-.056.043-.056.043-.17.1l-.056.113-.084.123a1.16 1.16 0 0 0-.2.816c.076.31.216.556.438.782.083.113.084.176.076.314-.016.394.307.765.55 1.043.212.228.432.4.698.564a.7.7 0 0 1 .172.141v.057l-.09.035c-.427.17-.826.365-1.19.648l-.171.126a11 11 0 0 0-.484.386l-.084.072c-.453.399-.796.923-1.11 1.436.667.193 1.295-.045 1.92-.269.236-.067.42-.069.64.041.198.164.335.374.398.626.017.224-.014.423-.163.598l-.116.11c-.25.24-.592.614-.65.966.012.269.181.526.296.761.332.684.572 1.332.358 2.093-.147.42-.386.722-.778.933l-.142.057q-.35-.568-.697-1.138-.233-.384-.469-.768-.298-.483-.591-.969-.172-.284-.348-.567-.297-.483-.59-.969l-.348-.567q-.236-.382-.47-.768-.291-.48-.588-.96l-.406-.666-.323-.527q-.3-.487-.597-.977-.172-.285-.347-.568-.297-.483-.591-.968-.172-.285-.348-.568-.296-.48-.589-.966l-.252-.408-.126-.2-.114-.18c-.085-.151-.085-.151-.113-.322.048-.087.048-.087.12-.18.559-.743 1.014-1.575 1.398-2.42a.66.66 0 0 1 .274-.244c.297-.008.586.014.881.042.911.13.911.13 1.766-.103.08-.118.089-.196.083-.338a1.4 1.4 0 0 0-.335-.368c-.24-.22-.461-.487-.498-.82-.035-.895.423-1.747.812-2.523.147-.292.147-.292.164-.612-.33-.407-1.058-.528-1.536-.598q-.307-.01-.616-.01h-.315c-.26-.005-.26-.005-.463.096-.137.179-.215.386-.302.592l-.092.215-.24.592c-.605 1.496-1.468 2.881-2.493 4.126q-.124.152-.244.308c-.236.3-.49.586-.748.868l-.16.18q-.295.339-.612.654a4 4 0 0 0-.16.175 4 4 0 0 1-.432.432 7 7 0 0 0-.348.334q-.22.223-.455.427l-.1.1q-.124.122-.256.235-.2.18-.393.364-.157.146-.318.289-.271.246-.539.496-.245.23-.5.45c0-.134.077-.219.146-.332q.255-.42.5-.842.122-.21.247-.419c.108-.183.204-.369.297-.56q.11-.212.226-.421c.268-.49.512-.991.751-1.495q.082-.173.167-.345a52 52 0 0 0 1.736-4.006q.053-.138.11-.276c.194-.49.37-.989.542-1.487l.068-.191c.125-.36.246-.718.347-1.084q.068-.244.14-.485.121-.417.229-.838l.082-.31c.335-1.234.543-2.508.699-3.776l.022-.175c.18-1.603.254-3.223.12-4.832l-.016-.195z"/><path fill="#FEC500" d="M81.067 43.207c.074.109.074.109.154.256l.09.163.097.178q.106.194.213.384l.099.18c.152.26.295.35.56.487q.405.212.803.434.327.184.657.364.427.233.85.471.242.136.487.269.426.233.85.471.242.136.487.268.426.233.85.472.242.136.487.268.426.233.849.471l.488.269q.426.232.849.47.243.136.488.27.426.232.849.47l.488.269q.425.232.849.47.243.136.488.27.35.19.7.383l.179.099a.9.9 0 0 1 .258.2l-.056.084c-.227.458-.017 1.24.113 1.708l.035.127a4.36 4.36 0 0 0 1.743 2.41c.138.11.257.21.292.387-.049.27-.245.485-.42.688l-.051.06a1.73 1.73 0 0 1-1.193.57l-.11.002h-.11c-.23-.011-.454-.055-.68-.093-1.137-.189-2.288-.288-3.435-.391-1.112-.11-1.112-.11-1.584-.429l-.172-.115-.174-.116-.32-.204-.156-.099-.424-.267q-.346-.219-.688-.444l-.46-.294a89 89 0 0 1-.882-.569q-.416-.27-.834-.537-.4-.255-.798-.515l-.615-.399-.242-.156-.12-.078-.485-.314-.238-.154-.65-.421q-.652-.424-1.307-.842a58 58 0 0 0-.746-.49l-.126-.08-.125-.082a395 395 0 0 1-1.536-.995l-1.294-.84-1.053-.682-1.052-.683-1.056-.684-.239-.155-.141-.091-.141-.092-.129-.083c-.1-.075-.1-.075-.157-.189-.014-.104-.011-.153.046-.243a.5.5 0 0 1 .249-.139l.116-.036q.288-.082.578-.158c.268-.075.532-.159.797-.242q.442-.137.887-.263l.15-.043q.308-.089.614-.173.59-.165 1.174-.349.32-.098.64-.188.27-.076.537-.157.415-.123.832-.242.565-.16 1.129-.33l.138-.042.272-.083.13-.04.116-.037c.1-.022.1-.022.242.006"/><path fill="#78AE45" d="M49.408 52.082h.028c-.017.236-.063.46-.113.691-1.332 6.383-1.556 13.654-.146 20.029.032.215.032.215.003.727l-.04 1.77c-.047 2.085-.047 2.085-.073 2.952q-.04 1.392-.07 2.785c-.107 4.761-.107 4.761-.158 5.52l-.057.029-.039-.078a2 2 0 0 0-.203-.274c-1.318-1.558-2.381-3.615-2.964-5.564-.04-.13-.04-.13-.122-.313a38 38 0 0 1-.497-1.537 13 13 0 0 0-.132-.407q-.103-.311-.188-.63-.056-.195-.12-.39c-.082-.257-.15-.516-.217-.777a10 10 0 0 0-.112-.395c-.702-2.423-.2-5.419-.158-7.904l.047-2.805c.064-3.64.064-3.64.495-4.071q.112-.143.22-.29l.106-.143q.225-.306.442-.62l.109-.153a29 29 0 0 0 1.058-1.638l.068-.111c.467-.762.83-1.6 1.183-2.421l.09-.205q.32-.733.621-1.473l.08-.193q.401-.979.784-1.967c.047-.116.047-.116.075-.144"/><path fill="#FEC500" d="M81.18 65.764c.293.26.516.609.738.927q.226.32.457.637l.277.384.186.257a108 108 0 0 1 1.016 1.435l.2.285.1.143.196.28c3.544 5.06 3.544 5.06 4.539 7.968l.053.153a17 17 0 0 1 .601 8.238l-.03.18c-.289 1.651-.91 3.257-1.733 4.713h-.057l-.035-.072c-.197-.399-.409-.789-.62-1.18l-.67-1.255q-.266-.501-.536-1.001l-.344-.645c-.37-.701-.37-.701-.754-1.394a49 49 0 0 1-.003-1.218c.004-.933.002-1.861-.053-2.793l-.017-.29c-.142-2.167-.437-4.355-1.121-6.423l-.055-.166a19 19 0 0 0-.855-2.08l-.087-.185a16 16 0 0 0-.5-.973 6 6 0 0 1-.155-.299 7 7 0 0 0-.293-.523l-.21-.359a28 28 0 0 0-1.46-2.217c-.055-.081-.055-.081-.083-.167q.116-.285.24-.567l.15-.34.15-.344.134-.308.12-.277.11-.25c.103-.213.165-.308.404-.274"/><path fill="#FEF2B8" d="m48.981 22.073.135.02c1.357.23 2.732.94 3.734 1.886l.105.089q.444.385.805.85l.073.09c.985 1.22 1.638 2.715 2.003 4.233l.04.154c.08.326.141.651.188.984q-.586.375-1.18.74l-.527.326q-.448.28-.897.556l-.693.431q-.37.23-.742.458l-.626.39c-.028-.057-.028-.057.007-.165l.052-.14a10 10 0 0 0 .244-.803q.047-.173.099-.344c.354-1.234.384-2.673-.203-3.839-.666-1.201-1.885-2.125-3.201-2.503-.444-.103-.966-.116-1.407 0l-.101.023c-.886.215-1.691.852-2.203 1.599-.692 1.146-1.024 2.82-.71 4.124.234.87.799 1.632 1.52 2.16l.072.059v.057l-.07.029-.094.038-.092.038a4 4 0 0 0-.2.094c-1.103.293-2.358.002-3.386-.452-.626-.396-.931-1.566-1.107-2.25-.394-1.91-.116-3.807.915-5.474.484-.734 1.063-1.437 1.758-1.979l.065-.054a6.8 6.8 0 0 1 3.064-1.425l.132-.026a7.4 7.4 0 0 1 2.428.026"/><path fill="#0158A3" d="M40.448 35.64c.18.113.327.261.482.405q.155.14.32.27l.26.218q.236.2.482.39.237.189.47.384.21.171.425.336c.093.074.093.074.186.178.205.146.4.144.65.168l.324.034.355.036.768.085.395.044q.485.054.968.112.915.11 1.83.204.339.04.675.095-.206.462-.42.921-.228.5-.445 1.006-.172.393-.349.784-.264.584-.52 1.172-.378.864-.769 1.72l-.088.197c-.084.148-.118.192-.271.255l-.12.054-.147.064-.392.195-.193.096q-.378.192-.752.391l-.568.292q-.59.3-1.177.606l-.894.461-1.058.547-.413.213-.206.107-.414.214-.617.32-.208.107-.201.104-.178.092q-.195.102-.39.208c-1.353.711-2.945 1.507-4.428 1.878.21-.212.43-.41.655-.605l.268-.24.141-.127q.295-.265.586-.536l.1-.091q.38-.354.742-.724a8 8 0 0 1 .353-.323q.057-.06.11-.122c.17-.193.353-.37.535-.55q.168-.17.322-.352l.167-.18q.19-.204.364-.421.111-.134.226-.264c.345-.4.649-.834.95-1.268l.088-.127a34 34 0 0 0 1.76-2.86l.16-.288.125-.224c-.85.021-1.7.052-2.55.084l-.776.03q-.706.027-1.412.06a25 25 0 0 1-1.122.025 1 1 0 0 1 .153-.277q.149-.201.292-.405.472-.667.978-1.309l.142-.185q.547-.713 1.11-1.415.2-.252.397-.505l.157-.199.078-.1.625-.795q.082-.103.161-.208c.405-.526.405-.526.743-.461"/><path fill="#FD8500" d="M53.93 84.139c.118.147.22.3.324.457.412.62.84 1.23 1.298 1.818l.137.18q.209.269.425.532.129.159.254.321.175.223.367.428.1.111.193.228.184.223.384.433.178.196.348.4.114.131.232.259.129.14.247.29c.11.14.23.27.351.4q.104.114.2.236c.138.171.288.33.44.49q.149.16.29.326l.125.137q.13.144.25.295c.139.17.29.329.44.489q.15.164.287.338.114.134.235.263.19.203.362.42.107.126.221.248.183.198.35.408.093.112.19.218.163.18.313.368.126.152.257.3a19 19 0 0 1 .569.683l.064.079.124.15.196.24.088.108q.25.306.49.619l.27.345q.248.32.483.65l.181.25c1.463 1.996 2.501 4.191 2.868 6.647l.018.117c.054.38.054.38.039.566-.085.113-.085.113-.204.145-.173-.004-.244-.061-.365-.174l-.087-.078q-.247-.225-.481-.462-.106-.103-.22-.197-.128-.118-.25-.244c-.144-.146-.144-.146-.297-.283-.149-.126-.282-.267-.42-.406a5 5 0 0 0-.265-.242c-.102-.091-.197-.191-.294-.289a5 5 0 0 0-.245-.222c-.095-.085-.183-.177-.273-.267a4 4 0 0 0-.24-.217q-.129-.119-.25-.245a4 4 0 0 0-.236-.213c-.089-.078-.17-.164-.253-.247l-.105-.092a14 14 0 0 1-.361-.331 20 20 0 0 0-.462-.426l-.242-.221q-.291-.266-.59-.52a15 15 0 0 1-.35-.307 7 7 0 0 0-.292-.249 7 7 0 0 1-.315-.272 8 8 0 0 0-.384-.328q-.204-.17-.403-.345a25 25 0 0 0-.662-.562q-.242-.2-.477-.407a45 45 0 0 0-.477-.406l-.185-.156-.277-.234-.578-.493-.283-.24q-.293-.248-.583-.498l-.108-.093c-.523-.451-1.033-.92-1.485-1.443q-.106-.115-.213-.228a10 10 0 0 1-.537-.608l-.058-.072c-.522-.685-.104-7.338-.102-8.564"/><path fill="#0158A2" d="M44.117 62.037h.029c0 2.022-.05 4.043-.086 6.064-.071 4.258-.114 8.51-.056 12.767.019 1.972.033 3.944.028 5.916-.292-.292-.514-.651-.74-.996l-.128-.19a32 32 0 0 1-.952-1.516l-.104-.175c-.515-.876-.91-1.803-1.262-2.755l-.064-.17c-.752-2.013-1.212-3.555-1.244-5.718l-.031-1.91-.02-2.158-.028-2.167c.079-1.758.079-1.758.875-2.554l.228-.2q.144-.14.286-.282l.147-.147q.172-.18.335-.367.17-.172.343-.341.16-.166.311-.342l.2-.213q.204-.216.397-.44l.077-.089q.258-.297.499-.607.08-.103.162-.203c.47-.56.47-.56.798-1.207"/><path fill="#FA7307" d="M64.91 57.884c.08.12.15.243.222.367q.236.398.48.79l.288.47.427.697q.3.487.597.978.172.284.347.567.236.383.47.768.291.48.587.96l.407.666.323.527q.3.488.596.977.172.285.348.568.297.483.59.969l.348.567q.297.483.592.969.172.284.347.567a146 146 0 0 1 .8 1.309l.071.116.06.097.036.07c-.028.057-.028.057-.086.08-.469.13-.962.095-1.443.095h-.437a16 16 0 0 1-1.94-.126l-.408-.052c-.32-.045-.632-.1-.948-.167l-.186-.038c-.57-.122-.57-.122-.838-.218l-.075-.027c-1.107-.43-2.105-1.257-2.826-2.192l-.178-.215a13 13 0 0 1-1.216-1.804l-.087-.153c-1.335-2.406-1.335-2.406-1.25-3.488.155-.474.66-.832 1-1.17.405-.402.405-.402.792-.821q.081-.09.164-.178l.089-.096.17-.185q.22-.235.422-.485.105-.128.215-.255c.186-.22.359-.449.533-.679l.12-.155.122-.16.113-.146q.13-.176.242-.364"/><path fill="#9F3F06" d="M69.433 86.215q.468.216.923.457.299.157.599.311.426.22.85.443l.458.24q.296.153.59.31l.853.443.847.441.167.088.916.48q.102.054.208.103c.239.13.287.6.359.837.21.742.381 1.483.483 2.247l.033.24c.138 1.16.128 2.329-.033 3.486l-.025.187c-.213 1.463-.678 2.811-1.255 4.165l-.163.388-.075.175-.16.379-.084.2-.075.179c-.376.868-1.19 1.348-1.984 1.805a8 8 0 0 0-.246.149c-.578.346-.578.346-.825.309-.069-.045-.069-.045-.114-.113-.033-.218 0-.446.027-.664.234-1.919-.062-3.904-.74-5.708-.027-.085-.027-.085.002-.142 1.112-2.637.634-5.763-.341-8.334l-.106-.297q-.106-.292-.218-.58l-.049-.127a7 7 0 0 0-.117-.271c-.112-.248-.215-.5-.32-.752l-.125-.305-.118-.285-.102-.247-.069-.18z"/><path fill="#FEC500" d="M59.449 28.274c1.145.096 2.288.3 3.42.494q.756.124 1.514.244.406.066.812.144l.332.055q.385.063.769.138.362.069.724.135l.27.05q.388.07.778.134l.526.094q.666.12 1.333.237.336.06.672.124.603.113 1.207.215c2.308.381 4.218 1.335 5.99 2.842l.24.198q.231.191.46.388.123.106.25.21c.165.132.323.271.482.41q.166.142.336.279.142.118.281.238.198.171.403.333.156.125.308.254.303.248.616.484.188.144.375.29.333.26.674.507.194.144.382.292c-.36.18-1.392-.25-1.805-.344q-.63-.138-1.26-.266-.957-.199-1.913-.411-.596-.131-1.193-.255-.825-.173-1.648-.357-.48-.107-.964-.204-.66-.134-1.317-.287a16 16 0 0 0-.629-.125q-.256-.051-.51-.114-.15-.036-.303-.067a17 17 0 0 1-.506-.117 5 5 0 0 0-.59-.114c-.087-.014-.165-.042-.248-.07l-.113-.014a1.4 1.4 0 0 1-.285-.07l-.114-.015a1.4 1.4 0 0 1-.284-.071l-.114-.014a1.4 1.4 0 0 1-.284-.072l-.228-.028-.028-.028q-.136-.023-.273-.04a2 2 0 0 1-.268-.074l-.194-.034c-1.178-.2-1.178-.2-1.256-.28l-.185-.028c-.182-.025-.182-.025-.214-.056l-.21-.038q-.354-.061-.704-.14c-.105-.024-.105-.024-.195-.022-.175-.14-.33-.3-.487-.459a5 5 0 0 0-.255-.232c-.086-.076-.166-.16-.247-.242a4 4 0 0 0-.177-.162 5 5 0 0 1-.307-.293 3 3 0 0 0-.177-.162 5 5 0 0 1-.306-.293 5 5 0 0 0-.235-.212q-.118-.107-.227-.221a3 3 0 0 0-.169-.154 4 4 0 0 1-.243-.23 4 4 0 0 0-.242-.227 5 5 0 0 1-.307-.293 3 3 0 0 0-.177-.162 5 5 0 0 1-.306-.293 5 5 0 0 0-.235-.212c-.08-.07-.152-.146-.227-.221a3 3 0 0 0-.169-.154 5 5 0 0 1-.308-.295 4 4 0 0 0-.179-.163 4 4 0 0 1-.34-.326zm1.153 8.334c.673.156 1.327.362 1.976.597.017.661-.159 1.346-.267 1.994q-.038.232-.072.466c-.247 1.652-1.247 3.41-2.05 4.85q-.06.11-.116.22c-.324.609-.693 1.194-1.051 1.784l-.284.471-.222.366-.262.43-.242.399-.12.198-.245.404-.758 1.247-.2.327-.497.818-.197.324q-.26.428-.523.854-.36.586-.716 1.175l-.484.797-.103.17q-.257.423-.517.845-.305.494-.606.992-.21.348-.424.695l-.162.265-.077.127-.143.234-.062.103-.055.09-.041.063h-.029c-.084-2.58.811-5.557 1.508-8.021l.05-.18q.176-.64.377-1.271l.081-.264c.31-.99.648-1.968 1.056-2.922l.08-.19a31 31 0 0 1 1.715-3.506q.111-.195.218-.391c.162-.293.337-.577.512-.863q.16-.262.314-.527a32 32 0 0 1 1.445-2.209q.229-.325.452-.653c.224-.309.359-.377.741-.308"/><path fill="#C81B2C" d="m64.825 33.28.172.036.226.047.224.048q.214.042.43.068l.171.057.114.014c.114.014.114.014.284.071q.257.06.514.114l.278.06q.314.064.63.11l.171.058q.114.016.228.028l.028.029q.093.016.185.028c.182.025.182.025.213.057q.093.016.185.028c.182.026.182.026.214.057l.184.029c.182.025.182.025.214.057q.135.022.27.04c.1.016.1.016.189.042.215.061.436.097.656.139.165.035.165.035.335.091l.22.04q.156.03.31.069c.257.061.516.112.776.164.496.1.991.202 1.482.325l.31.062q.47.093.94.192l.258.054q.32.069.637.144.6.135 1.203.257c.499.103.996.207 1.493.321.728.165 1.46.315 2.19.467q.81.168 1.616.352l.143.025a.8.8 0 0 1 .323.18l.118.094.127.099.276.203a27 27 0 0 1 .707.534c.343.26.484.503.601.925l.06.213.063.23.068.244c.097.354.194.708.274 1.067.034.135.077.266.12.399.071.234.126.464.078.708a.7.7 0 0 1-.243.229l-.066.04c-.57.279-1.699.594-2.308.442l.125-.04.163-.055.162-.053c.195-.068.321-.127.46-.279l.03-.028c0-.219-.077-.344-.172-.54l-.18-.42c-.41-.949-.886-1.727-1.867-2.149-.754-.287-1.52-.229-2.278.012q-.243.074-.489.14-.356.097-.708.212-.225.068-.45.128-.359.096-.71.211-.25.076-.5.144-.314.086-.626.185-.298.095-.6.178c-.375.104-.748.217-1.12.33-.687.21-.687.21-1.007.063-.156-.093-.285-.218-.416-.343l-.147-.132a5 5 0 0 1-.24-.227 5 5 0 0 0-.268-.246c-.089-.079-.17-.165-.255-.249l-.106-.092a12 12 0 0 1-.35-.322q-.476-.45-.957-.892l-.31-.288-.382-.354q-.247-.226-.491-.456l-.476-.44-.278-.256-.182-.169-.495-.459q-.233-.218-.468-.433l-.273-.251a15 15 0 0 0-.701-.615 6 6 0 0 1-.22-.192 8 8 0 0 0-.364-.31l-.341-.28-.122-.1-.111-.092-.1-.078-.071-.065z"/><path fill="#FEF5BF" d="M56.292 66.475c.126.09.155.214.202.359.837 2.474 2.227 4.71 3.979 6.638l.058.065c.44.493.892.981 1.393 1.414l.199.2.166.145q.1.088.198.178.149.133.302.258.162.13.315.272.188.17.386.33.243.201.482.41.277.24.567.467.254.2.5.415.195.164.4.32.142.114.282.234.234.198.477.385.175.14.348.283.218.181.44.356.28.219.553.448c.137.117.137.117.334.231.278.269.297.511.369.889l.084.43.083.434q.075.366.155.732l.083.396q.128.61.259 1.22l.166.779.16.745c.116.565.116.565.087.622a10 10 0 0 1-.455-.384 8 8 0 0 0-.37-.314l-.284-.24q-.254-.218-.512-.427l-.68-.56-.43-.35-.156-.129-.078-.064-.313-.256-.155-.126a26 26 0 0 1-.423-.352 12 12 0 0 0-.323-.267q-.226-.182-.445-.373a13 13 0 0 0-.252-.21 18 18 0 0 1-.476-.404l-.314-.27q-.233-.2-.459-.41l-.19-.17q-.23-.201-.455-.412l-.095-.087a11 11 0 0 1-.465-.446 4 4 0 0 0-.166-.15 10 10 0 0 1-.456-.438l-.17-.17a8 8 0 0 1-.354-.387l-.128-.128a5 5 0 0 1-.276-.296l-.176-.196a9 9 0 0 1-.32-.379q-.105-.127-.213-.25c-.21-.248-.402-.51-.594-.77l-.098-.132c-.657-.897-1.192-1.888-1.7-2.874l-.22-.413c-.565-1.074-.9-2.182-1.25-3.341q-.133-.435-.288-.863-.052-.174-.1-.349c-.07-.225-.15-.447-.23-.669-.048-.18-.03-.236.058-.39l.05-.079c.165-.26.316-.53.47-.797.203-.353.203-.353.464-.333"/><path fill="#2ED3FC" d="M79.844 68.181c.205.103.302.326.426.512l.156.231a36 36 0 0 1 1.864 3.097l.05.096c.737 1.616-.372 5.937-.998 7.632a19.5 19.5 0 0 1-1.356 2.797l-.08.138a22 22 0 0 1-1.143 1.74l-.099.134q-.297.408-.612.804l-.098.121c-.256.317-.256.317-.386.448l-.077-.126c-.19-.304-.38-.606-.58-.904-.652-.971-.863-1.364-.657-2.569.1-.587.1-.587.196-1.174q.04-.255.092-.507c.058-.28.102-.56.146-.842q.039-.24.09-.479.059-.306.108-.613.039-.205.085-.41l.064-.336c.171-.886.358-1.771.576-2.648q.064-.265.124-.532c.14-.608.29-1.214.475-1.81q.068-.228.13-.457c.357-1.278.765-2.548 1.276-3.774l.135-.338z"/><path fill="#26CEFD" d="M52.764 42.553c0 .16-.098.306-.165.448l-.103.22-.254.53a33 33 0 0 0-2.038 5.43q-.067.235-.139.47a27 27 0 0 0-.562 2.272l-.038.159-.057.028a11 11 0 0 0-.135.338 95 95 0 0 1-1.003 2.478l-.082.197c-.52 1.234-1.05 2.465-1.738 3.615l-.077.13a27 27 0 0 1-1.146 1.719l-.091.127q-.309.429-.63.846-.152.198-.295.401l-.037.048h-.028q-.017-2.74-.027-5.481l-.015-3.083.042-2.444q.462-.401.927-.798.273-.233.54-.476.117-.107.239-.212l.269-.24.141-.127q.247-.222.49-.448l.276-.254c.438-.402.438-.402.86-.82q.145-.138.297-.266l1.054-1.05.579-.58c.343-.344.343-.344.67-.702l.186-.185q.152-.148.293-.308.122-.14.256-.268c.091-.094.175-.194.261-.292l.21-.224q.24-.255.473-.515l.06-.067c.184-.202.36-.409.537-.616"/><path fill="#0157A2" d="M35.381 73.06c.118.014.118.014.26.156q0 5.772-.009 11.545l-.005 4.45c-.015 3.433-.015 3.433-.1 3.575a.4.4 0 0 1-.313.028c-.113-.089-.196-.2-.284-.313l-.086-.11q-.143-.185-.284-.373l-.097-.129c-.569-.758-1.056-1.574-1.515-2.402l-.281-.5a46 46 0 0 1-.46-.838 42 42 0 0 0-.374-.667q-.165-.293-.325-.588a16 16 0 0 0-.246-.421c-.63-1.091-.013-2.776.28-3.91.287-1.044.601-2.081.998-3.09l.171-.454c.567-1.513 1.216-2.991 1.867-4.469q.132-.298.26-.597l.133-.307.119-.277c.132-.289.132-.289.291-.31"/><path fill="#FEC500" d="M49.18 73.017c.102.153.121.342.162.519.094.392.2.775.322 1.16l.067.217c.752 2.427 1.676 4.855 2.948 7.064l.123.25c.102.196.219.385.332.575l.086.146c.23.392.47.776.71 1.162.036.717.046 1.435.042 2.153l-.004 1.268-.009 1.273.002 2.185-.002 1.598a1.4 1.4 0 0 1-.261-.258 6 6 0 0 0-.28-.325 8 8 0 0 1-.333-.392q-.136-.16-.279-.313a6 6 0 0 1-.196-.232 6 6 0 0 0-.286-.33 8 8 0 0 1-.349-.405 6 6 0 0 0-.206-.234 8 8 0 0 1-.334-.391 6 6 0 0 0-.207-.235 8 8 0 0 1-.333-.391 6 6 0 0 0-.207-.235 8 8 0 0 1-.333-.39c-.09-.109-.185-.21-.28-.314a6 6 0 0 1-.196-.233 6 6 0 0 0-.286-.329 8 8 0 0 1-.348-.405 7 7 0 0 0-.287-.32c-.223-.258-.142-.302-.119-.725l.07-2.587.037-1.423q.049-2.005.092-4.012l.045-1.635q.032-1.14.056-2.28.01-.588.041-1.176"/><path fill="#012C61" d="M39.566 77.198h.029l.017.121c.067.368.195.725.316 1.078q.045.138.088.278c.097.315.207.626.314.938l.161.47a24 24 0 0 0 3.598 6.786c.122.733.047 1.681.055 2.407.043 4.068.043 4.068.103 8.136q.016.858.013 1.717c-1.184-1.115-1.984-3.072-2.56-4.551l-.057-.137c-.232-.57-.41-1.156-.598-1.74l-.062-.186a8 8 0 0 1-.146-.513q-.074-.297-.154-.593c-.15-.56-.265-1.126-.377-1.695l-.047-.232c-.518-2.663-.598-5.37-.654-8.076l-.022-1.064q-.024-1.572-.017-3.144"/><path fill="#78AE45" d="M41.5 41.273c-.498 1.038-1.115 2.036-1.763 2.987l-.088.129c-.395.58-.798 1.152-1.249 1.691l-.075.09q-.224.267-.458.523l-.157.176c-.271.312-.56.606-.855.896a5 5 0 0 0-.209.226 3 3 0 0 1-.242.244c-.218.196-.423.405-.629.613a7 7 0 0 1-.362.332l-.238.224a21 21 0 0 1-.599.55q-.222.203-.455.39a5 5 0 0 0-.357.316q-.156.081-.313.158-.384.19-.762.389-.276.145-.554.288-.737.379-1.469.77c-.088.044-.088.044-.145.044.461-1.845 1.23-3.65 2.02-5.376l.136-.307q.133-.294.278-.581l.166-.332q.32-.649.671-1.283l.105-.194q.397-.724.834-1.427l.096-.159c.62-1.012.62-1.012.757-1.15 4.332-.227 4.332-.227 5.916-.227"/><path fill="#E58100" d="M58.738 46.962c.028.057.028.057-.054.312l-.119.34q-.335.98-.652 1.965l-.064.197a18 18 0 0 0-.238.802c-.083.294-.176.586-.267.878q-.286.925-.528 1.863-.058.217-.12.432c-.627 2.178-.965 4.42-1.23 6.665l-.027.224c-.066.56-.115 1.123-.16 1.685l-.038.46c-.024.327-.036.65-.043.979-.023.426-.159.64-.442.947q-.1.136-.198.274c-.147.204-.296.404-.458.598a14.6 14.6 0 0 0-1.372 1.958c-.22.366-.22.366-.333.441-.109.017-.156.01-.25-.05-.542-.783-.28-2.708-.32-3.62l-.016-.315c-.073-2.063.018-4.117.216-6.17h.085c.067-.096.067-.096.134-.218l.077-.135.074-.13q.053-.09.108-.178l.056-.09.063-.102q.37-.596.734-1.196a399 399 0 0 1 1.138-1.867q.36-.586.717-1.175l.881-1.45.2-.328 1.194-1.962.1-.165.196-.321.097-.16.099-.161.232-.384.13-.214.119-.197q.134-.219.279-.432"/><path fill="#036AB4" d="m55.259 24.96.233-.007.21-.009c.246.039.336.137.504.315l.229.185c.133.111.258.23.384.35q.102.093.206.183c.193.171.37.356.55.539.119.117.24.226.366.336q.108.105.214.213c.123.124.246.245.38.357.124.113.24.234.358.354.105.104.216.201.328.299q.115.106.228.213l.128.12.128.122.227.213.94.882.71.668.242.228.364.342.589.554.711.668.362.34.25.237c.254.24.254.24.513.472l.098.09v.056q-.98.22-1.962.424a135 135 0 0 0-1.346.286q-.812.174-1.623.353-1.104.242-2.208.473l-.275.057c-.542.114-.542.114-.607.114q-.174-1.209-.342-2.418l-.11-.795-.06-.437c-.133-.998-.133-.998-.342-1.982l-.028-.128a11 11 0 0 0-1.866-4.045c-.068-.094-.068-.094-.068-.122.458-.066.923-.074 1.384-.1"/><path fill="#FC7C04" d="m43.435 48.526.057.029-.116.114-.15.149-.148.148c-.125.122-.125.122-.212.243h-.057l-.057.114a4 4 0 0 1-.133.135q-.13.125-.25.261c-.106.125-.223.24-.34.354-.075.073-.075.073-.136.155l-.051.062h-.057l-.057.114q-.072.075-.148.149a4 4 0 0 0-.263.276 5 5 0 0 1-.272.286 4 4 0 0 0-.268.282c-.12.142-.254.27-.386.399-.085.083-.085.083-.15.169l-.049.06h-.057l-.057.114q-.089.093-.181.183c-.133.129-.133.129-.254.27l-.048.059h-.057l-.057.113q-.093.099-.19.192a6 6 0 0 0-.307.32 6 6 0 0 1-.324.336 6 6 0 0 0-.488.546l-.2.244q-.215.26-.425.524-.202.255-.407.505-.221.272-.436.548-.081.102-.167.2c-.08.09-.08.09-.157.226a6 6 0 0 1-.291.184l-.18.106-.183.109-.318.193-.164.1-.358.218q-.645.392-1.295.777-.422.251-.842.508l-.465.28q-.54.325-1.08.654l-.597.362-.407.248q-.517.314-1.035.625-.214.129-.427.264c-.066.037-.066.037-.123.037.144-2.035.69-4.107 1.166-6.087l.029.057c1.206-.453 2.408-.915 3.603-1.396q.2-.08.4-.156.26-.102.52-.212l.171-.07.172-.072.171-.07q.16-.069.317-.14.308-.138.62-.268c1.313-.562 2.617-1.161 3.868-1.854l.186-.103q.637-.351 1.264-.722l.22-.13c1.113-.582 1.113-.582 2.113-1.32"/><path fill="#012C61" d="M44.117 52.139h.029a4500 4500 0 0 1 .016 7.703c-.017 2.294-.287 2.89-1.665 4.407l-.154.174q-.164.186-.332.368l-.166.18q-.273.3-.563.582a5 5 0 0 0-.187.204 9 9 0 0 1-.403.42l-.155.155a3 3 0 0 1-.525.434 1.3 1.3 0 0 0-.446.505c-.061.552-.052 1.095-.028 1.65h-.029l-.005-.932c-.014-2.547-.014-2.547-.036-5.095l-.005-.564a86 86 0 0 0-.039-1.433l-.027-.861-.029-.792c.028-.648.028-.648.426-1.189l.276-.383q.294-.405.592-.806.29-.39.575-.787.194-.269.392-.535l.284-.39q.339-.469.684-.933.336-.457.667-.916.42-.587.853-1.166"/><path fill="#0369B4" d="m80.64 58.425.58.032q1.788.1 3.573.252l.569.045.261.02.617.045q2.852.209 5.692.545l.262.029.258.03.23.025c.26.04.26.04.388.115.07.103.078.133.057.256-.16.228-.355.418-.553.615l-.186.186a8 8 0 0 1-.399.365l-.131.12c-.748.674-1.722 1.418-2.742 1.558l-.17.057q-.885.075-1.77.14l-.986.076-.914.068-.685.052c-.952.063-.952.063-1.183-.103l-.18-.176-.199-.157q-.242-.19-.475-.39-.144-.12-.293-.235a14 14 0 0 1-.475-.391q-.144-.12-.293-.235a14 14 0 0 1-.483-.397q-.144-.12-.29-.237-.385-.307-.765-.621l-.31-.253-.769-.625-.466-.38-.162-.13-.086-.068-.079-.061c-.06-.058-.06-.058-.088-.172.518-.389 2.044-.035 2.645 0"/><path fill="#963808" d="M62.123 40.135c.038.116.013.195-.011.315l-.024.123c-.022.103-.022.103-.05.16l-.013.119c-.014.12-.04.22-.073.336l-.014.128c-.014.128-.014.128-.041.218-.036.13-.052.26-.068.394-.02.113-.02.113-.058.266-.055.222-.1.446-.144.67l-.053.267-.11.569a18 18 0 0 1-.158.74q-.055.244-.102.492a66 66 0 0 1-1.186 4.96q-.037.148-.071.298-.063.272-.14.541-.106.394-.198.79-.111.477-.228.95c-.108.457-.201.915-.291 1.376l-.094.478a51 51 0 0 0-.344 1.995l-.058.379c-.19 1.26-.378 2.526-.484 3.797-.024.242-.05.351-.217.514l-.061.06q-.08.074-.164.144c-.265.228-.496.501-.722.766l-.076.089-.175.204-.18.209q-.258.3-.508.608l-.088.107q-.344.42-.667.855l-.07.09h-.028c-.005-.418.029-.834.057-1.251l.011-.194a47 47 0 0 1 .273-2.765l.03-.257c.122-.99.266-1.976.454-2.957l.044-.233c.225-1.166.514-2.322.837-3.465l.046-.164q.251-.904.528-1.8.063-.202.122-.405c.243-.826.513-1.642.783-2.459q.121-.363.236-.73c.158-.488.367-.895.646-1.325l.216-.357.106-.179.105-.175.1-.168c.223-.376.428-.759.627-1.148q.117-.23.24-.457a23.6 23.6 0 0 0 1.443-3.388c.036-.101.036-.101.065-.13"/><path fill="#012C62" d="M82.375 72.249c.245.326.305.66.372 1.058l.058.346.054.331.04.25c.575 3.63.57 7.39-.308 10.97l-.093.39q-.155.658-.35 1.304l-.077.259a37.6 37.6 0 0 1-2.341 5.885c-.129-.129-.107-.474-.125-.638a20 20 0 0 0-.359-2.235l-.033-.154c-.31-1.37-.865-2.686-1.554-3.907-.063-.12-.063-.12-.063-.206q.064-.09.134-.176l.087-.108.181-.222c.237-.289.46-.585.68-.888l.081-.112c1.657-2.31 2.918-4.928 3.417-7.738l.027-.148c.225-1.4.176-2.849.172-4.261"/><path fill="#9F4006" d="M57.23 88.49c.15.119.265.248.384.397q.118.14.244.274.177.19.338.396c.093.114.194.22.294.328q.104.114.2.236c.138.171.288.33.44.49q.149.16.29.326l.125.137q.13.144.25.295c.139.17.29.329.44.489.101.109.194.222.287.338q.114.134.235.263.19.203.362.42.107.126.221.248.183.198.35.408.093.112.19.218.163.18.313.368.126.152.257.3a19 19 0 0 1 .569.683l.064.079.124.15.196.24.088.108q.25.306.49.619l.27.345q.248.32.483.65l.181.25c1.463 1.996 2.501 4.191 2.868 6.647l.018.117c.054.38.054.38.039.566-.085.113-.085.113-.204.145-.173-.004-.244-.061-.365-.174l-.087-.078q-.247-.225-.481-.462-.106-.103-.22-.197-.128-.118-.25-.244c-.144-.146-.144-.146-.297-.283-.149-.126-.282-.267-.42-.406a5 5 0 0 0-.265-.242c-.102-.091-.197-.191-.294-.289a5 5 0 0 0-.245-.222c-.095-.085-.183-.177-.273-.267a4 4 0 0 0-.24-.217q-.129-.119-.25-.245a4 4 0 0 0-.236-.213c-.089-.078-.17-.164-.253-.247l-.105-.092a14 14 0 0 1-.361-.331 20 20 0 0 0-.462-.426l-.242-.221a17 17 0 0 0-.493-.436l-.108-.093-.102-.086-.09-.079-.067-.053c-.07-.09-.066-.175-.075-.288l-.05-.256-.03-.152-.034-.161-.034-.166a99 99 0 0 0-.401-1.838l-.123-.565q-.076-.347-.175-.69a13 13 0 0 1-.105-.407 11.9 11.9 0 0 0-1.306-3.193 4 4 0 0 1-.128-.247c-.09-.181-.192-.353-.295-.527q-.12-.205-.237-.411-.266-.464-.547-.918-.207-.344-.409-.692c-.079-.133-.079-.133-.176-.258-.075-.1-.075-.1-.075-.157m27.506-2.986h.028l.003.133c.031.217.108.358.214.548l.118.213.12.215.21.391.106.198.358.674q.206.387.416.773.215.392.419.79.161.304.328.607.254.472.504.949c.077.144.077.144.163.283v.086l.057.028-.07.1q-.118.177-.218.366c-.793 1.419-1.79 2.735-2.841 3.971l-.082.097q-.27.319-.558.621-.18.194-.356.392-.292.296-.585.588l-.313.313q-.24.24-.496.464l-.18.167a8 8 0 0 1-.428.37 6 6 0 0 0-.217.188q-.222.2-.455.384l-.096.08c-1.403 1.137-1.403 1.137-1.841 1.216-.117-.022-.156-.062-.224-.158 0-.255.057-.441.131-.684.207-.656.207-.656.347-1.327a.62.62 0 0 1 .192-.35l.093-.102.09-.097q.068-.08.133-.162l.062-.076.06-.075.122-.147.064-.079.157-.192q.278-.337.537-.688.14-.185.284-.368.307-.395.6-.801l.08-.109c1.07-1.495 1.975-2.97 2.338-4.784l.033-.148c.027-.11.027-.11.038-.236.015-.128.015-.128.04-.235.043-.204.071-.41.1-.616q.054-.375.116-.75c.162-.993.268-2.014.299-3.021"/><path fill="#FEC200" d="M81.067 43.207c.074.109.074.109.154.256l.09.163.097.178q.106.194.213.384l.099.18c.084.151.084.151.2.29l-.028.085v-.057h-.057l-.029.17q-.067.21-.138.419c-.374 1.11-.726 2.228-1.083 3.344-.572 1.79-.572 1.79-.713 2.211-.139-.02-.223-.081-.335-.163a8 8 0 0 0-.333-.217q-.434-.275-.863-.557l-.66-.428-1.293-.84-1.053-.682-1.052-.683-1.056-.684-.239-.155-.141-.091-.141-.092-.129-.083c-.1-.075-.1-.075-.157-.189-.014-.104-.011-.153.046-.243a.5.5 0 0 1 .249-.139l.116-.036q.288-.082.578-.158c.268-.075.532-.159.797-.242q.442-.137.887-.263l.15-.043q.308-.089.614-.173.59-.165 1.174-.349.32-.098.64-.188.27-.076.537-.157.415-.123.832-.242.565-.16 1.129-.33l.138-.042.272-.083.13-.04.116-.037c.1-.022.1-.022.242.006"/><path fill="#FEC800" d="m43.378 23.467.142.085q.232.093.466.183l.282.109.276.106.418.162.216.084c2.789 1.079 2.789 1.079 3.15 1.233-.086.029-.086.029-.166.017-.172-.024-.341-.022-.514-.022l-.21-.001a2 2 0 0 0-.448.063l-.101.023c-.886.215-1.691.852-2.203 1.599-.692 1.146-1.024 2.82-.71 4.124.234.87.799 1.632 1.52 2.16l.072.059v.057l-.07.029-.094.038-.092.038a4 4 0 0 0-.2.094c-1.103.293-2.358.002-3.386-.452-.626-.396-.931-1.566-1.107-2.25-.394-1.91-.116-3.807.915-5.474.467-.707 1.027-1.406 1.697-1.93.068-.052.068-.052.147-.134"/><path fill="#FA7606" d="M77.286 32.753q.118.102.24.2.218.18.435.364.122.103.245.203.23.189.456.385.234.2.47.399l.185.156.093.079.184.156q.233.2.475.39.205.159.4.328.293.25.598.484l.12.094q.393.308.798.603.311.231.618.47c-.36.18-1.392-.25-1.805-.345q-.63-.138-1.26-.266-.957-.199-1.913-.411-.596-.131-1.193-.255-.825-.173-1.648-.357-.48-.107-.964-.204-.66-.134-1.317-.287a16 16 0 0 0-.629-.125q-.256-.051-.51-.114-.15-.036-.303-.067a17 17 0 0 1-.506-.117 5 5 0 0 0-.59-.114c-.087-.014-.165-.042-.248-.07l-.113-.014a1.4 1.4 0 0 1-.285-.07l-.114-.015a1.4 1.4 0 0 1-.284-.071l-.114-.014a1.4 1.4 0 0 1-.284-.072l-.228-.028-.028-.028q-.136-.023-.273-.04a2 2 0 0 1-.268-.074l-.194-.034c-1.178-.2-1.178-.2-1.256-.28l-.185-.028c-.182-.025-.182-.025-.214-.056l-.21-.038q-.354-.061-.704-.14c-.105-.024-.105-.024-.195-.022l-.057-.056c.828-.133 1.658-.248 2.489-.365q2.234-.313 4.467-.634.617-.088 1.236-.168c.482-.066.962-.141 1.443-.215q.43-.067.861-.126l.13-.019.124-.017.106-.014c.58-.04 1.3.696 1.72 1.06"/><path fill="#A74604" d="M81.835 44.686h.057q.06.09.113.183l.07.12.073.124.135.23.072.122.447.757.185.313.092.157 1.017 1.72.092.156.187.318q.21.357.427.712.313.514.617 1.033.389.66.785 1.314.306.503.601 1.012.18.303.363.604.246.403.484.81.297.509.605 1.012.238.393.47.79.114.19.232.38c.1.165.1.165.1.222a1.6 1.6 0 0 1-.353-.192q-.583-.38-1.172-.748-.346-.219-.688-.444l-.46-.294a89 89 0 0 1-.882-.569q-.416-.27-.834-.537-.4-.255-.798-.515l-.615-.399-.242-.156-.12-.078-.485-.314-.238-.154-.65-.421c-.85-.553-.85-.553-1.707-1.095l.057-.029.085-.341q.15-.472.304-.942a488 488 0 0 0 .993-3.081l.176-.552.117-.367.11-.347q.083-.258.178-.514"/><path fill="#C3182C" d="M50.343 26.494c.15.123.29.253.43.386l.075.07a4 4 0 0 1 1.177 2.376l.016.113c.093 1.057-.079 2.073-.414 3.073q-.03.093-.057.187l-.028.089-.06.201c-.11.36-.272.69-.439 1.027q-.16.33-.307.665c-.067.149-.116.238-.244.34l-.074.06-.1.076-.157.122a7 7 0 0 1-.572.369l-.196.116c-1.15.653-2.433.657-3.693.328a7.5 7.5 0 0 1-3.02-1.666l-.141-.127c-.352-.308-.715-.685-.925-1.104q.254.083.502.18c.454.167.925.283 1.404.36l.102.018c.654.102 1.204.023 1.812-.217.077-.028.077-.028.134-.028l.028-.057.055.036c1.137.745 2.483.859 3.794.591a3.7 3.7 0 0 0 .816-.286l.113-.053c.402-.192.602-.35.77-.772.042-.257.032-.511.033-.771l.001-.328c-.025-1.236-.395-2.329-1.258-3.224l-.055-.061c-.644-.687-1.614-1.032-2.533-1.106-.924-.03-1.84.091-2.562.711-.46.436-.76 1.085-.852 1.707h-.028c-.03-.989.316-2.327.995-3.072l.063-.072q.096-.108.193-.212l.054-.059c.165-.172.352-.313.544-.453l.082-.061c1.489-1.043 3.198-.508 4.522.528"/><path fill="#BE142C" d="M69.433 86.215q.468.216.923.457.299.157.599.311.426.22.85.443l.458.24q.296.153.59.31l.853.443.847.441.167.088.916.48q.102.054.208.103c.239.13.287.6.359.837.21.742.381 1.483.483 2.247l.033.24c.138 1.16.128 2.329-.033 3.486l-.025.187c-.213 1.463-.678 2.811-1.255 4.165l-.163.388-.15.352-.172.407-.078.183-.12.292h-.028c-.003-.164-.003-.164.029-.228q.016-.156.028-.313c.025-.306.025-.306.057-.37.078-.796.096-1.582.094-2.382v-.682c.02-.706.02-.706-.094-1.401q-.014-.135-.025-.27c-.079-.844-.22-1.743-.568-2.52a6 6 0 0 1-.14-.353c-.385-1.011-.927-1.964-1.486-2.888l-.102-.17a32 32 0 0 0-.723-1.138l-.077-.117a43 43 0 0 0-1.836-2.58c-.4-.518-.4-.518-.448-.66z"/><path fill="#CA1C2D" d="M53.96 92.615c.069.07.068.101.08.198l.033.2.017.107c.334 1.82 1.251 3.63 2.03 5.298l.106.227c.334.714.67 1.43 1.06 2.115q.08.146.152.294c.114.233.244.456.373.681q.16.287.313.578.252.47.524.928.152.265.292.537.085.158.18.311.085.143.165.29.14.247.283.49l.071.122q.06.102.123.202c.075.124.126.217.117.364-.032.114-.032.114-.146.199-.975.074-2.129-.175-3.092-.382a27 27 0 0 0-.89-.169 10 10 0 0 1-.654-.16l-.37-.085-.768-.199z"/><path fill="#CF1F2D" d="M62.606 60.7c.052.079.083.146.118.233.302.735.727 1.42 1.134 2.1l.183.311q.269.454.544.904l.256.423.128.21.115.191a13 13 0 0 0 1.078 1.488l.082.099q.225.27.467.528.139.154.276.312l.524.528.283.282q.229.229.473.441l.18.167q.207.193.428.37.108.09.211.185c.143.13.294.248.446.366q.138.11.273.222.263.22.538.425l.144.11c.26.197.26.197.527.385l.069.046v.028l-.269.002-.15.001a15 15 0 0 1-1.724-.125l-.408-.052c-.32-.045-.632-.1-.948-.167l-.186-.038c-.57-.122-.57-.122-.838-.218l-.075-.027c-1.107-.43-2.105-1.257-2.826-2.192l-.178-.215a13 13 0 0 1-1.216-1.804l-.087-.153c-1.335-2.406-1.335-2.406-1.25-3.488.156-.477.664-.837 1.006-1.177.353-.335.353-.335.672-.7"/><path fill="#012C61" d="M44.032 40.846v4.893l-.74.37-.54.284-.54.277q-.578.295-1.154.595l-1.217.63-.616.318-.208.108-.201.104-.178.092q-.195.102-.39.208c-1.353.711-2.945 1.507-4.428 1.878.21-.212.43-.41.655-.605l.268-.24.141-.127q.295-.265.586-.536l.1-.091q.38-.354.742-.724a8 8 0 0 1 .353-.323q.057-.06.11-.122c.17-.193.353-.37.535-.55q.168-.17.322-.352l.167-.18q.19-.204.364-.421.111-.134.226-.264c.345-.4.649-.834.95-1.268l.088-.127a32 32 0 0 0 1.62-2.605l.07-.126q.074-.135.144-.272l.072-.14.065-.126c.13-.18.318-.197.527-.23l.128-.022.13-.021.242-.043.603-.106.254-.045.13-.023.116-.02.106-.02.085-.016c.103-.014.209-.012.313-.012"/><path fill="#E37E00" d="M55.182 67.925h.057l.164.49.092.274q.103.315.2.63l.161.51q.195.618.38 1.24c.307 1.026.75 1.984 1.279 2.915l.142.288c.151.294.322.578.489.863l.085.147.078.132c.059.106.059.106.087.191l-.085.086q-.12.282-.233.567l-.125.313-.125.314c-.234.584-.234.584-.338.83l-.105.273c-.053.14-.116.27-.183.405l-.041.123a3 3 0 0 1-.148.358c-.1.226-.186.458-.273.689l-.061.16-.046.12h-.114c-.072-.085-.072-.085-.153-.206l-.091-.133-.097-.144-.201-.284a20 20 0 0 1-.51-.768l-.104-.163a26 26 0 0 1-.563-.934l-.222-.377a7 7 0 0 1-.282-.526q-.094-.186-.193-.37c-.788-1.502-1.017-3.07-.55-4.715.301-.939.765-1.822 1.26-2.672l.103-.18c.192-.33.192-.33.266-.446"/><path fill="#FEF0B4" d="M83.541 69.006c.12.108.204.238.295.37l.108.155.11.158.198.284.1.142.202.289a91 91 0 0 1 .677.976c1.467 2.127 2.816 4.24 3.658 6.7l.053.153a17 17 0 0 1 .601 8.238l-.03.18a14.5 14.5 0 0 1-1.705 4.656h-.028c-.009-.227.024-.448.051-.672.167-1.436.212-2.87.212-4.315v-.833c-.018-1.855-.158-3.713-.548-5.53l-.071-.348c-.377-1.805-1.022-3.586-1.7-5.3l-.13-.339c-.606-1.619-1.23-3.27-2.008-4.816-.045-.09-.045-.09-.045-.148"/><path fill="#FD7E02" d="M84.764 49.55c.124.043.222.106.33.18q.401.27.808.531l1.508.982.778.506 1.056.688 1.257.817.692.45.284.184.57.37.141.092.288.187.655.425.814.53q.272.179.545.355l.883.573.202.131.19.123c.15.101.15.101.235.186-.323.357-.709.628-1.195.683l-.217.005-.11.002c-.228-.012-.453-.056-.679-.094-1.137-.189-2.288-.288-3.435-.391-1.036-.103-1.036-.103-1.276-.233-.099-.129-.099-.129-.185-.292l-.102-.185-.111-.206-.265-.448-.14-.234-.381-.631a63 63 0 0 1-.6-1.013q-.18-.303-.364-.603a50 50 0 0 1-.483-.811 63 63 0 0 0-.612-1.022q-.196-.325-.388-.651l-.45-.759a17 17 0 0 1-.243-.427"/><path fill="#FEC400" d="M68.068 80.1c.138.088.264.187.39.291l.123.1.112.092.143.114.362.293q.217.177.438.349.254.2.5.415.125.108.255.212.201.165.392.343.09.083.184.164c.218.19.43.384.632.59q.08.076.165.15c.187.162.357.338.519.527q.086.095.18.185.17.171.326.356l.08.092q.264.305.518.619l.091.114c.24.304.462.617.677.938l.074.11c.673.99 1.397 2.189 1.69 3.36l-.03.086a219 219 0 0 1-1.514-.793l-.166-.087-.333-.173a40 40 0 0 1-.815-.433q-.305-.168-.62-.324a69 69 0 0 1-1.423-.736l-.49-.256-.511-.266-.141-.073-.123-.064q-.205-.114-.405-.237a17 17 0 0 1-.228-1.024l-.115-.54-.121-.574q-.356-1.68-.716-3.358c-.1-.477-.1-.477-.1-.562"/><path fill="#31D3FC" d="M40.448 35.64c.18.113.327.261.482.405q.155.14.32.27l.26.218q.236.2.482.39.237.189.47.384.166.135.334.266.212.165.411.343c-.228.912-.852 1.828-1.308 2.646l-.298.552c-.072.13-.072.13-.1.159-.86.051-1.72.082-2.58.114q-1.094.038-2.187.089-.561.024-1.122.024a1 1 0 0 1 .153-.277q.149-.201.292-.405.472-.667.978-1.309l.142-.185q.547-.713 1.11-1.415.2-.252.397-.505l.157-.199.078-.1.625-.795q.082-.103.161-.208c.405-.526.405-.526.743-.461"/><path fill="#2ED2FC" d="M55.268 37.49c.05.204-.1.377-.194.556l-.143.273-.147.28-.258.5-.126.245q-.26.512-.515 1.027c-.172.34-.172.34-.367.43-.512.246-1.013.512-1.51.787q-.302.16-.609.31-.678.347-1.35.701-.476.25-.951.497-.377.196-.753.394l-.63.329-.647.337-.129.068q-.212.114-.422.232l-.067.031-.057-.028.1-.22q.42-.924.825-1.852.255-.577.516-1.15.124-.28.244-.56l.114-.265.1-.236c.1-.199.175-.266.384-.34l.135-.042.203-.083q.201-.074.405-.138.129-.044.254-.096.171-.069.348-.118c.143-.042.283-.087.42-.147a4 4 0 0 1 .36-.128q.117-.041.232-.088a3 3 0 0 1 .352-.119c.097-.03.19-.069.284-.108q.111-.042.226-.074c.127-.031.127-.031.215-.096q.073-.022.148-.04c.135-.035.263-.08.393-.13.446-.17.446-.17.608-.217q.17-.053.333-.12c.14-.056.281-.104.423-.154q.344-.12.687-.246z"/><path fill="#FEF2B9" d="M82.916 58.596c.372-.007.738.02 1.109.051l.392.032.376.03.551.043.27.02q.314.025.627.047 2.852.209 5.691.545l.262.029.258.03.23.025c.26.04.26.04.388.115.07.103.078.133.057.256-.16.228-.355.418-.553.615l-.186.186a8 8 0 0 1-.399.365l-.131.12c-.725.653-1.74 1.465-2.742 1.558l-.117.011c-.179-.014-.262-.076-.409-.18l-.159-.11-.168-.12-.343-.232-.18-.123-.592-.401-1.374-.936-1.337-.91-1.14-.776-.15-.102-.135-.091-.096-.069z"/><path fill="#E78500" d="m42.24 24.576.028.057a2 2 0 0 1-.062.146c-.528 1.237-.351 2.78.128 4 .3.697.925 2.095 1.641 2.453q.033.093.06.187c.258.794.791 1.483 1.461 1.973l.072.059v.057l-.07.029-.094.038-.092.038a4 4 0 0 0-.2.094c-1.103.293-2.358.002-3.386-.452-.626-.396-.931-1.566-1.107-2.25-.394-1.91-.116-3.807.915-5.474q.24-.358.507-.699l.066-.085z"/><path fill="#012C61" d="M77.966 58.482c.14.1.271.206.402.318q.194.165.395.322.242.19.475.39.144.121.293.236.242.19.475.39.144.12.293.235.242.191.475.391.144.12.293.235.242.19.475.391.144.12.293.235.242.19.475.391.144.12.293.235.24.19.474.39.205.17.416.332c.077.06.077.06.105.088q.072.01.144.016l.14.013v.028l-.236.015q-1.05.067-2.097.153-.696.055-1.393.102c-1.352.094-1.352.094-2.702.214l-.236.005-.115.001a.5.5 0 0 1-.246-.063c-.115-.191-.078-.268-.029-.484q.071-.222.148-.442c.123-.36.23-.72.32-1.09q.048-.184.1-.365c.226-.804.375-1.635.526-2.457z"/><path fill="#A04006" d="M41.614 33.195q.254.083.502.18c.454.167.925.283 1.404.36l.102.018c.654.102 1.204.023 1.812-.217.077-.028.077-.028.134-.028l.028-.057.055.036c1.137.745 2.483.859 3.794.591.377-.085.702-.228 1.046-.402a4 4 0 0 1 .378-.174c.125-.049.239-.105.356-.17.06-.024.06-.024.146.005l-.085.173a36 36 0 0 0-.551 1.173c-.066.148-.116.237-.243.337l-.074.06-.1.077-.157.122a7 7 0 0 1-.572.369l-.196.116c-1.15.653-2.433.657-3.693.328a7.5 7.5 0 0 1-3.02-1.666l-.141-.127c-.352-.308-.715-.685-.925-1.104"/><path fill="#0369B4" d="M43.207 37.945c.373.019.74.06 1.111.105q1.18.14 2.36.265c2.073.227 2.073.227 2.36.284q-.216.486-.439.969l-.087.19c-.071.15-.071.15-.128.235q-.114.016-.228.028l-.405.09q-1.01.222-2.03.395-.333.061-.661.133c-.431.09-.861.177-1.297.243a9 9 0 0 0-.392.074c-.323.067-.649.116-.974.168q-.341.056-.678.132c-.105.017-.105.017-.219-.012l.187-.348.12-.224.216-.4c.386-.709.74-1.434 1.099-2.156z"/><path fill="#A14205" d="M55.182 67.925h.057l.164.49.092.274q.103.315.2.63l.161.51.18.571.08.254.07.23.064.204c.072.286-.042.465-.163.724-.824 1.802-1.155 3.494-1.218 5.472-.258-.258-.416-.653-.575-.98q-.093-.184-.19-.366c-.79-1.502-1.018-3.07-.551-4.715.301-.939.765-1.822 1.26-2.672l.103-.18c.192-.33.192-.33.266-.446"/><path fill="#FC8001" d="M87.552 58.937c1.463.099 2.924.255 4.38.427l.263.029.257.03.23.025c.26.04.26.04.388.115.07.103.078.133.057.256-.16.228-.355.418-.553.615l-.186.186a8 8 0 0 1-.399.365l-.131.12c-.483.435-.483.435-.694.477-.114-.071-.114-.071-.247-.174l-.146-.111-.147-.113-.258-.187-.127-.091-.127-.092-.384-.277-1.534-1.108-.276-.198-.142-.102-.13-.093-.094-.07z"/><path fill="#E78401" d="m74.759 57.442.107.101.11.081c.409.311.409.311.459.545.047.434-.073.806-.313 1.166-.377.301-.955.333-1.416.425-.495.09-.495.09-.86.4l-.085.085c-.277-.258-.478-.555-.522-.94-.011-.379.137-.681.38-.965q.063-.06.131-.112l.067-.055c.341-.243.724-.388 1.11-.545l.198-.083.19-.075.172-.07c.151-.028.151-.028.272.041"/><path fill="#FDC301" d="M73.643 64.768c.198.164.335.374.398.626.017.224-.014.423-.163.598l-.116.11c-.19.183-.345.404-.497.62-.049.066-.049.066-.134.15l-.248-.248-.117-.117-.116-.117a7 7 0 0 0-.344-.314l-.09-.076q-.28-.24-.573-.466c-.503-.395-.503-.395-.646-.538.086 0 .086 0 .186.027.636.147 1.23-.085 1.82-.296.236-.067.42-.069.64.041"/><path fill="#BD172D" d="M74.212 62.236c.133.101.173.24.199.399.006.306-.041.63-.228.881a.95.95 0 0 1-.496.14c-.94.08-1.832.735-2.547 1.311l-.057-.028c.766-1.133 1.705-2.185 3.043-2.646h.086z"/><path fill="#C91F2D" d="M75.435 58.368c.023.352-.12.677-.313.967-.377.301-.955.333-1.416.425-.463.1-.463.1-.86.343-.01-.252.064-.433.228-.626.49-.444 1.683-1.109 2.36-1.109"/><path fill="#0369B3" d="m50.574 34.901.057.029-.093.18c-.552 1.13-1.02 2.314-1.471 3.49h-.029q.022-.481.057-.96c.027-.378.04-.755.05-1.133l.007-.212.005-.233.023-.194c.128-.099.228-.158.37-.227.293-.17.57-.344.825-.569l.12-.101z"/><path fill="#E78502" d="M73.956 65.877c-.184.211-.184.211-.26.292a5 5 0 0 0-.418.533c-.062.086-.062.086-.147.17l-.248-.248-.117-.117-.116-.117a6 6 0 0 0-.243-.225c-.101-.089-.101-.089-.13-.145l.118-.004c.695-.022.695-.022 1.377-.143.098-.024.098-.024.184.004"/><path fill="#B65703" d="M62.123 40.135c.039.117.011.198-.013.318l-.025.126-.02.097-.085-.086c.004-.16.08-.31.143-.455"/><path fill="#02356D" d="M39.566 77.198h.029l.057.37h-.057v.398h-.029z"/><path fill="#1BAFDE" d="M52.764 42.553a.43.43 0 0 1-.056.227l-.114.057-.114.086a1 1 0 0 1 .174-.25l.063-.068z"/><path fill="#A31A30" d="m83.172 42.581-.029.057c-.067.02-.067.02-.151.034l-.083.015c-.079.008-.079.008-.193-.02l.18-.059.101-.033c.09-.022.09-.022.175.006"/><path fill="#5DA767" d="M49.408 52.082h.028l-.028.284-.085-.028a.8.8 0 0 1 .085-.256"/></svg>
