<svg xmlns="http://www.w3.org/2000/svg" viewBox="0 0 128 128"><path fill="#5170ff" d="M61.995 8.148c-1.851 2.475-5.551 5.576-9.27 7.77-1.664.98-5.472 2.682-6.013 2.686-.13.001-.236.088-.236.192s.087.19.193.19.51.2.899.447c.388.247 2.495 1.564 4.68 2.93a598 598 0 0 1 5.81 3.668l4.165 2.686q2.73 1.763 5.449 3.539 3 1.956 6.012 3.893 3.25 2.092 6.49 4.198c1.982 1.288 3.642 2.302 3.689 2.256.046-.047-.244-1.612-.647-3.478-.403-1.865-.837-4.01-.964-4.768-.281-1.67.044-1.178-7.099-10.736C68.775 15.09 63.915 8.52 63.427 7.771c-.187-.286-.436-.518-.555-.515s-.513.405-.877.892m13.56.367c-.067.068-.123 2.738-.123 5.934v5.81l.71 1.024c2.222 3.205 2.617 3.742 2.753 3.75.082.004.092-3.334.02-7.42-.114-6.482-.17-7.453-.431-7.618-1.237-.78-2.825-1.583-2.928-1.48M45.048 20.736c-.204.67-2.4 4.979-3.52 6.903-1.74 2.997-5.163 7.552-6.382 8.49-.146.114-.23.319-.184.456.047.138 1.484.691 3.196 1.232 4.49 1.416 8.13 2.626 15.416 5.116 11.098 3.794 10.78 3.682 23.658 8.312 1.353.487 3.933 1.443 5.734 2.124 1.802.682 3.303 1.208 3.336 1.171.034-.037-.345-2.07-.84-4.516l-.9-4.448-3.097-2.021a1532 1532 0 0 0-11.52-7.447c-2.55-1.639-5.573-3.59-6.719-4.335s-4.062-2.63-6.484-4.186a1996 1996 0 0 1-7.82-5.054c-1.88-1.222-3.49-2.224-3.581-2.224s-.223.192-.293.427m-11.15 17.979c-.042.13-.384 1.386-.761 2.792-1.712 6.38-3.083 10.249-4.747 13.401-.565 1.072-1.03 2.019-1.03 2.104s.618.213 1.373.285c2.253.216 10.881 1.198 15.945 1.815q4.777.58 9.558 1.132c2.654.305 7.084.857 9.842 1.225s7.826 1.01 11.26 1.426c3.436.416 7.736.961 9.558 1.209 1.822.25 3.349.419 3.394.376.076-.073-.69-4.473-1.162-6.668-.12-.557-.31-1.043-.42-1.079a340 340 0 0 1-2.947-1.034 4808 4808 0 0 0-22.428-7.886c-6.11-2.129-27.167-9.334-27.28-9.334-.044 0-.113.106-.155.236M26.964 59.06c-.01.079-.005.483.01.9.051 1.441-.386 5.12-.865 7.259-.594 2.661-1.254 4.658-2.085 6.316-.35.7-.639 1.328-.639 1.394 0 .067 9.264.059 20.588-.018 11.323-.078 21.712-.079 23.09-.002l2.502.139v5.19c0 4.095.052 5.209.247 5.283.136.054.956-.013 1.823-.146l1.574-.244-.034-5.035-.035-5.036 2.844-.136c1.564-.075 5.465-.116 8.67-.095 4.887.035 5.818-.001 5.787-.222-.086-.615-1.576-7.807-1.626-7.858-.062-.061-10.262-1.37-15.37-1.972-1.77-.209-7.177-.882-12.018-1.498-4.84-.615-10.035-1.255-11.544-1.423-4.84-.537-14.743-1.805-18.595-2.38-4.052-.604-4.297-.628-4.324-.416m82.44 17.947c-.832.253-3.132.92-5.109 1.481q-3.598 1.024-7.192 2.064c-16.8 4.872-29.19 7.427-41.07 8.467-3.573.313-11.308.436-13.605.216-3.487-.334-5.017-1.395-7.124-4.943-.78-1.312-.783-1.313-1.76-1.424-1.313-.148-8.952-.783-13.755-1.143-2.133-.16-4.284-.342-4.778-.406-.495-.064-.9-.074-.9-.02 0 .224 3.278 6.681 3.445 6.786.101.064 1.199.223 2.44.352 1.241.13 2.319.334 2.393.452.076.119.482.94.902 1.826 1.108 2.336 2.07 4.021 3.458 6.056 1.738 2.549 1.839 2.645 2.566 2.45 3.384-.908 9.408-.95 13.497-.097 1.264.264 3.479.86 4.921 1.323 4.734 1.521 6.383 1.813 10.23 1.812 3.004-.002 5.48-.332 7.912-1.054 8.529-2.533 9.092-2.637 14.194-2.632 4.355.006 4.927.084 10.41 1.427l3.368.823c.472.112 1.336-1.028 5.658-7.459 1.994-2.967 4.464-6.565 5.49-7.997a757 757 0 0 0 2.38-3.336c.284-.403 1.304-1.766 2.266-3.028.963-1.263 1.751-2.338 1.751-2.39 0-.165-.44-.077-1.988.394m-.229 24.61c-4.355 1.702-7.408 2.343-11.148 2.344-2.584.002-4.522-.29-8.16-1.23-4.063-1.05-6.198-1.29-10.46-1.174-4.114.112-5.722.4-10.294 1.85-7.9 2.504-14.01 2.5-21.982-.016-4.234-1.336-6.362-1.716-10.24-1.834-3.58-.109-4.816-.002-8.68.75-1.562.302-2.814.406-5.015.41-3.177.007-5.057-.28-7.455-1.137-.716-.257-1.337-.432-1.38-.391-.17.171 2.295 3.191 3.484 4.271 1.462 1.325 3.575 2.492 5.35 2.952 1.597.415 4.658.419 7.004.011 2.477-.431 7.053-.584 9.274-.311 2.686.331 4.216.684 7.836 1.809 4.435 1.379 5.847 1.631 9.799 1.751 5.025.151 6.925-.136 12.173-1.841 5.054-1.642 7.524-2.007 12.396-1.836 3.332.117 5.23.394 8.707 1.272 1.197.301 2.941.648 3.876.769 4.896.633 10.212-1.121 13.613-4.492.998-.989 3.708-4.419 3.708-4.692 0-.165-.137-.121-2.406.765m-76.588 10.488c-.82.095-2.19.302-3.042.462s-2.458.346-3.57.414-2.022.154-2.022.19c0 .284 3.434 3.018 5.684 4.526l1.823 1.222 2.761-.198c4.587-.325 8.119.159 13.678 1.874 3.78 1.166 5.4 1.504 8.266 1.721 4.119.313 7.798-.172 12.264-1.616 5.45-1.76 7.71-2.163 12.114-2.16 3.35.003 5.845.311 9.133 1.128 1.264.315 2.481.571 2.708.571.708 0 5.404-3.279 7.795-5.442l.993-.898-3.927-.004c-3.87-.004-3.982-.015-7.713-.794-4.988-1.04-7.105-1.266-10.599-1.132-3.344.13-5.913.619-9.936 1.892-4.453 1.411-6.936 1.838-10.688 1.834-3.848-.003-6.528-.443-11.01-1.808-4.388-1.336-6.871-1.79-10.287-1.876-1.613-.042-3.604.001-4.425.094"/></svg>
