<svg width="252" height="252" viewBox="0 0 252 252" fill="none" xmlns="http://www.w3.org/2000/svg">
<g clip-path="url(#clip0_5087_9990)">
<rect x="-0.00195312" width="252" height="252" rx="126" fill="#6E61FF"/>
<path d="M125.998 252C195.586 252 251.998 195.588 251.998 126C251.998 56.4121 195.586 0 125.998 0C56.4102 0 -0.00195312 56.4121 -0.00195312 126C-0.00195312 195.588 56.4102 252 125.998 252Z" fill="#6E61FF"/>
<path d="M177.674 148.947C184.216 157.694 185.586 167.204 181.785 177.478C177.989 187.747 170.445 194.483 159.152 197.686C153.762 199.214 148.061 199.276 142.638 197.867C137.021 196.449 132.419 193.777 128.833 189.85C115.813 195.667 103.581 195.384 92.1359 189C80.6909 182.616 73.8134 172.239 71.5034 157.87C65.9754 156.58 60.9331 153.732 56.974 149.664C52.9893 145.579 50.1149 140.429 48.3509 134.213C45.5159 124.238 47.7682 114.893 55.1077 106.178C62.4472 97.4631 70.9627 93.6779 80.6542 94.8224L97.6721 96.8856C99.5279 90.8543 102.779 85.3452 107.161 80.8049C111.559 76.154 117.025 72.6455 123.085 70.5831L119.462 57.8256C119.153 56.8594 119.047 55.8401 119.148 54.8309C119.25 53.8216 119.558 52.844 120.053 51.9588C120.547 51.0723 121.217 50.2967 122.023 49.6803C122.829 49.0639 123.754 48.6199 124.738 48.3756C125.704 48.0657 126.723 47.9575 127.732 48.0577C128.742 48.158 129.719 48.4645 130.605 48.9584C131.492 49.4521 132.267 50.1228 132.884 50.9289C133.5 51.7349 133.944 52.6591 134.188 53.644L138.362 68.3703C144.935 68.449 150.726 69.8534 155.734 72.5834C160.748 75.3134 165.623 79.7208 170.358 85.8055L184.588 81.7656C185.555 81.4569 186.574 81.35 187.583 81.4516C188.592 81.5532 189.57 81.8611 190.455 82.3563C191.341 82.8491 192.116 83.5186 192.732 84.3233C193.349 85.1279 193.793 86.0505 194.038 87.034C194.347 88.0002 194.454 89.0196 194.352 90.0288C194.251 91.038 193.943 92.0156 193.448 92.9009C192.955 93.7866 192.285 94.5616 191.481 95.1779C190.676 95.7943 189.754 96.2388 188.77 96.484L176.013 100.107C177.448 106.313 177.415 112.768 175.918 118.959C174.507 125.058 171.604 130.711 167.468 135.41L177.674 148.947ZM118.494 172.1C117.269 167.784 116.415 163.371 115.942 158.909C115.494 154.56 115.449 150.178 115.808 145.821C112.476 148.746 108.749 151.188 104.736 153.074C100.609 155.043 96.3753 156.465 92.0336 157.342C93.8448 163.721 97.1129 168.231 101.838 170.871C106.563 173.512 112.115 173.916 118.494 172.1ZM88.9072 137.025C94.1414 135.544 98.5777 133.578 102.216 131.126C105.849 128.685 110.298 124.595 115.564 118.857L82.6465 114.943C77.3388 114.329 73.2989 115.518 70.5269 118.51C67.7602 121.503 66.9989 125.209 68.2432 129.63C69.4559 133.882 71.7292 136.597 75.0629 137.773C78.4019 138.943 83.0167 138.694 88.9072 137.025ZM153.577 178.061C157.672 176.906 160.578 174.536 162.294 170.95C164.022 167.37 163.788 164.209 161.593 161.469L138.874 131.859C137.299 137.658 136.366 143.613 136.094 149.617C135.858 155.339 136.344 160.327 137.551 164.579C139.084 169.981 141.197 173.845 143.89 176.171C146.584 178.497 149.812 179.127 153.577 178.061ZM154.317 118.999C155.482 116.899 156.175 114.358 156.396 111.376C156.618 108.383 156.303 105.375 155.467 102.493C153.981 97.2636 151.009 93.3366 146.552 90.7116C144.429 89.4261 142.059 88.6032 139.596 88.2965C137.133 87.9898 134.633 88.2063 132.259 88.9319C129.309 89.7666 126.668 91.045 124.337 92.767C122.105 94.3664 120.248 96.4329 118.895 98.8229L140.544 102.225L154.317 118.999Z" fill="white"/>
</g>
<defs>
<clipPath id="clip0_5087_9990">
<rect x="-0.00195312" width="252" height="252" rx="126" fill="white"/>
</clipPath>
</defs>
</svg>
