<svg xmlns="http://www.w3.org/2000/svg" viewBox="0 0 128 128"><circle cx="64" cy="64" r="63" fill="#151a1f" stroke="#fef5dc" stroke-width="2"/><path fill="#aaa189" d="M84.882 98.63H42.366c-9.679-.603-26.616-7.782-26.616-23.227 0-19.306 12.098-31.07 18.666-36.5s18.32-9.653 30.072-9.653 21.776 4.223 29.38 9.653c7.605 5.43 18.32 14.178 18.32 36.5 0 17.858-18.204 22.926-27.306 23.227"/><path fill="#fef5dc" d="M82.774 95.16H44.54c-8.703-.542-23.934-7.004-23.934-20.904 0-17.375 10.879-27.963 16.785-32.85 5.906-4.886 16.475-8.687 27.043-8.687 10.569 0 19.584 3.8 26.422 8.687s16.475 12.76 16.475 32.85c0 16.072-16.371 20.633-24.557 20.905"/><path fill="#aaa189" d="M82.052 93.625H45.351c-8.355-.516-22.976-6.66-22.976-19.878 0-16.522 10.444-26.59 16.113-31.236 5.67-4.647 15.814-8.261 25.96-8.261 10.145 0 18.798 3.614 25.363 8.26 6.564 4.648 15.814 12.134 15.814 31.237 0 15.283-15.715 19.62-23.573 19.878"/><g filter="url(#a)" opacity=".8"><ellipse cx="63.966" cy="57.86" fill="#fff6dd" rx="22.548" ry="8.672"/></g><path fill="#fef5dc" d="M77.14 62.5H52.171C49.086 62.5 46 65.069 46 69.178c0 5.137 8.977 12.072 17.954 12.072S82.75 75.6 82.75 69.178c0-5.137-3.74-6.592-5.61-6.678"/><path fill="#22272f" stroke="#fff" stroke-width=".5" d="M75.968 63.941H53.343c-3.66 0-5.593 2.186-5.593 5.684 0 4.372 8.135 10.274 16.27 10.274s17.032-4.81 17.032-10.274c0-4.372-3.39-5.61-5.084-5.684Z"/><defs><filter id="a" width="69.098" height="41.344" x="29.418" y="37.188" color-interpolation-filters="sRGB" filterUnits="userSpaceOnUse"><feFlood flood-opacity="0" result="BackgroundImageFix"/><feBlend in="SourceGraphic" in2="BackgroundImageFix" result="shape"/><feGaussianBlur stdDeviation="6"/></filter></defs></svg>
