<svg xmlns="http://www.w3.org/2000/svg" fill="none" viewBox="0 0 3478 1080"><g clip-path="url(#a)"><path fill="#2C2C2C" d="M1227.74 802V343h77.4v87.3c35.1-59.4 92.7-94.5 164.7-94.5h14.4v80.1h-14.4c-102.6 0-164.7 61.2-164.7 155.7V802zm501.86 10.8c-139.5 0-244.8-103.5-244.8-240.3s105.3-240.3 244.8-240.3c138.6 0 243.9 103.5 243.9 240.3s-105.3 240.3-243.9 240.3m0-74.7c93.6 0 163.8-71.1 163.8-165.6s-70.2-165.6-163.8-165.6c-94.5 0-164.7 71.1-164.7 165.6s70.2 165.6 164.7 165.6m533.75 74.7c-139.5 0-244.8-103.5-244.8-240.3s105.3-240.3 244.8-240.3c138.6 0 243.9 103.5 243.9 240.3s-105.3 240.3-243.9 240.3m0-74.7c93.6 0 163.8-71.1 163.8-165.6s-70.2-165.6-163.8-165.6c-94.5 0-164.7 71.1-164.7 165.6s70.2 165.6 164.7 165.6m485.77 63.9c-92.7 0-144.9-49.5-144.9-135V413.2h-83.7V343h54c21.6 0 33.3-11.7 33.3-34.2v-92.7h73.8V343h123.3v70.2h-123.3v241.2c0 46.8 29.7 76.5 78.3 76.5h45V802zm275.13 10.8c-107.1 0-177.3-56.7-177.3-141.3h79.2c0 43.2 39.6 71.1 99 71.1 55.8 0 92.7-26.1 92.7-63 0-99-263.7-46.8-263.7-208.8 0-83.7 66.6-138.6 166.5-138.6 102.6 0 169.2 54 169.2 135.9h-79.2c0-39.6-36-65.7-90.9-65.7-52.2 0-86.4 24.3-86.4 59.4 0 96.3 263.7 45 263.7 209.7 0 84.6-68.4 141.3-172.8 141.3"/><path fill="#111" fill-rule="evenodd" d="M718.4 136.067c-77.301-69.423-194.499-69.423-271.8 0L147.9 404.321c-101.44 91.101-81.617 238.566 9.248 311.305l289.98-260.424c77.302-69.422 194.499-69.422 271.801 0l289.481 259.975c90.39-72.894 109.92-219.942 8.69-310.856z" clip-rule="evenodd"/><path fill="#313131" fill-rule="evenodd" d="M446.6 975.736c77.302 69.424 194.499 69.424 271.801 0L1017.1 707.482c75.2-67.535 83.76-166.045 46.14-242.125-10.99 21.645-26.41 42.086-46.67 60.278L717.872 793.89c-77.301 69.422-194.499 69.422-271.8 0l-298.7-268.255c-19.928-17.897-35.176-37.969-46.125-59.222-37.024 75.933-28.2 173.846 46.654 241.069z" clip-rule="evenodd"/></g><defs><clipPath id="a"><path fill="#fff" d="M0 0h3478v1080H0z"/></clipPath></defs></svg>
