<svg width="3478" height="1080" viewBox="0 0 3478 1080" fill="none" xmlns="http://www.w3.org/2000/svg">
<g clip-path="url(#clip0_1_2)">
<path d="M1227.74 802V343H1305.14V430.3C1340.24 370.9 1397.84 335.8 1469.84 335.8H1484.24V415.9H1469.84C1367.24 415.9 1305.14 477.1 1305.14 571.6V802H1227.74ZM1729.6 812.8C1590.1 812.8 1484.8 709.3 1484.8 572.5C1484.8 435.7 1590.1 332.2 1729.6 332.2C1868.2 332.2 1973.5 435.7 1973.5 572.5C1973.5 709.3 1868.2 812.8 1729.6 812.8ZM1729.6 738.1C1823.2 738.1 1893.4 667 1893.4 572.5C1893.4 478 1823.2 406.9 1729.6 406.9C1635.1 406.9 1564.9 478 1564.9 572.5C1564.9 667 1635.1 738.1 1729.6 738.1ZM2263.35 812.8C2123.85 812.8 2018.55 709.3 2018.55 572.5C2018.55 435.7 2123.85 332.2 2263.35 332.2C2401.95 332.2 2507.25 435.7 2507.25 572.5C2507.25 709.3 2401.95 812.8 2263.35 812.8ZM2263.35 738.1C2356.95 738.1 2427.15 667 2427.15 572.5C2427.15 478 2356.95 406.9 2263.35 406.9C2168.85 406.9 2098.65 478 2098.65 572.5C2098.65 667 2168.85 738.1 2263.35 738.1ZM2749.12 802C2656.42 802 2604.22 752.5 2604.22 667V413.2H2520.52V343H2574.52C2596.12 343 2607.82 331.3 2607.82 308.8V216.1H2681.62V343H2804.92V413.2H2681.62V654.4C2681.62 701.2 2711.32 730.9 2759.92 730.9H2804.92V802H2749.12ZM3024.25 812.8C2917.15 812.8 2846.95 756.1 2846.95 671.5H2926.15C2926.15 714.7 2965.75 742.6 3025.15 742.6C3080.95 742.6 3117.85 716.5 3117.85 679.6C3117.85 580.6 2854.15 632.8 2854.15 470.8C2854.15 387.1 2920.75 332.2 3020.65 332.2C3123.25 332.2 3189.85 386.2 3189.85 468.1H3110.65C3110.65 428.5 3074.65 402.4 3019.75 402.4C2967.55 402.4 2933.35 426.7 2933.35 461.8C2933.35 558.1 3197.05 506.8 3197.05 671.5C3197.05 756.1 3128.65 812.8 3024.25 812.8Z" fill="#2C2C2C"/>
<path fill-rule="evenodd" clip-rule="evenodd" d="M718.4 136.067C641.099 66.6444 523.901 66.6444 446.6 136.067L147.9 404.321C46.4592 495.422 66.2831 642.887 157.148 715.626L447.128 455.202C524.43 385.78 641.627 385.78 718.929 455.202L1008.41 715.177C1098.8 642.283 1118.33 495.235 1017.1 404.321L718.4 136.067Z" fill="#111111"/>
<path fill-rule="evenodd" clip-rule="evenodd" d="M446.6 975.736C523.902 1045.16 641.099 1045.16 718.401 975.736L1017.1 707.482C1092.3 639.947 1100.86 541.437 1063.24 465.357C1052.25 487.002 1036.83 507.443 1016.57 525.635L717.872 793.89C640.571 863.312 523.373 863.312 446.072 793.89L147.372 525.635C127.444 507.738 112.196 487.666 101.247 466.413C64.2228 542.346 73.0478 640.259 147.901 707.482L446.6 975.736Z" fill="#313131"/>
</g>
<defs>
<clipPath id="clip0_1_2">
<rect width="3478" height="1080" fill="white"/>
</clipPath>
</defs>
</svg>
