<svg xmlns="http://www.w3.org/2000/svg" viewBox="0 0 40 40"><path fill="#FF2E00" d="M0 0h40v40H0z"/><path fill="#fff" d="m14.248 9.008 8.082 7.536c.268.261.7.297.884.083l4.748-5.64.905-1.093 3.141-3.753c.31-.38 1.174.074 1.101.576l-.89 5.155-.258 1.48-2.873 16.373c-.07.402-.74.385-1.05-.042L13.401 9.433c-.411-.548.32-.92.846-.423zm11.505 21.984-8.082-7.536c-.268-.261-.7-.297-.884-.083l-4.747 5.64-.907 1.093-3.142 3.753c-.311.38-1.174-.074-1.1-.576l.89-5.155.258-1.48 2.873-16.373c.07-.402.739-.385 1.05.042l14.636 20.25c.41.548-.321.92-.848.423z"/></svg>
