<svg width="93" height="104" viewBox="0 0 93 104" fill="none" xmlns="http://www.w3.org/2000/svg">
<mask id="mask0_3930_26855" style="mask-type:luminance" maskUnits="userSpaceOnUse" x="0" y="0" width="93" height="104">
<mask id="mask1_3930_26855" style="mask-type:luminance" maskUnits="userSpaceOnUse" x="0" y="0" width="93" height="104">
<path d="M42.004 1.08333C44.6111 -0.361111 47.7976 -0.361111 50.6944 1.08333L88.3532 22.75C90.9603 24.1944 92.6984 27.0833 92.6984 30.2611V73.5945C92.6984 76.7722 90.9603 79.3722 88.3532 81.1056L50.6944 102.772C48.0873 104.217 44.9008 104.217 42.004 102.772L4.34524 81.1056C1.7381 79.6611 0 76.7722 0 73.5945V30.2611C0 27.0833 1.7381 24.4833 4.34524 22.75L42.004 1.08333Z" fill="white"/>
</mask>
<g mask="url(#mask1_3930_26855)">
<path d="M42.004 1.08333C44.6111 -0.361111 47.7976 -0.361111 50.6944 1.08333L88.3532 22.75C90.9603 24.1944 92.6984 27.0833 92.6984 30.2611V73.5945C92.6984 76.7722 90.9603 79.3722 88.3532 81.1056L50.6944 102.772C48.0873 104.217 44.9008 104.217 42.004 102.772L4.34524 81.1056C1.7381 79.6611 0 76.7722 0 73.5945V30.2611C0 27.0833 1.7381 24.4833 4.34524 22.75L42.004 1.08333Z" fill="white"/>
</g>
</mask>
<g mask="url(#mask0_3930_26855)">
<path d="M42.004 1.08333C44.6111 -0.361111 47.7976 -0.361111 50.6944 1.08333L88.3532 22.75C90.9603 24.1944 92.6984 27.0833 92.6984 30.2611V73.5945C92.6984 76.7722 90.9603 79.3722 88.3532 81.1056L50.6944 102.772C48.0873 104.217 44.9008 104.217 42.004 102.772L4.34524 81.1056C1.7381 79.6611 0 76.7722 0 73.5945V30.2611C0 27.0833 1.7381 24.4833 4.34524 22.75L42.004 1.08333Z" fill="#26C3EF"/>
<path d="M42.004 1.08333C44.6111 -0.361111 47.7976 -0.361111 50.6944 1.08333L88.3532 22.75C90.9603 24.1944 92.6984 27.0833 92.6984 30.2611V73.5945C92.6984 76.7722 90.9603 79.3722 88.3532 81.1056L50.6944 102.772C48.0873 104.217 44.9008 104.217 42.004 102.772L4.34524 81.1056C1.7381 79.6611 0 76.7722 0 73.5945V30.2611C0 27.0833 1.7381 24.4833 4.34524 22.75L42.004 1.08333Z" fill="#26C3EF"/>
<path d="M50.1151 48.4611C67.7857 14.95 116.452 23.6167 138.468 32.2833V125.594H-33.3135V77.9278H-32.7341C7.82145 86.3055 28.0992 90.35 50.1151 48.4611Z" fill="url(#paint0_linear_3930_26855)"/>
<path opacity="0.7" d="M46.0597 48.1723C28.3891 14.6612 -20.2776 23.3278 -42.2935 31.9945V125.306H129.488V77.6389H128.909C88.3534 85.7278 68.0756 89.7723 46.0597 48.1723Z" fill="url(#paint1_linear_3930_26855)"/>
</g>
<defs>
<linearGradient id="paint0_linear_3930_26855" x1="52.5774" y1="48.0907" x2="52.5774" y2="125.724" gradientUnits="userSpaceOnUse">
<stop stop-color="white"/>
<stop offset="1" stop-color="white" stop-opacity="0"/>
</linearGradient>
<linearGradient id="paint1_linear_3930_26855" x1="43.4659" y1="24.0616" x2="43.5722" y2="86.979" gradientUnits="userSpaceOnUse">
<stop stop-color="white"/>
<stop offset="1" stop-color="white" stop-opacity="0"/>
</linearGradient>
</defs>
</svg>
