<svg xmlns="http://www.w3.org/2000/svg" viewBox="0 0 128 128"><mask id="a" width="114" height="128" x="7" y="0" maskUnits="userSpaceOnUse" style="mask-type:luminance"><path fill="#fff" d="M58.489 1.333c3.196-1.777 7.102-1.777 10.652 0L115.305 28c3.194 1.777 5.325 5.333 5.325 9.244V90.58c0 3.91-2.131 7.11-5.326 9.243L69.141 126.49c-3.196 1.778-7.101 1.778-10.652 0L12.326 99.823C9.13 98.043 7 94.489 7 90.579V37.243c0-3.911 2.13-7.111 5.326-9.244z"/></mask><g mask="url(#a)"><path fill="#26c3ef" d="M58.489 1.333c3.196-1.777 7.102-1.777 10.652 0L115.305 28c3.194 1.777 5.325 5.333 5.325 9.244V90.58c0 3.91-2.131 7.11-5.326 9.243L69.141 126.49c-3.196 1.778-7.101 1.778-10.652 0L12.326 99.823C9.13 98.043 7 94.489 7 90.579V37.243c0-3.911 2.13-7.111 5.326-9.244z"/><path fill="#26c3ef" d="M58.489 1.333c3.196-1.777 7.102-1.777 10.652 0L115.305 28c3.194 1.777 5.325 5.333 5.325 9.244V90.58c0 3.91-2.131 7.11-5.326 9.243L69.141 126.49c-3.196 1.778-7.101 1.778-10.652 0L12.326 99.823C9.13 98.043 7 94.489 7 90.579V37.243c0-3.911 2.13-7.111 5.326-9.244z"/><path fill="url(#b)" d="M68.431 59.644c21.66-41.244 81.317-30.577 108.304-19.911v114.844h-210.57V95.911h.71c49.71 10.311 74.569 15.289 101.558-36.268"/><path fill="url(#c)" d="M63.46 59.289C41.8 18.046-17.856 28.71-44.842 39.379v114.844h210.57V95.556h-.71c-49.713 9.955-74.568 14.933-101.556-36.267" opacity=".7"/></g><defs><linearGradient id="b" x1="71.449" x2="71.449" y1="59.189" y2="154.737" gradientUnits="userSpaceOnUse"><stop stop-color="#fff"/><stop offset="1" stop-color="#fff" stop-opacity="0"/></linearGradient><linearGradient id="c" x1="60.281" x2="60.412" y1="29.615" y2="107.051" gradientUnits="userSpaceOnUse"><stop stop-color="#fff"/><stop offset="1" stop-color="#fff" stop-opacity="0"/></linearGradient></defs></svg>
