<svg xmlns="http://www.w3.org/2000/svg" viewBox="0 0 174.41 29.95"><defs><style>.cls-1{fill:#fff}</style></defs><g id="图层_2" data-name="图层 2"><g id="图层_1-2" data-name="图层 1"><g id="_2.0" data-name="2"><g id="Terp-logo"><g id="编组-10"><path id="路径" d="M43.88 5.63h-5.54V2h14.68v3.63h-5.51v17.89h-3.63z" class="cls-1"/><path id="形状" d="M66.55 17.12h-11.1a4 4 0 0 0 4 3.74 4.06 4.06 0 0 0 3.61-2L65.93 20a7 7 0 0 1-6.49 3.77 7.22 7.22 0 0 1-7.54-7.32 7.24 7.24 0 0 1 7.43-7.33 7 7 0 0 1 7.24 7.19Zm-10.74-2.76h6.9A3.47 3.47 0 0 0 59.36 12a3.69 3.69 0 0 0-3.55 2.31Z" class="cls-1"/><path id="路径-2" d="M73.73 17.29v6.23h-3.61V9.43h3.61v2a4.13 4.13 0 0 1 3.8-2.27 4 4 0 0 1 .5 0v3.55c-2.15-.4-4.3.47-4.3 4.58" class="cls-1" data-name="路径"/><path id="形状-2" d="M81.44 9.43h3.64v1.51a6.16 6.16 0 0 1 4.47-1.79 7.14 7.14 0 0 1 6.93 7.33 7.13 7.13 0 0 1-6.93 7.32 6.12 6.12 0 0 1-4.47-1.8v8h-3.64Zm11.43 7.05a4 4 0 1 0-1.15 2.85 4 4 0 0 0 1.15-2.85" class="cls-1" data-name="形状"/><path id="路径-3" d="M100.17 2h3.64v17.89h8.1v3.63h-11.74z" class="cls-1" data-name="路径"/><path id="形状-3" d="M113.89 16.45a7.18 7.18 0 0 1 7-7.35 5.82 5.82 0 0 1 4.55 1.9V9.43h3.63v14.09h-3.38l-.08-1.81a5.87 5.87 0 0 1-4.76 2.09 7.16 7.16 0 0 1-6.96-7.35m11.66 0a4 4 0 1 0-1.14 2.87 4 4 0 0 0 1.14-2.87" class="cls-1" data-name="形状"/><path id="路径-4" d="m146.82 9.43-8.22 20.52h-3.75l2.6-6.6-5.69-13.92h3.96l3.64 9.68 3.6-9.68z" class="cls-1" data-name="路径"/><path id="形状-4" d="M162.92 17.12h-11.1a4 4 0 0 0 4 3.74 4.06 4.06 0 0 0 3.61-2l2.88 1.14a7 7 0 0 1-6.49 3.77 7.23 7.23 0 0 1-7.55-7.32 7.25 7.25 0 0 1 7.44-7.33 7 7 0 0 1 7.29 7.22Zm-10.73-2.76h6.89a3.46 3.46 0 0 0-3.35-2.36 3.67 3.67 0 0 0-3.54 2.31Z" class="cls-1" data-name="形状"/><path id="路径-5" d="M170.1 17.29v6.23h-3.6V9.43h3.6v2a4.14 4.14 0 0 1 3.8-2.27h.51v3.55c-2.15-.4-4.31.47-4.31 4.58" class="cls-1" data-name="路径"/></g><g id="编组-61备份"><path id="形状备份-3" d="M22.88 9.44v-7H2.31V28h27.52V9.44ZM12.8 18.68h-1.17v1.16h-1.17V21H9.3v1.17H8.13v1.17H5.8v-1.16H7V21h1.13v-1.15h1.16v-1.17h1.17v-1.17H9.29v-1.17H8.13v-1.16H7V14H5.8v-1.15h2.33V14H9.3v1.17h1.16v1.16h1.17v1.17h1.16Zm10.48 7H14V24.5h9.32Z" class="cls-1"/><circle id="椭圆形备份-10" cx="21.19" cy="3.76" r="3.76" class="cls-1"/><circle id="椭圆形备份-11" cx="3.76" cy="3.76" r="3.76" class="cls-1"/></g></g></g></g></g></svg>
