<svg xmlns="http://www.w3.org/2000/svg" viewBox="0 0 174.41 29.95"><defs><style>.cls-1{fill:#fff;}</style></defs><g id="图层_2" data-name="图层 2"><g id="图层_1-2" data-name="图层 1"><g id="_2.0" data-name="2.0"><g id="Terp-logo"><g id="编组-10"><polygon id="路径" class="cls-1" points="43.88 5.63 38.34 5.63 38.34 2 53.02 2 53.02 5.63 47.51 5.63 47.51 23.52 43.88 23.52 43.88 5.63"/><path id="形状" class="cls-1" d="M66.55,17.12H55.45a4,4,0,0,0,4,3.74,4.06,4.06,0,0,0,3.61-2L65.93,20a7,7,0,0,1-6.49,3.77,7.22,7.22,0,0,1-7.54-7.32,7.24,7.24,0,0,1,7.43-7.33,7,7,0,0,1,7.24,7.19ZM55.81,14.36h6.9A3.47,3.47,0,0,0,59.36,12a3.69,3.69,0,0,0-3.55,2.31Z"/><path id="路径-2" data-name="路径" class="cls-1" d="M73.73,17.29v6.23H70.12V9.43h3.61v2a4.13,4.13,0,0,1,3.8-2.27,4.07,4.07,0,0,1,.5,0v3.55C75.88,12.31,73.73,13.18,73.73,17.29Z"/><path id="形状-2" data-name="形状" class="cls-1" d="M81.44,9.43h3.64v1.51a6.16,6.16,0,0,1,4.47-1.79,7.14,7.14,0,0,1,6.93,7.33,7.13,7.13,0,0,1-6.93,7.32A6.12,6.12,0,0,1,85.08,22V30H81.44Zm11.43,7.05a4,4,0,1,0-1.15,2.85,4,4,0,0,0,1.15-2.85Z"/><polygon id="路径-3" data-name="路径" class="cls-1" points="100.17 2 103.81 2 103.81 19.89 111.91 19.89 111.91 23.52 100.17 23.52 100.17 2"/><path id="形状-3" data-name="形状" class="cls-1" d="M113.89,16.45a7.18,7.18,0,0,1,7-7.35A5.82,5.82,0,0,1,125.44,11V9.43h3.63V23.52h-3.38l-.08-1.81a5.87,5.87,0,0,1-4.76,2.09A7.16,7.16,0,0,1,113.89,16.45Zm11.66,0a4,4,0,1,0-1.14,2.87A4,4,0,0,0,125.55,16.45Z"/><polygon id="路径-4" data-name="路径" class="cls-1" points="146.82 9.43 138.6 29.95 134.85 29.95 137.45 23.35 131.76 9.43 135.72 9.43 139.36 19.11 142.96 9.43 146.82 9.43"/><path id="形状-4" data-name="形状" class="cls-1" d="M162.92,17.12h-11.1a4,4,0,0,0,4,3.74,4.06,4.06,0,0,0,3.61-2L162.31,20a7,7,0,0,1-6.49,3.77,7.23,7.23,0,0,1-7.55-7.32,7.25,7.25,0,0,1,7.44-7.33A7,7,0,0,1,163,16.34Zm-10.73-2.76h6.89A3.46,3.46,0,0,0,155.73,12a3.67,3.67,0,0,0-3.54,2.31Z"/><path id="路径-5" data-name="路径" class="cls-1" d="M170.1,17.29v6.23h-3.6V9.43h3.6v2a4.14,4.14,0,0,1,3.8-2.27l.51,0v3.55C172.26,12.31,170.1,13.18,170.1,17.29Z"/></g><g id="编组-61备份"><path id="形状备份-3" class="cls-1" d="M22.88,9.44v-7H2.31V28H29.83V9.44ZM12.8,18.68H11.63v1.16H10.46V21H9.3v1.17H8.13v1.17H5.8V22.18H7V21H8.13V19.85H9.29V18.68h1.17V17.51H9.29V16.34H8.13V15.18H7V14H5.8V12.85H8.13V14H9.3v1.17h1.16v1.16h1.17v1.17h1.16Zm10.48,7H14V24.5h9.32Z"/><circle id="椭圆形备份-10" class="cls-1" cx="21.19" cy="3.76" r="3.76"/><circle id="椭圆形备份-11" class="cls-1" cx="3.76" cy="3.76" r="3.76"/></g></g></g></g></g></svg>