<svg xmlns="http://www.w3.org/2000/svg" viewBox="0 0 128 128"><rect width="128" height="128" fill="#fff" rx="38" ry="38"/><path fill="#ffa012" d="M64 16c26.51 0 48 21.49 48 48s-21.49 48-48 48-48-21.49-48-48 21.49-48 48-48m22.559 22.907c-3.678-2.389-8.442-1.97-12.264.655q-.368.254-.71.5l-1.32.959c-.647.464-1.266.877-1.94 1.213A23.3 23.3 0 0 0 64 41.366c-2.19 0-4.312.303-6.324.868-.675-.336-1.294-.75-1.942-1.214l-1.32-.959a40 40 0 0 0-.709-.5c-3.822-2.623-8.585-3.043-12.264-.654-5.159 3.352-6.23 10.96-2.392 16.994l.102.162q.083.13.163.26l.322.511c.375.598.767 1.212 1.217 1.855.039 1.724-1.303 3.635-2.763 5.712-1.143 1.627-2.358 3.356-3.04 5.18-1.756 4.202-1.386 9.545 1.412 14.168 2.976 4.916 7.92 7.731 12.695 7.756 1.43.007 5.49.161 8.004.262 1.806 1.719 4.634 2.85 6.839 2.85s5.033-1.131 6.839-2.85c2.513-.1 6.573-.255 8.003-.262 4.776-.025 9.72-2.84 12.696-7.756 2.799-4.623 3.168-9.966 1.411-14.169-.681-1.823-1.896-3.552-3.039-5.179-1.46-2.077-2.802-3.988-2.763-5.711a48 48 0 0 0 1.378-2.113l.16-.255.164-.259.101-.162c3.838-6.034 2.768-13.642-2.391-16.994"/></svg>
