<svg xmlns="http://www.w3.org/2000/svg" viewBox="0 0 128 128"><path fill="#0075cb" d="M64.14 4c.714 3.052 1.17 6.17 1.88 9.224 2.897 14.85 5.988 29.424 9.127 44.211.118.519.37.935.606 1.407 2.032 3.815 1.936 8.78-.399 12.444-.878 1.165-1.098 2.503-1.368 3.897-1.015 4.816-1.982 9.66-2.976 14.482-2.337 11.368-4.548 22.966-6.834 34.335-.429-.63-.392-1.527-.566-2.268-.318-1.385-.499-2.793-.819-4.174-2.662-14.16-5.69-28.289-8.585-42.493-.22-1.045-.347-2.352-1.024-3.21-2.004-2.93-2.616-6.614-1.858-10.067.296-1.488 1.03-2.73 1.644-4.085 1.344-6.147 2.632-12.6 3.974-18.796 1.982-9.537 3.967-18.98 5.849-28.548.486-2.104.767-4.276 1.349-6.359m7.034 55.947c-1.907-2.956-5.773-4.492-9.176-3.536-1.889.434-3.716 1.64-4.792 3.262-2.369 3.27-2.135 8.395.819 11.238 2.648 2.756 7.345 3.194 10.57 1.229 2.97-1.737 4.515-5.357 3.907-8.716-.246-1.242-.594-2.43-1.328-3.477"/><path fill="#0075cb" d="M71.984 22.528a54 54 0 0 1 8.298 2.411c7.115 2.723 13.432 7.374 18.19 13.317 3.823 4.71 6.566 10.306 8.067 16.177.52 2.238.915 4.47 1.004 6.773 2.183.418 4.324 1.07 6.474 1.638 2.486.632 4.945 1.353 7.429 1.994-1.009.359-2.046.614-3.083.88-3.592 1-7.171 2.02-10.79 2.93-.18 3.46-.943 6.897-2.045 10.175-2.444 7.322-7 13.714-12.84 18.72-4.997 4.274-11.05 7.574-17.473 9.066-1.11.207-2.196.519-3.312.697.49-2.396.996-4.816 1.578-7.186.967-.384 2.006-.569 2.982-.937 4.215-1.344 8.065-3.6 11.504-6.361 2.281-1.915 4.416-4.065 6.148-6.496 4.204-5.58 6.544-12.572 6.801-19.534.048-2.804.037-5.762-.577-8.51-.717-4.13-2.33-8.127-4.44-11.739-2.34-3.978-5.365-7.527-9.03-10.346-3.92-3.084-8.47-5.182-13.286-6.441-.475-2.418-1.18-4.8-1.599-7.228m-15.8.032c-.181 1.029-.475 2.029-.665 3.055-.224 1.346-.692 2.623-.825 3.986-1.21.445-2.466.713-3.669 1.172-4.492 1.567-8.644 4.08-12.081 7.372-2.135 1.956-3.994 4.174-5.614 6.57-7.006 10.49-8.032 24.8-2.495 36.15 3.845 7.853 10.688 14.384 18.868 17.56 1.664.675 3.38 1.102 5.078 1.688.48 2.397 1.117 4.775 1.499 7.189-1.8-.335-3.59-.719-5.35-1.224-5.124-1.479-9.952-4.089-14.106-7.422-3.26-2.582-6.132-5.725-8.592-9.071-3.753-5.329-6.333-11.44-7.309-17.894-.098-1.002-.191-2.004-.3-3.006-2.847-.65-5.653-1.458-8.472-2.218-1.85-.59-3.76-.985-5.597-1.614a486 486 0 0 1 14.119-3.714 41 41 0 0 1 2.372-11.015c2.192-6.09 5.847-11.591 10.47-16.11 2.492-2.526 5.343-4.563 8.387-6.373 3.16-1.78 6.574-3.137 10.06-4.13 1.39-.356 2.795-.783 4.222-.95"/></svg>
