<?xml version="1.0" encoding="UTF-8"?>
<svg version="1.1" xmlns="http://www.w3.org/2000/svg" width="500" height="500">
<path d="M0 0 C0.86865692 -0.00067474 1.73731384 -0.00134949 2.6322937 -0.00204468 C16.39638758 0.01491145 29.76547384 0.63032383 43.3125 3.25 C44.2003418 3.41628906 45.08818359 3.58257813 46.00292969 3.75390625 C86.47486577 11.54529501 124.1068022 29.31089999 155.3125 56.25 C156.09238281 56.91902344 156.87226563 57.58804688 157.67578125 58.27734375 C170.13284766 69.22569835 181.47631994 80.8976508 191.3125 94.25 C191.73337891 94.81009766 192.15425781 95.37019531 192.58789062 95.94726562 C221.67525177 134.68573277 237.7192019 181.90336069 239.3125 230.25 C239.374375 232.08111328 239.374375 232.08111328 239.4375 233.94921875 C240.11872759 275.37637168 229.80947118 315.80461799 210.3125 352.25 C209.69890625 353.40628906 209.0853125 354.56257813 208.453125 355.75390625 C200.13011597 370.86945364 189.83472017 384.4487761 178.3125 397.25 C177.55404785 398.10102295 177.55404785 398.10102295 176.78027344 398.96923828 C135.49392028 445.19684704 76.36360664 472.04814166 14.77734375 475.97265625 C-39.66330856 478.91412426 -94.67970631 463.77280363 -138.6875 431.25 C-139.25903809 430.83395508 -139.83057617 430.41791016 -140.41943359 429.98925781 C-149.07522034 423.66724965 -156.97016678 416.67818539 -164.6875 409.25 C-165.26677246 408.69795898 -165.84604492 408.14591797 -166.44287109 407.57714844 C-174.48703491 399.88234875 -181.78274274 391.91617891 -188.41259766 382.96923828 C-189.6502098 381.30028678 -190.90803819 379.64822447 -192.16796875 377.99609375 C-222.26113915 337.8838154 -237.22958191 287.88914171 -237 238.0625 C-236.99784485 237.21282654 -236.9956897 236.36315308 -236.99346924 235.48773193 C-236.77508603 181.6026216 -218.53026159 128.62974601 -183.6875 87.25 C-183.25356934 86.72728516 -182.81963867 86.20457031 -182.37255859 85.66601562 C-172.11501019 73.32176869 -161.36229893 62.14724244 -148.6875 52.25 C-147.72714844 51.47269531 -146.76679688 50.69539063 -145.77734375 49.89453125 C-112.09918859 23.11379851 -71.26105105 6.76851238 -28.6875 1.25 C-28.00421631 1.1557373 -27.32093262 1.06147461 -26.61694336 0.96435547 C-17.78544214 -0.09789503 -8.88191009 0.006199 0 0 Z " fill="#120C49" transform="translate(252.6875,12.75)"/>
<path d="M0 0 C1.82478865 -0.00323059 3.64957706 -0.00659584 5.47436523 -0.01008606 C9.28304643 -0.01602735 13.09170513 -0.01793151 16.90039062 -0.01733398 C20.72986637 -0.01725331 24.55922099 -0.02410998 28.38867188 -0.0378418 C55.87078016 -0.13491629 83.04510626 0.70556582 110.4375 3.04296875 C111.12497314 3.09607712 111.81244629 3.14918549 112.52075195 3.2039032 C116.98870913 3.68863237 119.48188113 5.04545852 122.6875 8.16796875 C124.04733699 10.88764273 123.96932807 13.12913032 124.0625 16.16796875 C124.11148437 17.24046875 124.16046875 18.31296875 124.2109375 19.41796875 C122.98158549 28.22526673 117.39446892 35.37642445 112.125 42.29296875 C111.51076172 43.1128125 110.89652344 43.93265625 110.26367188 44.77734375 C108.41197676 47.24627057 106.55032924 49.70743758 104.6875 52.16796875 C103.16771731 54.19030907 101.6505404 56.21458232 100.13354492 58.23901367 C99.16459446 59.53154745 98.19469515 60.82337043 97.22387695 62.11450195 C91.58466525 69.61765479 86.02938673 77.1824587 80.46972656 84.74462891 C77.54519254 88.72119393 74.61614567 92.69443146 71.6875 96.66796875 C70.52081112 98.25128571 69.35414447 99.83461906 68.1875 101.41796875 C51.85416667 123.58463542 35.52083333 145.75130208 19.1875 167.91796875 C18.60983887 168.70196045 18.03217773 169.48595215 17.43701172 170.29370117 C16.27206151 171.87465858 15.10702266 173.45555067 13.94189453 175.03637695 C10.40286622 179.83835457 6.86705591 184.64267719 3.33422852 189.44921875 C1.58788886 191.8209872 -0.16489135 194.18789696 -1.91796875 196.5546875 C-4.18341131 199.61779375 -6.41047428 202.7040873 -8.61328125 205.8125 C-9.40677979 206.91428589 -9.40677979 206.91428589 -10.21630859 208.03833008 C-11.20458761 209.41062518 -12.18117379 210.79145542 -13.14306641 212.18237305 C-16.2875688 216.50648938 -18.99370802 218.68634661 -24.3125 220.16796875 C-30.89447461 219.93173451 -37.4634031 217.66377823 -43.8125 215.98046875 C-45.00649414 215.66730713 -46.20048828 215.35414551 -47.43066406 215.03149414 C-49.88321346 214.38808242 -52.33536282 213.74314393 -54.78710938 213.09667969 C-58.94108299 212.00237805 -63.0977338 210.9185885 -67.25488281 209.83642578 C-70.06610654 209.1045298 -72.87686782 208.37088284 -75.6875 207.63671875 C-80.50323599 206.37897765 -85.31955024 205.12346528 -90.13598633 203.8684082 C-93.94173383 202.87625329 -97.74700377 201.88227402 -101.55224609 200.88818359 C-104.29086512 200.1736138 -107.03016771 199.46170953 -109.76953125 198.75 C-111.47137982 198.30608791 -113.17320397 197.86208219 -114.875 197.41796875 C-115.64231445 197.21937256 -116.40962891 197.02077637 -117.20019531 196.81616211 C-117.91916992 196.62803955 -118.63814453 196.43991699 -119.37890625 196.24609375 C-119.99709229 196.0852832 -120.61527832 195.92447266 -121.25219727 195.75878906 C-122.27204712 195.46633301 -122.27204712 195.46633301 -123.3125 195.16796875 C-124.30588379 194.93899902 -125.29926758 194.7100293 -126.32275391 194.47412109 C-130.25054115 192.75815982 -131.09787302 190.95303384 -133.08203125 187.19140625 C-133.4048407 186.59312012 -133.72765015 185.99483398 -134.0602417 185.37841797 C-135.09993499 183.44231222 -136.11256818 181.49344647 -137.125 179.54296875 C-137.8307701 178.21468315 -138.53837605 176.8873714 -139.24780273 175.56103516 C-140.30130131 173.58974446 -141.35294212 171.61764945 -142.39674377 169.64120483 C-145.43905929 163.8822526 -148.65726631 158.23237167 -152.01293945 152.64990234 C-153.00390625 150.94140625 -153.00390625 150.94140625 -154.3125 148.16796875 C-153.22441944 144.90372706 -152.70850227 144.44210809 -150.05859375 142.48828125 C-149.37676025 141.9780542 -148.69492676 141.46782715 -147.99243164 140.94213867 C-147.2524292 140.3979126 -146.51242676 139.85368652 -145.75 139.29296875 C-144.19376099 138.12706808 -142.63911202 136.95904248 -141.0859375 135.7890625 C-140.29155273 135.19077637 -139.49716797 134.59249023 -138.67871094 133.97607422 C-134.32008672 130.64549529 -130.068466 127.18318039 -125.85449219 123.671875 C-123.12256288 121.40231416 -120.48724818 119.27796864 -117.4765625 117.3828125 C-112.64905416 114.28376535 -109.76618801 110.68522381 -107.26171875 105.56640625 C-106.74971924 104.52403809 -106.23771973 103.48166992 -105.71020508 102.40771484 C-103.49495948 97.6945019 -101.38012363 92.94787432 -99.3125 88.16796875 C-102.9425 88.16796875 -106.5725 88.16796875 -110.3125 88.16796875 C-111.76813029 83.68805247 -113.21018864 79.20407806 -114.63989258 74.71582031 C-115.12805352 73.18989178 -115.61988937 71.66513377 -116.11547852 70.14160156 C-116.82759659 67.95024926 -117.5263509 65.75501404 -118.22265625 63.55859375 C-118.44655533 62.87927795 -118.67045441 62.19996216 -118.90113831 61.50006104 C-120.78773178 55.46808454 -120.78773178 55.46808454 -119.3125 52.16796875 C-113.93161715 46.2478253 -107.2186176 41.42573106 -100.90063477 36.53466797 C-97.72083818 34.07209641 -94.57948146 31.57797678 -91.4921875 29 C-62.23839343 4.5980547 -37.35700519 0.01594132 0 0 Z " fill="#F89FE6" transform="translate(276.3125,151.83203125)"/>
<path d="M0 0 C-3.64392364 5.73251403 -7.60198197 11.14985091 -11.77197266 16.51000977 C-15.50755461 21.32644192 -19.14039915 26.21360051 -22.75 31.125 C-23.62543457 32.3157312 -23.62543457 32.3157312 -24.51855469 33.53051758 C-27.00146463 36.91055952 -29.48154246 40.2926721 -31.9609375 43.67529297 C-33.88929171 46.30534326 -35.81961312 48.93394147 -37.75 51.5625 C-38.34651367 52.37799316 -38.94302734 53.19348633 -39.55761719 54.03369141 C-40.11094727 54.7869873 -40.66427734 55.5402832 -41.234375 56.31640625 C-41.96479004 57.31329468 -41.96479004 57.31329468 -42.70996094 58.33032227 C-46.04506793 62.6469 -49.49688548 62.7507036 -54.640625 63.48046875 C-55.53430786 63.61405289 -56.42799072 63.74763702 -57.34875488 63.88526917 C-60.31476848 64.32692159 -63.28233931 64.75706691 -66.25 65.1875 C-68.31686267 65.49358351 -70.38359301 65.8005619 -72.45019531 66.10839844 C-76.77227008 66.75143518 -81.0948994 67.39054068 -85.41796875 68.02685547 C-94.8858583 69.42313468 -104.34731527 70.86156053 -113.80847168 72.30264282 C-116.66923724 72.73771734 -119.53037281 73.17027833 -122.39160156 73.60229492 C-124.19339082 73.87528079 -125.99514934 74.14846966 -127.796875 74.421875 C-128.65903625 74.55233719 -129.52119751 74.68279938 -130.40948486 74.81721497 C-134.62758095 75.4614414 -138.83747283 76.13557879 -143.04101562 76.86914062 C-143.84823059 77.00910461 -144.65544556 77.1490686 -145.48712158 77.29327393 C-146.9855706 77.55561482 -148.48304932 77.82359926 -149.97918701 78.09881592 C-154.71747874 78.9293895 -159.18824774 79.11177594 -164 79 C-165.03544174 77.09118566 -166.05290085 75.17260796 -167.0625 73.25 C-167.63097656 72.18265625 -168.19945312 71.1153125 -168.78515625 70.015625 C-170.09209971 66.77137949 -170.14881573 66.13798654 -169 63 C-165.25128485 57.65092781 -159.4909975 51.25756394 -153.2890625 49.0234375 C-151.56340243 48.83759718 -149.83339018 48.68916306 -148.1015625 48.57421875 C-139.22827589 46.93143143 -130.64877233 40.5892634 -123 36 C-134.88 35.34 -146.76 34.68 -159 34 C-159.99 36.475 -159.99 36.475 -161 39 C-161.8983522 40.50105045 -162.84035149 41.97668996 -163.8203125 43.42578125 C-164.35527344 44.22177734 -164.89023438 45.01777344 -165.44140625 45.83789062 C-165.99699219 46.65451172 -166.55257812 47.47113281 -167.125 48.3125 C-167.68832031 49.14845703 -168.25164062 49.98441406 -168.83203125 50.84570312 C-170.21720789 52.89999052 -171.60662219 54.95127038 -173 57 C-177.12431251 53.03888486 -179.41038154 48.48938336 -181 43 C-180.84353569 39.56380311 -179.55675815 37.03428011 -178 34 C-177.41734264 32.78868601 -176.83677702 31.57636462 -176.2578125 30.36328125 C-171.46650719 20.46650719 -171.46650719 20.46650719 -170 19 C-167.34406256 18.622621 -164.70159837 18.30388515 -162.03515625 18.01953125 C-161.19674698 17.92637131 -160.35833771 17.83321136 -159.49452209 17.73722839 C-157.657457 17.533377 -155.82018014 17.3314275 -153.98272705 17.13110352 C-148.95487725 16.58255349 -143.92864392 16.01957658 -138.90234375 15.45703125 C-137.84623901 15.3390921 -136.79013428 15.22115295 -135.70202637 15.09963989 C-125.20834729 13.92226502 -114.72617404 12.65464597 -104.24401855 11.37939453 C-85.63843925 9.11622908 -67.02367652 6.98703262 -48.38650513 5.00064087 C-36.71807806 3.75657926 -25.06549947 2.48157081 -13.44848633 0.81176758 C-8.90984431 0.17214381 -4.58512163 -0.11600175 0 0 Z " fill="#130D4A" transform="translate(359,218)"/>
<path d="M0 0 C1.10240021 0.47555328 2.20480042 0.95110657 3.34060669 1.44107056 C6.89567144 2.97984018 10.43784191 4.54611733 13.98046875 6.11328125 C16.42930298 7.18206183 18.88075562 8.24476961 21.33227539 9.30737305 C26.13479197 11.39314127 30.93250073 13.48932934 35.72558594 15.59667969 C41.00247813 17.91671088 46.28735942 20.21696386 51.58203125 22.49609375 C57.39526755 24.9998565 63.20229249 27.51740713 69.00439453 30.046875 C72.3586654 31.50890015 75.71433074 32.96768789 79.0703125 34.42578125 C84.43690764 36.75748522 89.802786 39.09082937 95.16796875 41.42578125 C95.16796875 41.75578125 95.16796875 42.08578125 95.16796875 42.42578125 C71.81268445 45.91388779 48.36237089 48.49607047 24.89698792 51.11221313 C10.12220524 52.76146941 -4.64784454 54.45209873 -19.41799927 56.14221191 C-23.24908866 56.58058015 -27.08024742 57.01833827 -30.91143703 57.45582962 C-33.8154514 57.78750986 -36.71942168 58.11957539 -39.62339592 58.45160675 C-41.6934229 58.68806691 -43.76352323 58.92387652 -45.83363342 59.15960693 C-51.33504757 59.78772359 -56.835418 60.41856271 -62.33007812 61.10351562 C-69.20500549 61.95888678 -75.89534506 62.67802438 -82.83203125 62.42578125 C-83.89771829 59.18316267 -84.93027387 55.93091599 -85.95703125 52.67578125 C-86.25996094 51.75539062 -86.56289062 50.835 -86.875 49.88671875 C-87.15214844 48.99726563 -87.42929688 48.1078125 -87.71484375 47.19140625 C-87.97668457 46.37446289 -88.23852539 45.55751953 -88.50830078 44.71582031 C-88.90667902 41.89772991 -88.37722154 40.77602073 -86.83203125 38.42578125 C-84.79296875 36.5234375 -84.79296875 36.5234375 -82.20703125 34.48828125 C-81.21574219 33.70066406 -80.22445312 32.91304687 -79.203125 32.1015625 C-78.66026855 31.67311035 -78.11741211 31.2446582 -77.55810547 30.80322266 C-75.74739873 29.35824283 -73.9619026 27.88620442 -72.1796875 26.40625 C-26.13453992 -11.72744039 -26.13453992 -11.72744039 0 0 Z " fill="#130D4A" transform="translate(254.83203125,167.57421875)"/>
<path d="M0 0 C-1.30697016 2.75321386 -2.75582867 5.19633274 -4.546875 7.66015625 C-5.30859009 8.7119104 -5.30859009 8.7119104 -6.08569336 9.78491211 C-6.63491455 10.53651611 -7.18413574 11.28812012 -7.75 12.0625 C-8.32564697 12.85470947 -8.90129395 13.64691895 -9.49438477 14.46313477 C-15.36374518 22.52824996 -21.28387182 30.55609769 -27.21191406 38.578125 C-29.64833048 41.87813194 -32.07852635 45.18270003 -34.5090332 48.48706055 C-36.81437218 51.61941296 -39.1236972 54.74880953 -41.43408203 57.87744141 C-42.4417036 59.24324464 -43.44799719 60.61002912 -44.45263672 61.97802734 C-45.71474477 63.6964395 -46.98160292 65.41122768 -48.25 67.125 C-48.93578125 68.05570312 -49.6215625 68.98640625 -50.328125 69.9453125 C-52 72 -52 72 -54 73 C-56.55257739 72.4969014 -59.02805616 71.9222266 -61.54296875 71.26953125 C-62.30362137 71.07783859 -63.06427399 70.88614594 -63.84797668 70.68864441 C-66.29620586 70.06983719 -68.7417955 69.44120281 -71.1875 68.8125 C-72.78564938 68.40757936 -74.38395524 68.00327579 -75.98242188 67.59960938 C-102.87696899 60.78809037 -102.87696899 60.78809037 -111 58 C-110.73647899 53.46490694 -110.46983515 48.93001156 -110.20043945 44.39526367 C-110.10943552 42.8562503 -110.01924851 41.31718837 -109.92993164 39.77807617 C-109.80055066 37.55113312 -109.66811987 35.32438794 -109.53515625 33.09765625 C-109.49656998 32.4222731 -109.4579837 31.74688995 -109.41822815 31.05104065 C-109.11313084 26.01261051 -108.5950424 21.0120617 -108 16 C-99.46067428 14.64999401 -90.92102727 13.30204337 -82.38101387 11.95639515 C-78.4112521 11.33082139 -74.44158559 10.70465833 -70.47216797 10.0769043 C-54.05424256 7.48095078 -37.63270012 4.91146848 -21.1906395 2.47229576 C-19.69613252 2.25047673 -18.20175758 2.02776612 -16.70752335 1.8041172 C-14.64643564 1.49616406 -12.58480811 1.19214539 -10.52294922 0.8894043 C-9.35577362 0.71692673 -8.18859802 0.54444916 -6.98605347 0.366745 C-4 0 -4 0 0 0 Z " fill="#130D4A" transform="translate(305,290)"/>
<path d="M0 0 C10.12151807 -0.04711832 20.24300852 -0.08226039 30.36461544 -0.10362434 C35.06855684 -0.11389716 39.77242126 -0.12773832 44.47631836 -0.15087891 C68.07848434 -0.26384555 91.45980882 0.20771214 115 2 C116.86046463 2.12565338 116.86046463 2.12565338 118.7585144 2.25384521 C119.94413971 2.33620422 121.12976501 2.41856323 122.35131836 2.50341797 C123.41434677 2.575112 124.47737518 2.64680603 125.57261658 2.72067261 C128 3 128 3 129 4 C129.88838867 14.12763082 125.02174729 20.21363462 119.00878906 27.84130859 C114.38954975 33.70471295 110.18626929 39.82171369 106 46 C99.13371456 43.82672415 92.59443993 41.20488392 86.00390625 38.30859375 C84.42721161 37.62159393 84.42721161 37.62159393 82.81866455 36.92071533 C79.39841817 35.42977761 75.9804488 33.9336964 72.5625 32.4375 C67.79770101 30.35747873 63.03176869 28.28006291 58.265625 26.203125 C57.06956131 25.68155319 55.87349762 25.15998138 54.64118958 24.62260437 C46.85312251 21.23026787 39.05091098 17.87305803 31.234375 14.546875 C29.76260048 13.9199752 29.76260048 13.9199752 28.26109314 13.28041077 C24.53440631 11.69379218 20.80745841 10.10788949 17.07644653 8.53146362 C14.55575652 7.46637885 12.03747389 6.39577843 9.51953125 5.32421875 C8.4093161 4.85861542 8.4093161 4.85861542 7.27667236 4.38360596 C4.41878799 3.16305921 2.21906748 2.21906748 0 0 Z " fill="#140D4A" transform="translate(262,161)"/>
<path d="M0 0 C9.67140931 12.20832084 18.09025297 29.73017743 16.5546875 45.42578125 C16.05871102 48.62168603 15.56290108 51.81516494 15 55 C12.03490853 55.98836382 9.62389025 56.28651171 6.51953125 56.53515625 C4.8962793 56.66567383 4.8962793 56.66567383 3.24023438 56.79882812 C2.10908203 56.88583984 0.97792969 56.97285156 -0.1875 57.0625 C-1.29931641 57.15337891 -2.41113281 57.24425781 -3.55664062 57.33789062 C-9.39128855 57.79733892 -15.14765488 58.10718581 -21 58 C-21.30935407 46.00393646 -20.59615955 34.20246743 -19.24560547 22.27978516 C-19.04481606 20.41599643 -18.92309009 18.54383901 -18.82421875 16.671875 C-17.62559904 12.7863021 -14.95746595 11.09987244 -11.75 8.875 C-10.59873852 8.03936526 -9.44769385 7.20343172 -8.296875 6.3671875 C-7.46446289 5.77502441 -7.46446289 5.77502441 -6.61523438 5.17089844 C-4.34609861 3.52598079 -2.17118571 1.77123045 0 0 Z " fill="#150E4B" transform="translate(172,270)"/>
<path d="M0 0 C0 3.63 0 7.26 0 11 C-7.2791851 10.4003591 -14.02358241 8.85155267 -21.0625 6.9375 C-22.11888672 6.65583984 -23.17527344 6.37417969 -24.26367188 6.08398438 C-26.84405915 5.39510271 -29.42270414 4.70034171 -32 4 C-31.67 3.34 -31.34 2.68 -31 2 C-28.68676758 1.58935547 -28.68676758 1.58935547 -25.64453125 1.3671875 C-24.54689453 1.28339844 -23.44925781 1.19960938 -22.31835938 1.11328125 C-21.16142578 1.03464844 -20.00449219 0.95601563 -18.8125 0.875 C-17.67490234 0.78863281 -16.53730469 0.70226562 -15.36523438 0.61328125 C-10.22881776 0.23547127 -5.15241529 -0.04506625 0 0 Z " fill="#201552" transform="translate(186,334)"/>
</svg>
