<?xml version="1.0" encoding="UTF-8"?>
<svg id="Layer_1" data-name="Layer 1" xmlns="http://www.w3.org/2000/svg" viewBox="0 0 1068.045 724.896">
  <defs>
    <style>
      .cls-1 {
        fill: #814625;
      }

      .cls-2 {
        fill: #fff;
      }

      .cls-3 {
        fill: #120c49;
      }

      .cls-4 {
        fill: #b14aa0;
      }
    </style>
  </defs>
  <g>
    <circle class="cls-4" cx="342.519" cy="371.027" r="306.583"/>
    <g>
      <circle class="cls-3" cx="342.519" cy="371.027" r="263.424"/>
      <path class="cls-4" d="M196.291,424.485l22.283,39.74c.08.302.265.512.409.739l5.793,10.404,114.989,30.063,8.847-4.031,62.986-85.7,8.126-11.065,52.033-70.32,5.971-7.995,22.847-30.917.485-.781c1.102-2.385,6.587-14.588,3.027-22.435-1.338-2.936-3.684-4.965-6.853-5.879-8.927-2.507-115.12-8.038-168.197-2.993-.081.034-.139.011-.197-.013-14.822,1.475-23.996,3.486-28.877,6.462-22.71,13.782-61.859,47.663-63.496,49.123l-2.364,2.008,11.658,38.096,13.041-1.489-12.734,27.837-49.777,39.146ZM270.478,429.311l-1.911,24.505-40.823,3.17,3.737-47.967,21.314-16.741,17.684,37.033ZM269.911,356.207l189.733-21.613-49.914,67.505-.735.983-.041.017-130.819,20.046-7.883-16.476,16.109-16.458c12.368,2.25,37.909-16.519,37.909-16.519l-40.579-.675-16.966,26.222-8.423-17.639,11.609-25.394ZM451.627,325.851l-185.311,21.181c-.238.005-.435-.008-.638.078l-13.099,1.465-7.515-24.45c8.94-7.668,41.004-34.714,59.903-46.164,1.897-1.186,7.539-3.382,23.655-4.972l123.005,52.863ZM468.475,322.703l-118.935-51.179c55.443-2.401,138.843,2.318,145.071,4,.562.194.631.357.751.642,1.2,2.61-.787,9.591-2.785,13.938l-24.102,32.599ZM276.218,478.929l3.613-46.332,121.125-18.583-60.126,81.803-64.612-16.889ZM230.71,466.38l37.103-2.891-.982,12.983-35.696-9.313-.426-.779Z"/>
    </g>
  </g>
  <g>
    <rect class="cls-2" x="409.883" y="70.289" width="615.676" height="615.676" rx="307.838" ry="307.838"/>
    <rect class="cls-1" x="409.883" y="70.289" width="615.676" height="615.676" rx="307.838" ry="307.838"/>
    <path class="cls-2" d="M812.475,442.746v-24.455c14.168-5.162,24.485-21.195,24.485-40.17s-10.316-35.053-24.485-40.171v-24.455c13.343-4.845,23.293-19.383,24.393-36.954h-16.232v7.472c0,5.752-3.301,10.824-8.162,13.36v-3.487c0-5.118-4.218-9.284-9.399-9.284h-.825c-5.182,0-9.4,4.167-9.4,9.284v3.487c-4.86-2.536-8.162-7.563-8.162-13.36v-7.472h-16.231c1.1,17.571,11.05,32.109,24.392,36.954v24.455c-14.122,5.118-24.485,21.149-24.485,40.171s10.316,35.052,24.485,40.17v24.455c-13.342,4.845-23.293,19.383-24.392,36.954h16.231v-7.472c0-5.752,3.302-10.824,8.162-13.36v3.487c0,5.118,4.218,9.284,9.4,9.284h.825c5.181,0,9.399-4.167,9.399-9.284v-3.487c4.861,2.537,8.162,7.563,8.162,13.36v7.472h16.232c-1.101-17.571-11.05-32.109-24.393-36.954ZM784.689,388.808v-21.421c0-5.751,3.302-10.824,8.162-13.36v3.488c0,5.117,4.218,9.284,9.4,9.284h.825c5.181,0,9.399-4.167,9.399-9.284v-3.488c4.861,2.537,8.162,7.564,8.162,13.36v21.421c0,5.752-3.301,10.824-8.162,13.36v-3.487c0-5.118-4.218-9.284-9.399-9.284h-.825c-5.182,0-9.4,4.167-9.4,9.284v3.487c-4.815-2.537-8.162-7.563-8.162-13.36Z"/>
    <path class="cls-2" d="M912.063,391.118v-26.04c14.167-5.163,24.484-21.195,24.484-40.171s-10.316-35.053-24.484-40.17v-8.197h-19.579v8.197c-14.168,5.162-24.485,21.195-24.485,40.17s10.316,35.053,24.485,40.171v26.04c-14.168,5.163-24.485,21.195-24.485,40.171s10.316,35.052,24.485,40.17v8.197h19.579v-8.197c14.167-5.162,24.484-21.195,24.484-40.17s-10.316-35.007-24.484-40.171ZM884.277,335.595v-21.421c0-5.752,3.302-10.824,8.162-13.36v3.487c0,5.118,4.219,9.284,9.4,9.284h.78c5.181,0,9.399-4.167,9.399-9.284v-3.487c4.86,2.536,8.162,7.563,8.162,13.36v21.421c0,5.751-3.302,10.824-8.162,13.359v-3.487c0-5.117-4.218-9.284-9.399-9.284h-.826c-5.181,0-9.399,4.167-9.399,9.284v3.487c-4.768-2.536-8.116-7.563-8.116-13.359ZM920.225,442.021c0,5.752-3.302,10.824-8.162,13.36v-5.118c0-5.117-4.218-9.284-9.4-9.284h-.78c-5.181,0-9.399,4.167-9.399,9.284v5.118c-4.86-2.537-8.162-7.564-8.162-13.36v-21.421c0-5.752,3.302-10.824,8.162-13.36v1.857c0,5.118,4.218,9.284,9.399,9.284h.826c5.181,0,9.399-4.167,9.399-9.284v-1.857c4.861,2.537,8.162,7.564,8.162,13.36v21.421h-.045Z"/>
    <path class="cls-2" d="M699.296,357.385c-.183-1.041-.413-2.038-.78-2.989.138-.226,30.583-42.118,2.384-68.022-28.153-25.905-61.027,7.881-61.21,8.062-5.227-1.631-10.5-2.627-15.727-3.08h-.045c-10.729-1.766-25.768,0-25.768,0-5.181.453-10.408,1.449-15.59,3.035-.183-.181-33.058-33.965-61.21-8.062-28.153,25.905,2.246,67.841,2.384,68.022-.321.997-.596,1.993-.78,2.989-3.026,17.934-23.797,23.459-23.797,54.707,0,31.837,21.688,56.927,65.98,56.927h18.157c.092.09,7.106,9.963,21.596,10.552,0,0,3.347.362,11.05.091,15.36,0,22.834-10.462,22.88-10.597h18.157c44.292,0,65.979-25.09,65.979-56.927.138-31.203-20.633-36.774-23.659-54.707Z"/>
  </g>
</svg>