<svg xmlns="http://www.w3.org/2000/svg" viewBox="0 0 128 128"><path fill="#120c49" d="M64.688 3.264h.674c3.523.004 6.946.161 10.414.832l.689.129c10.36 1.995 19.994 6.542 27.983 13.439l.605.519c3.189 2.803 6.093 5.79 8.611 9.209l.326.434c7.447 9.918 11.554 22.005 11.962 34.382l.032.947c.174 10.605-2.465 20.955-7.456 30.285l-.476.897c-2.13 3.87-4.766 7.346-7.716 10.623l-.392.44c-10.57 11.834-25.707 18.708-41.473 19.713-13.937.753-28.021-3.123-39.287-11.449l-.443-.323c-2.216-1.619-4.237-3.408-6.213-5.309l-.45-.428c-2.059-1.97-3.926-4.009-5.624-6.3q-.476-.64-.96-1.273C7.788 89.762 3.956 76.964 4.015 64.208l.002-.66C4.073 49.755 8.744 36.194 17.664 25.6l.337-.405c2.625-3.16 5.378-6.021 8.623-8.555l.745-.603C35.99 9.181 46.445 4.997 57.344 3.584l.53-.073c2.26-.272 4.54-.245 6.814-.247"/><path fill="#f89fe6" d="m70.736 38.869 1.401-.003q1.462-.002 2.925-.001 1.471 0 2.942-.006c7.035-.025 13.992.19 21.004.789l.533.041c1.144.124 1.782.471 2.603 1.271.348.696.328 1.27.352 2.048l.038.832c-.315 2.255-1.745 4.085-3.094 5.856l-.476.636q-.712.947-1.428 1.892a1144 1144 0 0 0-1.91 2.546c-1.444 1.921-2.866 3.858-4.29 5.794l-2.248 3.052-.896 1.216-12.544 17.024-.448.608-.895 1.214-2.715 3.69-1.345 1.82q-.869 1.175-1.714 2.37l-.41.569a68 68 0 0 0-.75 1.06c-.805 1.108-1.497 1.666-2.859 2.045-1.685-.06-3.366-.641-4.992-1.072l-.926-.243-1.884-.495q-1.595-.42-3.191-.835L47.66 91.06l-2.922-.763-2.104-.547-1.307-.341-.595-.154-.558-.146-.48-.125-.527-.151-.77-.178c-1.006-.439-1.223-.9-1.731-1.864l-.25-.464a121 121 0 0 1-.785-1.494l-.543-1.02q-.406-.757-.807-1.515a90 90 0 0 0-2.461-4.35c-.254-.437-.254-.437-.589-1.147.279-.836.41-.954 1.089-1.454l.529-.396.574-.422 1.194-.897.616-.464a100 100 0 0 0 3.283-2.638c.7-.581 1.374-1.125 2.145-1.61 1.236-.793 1.974-1.715 2.615-3.025l.397-.809q.847-1.809 1.638-3.645h-2.816a600 600 0 0 1-1.108-3.444q-.187-.585-.378-1.17-.272-.842-.539-1.686l-.174-.527c-.483-1.544-.483-1.544-.105-2.389 1.377-1.515 3.096-2.75 4.714-4.002a84 84 0 0 0 2.408-1.929c7.489-6.247 13.859-7.42 23.422-7.424"/><path fill="#130d4a" d="M91.904 55.808c-.933 1.468-1.946 2.854-3.014 4.227a181 181 0 0 0-2.81 3.741l-.453.616-1.905 2.597-1.482 2.019-.463.633-.429.584-.378.516c-.853 1.105-1.737 1.131-3.054 1.318l-.693.104q-1.14.169-2.279.333l-1.587.236-3.32.49q-3.636.54-7.268 1.096l-2.197.332-1.384.21-.669.101q-1.62.246-3.233.526l-.627.108q-.575.1-1.15.206c-1.213.213-2.357.26-3.589.231a124 124 0 0 1-.784-1.472l-.441-.828c-.335-.83-.35-.993-.055-1.796.96-1.37 2.434-3.006 4.022-3.578a33 33 0 0 1 1.328-.115c2.272-.42 4.468-2.044 6.426-3.219l-9.216-.512-.512 1.28q-.344.576-.722 1.133l-.415.618-.431.633-.437.649-1.067 1.575c-1.056-1.014-1.641-2.179-2.048-3.584.04-.88.37-1.527.768-2.304q.224-.465.446-.931c1.226-2.533 1.226-2.533 1.602-2.909a59 59 0 0 1 2.039-.25l.65-.073 1.411-.155q1.931-.211 3.86-.429l.82-.091a871 871 0 0 0 8.054-.953q7.143-.87 14.299-1.633c2.987-.318 5.97-.645 8.944-1.072a20.5 20.5 0 0 1 3.443-.208m-26.667-12.91.855.37q1.364.593 2.724 1.196l1.882.818q1.845.8 3.685 1.61 2.026.89 4.059 1.766 2.232.961 4.46 1.933l2.577 1.121 4.121 1.792v.256c-5.979.893-11.982 1.554-17.99 2.224-3.782.422-7.563.855-11.344 1.287l-2.942.337-2.23.255-1.59.18c-1.409.162-2.817.323-4.223.499-1.76.218-3.473.402-5.249.338q-.407-1.245-.8-2.496l-.235-.714-.215-.69-.203-.634c-.102-.721.033-1.008.429-1.61.522-.487.522-.487 1.184-1.008l.769-.61.421-.334q.694-.555 1.377-1.125c11.787-9.762 11.787-9.762 18.478-6.76M78.08 74.24a12 12 0 0 1-1.164 1.961l-.394.544-.426.583-.447.614a1044 1044 0 0 1-4.535 6.174q-.935 1.267-1.868 2.537a1814 1814 0 0 1-2.546 3.453q-.484.66-.972 1.318l-.532.722c-.428.526-.428.526-.94.782a33 33 0 0 1-1.931-.443l-.59-.149-1.88-.48-1.226-.31c-6.885-1.744-6.885-1.744-8.965-2.458l.205-3.483.069-1.182.101-1.71.03-.524c.078-1.29.21-2.57.363-3.853l9.607-1.516a1343 1343 0 0 1 15.347-2.352l.906-.134c.764-.094.764-.094 1.788-.094"/><path fill="#140d4a" d="M67.072 41.216q3.886-.017 7.773-.027 1.806-.003 3.613-.012c6.042-.029 12.028.092 18.054.551l.962.065.92.064.825.056c.621.071.621.071.877.327.227 2.593-1.018 4.15-2.558 6.103-1.182 1.501-2.258 3.067-3.33 4.649-1.758-.556-3.432-1.227-5.119-1.969l-.815-.355-2.626-1.148-4.588-2a765 765 0 0 0-5.992-2.58l-.761-.324q-1.431-.61-2.864-1.216l-1.934-.821-.574-.24c-.732-.313-1.295-.555-1.863-1.123"/><path fill="#150e4b" d="M44.032 69.12c2.476 3.125 4.631 7.61 4.238 11.63-.127.817-.254 1.635-.398 2.45-.759.253-1.376.33-2.17.393l-.84.068-.878.067-.863.07c-1.493.118-2.967.198-4.465.17-.08-3.071.103-6.092.449-9.144.052-.477.083-.957.108-1.436.307-.995.99-1.426 1.811-1.996l.884-.642.43-.306a37 37 0 0 0 1.694-1.324"/><path fill="#201552" d="M47.616 85.504v2.816c-1.864-.154-3.59-.55-5.392-1.04l-.82-.219q-.99-.264-1.98-.533l.256-.512c.592-.105.592-.105 1.37-.162l.853-.065.897-.061.883-.067c1.314-.097 2.614-.168 3.933-.157"/></svg>
