<svg width="128" height="128" viewBox="0 0 128 128" fill="none" xmlns="http://www.w3.org/2000/svg">
<g clip-path="url(#clip0_21340_97123)">
<mask id="mask0_21340_97123" style="mask-type:alpha" maskUnits="userSpaceOnUse" x="-1" y="-1" width="129" height="129">
<path d="M127.855 63.8398C127.855 99.1861 99.2012 127.84 63.855 127.84C28.5088 127.84 -0.14502 99.1861 -0.14502 63.8398C-0.14502 28.4936 28.5088 -0.160156 63.855 -0.160156C99.2012 -0.160156 127.855 28.4936 127.855 63.8398Z" fill="#D9D9D9"/>
</mask>
<g mask="url(#mask0_21340_97123)">
<rect x="-7.20264" y="-0.160156" width="141.794" height="21.44" fill="#D5393A"/>
<rect x="-7.20264" y="21.2798" width="141.794" height="21.44" fill="#DB7739"/>
<rect x="-7.20264" y="42.7197" width="141.794" height="21.12" fill="#D2D73C"/>
<rect x="-7.20264" y="63.8398" width="141.794" height="20.8" fill="#45A446"/>
<rect x="-7.20264" y="84.6396" width="141.794" height="21.44" fill="#504FDB"/>
<rect x="-7.20264" y="106.08" width="141.794" height="21.76" fill="#7B3A7A"/>
</g>
<path d="M41.0851 86.9143L41.0841 86.9123L43.6183 77.4875L41.0851 86.9143Z" fill="white"/>
<path fill-rule="evenodd" clip-rule="evenodd" d="M44.9269 68.9602C52.8111 68.9602 59.2032 75.3359 59.2032 83.2004C59.203 91.0647 52.8109 97.4406 44.9269 97.4406C37.0431 97.4403 30.6518 91.0645 30.6515 83.2004C30.6515 75.3361 37.0429 68.9605 44.9269 68.9602ZM35.8077 76.5276C35.5082 76.5296 35.2265 76.671 35.046 76.9094C34.8656 77.1481 34.8064 77.4574 34.8868 77.7453L38.4933 90.6584C38.6094 91.0731 38.9883 91.3604 39.42 91.3606H42.6007C43.0407 91.3603 43.4259 91.0623 43.5343 90.6369L44.7989 85.6643L46.1085 90.6438C46.2196 91.0655 46.602 91.3603 47.0392 91.3606H50.2198C50.6515 91.3603 51.0315 91.0732 51.1476 90.6584L54.754 77.7453C54.8346 77.4565 54.7745 77.1463 54.5929 76.9074C54.411 76.6686 54.127 76.5277 53.8263 76.5276H51.0157C50.5772 76.5277 50.194 76.8238 50.0841 77.2473L48.5704 83.0891L47.046 77.2463C46.9357 76.8235 46.5523 76.5278 46.1144 76.5276H43.6183C43.1829 76.5277 42.8014 76.82 42.6886 77.2395L41.1134 83.0988L39.6319 77.2346C39.5236 76.806 39.1355 76.5064 38.6925 76.509L35.8077 76.5276Z" fill="white"/>
<path fill-rule="evenodd" clip-rule="evenodd" d="M44.6788 37.5178C47.5307 37.2538 49.3917 37.5631 51.2003 38.6008L51.922 39.0149C52.6202 39.4153 53.435 39.8826 53.9923 40.2024C56.6176 41.7085 58.9671 42.3292 62.7345 42.5129C67.1892 42.7298 70.0949 42.1427 73.4552 40.3489C76.6313 38.6532 77.7989 38.0195 79.0421 37.7824C79.8161 37.6349 80.6201 37.6408 81.9562 37.6408C84.9323 37.6408 85.327 37.7179 87.2823 38.678C89.8288 39.9285 92.0824 42.2201 93.2755 44.7717C94.0212 46.3673 94.132 47.0107 94.1358 49.801C94.1394 52.6351 94.0401 53.2021 93.2726 54.761C92.796 55.7287 91.8905 57.0246 91.2599 57.6408C89.2411 59.6126 89.0688 60.1718 89.6368 62.9143C90.3457 66.3382 90.2794 71.6728 89.4903 74.7512C88.6566 78.0037 87.0213 81.3337 85.09 83.7131C79.7176 90.3315 70.2146 93.8196 61.2472 93.0783C63.003 90.1982 64.0148 86.8167 64.0148 83.1994C64.0147 81.912 63.8859 80.6544 63.6417 79.4387C65.019 79.8152 66.6072 78.9455 67.715 77.2033C68.5181 75.9401 68.5796 75.68 68.2071 75.1203C67.9731 74.7687 67.2879 74.3027 66.6847 74.0852C65.2448 73.5662 63.1899 73.5606 61.6593 74.0315C58.412 68.1475 52.1371 64.1595 44.9278 64.1594C42.4802 64.1594 40.1398 64.6199 37.9894 65.4572C38.0352 65.042 38.0891 64.6231 38.1515 64.2014C38.5105 61.7754 38.675 60.7715 38.3683 59.9416C38.135 59.3109 37.6295 58.7798 36.7296 57.801C33.3065 54.0782 32.6403 49.1875 34.9005 44.3694C36.7512 40.4252 40.3237 37.9213 44.6788 37.5178ZM78.2628 68.9651C76.969 68.1114 74.7032 67.7142 73.2872 68.094C71.3792 68.6057 69.2806 71.1366 69.2784 72.928C69.2765 74.5848 70.14 74.804 74.8204 74.3371C80.0057 73.82 81.125 73.0894 80.0802 70.9035C79.7965 70.31 78.9787 69.4376 78.2628 68.9651ZM84.4454 43.3528C82.2435 42.4326 78.0559 43.1304 76.9034 44.6096C76.2584 45.4377 76.1882 46.7029 76.7462 47.4319C77.2766 48.1239 84.2022 53.0984 85.4855 53.7092C86.9502 54.4058 88.2133 53.7674 88.7921 52.0373C89.8734 48.8031 87.8596 44.7802 84.4454 43.3528ZM49.0782 43.6408C46.9247 42.5568 44.265 42.6462 42.1183 43.8742C39.5601 45.3378 38.3636 47.5384 38.4337 50.6516C38.4837 52.8717 39.1839 53.8009 40.8067 53.801C41.9225 53.801 42.6714 53.3922 46.3487 50.7727C49.4112 48.5911 50.6914 47.4837 50.9259 46.8127C51.3854 45.4973 50.8127 44.5141 49.0782 43.6408Z" fill="white"/>
<path fill-rule="evenodd" clip-rule="evenodd" d="M64.9464 11.717C70.3138 11.7925 72.2701 11.9442 74.5704 12.4641C96.0219 17.314 111.443 33.1147 115.695 54.6008C116.416 58.2404 116.5 68.722 115.837 72.3615C112.707 89.5511 101.951 103.735 86.4425 111.124C82.6169 112.947 78.6032 114.291 73.9288 115.315C71.2009 115.912 69.7129 116.018 63.9845 116.024C56.6425 116.032 54.7261 115.77 48.586 113.913C29.9328 108.274 15.9878 92.6831 12.1358 73.1614C11.4366 69.617 11.5337 57.2774 12.2882 53.801C13.7992 46.8396 16.6555 40.0714 20.464 34.4289C28.7375 22.1709 41.9782 14.0116 57.2472 11.7639C57.7765 11.6858 61.2412 11.6652 64.9464 11.717ZM49.8692 32.8508C47.2493 32.1225 45.8401 32.0591 43.1319 32.55C35.6827 33.8998 30.266 39.225 28.6642 46.7727C27.7597 51.0339 28.7236 55.3339 31.4845 59.3625L32.8263 61.3215L32.8526 67.7209C32.8536 67.97 32.8558 68.213 32.8575 68.4494C28.5745 71.9409 25.8401 77.2516 25.8399 83.1994C25.8399 93.7149 34.386 102.239 44.9278 102.239C49.6633 102.239 53.995 100.518 57.3312 97.6701C61.1662 98.4333 65.1289 98.4812 69.1554 97.7961C80.1703 95.9222 87.8666 90.6099 92.3292 81.801C94.7191 77.0834 95.0665 75.3459 95.1075 67.8811L95.1427 61.3215L96.5079 59.3283C98.4644 56.4711 99.1898 54.2317 99.3624 50.5197C99.4881 47.8093 99.3984 47.0511 98.6808 44.76C97.6809 41.5667 96.4221 39.5197 94.0138 37.1721C88.8679 32.1557 80.1757 30.7671 75.1876 34.1643C71.8654 36.427 68.9417 37.2058 63.798 37.1985C59.1384 37.192 56.3868 36.5212 53.6515 34.7258C52.4538 33.9397 50.7515 33.0961 49.8692 32.8508Z" fill="white"/>
<path d="M63.855 10.395C93.527 10.395 117.589 34.39 117.589 63.9995C117.589 93.6092 93.5271 117.605 63.855 117.605C34.1829 117.605 10.1206 93.6092 10.1206 63.9995C10.1208 34.39 34.183 10.395 63.855 10.395Z" stroke="white" stroke-width="3.84962"/>
<path d="M96 64C113.673 64 128 49.6731 128 32C128 14.3269 113.673 0 96 0C78.3269 0 64 14.3269 64 32C64 49.6731 78.3269 64 96 64Z" fill="#1E1C29"/>
<path d="M65.803 32.0002C65.803 15.3162 79.317 1.80322 96 1.80322C112.683 1.80322 126.197 15.3172 126.197 32.0002C126.197 48.6832 112.684 62.1972 96 62.1972C79.316 62.1972 65.803 48.6842 65.803 32.0002Z" stroke="white" stroke-width="3.375"/>
<path d="M66.7041 23.636C72.3841 21.999 71.3441 21.609 72.5441 21.999C73.7441 22.389 94.2971 60.747 94.4231 61.296" stroke="white" stroke-width="3.375"/>
<path d="M72.564 22.3101C73.271 22.4551 81.206 27.3471 82.078 28.4661C82.95 29.5851 84.139 33.1821 85.091 33.9021C86.043 34.6221 86.914 34.3821 87.786 34.0621C88.658 33.7421 91.592 29.8251 92.385 29.2661C93.178 28.7071 94.129 29.0261 94.605 29.9051C95.081 30.7841 109.837 57.2981 110.423 58.3661M92.845 29.5211L90.592 54.0851M97.578 34.3351C98.456 33.6971 98.535 34.0151 99.014 33.4581C99.493 32.9011 99.654 31.5441 99.893 30.7461C100.133 29.9491 101.091 30.1881 101.73 30.4271C102.369 30.6661 103.008 30.9861 103.567 31.7831C104.126 32.5801 116.582 47.1751 117.94 47.8131C119.298 48.4511 119.459 48.3111 121.014 48.4511" stroke="white" stroke-width="3.375"/>
</g>
<defs>
<clipPath id="clip0_21340_97123">
<rect width="128" height="128" fill="white"/>
</clipPath>
</defs>
</svg>
