<svg xmlns="http://www.w3.org/2000/svg" fill="none" viewBox="0 0 192 128"><g clip-path="url(#a)"><path fill="#0a0a0a" d="M128 64c0 35.348-28.653 64-64 64S0 99.347 0 64 28.653 0 64 0s64 28.653 64 64"/><path fill="url(#b)" d="M127.75 64C127.75 28.793 99.207.25 64 .25S.25 28.793.25 64 28.793 127.75 64 127.75v.25C28.653 128 0 99.347 0 64S28.653 0 64 0s64 28.653 64 64-28.653 64-64 64v-.25c35.207 0 63.75-28.543 63.75-63.75"/><path fill="url(#c)" d="M64 119.775c30.802 0 55.775-24.973 55.775-55.775 0-30.803-24.973-55.775-55.775-55.775C33.197 8.225 8.225 33.197 8.225 64S33.197 119.775 64 119.775"/><path fill="#0a0a0a" d="M64 118.49c30.095 0 54.49-24.395 54.49-54.49S94.095 9.51 64 9.51 9.51 33.905 9.51 64 33.905 118.49 64 118.49"/><path fill="url(#d)" d="M45.575 33.158a3.08 3.08 0 0 1 3.072-3.085H54.8a3.06 3.06 0 0 1 2.172.904c.575.578.9 1.363.9 2.18v6.148c0 .818.325 1.602.9 2.182s1.358.905 2.173.905h6.085a3.084 3.084 0 0 0 3.075-3.087v-6.148a3.08 3.08 0 0 1 3.072-3.085h6.148a3.07 3.07 0 0 1 2.175.906c.578.58.9 1.362.9 2.18v6.172c0 .818-.325 1.602-.9 2.183a3.1 3.1 0 0 1-2.175.904h-6.123a3.07 3.07 0 0 0-2.174.905c-.578.58-.9 1.363-.9 2.183v6.148c0 .817-.326 1.602-.9 2.182a3.07 3.07 0 0 1-2.173.905h-6.153a3.06 3.06 0 0 1-2.172-.905 3.1 3.1 0 0 1-.9-2.18v-6.148c0-.817-.325-1.602-.9-2.182a3.06 3.06 0 0 0-2.175-.905H48.63a3.06 3.06 0 0 1-2.172-.905 3.1 3.1 0 0 1-.9-2.18v-6.172h.014v-.005zM42.5 79.411a3.085 3.085 0 0 1-3.072 3.085h-6.153a3.06 3.06 0 0 1-2.172-.904 3.1 3.1 0 0 1-.9-2.18v-6.175a3.084 3.084 0 0 1 3.075-3.085h6.125a3.085 3.085 0 0 0 3.072-3.088v-6.107a3.1 3.1 0 0 0-.9-2.18 3.07 3.07 0 0 0-2.172-.905h-6.125a3.06 3.06 0 0 1-2.173-.905 3.1 3.1 0 0 1-.902-2.183V48.61c0-.818.325-1.602.902-2.182a3.07 3.07 0 0 1 2.173-.905h6.152c.815 0 1.598.324 2.172.904.576.578.9 1.363.9 2.183v6.145c0 .817.325 1.602.9 2.182.578.58 1.358.906 2.173.906H51.7c.815 0 1.597.324 2.172.904s.9 1.363.9 2.18V67.1a3.08 3.08 0 0 1-3.072 3.085h-6.125c-.815 0-1.598.325-2.172.905s-.9 1.362-.9 2.182v-.012 6.15zm39.925 15.43c0 .818-.325 1.603-.9 2.183a3.06 3.06 0 0 1-2.175.902h-6.152a3.08 3.08 0 0 1-3.073-3.085v-6.147a3.085 3.085 0 0 0-3.075-3.087h-6.085c-.815 0-1.598.325-2.173.904-.575.58-.9 1.363-.9 2.18v6.148a3.085 3.085 0 0 1-3.072 3.085h-6.153a3.08 3.08 0 0 1-3.072-3.085v-6.175a3.084 3.084 0 0 1 3.072-3.088h6.126c.815 0 1.597-.325 2.172-.904.577-.58.9-1.363.9-2.183v-6.147a3.084 3.084 0 0 1 3.072-3.088h6.153a3.084 3.084 0 0 1 3.072 3.088v6.147a3.084 3.084 0 0 0 3.073 3.088h6.125c.815 0 1.597.325 2.172.904.576.578.9 1.363.9 2.18v6.176h-.012zM97.8 54.776c0 .818-.325 1.602-.9 2.18a3.07 3.07 0 0 1-2.172.905h-6.125c-.816 0-1.598.325-2.173.905s-.9 1.362-.9 2.18v6.107c0 .818.325 1.603.9 2.183.577.58 1.357.905 2.172.905h6.126c.815 0 1.597.325 2.172.905s.9 1.362.9 2.18V79.4c0 .817-.325 1.602-.9 2.182a3.07 3.07 0 0 1-2.172.906h-6.15a3.06 3.06 0 0 1-2.173-.906 3.1 3.1 0 0 1-.9-2.182v-6.148c0-.817-.325-1.602-.9-2.182a3.1 3.1 0 0 0-2.172-.905h-6.126a3.08 3.08 0 0 1-3.073-3.085v-6.175a3.084 3.084 0 0 1 3.076-3.085h6.125c.815 0 1.597-.325 2.172-.905s.9-1.362.9-2.182v-6.148a3.1 3.1 0 0 1 .9-2.182 3.06 3.06 0 0 1 2.173-.905h6.15c.815 0 1.597.325 2.172.905s.9 1.362.9 2.182v6.19z"/></g><g clip-path="url(#e)"><path fill="#78350f" d="M128 128c35.346 0 64-28.654 64-64S163.346 0 128 0 64 28.654 64 64s28.654 64 64 64"/><path fill="#fff" d="M171.468 47.58a20.72 20.72 0 0 1-5.44 14.22 1.43 1.43 0 0 0-.36 1.2c2.328 13.104-1.104 23.88-8.176 31.56-7.432 8.06-18.328 12.072-28.896 12.292h-.38c-10.572-.22-21.468-4.236-28.896-12.296C92.248 86.88 88.812 76.104 91.14 63a1.44 1.44 0 0 0-.36-1.2 20.72 20.72 0 0 1-3.36-23.008c3.732-7.72 13.176-13.748 22.84-11.732q.48.1 1.164.3c1.44.424 2.76 1.148 3.92 2.08 2.584 2.06 7.328 3.44 12.752 3.44h.616c5.428 0 10.172-1.376 12.752-3.44 1.16-.928 2.484-1.656 3.92-2.08q.688-.195 1.168-.3c9.664-2.012 19.108 4.016 22.84 11.732a20.6 20.6 0 0 1 2.072 8.788m-12.228 13.712a1.72 1.72 0 0 1 .6-1.76 15 15 0 0 0 5.664-11.9 14.8 14.8 0 0 0-1.488-6.308c-2.76-5.716-9.704-9.876-16.228-8.52-.764.16-2.812.824-4.808 1.76-.72.346-1.403.763-2.04 1.244-2.616 1.976-7.248 3.292-12.532 3.292s-9.92-1.32-12.532-3.292a12 12 0 0 0-2.04-1.244c-2-.936-4.044-1.6-4.808-1.76-6.524-1.36-13.472 2.8-16.232 8.52a14.8 14.8 0 0 0-1.484 6.304 15 15 0 0 0 5.66 11.9c.524.424.76 1.108.6 1.76-5.492 22.88 8.62 36.228 24.828 39.088h.008c1.614.282 3.244.465 4.88.548h.148q.447.034.896.036h.148l.3-.008q.3 0 .596-.024l.148-.004.148-.008a38 38 0 0 0 4.732-.536h.008c16.208-2.864 30.32-16.216 24.828-39.088m-51.2-21.524c1.237.233 2.419.697 3.484 1.368 1.784 1.12 1.384 3.568-.324 4.792l-4.36 3.12-4.356 3.116c-1.708 1.224-4.196.84-4.732-1.172a9.6 9.6 0 0 1-.252-3.68 9.1 9.1 0 0 1 1.168-3.428 8.5 8.5 0 0 1 2.416-2.632 9 9 0 0 1 3.288-1.44 9.2 9.2 0 0 1 3.668-.044m47.088 1.48a8.8 8.8 0 0 1 3.584 6.06 9.4 9.4 0 0 1-.252 3.68c-.536 2.016-3.024 2.4-4.732 1.176l-4.352-3.112-4.36-3.12c-1.712-1.228-2.112-3.676-.328-4.796a10 10 0 0 1 3.488-1.368 9.2 9.2 0 0 1 3.664.04 8.8 8.8 0 0 1 3.288 1.44M131.644 77.6a10.16 10.16 0 0 0-6.472 0c-1.16.396-2.168 1.008-2.108 1.928.12 1.412 2.36 3.828 3.984 4.328.992.3 1.612.28 2.72 0 1.624-.416 3.88-2.916 3.984-4.328.072-.92-.948-1.532-2.108-1.928m-13.252-6.432c.82.48 1.548 1.12 2.128 1.892a7.5 7.5 0 0 1 1.264 2.6c.42 1.58-1.128 2.772-2.772 2.584l-4.184-.48-4.152-.464c-1.64-.188-2.864-1.7-2.096-3.144a7.6 7.6 0 0 1 1.832-2.248c.748-.62 1.6-1.08 2.508-1.36a6.92 6.92 0 0 1 5.472.62m27.86.592a7.2 7.2 0 0 0-2.508-1.36 6.92 6.92 0 0 0-5.468.624 7.2 7.2 0 0 0-2.128 1.888 7.6 7.6 0 0 0-1.264 2.604c-.424 1.576 1.128 2.768 2.76 2.584l4.184-.48 4.16-.464c1.648-.188 2.868-1.7 2.1-3.144a8 8 0 0 0-1.836-2.252"/></g><defs><linearGradient id="b" x1="64" x2="64" y1="0" y2="128" gradientUnits="userSpaceOnUse"><stop stop-color="#272727" stop-opacity=".49"/><stop offset="1" stop-opacity="0"/></linearGradient><linearGradient id="c" x1="222.057" x2="-69.995" y1="61.915" y2="65.767" gradientUnits="userSpaceOnUse"><stop stop-color="#f8f29c"/><stop offset=".17" stop-color="#f6db2a"/><stop offset=".33" stop-color="#f4a435"/><stop offset=".55" stop-color="#e85a46"/><stop offset=".7" stop-color="#b93483"/><stop offset=".87" stop-color="#502b6e"/><stop offset="1" stop-color="#2a2136"/></linearGradient><linearGradient id="d" x1="147.473" x2="-6.765" y1="62.903" y2="64.93" gradientUnits="userSpaceOnUse"><stop stop-color="#f8f29c"/><stop offset=".17" stop-color="#f6db2a"/><stop offset=".33" stop-color="#f4a435"/><stop offset=".55" stop-color="#e85a46"/><stop offset=".7" stop-color="#b93483"/><stop offset=".87" stop-color="#502b6e"/><stop offset="1" stop-color="#2a2136"/></linearGradient><clipPath id="a"><path fill="#fff" d="M0 0h128v128H0z"/></clipPath><clipPath id="e"><path fill="#fff" d="M64 0h128v128H64z"/></clipPath></defs></svg>
