<svg xmlns="http://www.w3.org/2000/svg" viewBox="0 0 512 512"><defs><linearGradient id="a" x1="256" x2="256" y1="514" y2="2" gradientTransform="matrix(1 0 0 -1 0 514)" gradientUnits="userSpaceOnUse"><stop offset="0" stop-color="#272727" stop-opacity=".49"/><stop offset="1" stop-opacity="0"/></linearGradient><linearGradient id="b" x1="888.23" x2="-279.98" y1="266.34" y2="250.93" gradientTransform="matrix(1 0 0 -1 0 514)" gradientUnits="userSpaceOnUse"><stop offset="0" stop-color="#f8f29c"/><stop offset=".17" stop-color="#f6db2a"/><stop offset=".33" stop-color="#f4a435"/><stop offset=".55" stop-color="#e85a46"/><stop offset=".7" stop-color="#b93483"/><stop offset=".87" stop-color="#502b6e"/><stop offset="1" stop-color="#2a2136"/></linearGradient><linearGradient id="d" x1="589.89" x2="-27.06" y1="262.39" y2="254.28" gradientTransform="matrix(1 0 0 -1 0 514)" gradientUnits="userSpaceOnUse"><stop offset="0" stop-color="#f8f29c"/><stop offset=".17" stop-color="#f6db2a"/><stop offset=".33" stop-color="#f4a435"/><stop offset=".55" stop-color="#e85a46"/><stop offset=".7" stop-color="#b93483"/><stop offset=".87" stop-color="#502b6e"/><stop offset="1" stop-color="#2a2136"/></linearGradient></defs><path fill="#0a0a0a" d="M512 256c0 141.39-114.61 256-256 256S0 397.39 0 256 114.61 0 256 0s256 114.61 256 256"/><path fill="url(#a)" d="M511 256C511 115.17 396.83 1 256 1S1 115.17 1 256s114.17 255 255 255v1C114.61 512 0 397.39 0 256S114.61 0 256 0s256 114.61 256 256-114.61 256-256 256v-1c140.83 0 255-114.17 255-255"/><path fill="url(#b)" d="M256 479.1c123.21 0 223.1-99.89 223.1-223.1S379.21 32.9 256 32.9 32.9 132.79 32.9 256 132.79 479.1 256 479.1"/><path fill="#0a0a0a" d="M256 473.96c120.38 0 217.96-97.58 217.96-217.96S376.38 38.04 256 38.04 38.04 135.62 38.04 256 135.62 473.96 256 473.96"/><path fill="url(#d)" d="M182.3 132.63c0-3.27 1.3-6.41 3.6-8.72a12.32 12.32 0 0 1 8.69-3.62h24.61c3.26 0 6.39 1.3 8.69 3.62 2.3 2.31 3.6 5.45 3.6 8.72v24.59c0 3.27 1.3 6.41 3.6 8.73s5.43 3.62 8.69 3.62h24.34c3.26 0 6.39-1.3 8.7-3.62 2.31-2.31 3.6-5.45 3.6-8.73v-24.59c0-3.27 1.3-6.41 3.6-8.72a12.32 12.32 0 0 1 8.69-3.62h24.59c3.26 0 6.39 1.3 8.7 3.62s3.6 5.45 3.6 8.72v24.69c0 3.27-1.3 6.41-3.6 8.73a12.34 12.34 0 0 1-8.7 3.62h-24.49c-3.26 0-6.39 1.3-8.7 3.62s-3.6 5.45-3.6 8.73v24.59c0 3.27-1.3 6.41-3.6 8.73-2.3 2.31-5.43 3.62-8.69 3.62h-24.61c-3.26 0-6.39-1.3-8.69-3.62a12.37 12.37 0 0 1-3.6-8.72v-24.59c0-3.27-1.3-6.41-3.6-8.73a12.26 12.26 0 0 0-8.7-3.62h-24.5c-3.26 0-6.39-1.3-8.69-3.62s-3.6-5.45-3.6-8.72v-24.69h.06v-.02ZM170 317.65c0 3.27-1.3 6.41-3.6 8.72a12.34 12.34 0 0 1-8.69 3.62H133.1c-3.26 0-6.39-1.3-8.69-3.62s-3.6-5.45-3.6-8.72v-24.7c0-3.27 1.3-6.41 3.61-8.72s5.43-3.61 8.69-3.62h24.5c3.26 0 6.39-1.3 8.69-3.62 2.31-2.32 3.6-5.45 3.6-8.73v-24.43c0-3.27-1.3-6.41-3.6-8.72s-5.43-3.62-8.69-3.62h-24.5c-3.26 0-6.39-1.3-8.69-3.62s-3.6-5.45-3.61-8.73v-24.7c0-3.27 1.3-6.41 3.61-8.73s5.43-3.61 8.69-3.62h24.61c3.26 0 6.39 1.3 8.69 3.62 2.3 2.31 3.6 5.45 3.6 8.73v24.58c0 3.27 1.3 6.41 3.6 8.73 2.31 2.32 5.43 3.62 8.69 3.62h24.5c3.26 0 6.39 1.3 8.69 3.62s3.6 5.45 3.6 8.72v24.69c0 3.27-1.3 6.41-3.6 8.72a12.32 12.32 0 0 1-8.69 3.62h-24.5c-3.26 0-6.39 1.3-8.69 3.62s-3.6 5.45-3.6 8.73v-.05 24.6Zm159.7 61.72c0 3.27-1.3 6.41-3.6 8.73a12.25 12.25 0 0 1-8.7 3.61h-24.61c-3.26 0-6.39-1.3-8.69-3.62-2.31-2.31-3.6-5.45-3.6-8.72v-24.59c0-3.27-1.3-6.41-3.61-8.73a12.34 12.34 0 0 0-8.69-3.62h-24.34c-3.26 0-6.39 1.3-8.69 3.62s-3.6 5.45-3.6 8.72v24.59c0 3.27-1.3 6.41-3.6 8.72a12.34 12.34 0 0 1-8.69 3.62h-24.61c-3.26 0-6.39-1.3-8.69-3.62-2.31-2.31-3.6-5.45-3.6-8.72v-24.7c0-3.27 1.3-6.41 3.6-8.73 2.31-2.31 5.43-3.61 8.69-3.62h24.5c3.26 0 6.39-1.3 8.69-3.62 2.31-2.32 3.6-5.45 3.6-8.73v-24.59c0-3.27 1.3-6.41 3.6-8.73 2.31-2.31 5.43-3.61 8.69-3.62h24.61c3.26 0 6.39 1.3 8.69 3.62 2.31 2.31 3.6 5.45 3.6 8.73v24.59c0 3.27 1.3 6.41 3.6 8.73 2.31 2.31 5.43 3.61 8.69 3.62h24.5c3.26 0 6.39 1.3 8.69 3.62 2.3 2.31 3.6 5.45 3.6 8.72v24.7h-.05zm61.5-160.27c0 3.27-1.3 6.41-3.6 8.72s-5.43 3.62-8.69 3.62h-24.5c-3.26 0-6.39 1.3-8.69 3.62s-3.6 5.45-3.6 8.72v24.43c0 3.27 1.3 6.41 3.6 8.73 2.31 2.32 5.43 3.62 8.69 3.62h24.5c3.26 0 6.39 1.3 8.69 3.62s3.6 5.45 3.6 8.72v24.7c0 3.27-1.3 6.41-3.6 8.73s-5.43 3.61-8.69 3.62h-24.6c-3.26 0-6.39-1.3-8.69-3.62-2.3-2.31-3.6-5.45-3.6-8.73v-24.59c0-3.27-1.3-6.41-3.6-8.73a12.34 12.34 0 0 0-8.69-3.62h-24.5c-3.26 0-6.39-1.3-8.69-3.62-2.31-2.31-3.6-5.45-3.6-8.72v-24.7c0-3.27 1.3-6.41 3.61-8.72a12.32 12.32 0 0 1 8.69-3.62h24.5c3.26 0 6.39-1.3 8.69-3.62s3.6-5.45 3.6-8.73v-24.59c0-3.27 1.3-6.41 3.6-8.73s5.43-3.62 8.69-3.62h24.6c3.26 0 6.39 1.3 8.69 3.62s3.6 5.45 3.6 8.73v24.76Z"/></svg>
