<svg xmlns="http://www.w3.org/2000/svg" viewBox="0 0 192 128"><circle cx="64" cy="64" r="64" fill="#78350f"/><circle cx="64" cy="64" r="58" fill="#fff"/><path fill="#78350f" d="M47.52 41.136a10 10 0 0 0-3.486-1.37 9.2 9.2 0 0 0-3.668.042 9 9 0 0 0-3.288 1.442 8.6 8.6 0 0 0-2.414 2.634 9 9 0 0 0-1.168 3.424 9.4 9.4 0 0 0 .252 3.682c.538 2.012 3.024 2.396 4.732 1.172l4.352-3.112 4.364-3.12c1.706-1.226 2.104-3.674.324-4.794m46.014 2.748a8.66 8.66 0 0 0-5.702-4.076 9.2 9.2 0 0 0-3.668-.04 10 10 0 0 0-3.488 1.368c-1.78 1.12-1.38 3.568.326 4.792l4.364 3.122 4.352 3.112c1.708 1.224 4.194.84 4.732-1.172a9.4 9.4 0 0 0 .252-3.682 9 9 0 0 0-1.168-3.424M67.63 77.598a10.16 10.16 0 0 0-6.47 0c-1.16.394-2.172 1.006-2.108 1.928.116 1.412 2.36 3.828 3.982 4.326.992.3 1.614.28 2.72 0 1.622-.416 3.878-2.914 3.984-4.326.074-.922-.95-1.532-2.108-1.928m-11.118-4.544a7.2 7.2 0 0 0-2.128-1.888 6.8 6.8 0 0 0-2.666-.88 7 7 0 0 0-2.804.258c-.906.28-1.76.736-2.508 1.36a7.6 7.6 0 0 0-1.834 2.25c-.77 1.44.454 2.956 2.098 3.142l4.152.468 4.184.476c1.644.188 3.192-1.006 2.77-2.582a7.6 7.6 0 0 0-1.264-2.604m25.736-1.298a7.4 7.4 0 0 0-2.51-1.36 7 7 0 0 0-2.802-.258 6.8 6.8 0 0 0-2.666.882 7.2 7.2 0 0 0-2.13 1.888 7.5 7.5 0 0 0-1.264 2.604c-.42 1.576 1.128 2.77 2.76 2.582l4.186-.476 4.16-.468c1.646-.186 2.868-1.7 2.1-3.142a7.8 7.8 0 0 0-1.834-2.252"/><path fill="#78350f" d="M102.018 61.8a20.7 20.7 0 0 0 5.438-14.22 20.6 20.6 0 0 0-2.076-8.788c-3.732-7.718-13.174-13.744-22.838-11.732q-.59.13-1.168.302a11.6 11.6 0 0 0-3.92 2.08c-2.582 2.06-7.326 3.44-12.752 3.44h-.616c-5.424 0-10.168-1.384-12.75-3.444a11.6 11.6 0 0 0-3.922-2.078 16 16 0 0 0-1.168-.302c-9.662-2.012-19.104 4.014-22.836 11.732a20.6 20.6 0 0 0-2.076 8.786 20.72 20.72 0 0 0 5.44 14.222 1.46 1.46 0 0 1 .356 1.204c-2.328 13.1 1.108 23.88 8.18 31.554 7.428 8.06 18.324 12.076 28.894 12.294h.382c10.568-.218 21.466-4.232 28.894-12.292 7.072-7.676 10.508-18.454 8.18-31.556a1.45 1.45 0 0 1 .356-1.204zm-6.186-2.272a1.74 1.74 0 0 0-.6 1.764c5.49 22.872-8.62 36.224-24.83 39.086h-.01a38 38 0 0 1-4.732.54c-.094 0-.2.01-.294.01-.296.02-.6.02-.896.032h-.074l-.02-.002h-.054c-.296-.01-.6-.01-.896-.03-.094 0-.2-.012-.296-.012a38 38 0 0 1-4.73-.54h-.012C42.18 97.516 28.068 84.164 33.56 61.29a1.74 1.74 0 0 0-.6-1.762 15 15 0 0 1-5.66-11.9 14.9 14.9 0 0 1 1.486-6.306c2.76-5.716 9.706-9.876 16.23-8.516.764.156 2.812.82 4.808 1.756.724.34 1.404.764 2.04 1.244 2.616 1.976 7.25 3.29 12.532 3.296 5.284-.004 9.92-1.32 12.534-3.294.636-.48 1.314-.904 2.04-1.244 1.994-.936 4.042-1.6 4.808-1.758 6.522-1.36 13.468 2.8 16.23 8.518a14.9 14.9 0 0 1 1.484 6.306 15 15 0 0 1-5.66 11.898"/><circle cx="64" cy="64" r="64" fill="#fff" transform="translate(64)"/><path fill="#3083dc" d="M85.251 53.22a.3.3 0 0 1-.3-.3 4.83 4.83 0 0 0-4.827-4.824.3.3 0 1 1 0-.6 4.83 4.83 0 0 0 4.822-4.82.3.3 0 0 1 .6 0 4.83 4.83 0 0 0 4.82 4.82.3.3 0 0 1 0 .6 4.827 4.827 0 0 0-4.82 4.822.3.3 0 0 1-.295.302"/><path fill="#3083dc" d="M85.251 42.678a5.12 5.12 0 0 0 5.121 5.12 5.12 5.12 0 0 0-5.121 5.122 5.12 5.12 0 0 0-5.121-5.121 5.12 5.12 0 0 0 5.121-5.121m0-.6a.6.6 0 0 0-.6.6A4.527 4.527 0 0 1 80.13 47.2a.598.598 0 0 0-.575.834.6.6 0 0 0 .575.364 4.527 4.527 0 0 1 4.522 4.523.6.6 0 0 0 1.2 0 4.525 4.525 0 0 1 4.521-4.523.6.6 0 0 0 0-1.198 4.527 4.527 0 0 1-4.522-4.522.6.6 0 0 0-.599-.6m46.674-8.153a.3.3 0 0 1-.3-.3 4.83 4.83 0 0 0-4.821-4.821.3.3 0 0 1 0-.6 4.83 4.83 0 0 0 4.822-4.822.302.302 0 0 1 .414-.277.3.3 0 0 1 .185.277 4.827 4.827 0 0 0 4.821 4.821.3.3 0 0 1 0 .6 4.83 4.83 0 0 0-4.82 4.822.3.3 0 0 1-.3.3"/><path fill="#3083dc" d="M131.925 23.382a5.12 5.12 0 0 0 5.121 5.122 5.12 5.12 0 0 0-5.12 5.121 5.116 5.116 0 0 0-5.122-5.12 5.12 5.12 0 0 0 5.121-5.123m0-.6a.6.6 0 0 0-.6.6 4.527 4.527 0 0 1-4.521 4.522.6.6 0 1 0 0 1.2 4.526 4.526 0 0 1 4.527 4.521.6.6 0 0 0 1.2 0 4.525 4.525 0 0 1 4.515-4.516.6.6 0 1 0 0-1.2 4.53 4.53 0 0 1-4.522-4.522.6.6 0 0 0-.599-.6zM183 93.024l-36.63-52.5-10.56 7.949 12.898 16.169-35.584-35.227L73 93.024z"/><path fill="url(#_kdk_a)" d="M48.19 71.592s2.491 6.722.8 21.43h7.178s4.04-13.39 2.811-15.955-10.79-5.475-10.79-5.475" transform="translate(64)"/><path fill="#fff" d="M151.007 80.394c-3.703-12.177-14.818-14.296-19.431-14.296-2.126 0-9.975-3.376-12.844-4.843-.403-.205-.953-1.398-.786-1.818l.813-1.322c.223-.916.391-1.92-.378-2.465l-1.344-.667a1.09 1.09 0 0 0-1.223.166l-1.279 1.153s-6.42-1.419-7.535-1.252c-.653.099-1.261 1.181-1.654 2.064a1.04 1.04 0 0 1-1.26.542c-2.288-.802-3.22-.541-3.22-.541s-2.01 2.612 0 4.623c15.562 15.988 20.837 12.798 22.81 31.347h7.106l3.312-6.996 5.63.05 2.686 6.946h10.499zM107.653 58.47a.707.707 0 0 1-.735-.709.711.711 0 1 1 .735.71"/><defs transform="translate(64)"><linearGradient id="_kdk_a" x1="50.466" x2="57.993" y1="84.145" y2="76.075" gradientUnits="userSpaceOnUse"><stop stop-color="#fff"/><stop offset=".14" stop-color="#f8f8f8"/><stop offset=".35" stop-color="#e3e3e3"/><stop offset=".6" stop-color="#c2c2c2"/><stop offset=".89" stop-color="#949494"/><stop offset="1" stop-color="gray"/></linearGradient></defs></svg>
