<svg xmlns="http://www.w3.org/2000/svg" viewBox="0 0 192 128"><circle cx="64" cy="64" r="64" fill="#00b988"/><path fill="#fff" d="M31.36 27.52h65.45v14.53H71.357v14.529H56.813v-14.53H31.36zm25.453 29.059v29.059H42.268V56.579zm14.546 29.059H85.9V56.579H71.357v29.059H56.815v14.529h14.544z"/><circle cx="64" cy="64" r="64" fill="#fff" transform="translate(64)"/><path fill="#3083dc" d="M85.251 53.22a.3.3 0 0 1-.3-.3 4.83 4.83 0 0 0-4.827-4.824.3.3 0 1 1 0-.6 4.83 4.83 0 0 0 4.822-4.82.3.3 0 0 1 .6 0 4.83 4.83 0 0 0 4.82 4.82.3.3 0 0 1 0 .6 4.827 4.827 0 0 0-4.82 4.822.3.3 0 0 1-.295.302"/><path fill="#3083dc" d="M85.251 42.678a5.12 5.12 0 0 0 5.121 5.12 5.12 5.12 0 0 0-5.121 5.122 5.12 5.12 0 0 0-5.121-5.121 5.12 5.12 0 0 0 5.121-5.121m0-.6a.6.6 0 0 0-.6.6A4.527 4.527 0 0 1 80.13 47.2a.598.598 0 0 0-.575.834.6.6 0 0 0 .575.364 4.527 4.527 0 0 1 4.522 4.523.6.6 0 0 0 1.2 0 4.525 4.525 0 0 1 4.521-4.523.6.6 0 0 0 0-1.198 4.527 4.527 0 0 1-4.522-4.522.6.6 0 0 0-.599-.6m46.674-8.153a.3.3 0 0 1-.3-.3 4.83 4.83 0 0 0-4.821-4.821.3.3 0 0 1 0-.6 4.83 4.83 0 0 0 4.822-4.822.302.302 0 0 1 .414-.277.3.3 0 0 1 .185.277 4.827 4.827 0 0 0 4.821 4.821.3.3 0 0 1 0 .6 4.83 4.83 0 0 0-4.82 4.822.3.3 0 0 1-.3.3"/><path fill="#3083dc" d="M131.925 23.382a5.12 5.12 0 0 0 5.121 5.122 5.12 5.12 0 0 0-5.12 5.121 5.116 5.116 0 0 0-5.122-5.12 5.12 5.12 0 0 0 5.121-5.123m0-.6a.6.6 0 0 0-.6.6 4.527 4.527 0 0 1-4.521 4.522.6.6 0 1 0 0 1.2 4.526 4.526 0 0 1 4.527 4.521.6.6 0 0 0 1.2 0 4.525 4.525 0 0 1 4.515-4.516.6.6 0 1 0 0-1.2 4.53 4.53 0 0 1-4.522-4.522.6.6 0 0 0-.599-.6zM183 93.024l-36.63-52.5-10.56 7.949 12.898 16.169-35.584-35.227L73 93.024z"/><path fill="url(#_kdk_a)" d="M48.19 71.592s2.491 6.722.8 21.43h7.178s4.04-13.39 2.811-15.955-10.79-5.475-10.79-5.475" transform="translate(64)"/><path fill="#fff" d="M151.007 80.394c-3.703-12.177-14.818-14.296-19.431-14.296-2.126 0-9.975-3.376-12.844-4.843-.403-.205-.953-1.398-.786-1.818l.813-1.322c.223-.916.391-1.92-.378-2.465l-1.344-.667a1.09 1.09 0 0 0-1.223.166l-1.279 1.153s-6.42-1.419-7.535-1.252c-.653.099-1.261 1.181-1.654 2.064a1.04 1.04 0 0 1-1.26.542c-2.288-.802-3.22-.541-3.22-.541s-2.01 2.612 0 4.623c15.562 15.988 20.837 12.798 22.81 31.347h7.106l3.312-6.996 5.63.05 2.686 6.946h10.499zM107.653 58.47a.707.707 0 0 1-.735-.709.711.711 0 1 1 .735.71"/><defs transform="translate(64)"><linearGradient id="_kdk_a" x1="50.466" x2="57.993" y1="84.145" y2="76.075" gradientUnits="userSpaceOnUse"><stop stop-color="#fff"/><stop offset=".14" stop-color="#f8f8f8"/><stop offset=".35" stop-color="#e3e3e3"/><stop offset=".6" stop-color="#c2c2c2"/><stop offset=".89" stop-color="#949494"/><stop offset="1" stop-color="gray"/></linearGradient></defs></svg>
