<svg xmlns="http://www.w3.org/2000/svg" fill="none" viewBox="0 0 192 128"><g clip-path="url(#a)"><path fill="#0a0a0a" d="M192 64c0 35.348-28.653 64-64 64S64 99.347 64 64 92.653 0 128 0s64 28.653 64 64"/><path fill="url(#b)" d="M191.75 64C191.75 28.793 163.208.25 128 .25S64.25 28.793 64.25 64s28.543 63.75 63.75 63.75v.25c-35.347 0-64-28.653-64-64S92.653 0 128 0s64 28.653 64 64-28.653 64-64 64v-.25c35.208 0 63.75-28.543 63.75-63.75"/><path fill="url(#c)" d="M128 119.775c30.802 0 55.775-24.973 55.775-55.775 0-30.803-24.973-55.775-55.775-55.775S72.225 33.197 72.225 64 97.198 119.775 128 119.775"/><path fill="#0a0a0a" d="M128 118.49c30.095 0 54.49-24.395 54.49-54.49S158.095 9.51 128 9.51 73.51 33.905 73.51 64s24.395 54.49 54.49 54.49"/><path fill="url(#d)" d="M109.575 33.158a3.08 3.08 0 0 1 3.072-3.085h6.153c.815 0 1.597.325 2.172.904.575.578.901 1.363.901 2.18v6.148a3.1 3.1 0 0 0 .899 2.182 3.06 3.06 0 0 0 2.173.905h6.085a3.08 3.08 0 0 0 3.075-3.087v-6.148a3.08 3.08 0 0 1 3.072-3.085h6.148c.815 0 1.598.326 2.175.906s.9 1.362.9 2.18v6.172c0 .818-.325 1.602-.9 2.183a3.1 3.1 0 0 1-2.175.904h-6.123a3.07 3.07 0 0 0-2.175.905 3.1 3.1 0 0 0-.899 2.183v6.148c0 .817-.325 1.602-.9 2.182a3.07 3.07 0 0 1-2.173.905h-6.152a3.06 3.06 0 0 1-2.173-.905 3.1 3.1 0 0 1-.9-2.18v-6.148c0-.817-.325-1.602-.9-2.182a3.07 3.07 0 0 0-2.175-.905h-6.125a3.06 3.06 0 0 1-2.172-.905 3.1 3.1 0 0 1-.901-2.18v-6.172h.015v-.005zM106.5 79.411a3.084 3.084 0 0 1-3.072 3.085h-6.153a3.06 3.06 0 0 1-2.172-.904 3.1 3.1 0 0 1-.9-2.18v-6.175a3.084 3.084 0 0 1 3.075-3.085h6.125a3.086 3.086 0 0 0 3.072-3.088v-6.107a3.1 3.1 0 0 0-.9-2.18 3.07 3.07 0 0 0-2.172-.905h-6.126a3.06 3.06 0 0 1-2.172-.905 3.1 3.1 0 0 1-.903-2.183V48.61c0-.818.326-1.602.903-2.182a3.07 3.07 0 0 1 2.172-.905h6.153a3.06 3.06 0 0 1 2.173.904c.575.578.899 1.363.899 2.183v6.145c0 .817.326 1.602.901 2.182.577.58 1.357.906 2.172.906h6.125a3.06 3.06 0 0 1 2.173.904c.575.58.899 1.363.899 2.18V67.1a3.08 3.08 0 0 1-3.072 3.085h-6.125c-.815 0-1.597.325-2.172.905a3.1 3.1 0 0 0-.901 2.182v-.012 6.15zm39.925 15.43c0 .818-.325 1.603-.9 2.183a3.06 3.06 0 0 1-2.175.902h-6.152a3.084 3.084 0 0 1-3.073-3.085v-6.147a3.09 3.09 0 0 0-3.075-3.087h-6.085a3.06 3.06 0 0 0-2.173.904 3.1 3.1 0 0 0-.899 2.18v6.148c0 .817-.325 1.602-.9 2.18a3.1 3.1 0 0 1-2.173.905h-6.153a3.08 3.08 0 0 1-3.072-3.085v-6.175a3.08 3.08 0 0 1 3.072-3.088h6.125a3.06 3.06 0 0 0 2.173-.904c.578-.58.9-1.363.9-2.183v-6.147c0-.818.325-1.603.9-2.183a3.1 3.1 0 0 1 2.173-.905h6.152a3.08 3.08 0 0 1 3.072 3.088v6.147c0 .818.326 1.603.9 2.183a3.1 3.1 0 0 0 2.173.904h6.125a3.06 3.06 0 0 1 2.173.906c.575.577.9 1.362.9 2.18v6.175h-.013zM161.8 54.776c0 .818-.325 1.602-.9 2.18a3.07 3.07 0 0 1-2.172.905h-6.125a3.06 3.06 0 0 0-2.173.905c-.575.58-.9 1.362-.9 2.18v6.107c0 .818.325 1.603.9 2.183.578.58 1.358.905 2.173.905h6.125c.815 0 1.597.325 2.172.905s.9 1.362.9 2.18V79.4c0 .817-.325 1.602-.9 2.182a3.07 3.07 0 0 1-2.172.906h-6.151a3.06 3.06 0 0 1-2.172-.906 3.1 3.1 0 0 1-.9-2.182v-6.148a3.084 3.084 0 0 0-3.072-3.087h-6.125a3.084 3.084 0 0 1-3.073-3.085v-6.175a3.086 3.086 0 0 1 3.075-3.085h6.125c.815 0 1.597-.325 2.172-.905s.9-1.362.9-2.182v-6.148c0-.818.326-1.602.901-2.182a3.06 3.06 0 0 1 2.172-.905h6.15c.815 0 1.597.325 2.172.905s.9 1.362.9 2.182v6.19z"/></g><g clip-path="url(#e)"><path fill="#00b988" d="M64 128c35.346 0 64-28.654 64-64S99.346 0 64 0 0 28.654 0 64s28.654 64 64 64"/><path fill="#fff" d="M31.36 27.52h65.45v14.53H71.357v14.529H56.813v-14.53H31.36zm25.453 29.059v29.059H42.268V56.579zm14.546 29.059H85.9V56.579H71.357v29.059H56.815v14.529h14.544z"/></g><defs><linearGradient id="b" x1="128" x2="128" y1="0" y2="128" gradientUnits="userSpaceOnUse"><stop stop-color="#272727" stop-opacity=".49"/><stop offset="1" stop-opacity="0"/></linearGradient><linearGradient id="c" x1="286.057" x2="-5.995" y1="61.915" y2="65.767" gradientUnits="userSpaceOnUse"><stop stop-color="#f8f29c"/><stop offset=".17" stop-color="#f6db2a"/><stop offset=".33" stop-color="#f4a435"/><stop offset=".55" stop-color="#e85a46"/><stop offset=".7" stop-color="#b93483"/><stop offset=".87" stop-color="#502b6e"/><stop offset="1" stop-color="#2a2136"/></linearGradient><linearGradient id="d" x1="211.473" x2="57.235" y1="62.903" y2="64.93" gradientUnits="userSpaceOnUse"><stop stop-color="#f8f29c"/><stop offset=".17" stop-color="#f6db2a"/><stop offset=".33" stop-color="#f4a435"/><stop offset=".55" stop-color="#e85a46"/><stop offset=".7" stop-color="#b93483"/><stop offset=".87" stop-color="#502b6e"/><stop offset="1" stop-color="#2a2136"/></linearGradient><clipPath id="a"><path fill="#fff" d="M64 0h128v128H64z"/></clipPath><clipPath id="e"><path fill="#fff" d="M0 0h128v128H0z"/></clipPath></defs></svg>
