<svg xmlns="http://www.w3.org/2000/svg" viewBox="0 0 192 128"><circle cx="64" cy="64" r="64" fill="#00bfff"/><path fill="#fafdff" d="M90.248 75.656q4.984 6.664 2.088 14.492-2.892 7.824-11.496 10.264a16 16 0 0 1-8.388.092q-4.28-1.08-7.012-4.072-9.92 4.432-18.64-.432T36.32 80.188a15.1 15.1 0 0 1-7.38-4.168q-3.036-3.112-4.38-7.848-2.16-7.6 3.432-14.24t12.976-5.768l8.644 1.048a20.4 20.4 0 0 1 4.82-8.168 20 20 0 0 1 8.088-5.192l-1.84-6.48a3.76 3.76 0 0 1 1.3-4.137c.41-.313.88-.539 1.38-.663a3.76 3.76 0 0 1 4.8 2.676l2.12 7.48q5.008.06 8.824 2.14 3.82 2.08 7.428 6.716l7.228-2.052a3.76 3.76 0 0 1 2.98.3 3.76 3.76 0 0 1 1.82 2.376 3.76 3.76 0 0 1-.3 2.98 3.76 3.76 0 0 1-2.376 1.82l-6.48 1.84a20.8 20.8 0 0 1-.048 9.576 19.2 19.2 0 0 1-4.292 8.356zm-30.06 11.76a40 40 0 0 1-1.296-6.7 36 36 0 0 1-.068-6.648 24 24 0 0 1-5.624 3.684 27.7 27.7 0 0 1-6.452 2.168q1.38 4.86 4.98 6.872 3.6 2.01 8.46.624M45.16 69.6q3.988-1.127 6.76-2.996 2.768-1.86 6.78-6.232l-16.72-1.988q-4.044-.468-6.156 1.812-2.108 2.28-1.16 5.648.924 3.24 3.464 4.136 2.544.892 7.032-.38m32.848 20.844q3.12-.88 4.428-3.612 1.316-2.728-.356-4.816l-11.54-15.04a41.6 41.6 0 0 0-1.412 9.02q-.18 4.36.74 7.6 1.168 4.116 3.22 5.888t4.92.96m.376-30q.888-1.6 1.056-3.872a12.8 12.8 0 0 0-.472-4.512q-1.132-3.983-4.528-5.984a8.96 8.96 0 0 0-7.26-.904q-2.248.636-4.024 1.948a9.6 9.6 0 0 0-2.764 3.076l10.996 1.728z"/><circle cx="64" cy="64" r="64" fill="#e0195c" transform="translate(64)"/><path fill="#fff" fill-rule="evenodd" d="M171.456 47.58a20.72 20.72 0 0 1-5.44 14.22 1.43 1.43 0 0 0-.36 1.2c2.332 13.104-1.104 23.88-8.176 31.56-7.428 8.06-18.324 12.072-28.896 12.292h-.38c-10.568-.22-21.464-4.236-28.896-12.296C92.24 86.88 88.804 76.104 91.132 63a1.44 1.44 0 0 0-.36-1.2 20.72 20.72 0 0 1-3.36-23.008c3.732-7.72 13.172-13.748 22.836-11.732q.48.1 1.168.3c1.436.424 2.76 1.148 3.92 2.08 2.584 2.06 7.328 3.44 12.752 3.44h.616c5.424 0 10.168-1.376 12.748-3.44 1.164-.928 2.488-1.656 3.92-2.08a16 16 0 0 1 1.172-.3c9.664-2.012 19.104 4.016 22.836 11.732a20.6 20.6 0 0 1 2.076 8.788m-63.424-7.812a10 10 0 0 1 3.488 1.368c1.78 1.12 1.38 3.568-.324 4.792l-8.72 6.236c-1.704 1.224-4.192.84-4.728-1.172a9.6 9.6 0 0 1-.252-3.68 9.1 9.1 0 0 1 1.168-3.428 8.5 8.5 0 0 1 2.412-2.632 9 9 0 0 1 3.288-1.44 9.2 9.2 0 0 1 3.668-.044m47.088 1.48a8.8 8.8 0 0 1 3.584 6.06 9.5 9.5 0 0 1-.252 3.68c-.54 2.016-3.024 2.4-4.732 1.176l-8.716-6.236c-1.708-1.224-2.108-3.672-.328-4.792a10 10 0 0 1 3.488-1.368 9.2 9.2 0 0 1 3.668.04 8.8 8.8 0 0 1 3.288 1.44M131.632 77.6a10.16 10.16 0 0 0-6.472 0c-1.16.396-2.168 1.008-2.104 1.928.116 1.412 2.36 3.828 3.98 4.328.992.3 1.616.28 2.72 0 1.624-.416 3.88-2.916 3.984-4.328.072-.92-.948-1.532-2.108-1.928m-13.248-6.428a7.2 7.2 0 0 1 2.128 1.884 7.5 7.5 0 0 1 1.264 2.604c.424 1.58-1.128 2.772-2.772 2.584l-4.18-.48-4.156-.464c-1.64-.188-2.864-1.7-2.096-3.144a7.6 7.6 0 0 1 1.836-2.248 7.2 7.2 0 0 1 2.508-1.36 6.92 6.92 0 0 1 5.468.624m27.86.588a7.3 7.3 0 0 0-2.508-1.36 6.92 6.92 0 0 0-5.468.624 7.2 7.2 0 0 0-2.128 1.888 7.6 7.6 0 0 0-1.264 2.604c-.424 1.576 1.124 2.768 2.76 2.584l4.184-.48 4.16-.464c1.648-.188 2.868-1.7 2.1-3.144a8 8 0 0 0-1.836-2.252"/></svg>
