<svg xmlns="http://www.w3.org/2000/svg" viewBox="0 0 128 128"><defs><clipPath id="a"><path d="M28.8 32h70.4v64H28.8Zm0 0"/></clipPath><clipPath id="b"><path d="M28.8 32h70.4v64H28.8Zm0 0"/></clipPath></defs><path fill="#101b24" stroke="#ffea00" stroke-width="6.4" d="M124.8 64c0-33.578-27.222-60.8-60.8-60.8S3.2 30.422 3.2 64s27.222 60.8 60.8 60.8 60.8-27.222 60.8-60.8Zm0 0"/><g clip-path="url(#a)"><path fill="#ffea00" d="M84.34 96H43.645c-3.938-.008-7.711-2.195-10.493-6.078-2.785-3.883-4.347-9.145-4.351-14.637-.012-10.73 2.926-21.062 8.207-28.87l.05-.09a26 26 0 0 1 2.415-3.188c3.12-3.703 6.75-6.477 10.664-8.157 7.734-3.718 16.437-4 25.804-.722l.258.09.774.293.48.187.223.09.36.14c2.28.891 4.456 2.258 6.448 4.051 4.473 3.758 8.176 9.063 10.754 15.399 2.575 6.34 3.938 13.492 3.953 20.777-.004 5.492-1.57 10.758-4.351 14.64-2.785 3.888-6.559 6.071-10.5 6.075M39.188 47.934l-.383.57c-4.926 7.219-7.672 16.805-7.66 26.773.003 4.625 1.32 9.059 3.668 12.328 2.343 3.27 5.523 5.11 8.84 5.114h40.695c3.316 0 6.5-1.84 8.843-5.11 2.348-3.27 3.668-7.707 3.672-12.332-.015-6.734-1.281-13.347-3.664-19.199-2.386-5.851-5.816-10.746-9.953-14.21h-.058c-1.805-1.622-3.774-2.848-5.84-3.65l-.317-.132-.187-.066-.489-.204-.714-.257-.258-.102c-8.93-3.078-17.203-2.86-24.52.66-3.633 1.551-7 4.125-9.886 7.567q-.948 1.049-1.797 2.25Zm0 0"/></g><path fill="#ffea00" d="M51.219 37.98c5.742-2.753 13.672-4.187 23.965-.628v-.004l.199.07.71.277v.004l.485.188.508.21.031.012c1.988.77 3.903 1.965 5.676 3.559l.023.02.02.019c4.086 3.402 7.52 8.27 9.922 14.168 2.246 5.531 3.5 11.754 3.644 18.133l.016 1.277c0 4.766-1.36 9.27-3.691 12.535-2.329 3.258-5.356 4.926-8.348 4.942H43.687c-3 0-6.03-1.66-8.367-4.922-2.343-3.266-3.707-7.778-3.707-12.555l.032-1.89c.316-9.418 3.054-18.332 7.675-25.098l.024-.04a22 22 0 0 1 2.113-2.796l.016-.016.011-.02c2.864-3.402 6.16-5.91 9.672-7.417Zm0 0"/><g clip-path="url(#b)"><path fill="none" stroke="#ffea00" stroke-width="3.2" d="M51.22 37.98c5.74-2.751 13.67-4.188 23.964-.63l.198.068.71.278v.003l.487.189.506.211.032.01c1.987.768 3.904 1.965 5.677 3.558l.022.02.02.019c4.086 3.404 7.52 8.272 9.92 14.17 2.249 5.529 3.503 11.753 3.647 18.13l.016 1.28c0 4.765-1.36 9.268-3.693 12.535-2.326 3.257-5.356 4.928-8.348 4.94H43.686c-2.998 0-6.028-1.66-8.364-4.921-2.346-3.264-3.71-7.776-3.71-12.554l.033-1.89c.317-9.418 3.056-18.334 7.677-25.098l.022-.039q.982-1.53 2.112-2.797l.016-.016.013-.019c2.864-3.405 6.16-5.91 9.67-7.42Zm0 0"/></g><path fill="#0c1721" d="M80.957 84.363H47.051c-.172 0-.336-.152-.457-.422s-.192-.636-.196-1.023c0-.387.07-.762.192-1.035.12-.274.289-.43.46-.43h33.907c.172.008.336.164.457.438.117.273.188.64.188 1.027 0 .383-.07.75-.188 1.023-.121.27-.285.422-.457.422m0 0"/></svg>
