<svg xmlns="http://www.w3.org/2000/svg" viewBox="0 0 128 128"><path fill="#101b24" stroke="#ffea00" stroke-width="5.333" d="M64 124.8c33.579 0 60.8-27.221 60.8-60.8S97.579 3.2 64 3.2 3.2 30.42 3.2 64s27.221 60.8 60.8 60.8Z"/><path fill="#ffea00" d="M84.342 96H43.644c-3.936-.008-7.71-2.194-10.493-6.076-2.782-3.884-4.347-9.148-4.351-14.638-.01-10.733 2.926-21.064 8.207-28.87l.05-.09a27 27 0 0 1 2.416-3.19c3.12-3.7 6.75-6.476 10.665-8.158 7.734-3.718 16.693-3.907 26.061-.629l1.835.71c2.283.892 4.458 2.257 6.45 4.049 4.474 3.76 8.178 9.064 10.754 15.4 2.576 6.338 3.938 13.494 3.955 20.778-.004 5.492-1.57 10.758-4.354 14.641-2.785 3.883-6.56 6.067-10.497 6.073"/><path fill="none" stroke="#ffea00" stroke-width="2.667" d="M84.342 96H43.644c-3.936-.008-7.71-2.194-10.493-6.076-2.782-3.884-4.347-9.148-4.351-14.638-.01-10.733 2.926-21.064 8.207-28.87l.05-.09a27 27 0 0 1 2.416-3.19c3.12-3.7 6.75-6.476 10.665-8.158 7.734-3.718 16.693-3.907 26.061-.629l1.835.71c2.283.892 4.458 2.257 6.45 4.049 4.474 3.76 8.178 9.064 10.754 15.4 2.576 6.338 3.938 13.494 3.955 20.778-.004 5.492-1.57 10.758-4.354 14.641-2.785 3.883-6.56 6.067-10.497 6.073Z"/><path fill="#0c1721" d="M80.958 84.364H47.05c-.171 0-.335-.152-.457-.423-.122-.27-.19-.638-.193-1.023 0-.388.069-.76.19-1.035.122-.274.287-.428.46-.428h33.908c.171.005.335.16.454.435.12.273.188.643.188 1.028 0 .383-.067.751-.188 1.022-.12.272-.283.424-.454.424"/></svg>
