<?xml version="1.0" encoding="UTF-8"?>
<svg xmlns="http://www.w3.org/2000/svg" xmlns:xlink="http://www.w3.org/1999/xlink" width="128px" height="128px" viewBox="0 0 128 128" version="1.1">
<defs>
<clipPath id="clip1">
  <path d="M 28.800781 32 L 99.199219 32 L 99.199219 96 L 28.800781 96 Z M 28.800781 32 "/>
</clipPath>
<clipPath id="clip2">
  <path d="M 28.800781 32 L 99.199219 32 L 99.199219 96 L 28.800781 96 Z M 28.800781 32 "/>
</clipPath>
</defs>
<g id="surface1">
<path style="fill-rule:nonzero;fill:rgb(6.27451%,10.588235%,14.117648%);fill-opacity:1;stroke-width:2;stroke-linecap:butt;stroke-linejoin:miter;stroke:rgb(100%,91.764706%,0%);stroke-opacity:1;stroke-miterlimit:4;" d="M 39.000244 20 C 39.000244 9.506836 30.493164 0.999756 20 0.999756 C 9.506836 0.999756 0.999756 9.506836 0.999756 20 C 0.999756 30.493164 9.506836 39.000244 20 39.000244 C 30.493164 39.000244 39.000244 30.493164 39.000244 20 Z M 39.000244 20 " transform="matrix(3.2,0,0,3.2,0,0)"/>
<g clip-path="url(#clip1)" clip-rule="nonzero">
<path style=" stroke:none;fill-rule:nonzero;fill:rgb(100%,91.764706%,0%);fill-opacity:1;" d="M 84.339844 96 L 43.644531 96 C 39.707031 95.992188 35.933594 93.804688 33.152344 89.921875 C 30.367188 86.039062 28.804688 80.777344 28.800781 75.285156 C 28.789062 64.554688 31.726562 54.222656 37.007812 46.414062 L 37.058594 46.324219 C 37.800781 45.175781 38.609375 44.109375 39.472656 43.136719 C 42.59375 39.433594 46.222656 36.660156 50.136719 34.980469 C 57.871094 31.261719 66.574219 30.980469 75.941406 34.257812 L 76.199219 34.347656 L 76.972656 34.640625 L 77.453125 34.828125 L 77.675781 34.917969 L 78.035156 35.058594 C 80.316406 35.949219 82.492188 37.316406 84.484375 39.109375 C 88.957031 42.867188 92.660156 48.171875 95.238281 54.507812 C 97.8125 60.847656 99.175781 68 99.191406 75.285156 C 99.1875 80.777344 97.621094 86.042969 94.839844 89.925781 C 92.054688 93.8125 88.28125 95.996094 84.339844 96 Z M 39.1875 47.933594 L 38.804688 48.503906 C 33.878906 55.722656 31.132812 65.308594 31.144531 75.277344 C 31.148438 79.902344 32.464844 84.335938 34.8125 87.605469 C 37.15625 90.875 40.335938 92.714844 43.652344 92.71875 L 84.347656 92.71875 C 87.664062 92.71875 90.847656 90.878906 93.191406 87.609375 C 95.539062 84.339844 96.859375 79.902344 96.863281 75.277344 C 96.847656 68.542969 95.582031 61.929688 93.199219 56.078125 C 90.8125 50.226562 87.382812 45.332031 83.246094 41.867188 L 83.1875 41.867188 C 81.382812 40.246094 79.414062 39.019531 77.347656 38.21875 L 77.03125 38.085938 L 76.84375 38.019531 L 76.355469 37.816406 L 75.640625 37.558594 L 75.382812 37.457031 C 66.453125 34.378906 58.179688 34.597656 50.863281 38.117188 C 47.230469 39.667969 43.863281 42.242188 40.976562 45.683594 C 40.34375 46.382812 39.746094 47.132812 39.179688 47.933594 Z M 39.1875 47.933594 "/>
</g>
<path style=" stroke:none;fill-rule:nonzero;fill:rgb(100%,91.764706%,0%);fill-opacity:1;" d="M 51.21875 37.980469 C 56.960938 35.226562 64.890625 33.792969 75.183594 37.351562 L 75.183594 37.347656 L 75.382812 37.417969 L 76.09375 37.695312 L 76.09375 37.699219 L 76.578125 37.886719 L 77.085938 38.097656 L 77.117188 38.109375 C 79.105469 38.878906 81.019531 40.074219 82.792969 41.667969 L 82.816406 41.6875 L 82.835938 41.707031 C 86.921875 45.109375 90.355469 49.976562 92.757812 55.875 C 95.003906 61.40625 96.257812 67.628906 96.402344 74.007812 L 96.417969 75.285156 C 96.417969 80.050781 95.058594 84.554688 92.726562 87.820312 C 90.398438 91.078125 87.371094 92.746094 84.378906 92.761719 L 43.6875 92.761719 C 40.6875 92.761719 37.65625 91.101562 35.320312 87.839844 C 32.976562 84.574219 31.613281 80.0625 31.613281 75.285156 L 31.644531 73.394531 C 31.960938 63.976562 34.699219 55.0625 39.320312 48.296875 L 39.34375 48.257812 C 39.996094 47.238281 40.703125 46.304688 41.457031 45.460938 L 41.472656 45.445312 L 41.484375 45.425781 C 44.347656 42.023438 47.644531 39.515625 51.15625 38.007812 Z M 51.21875 37.980469 "/>
<g clip-path="url(#clip2)" clip-rule="nonzero">
<path style="fill:none;stroke-width:1;stroke-linecap:butt;stroke-linejoin:miter;stroke:rgb(100%,91.764706%,0%);stroke-opacity:1;stroke-miterlimit:4;" d="M 16.005859 11.868896 C 17.800293 11.008301 20.27832 10.560303 23.494873 11.672363 L 23.494873 11.671143 L 23.557129 11.693115 L 23.779297 11.779785 L 23.779297 11.781006 L 23.930664 11.8396 L 24.089355 11.905518 L 24.099121 11.90918 C 24.720459 12.149658 25.318604 12.523193 25.872803 13.02124 L 25.880127 13.027344 L 25.88623 13.033447 C 27.163086 14.09668 28.236084 15.617676 28.986816 17.460938 C 29.688721 19.189453 30.080566 21.134033 30.125732 23.127441 L 30.130615 23.526611 C 30.130615 25.015869 29.705811 26.42334 28.977051 27.443848 C 28.249512 28.461914 27.303467 28.983154 26.368408 28.988037 L 13.652344 28.988037 C 12.714844 28.988037 11.767578 28.469238 11.037598 27.449951 C 10.305176 26.429443 9.87915 25.019531 9.87915 23.526611 L 9.888916 22.935791 C 9.987793 19.992676 10.843506 17.207031 12.287598 15.092773 L 12.294922 15.080566 C 12.498779 14.761963 12.719727 14.470215 12.955322 14.206543 L 12.960205 14.20166 L 12.963867 14.195557 C 13.858643 13.132324 14.888916 12.348633 15.986328 11.877441 Z M 16.005859 11.868896 " transform="matrix(3.2,0,0,3.2,0,0)"/>
</g>
<path style=" stroke:none;fill-rule:nonzero;fill:rgb(4.705882%,9.019608%,12.941177%);fill-opacity:1;" d="M 80.957031 84.363281 L 47.050781 84.363281 C 46.878906 84.363281 46.714844 84.210938 46.59375 83.941406 C 46.472656 83.671875 46.402344 83.304688 46.398438 82.917969 C 46.398438 82.53125 46.46875 82.15625 46.589844 81.882812 C 46.710938 81.609375 46.878906 81.453125 47.050781 81.453125 L 80.957031 81.453125 C 81.128906 81.460938 81.292969 81.617188 81.414062 81.890625 C 81.53125 82.164062 81.601562 82.53125 81.601562 82.917969 C 81.601562 83.300781 81.53125 83.667969 81.414062 83.941406 C 81.292969 84.210938 81.128906 84.363281 80.957031 84.363281 Z M 80.957031 84.363281 "/>
</g>
</svg>
