<svg width="565" height="565" viewBox="0 0 565 565" fill="none" xmlns="http://www.w3.org/2000/svg">
<path d="M282.155 564.31C437.985 564.31 564.31 437.985 564.31 282.155C564.31 126.325 437.985 0 282.155 0C126.325 0 0 126.325 0 282.155C0 437.985 126.325 564.31 282.155 564.31Z" fill="#F5C142"/>
<path d="M384.43 182.379L383.364 180.892C376.295 171.036 367.942 162.162 358.531 154.51C358.531 154.51 360.414 121.775 369.149 115.127C379.923 106.922 412.315 156.658 408.695 165.151C408.695 165.151 408.936 169.853 384.43 182.379Z" fill="#654F36"/>
<path d="M352.591 398.209L345.11 395.881C343.241 395.297 341.365 396.753 341.365 398.785V443.905C341.365 446.31 342.766 448.474 344.907 449.377L351.33 452.086C353.681 453.075 356.257 451.277 356.257 448.63V403.339C356.257 400.972 354.77 398.894 352.591 398.216V398.209Z" fill="#654F36"/>
<path d="M179.211 185.181C186.894 174.54 195.917 164.934 206.052 156.596L207.002 155.818C207.002 155.818 206.465 124.695 197.629 117.945C186.731 109.616 153.965 160.115 157.624 168.748C157.624 168.748 154.417 172.469 179.203 185.189L179.211 185.181Z" fill="#654F36"/>
<path d="M379.028 253.267H184.668C181.889 253.267 179.841 255.859 180.488 258.56C183.204 269.91 192.562 295.623 221.777 296.713C249.047 297.732 261.767 282.809 267.637 270.175H296.027C301.337 282.039 312.079 295.919 333.378 296.713C370.215 298.091 380.507 270.362 383.223 258.513C383.838 255.828 381.791 253.267 379.028 253.267ZM269.155 266.578C270.003 264.367 270.649 262.289 271.132 260.467H292.571C293.062 262.289 293.708 264.367 294.541 266.578H269.163H269.155Z" fill="#654F36"/>
<path d="M208.31 398.209L215.3 395.881C217.044 395.297 218.796 396.753 218.796 398.785V443.905C218.796 446.31 217.488 448.474 215.487 449.377L209.485 452.086C207.282 453.075 204.885 451.277 204.885 448.63V403.339C204.885 400.972 206.278 398.894 208.31 398.216V398.209Z" fill="#654F36"/>
<path d="M237.051 229.531L234.918 233.431C233.151 236.654 235.097 240.538 238.927 241.449L262.04 246.945C265.519 247.77 269.139 246.159 270.564 243.154L272.012 240.087C273.351 237.245 271.856 233.952 268.688 232.816C261.97 230.403 250.892 226.728 244.034 226.059C241.138 225.778 238.359 227.164 237.059 229.539L237.051 229.531Z" fill="#654F36"/>
<path d="M326.94 227.818L328.84 231.718C330.412 234.941 328.684 238.826 325.274 239.737L304.676 245.233C301.578 246.058 298.347 244.446 297.086 241.441L295.802 238.374C294.611 235.533 295.942 232.24 298.76 231.103C304.746 228.69 314.617 225.016 320.728 224.346C323.305 224.066 325.788 225.452 326.94 227.826V227.818Z" fill="#654F36"/>
<path d="M302.567 345.982L285.487 336.663V315.925L299.819 305.564C301.072 304.653 301.578 303.111 301.103 301.64C300.628 300.169 299.313 299.211 297.763 299.211H265.932C264.383 299.211 263.075 300.161 262.592 301.64C262.117 303.119 262.616 304.653 263.877 305.564L278.208 315.925V336.554L261.168 344.923C260.296 345.351 259.642 346.091 259.331 347.009C259.019 347.928 259.081 348.916 259.51 349.788C259.938 350.66 260.677 351.314 261.604 351.626C262.522 351.937 263.511 351.875 264.383 351.447L281.766 342.907L299.18 352.412C299.71 352.7 300.317 352.855 300.924 352.855C302.582 352.855 304.03 351.734 304.45 350.123C304.863 348.512 304.092 346.807 302.574 345.974L302.567 345.982Z" fill="#654F36"/>
<path d="M443.461 383.441C443.173 363.481 441.585 338.547 439.522 333.082C438.65 330.762 437.233 328.56 435.326 326.52C432.345 323.352 428.18 321.678 423.758 321.857C433.808 293.427 424.965 264.554 418.013 248.572C406.328 221.7 403.074 210.412 402.179 206.006C414.23 200.214 423.711 194.36 430.398 188.591C438.409 181.679 441.11 171.115 437.615 160.325C425.323 122.336 406.219 102.33 392.37 92.2328C380.421 83.5295 363.085 76.3754 353.073 79.5282C339.022 83.9654 336.126 110.784 334.258 137.625C333.752 138.046 333.503 138.248 332.997 138.668C317.272 136.644 287.534 136.426 280.489 136.403C273.911 136.426 246.283 136.644 231.142 138.614C230.605 138.17 230.325 137.936 229.788 137.493C228.021 110.729 225.249 84.02 211.821 79.5593C205.889 77.582 195.956 79.5749 185.906 84.7594C171.901 91.9758 146.157 111.399 131.109 160.411C127.824 171.107 130.385 181.608 137.96 188.498C144.32 194.274 153.327 200.136 164.77 205.936C163.945 210.295 160.894 221.567 149.707 248.673C143.183 264.476 135.056 292.486 143.775 320.277C143.697 320.269 143.619 320.253 143.542 320.246C138.956 319.747 134.558 321.413 131.483 324.831C129.677 326.839 128.33 329.027 127.49 331.323C125.512 336.741 123.745 361.605 123.247 381.542C122.733 402.101 123.122 428.452 127.902 437.195C134.262 448.825 165.269 462.44 190.156 471.813C192.382 472.653 194.695 473.074 197.007 473.09C199.778 473.105 202.549 472.529 205.165 471.369L224.113 462.931C231.244 459.755 235.852 452.663 235.844 444.863V439.966L322.939 440.487L322.877 445.384C322.776 453.247 327.586 460.416 335.122 463.654L355.292 472.319C357.993 473.479 360.858 474.07 363.746 474.086C366.144 474.101 368.549 473.72 370.869 472.934C397.563 463.888 430.834 450.685 437.763 439.172C443.01 430.445 443.765 404.055 443.461 383.449V383.441ZM160.465 253.103C180.41 204.776 177.241 201.062 175.139 198.61L174.353 197.684L173.263 197.154C161.189 191.285 151.949 185.478 145.799 179.88C139.805 174.439 141.315 166.833 142.241 163.821C156.044 118.887 178.868 101.473 191.246 95.0975C198.774 91.2207 204.122 90.4501 206.652 90.4501C207.422 90.4501 207.928 90.5201 208.162 90.5979C208.201 90.6135 211.914 92.0148 214.88 107.576C216.826 117.813 217.62 129.685 218.15 137.547C218.804 147.301 218.92 149.061 221.925 150.82H221.941C223.591 151.817 225.631 151.91 227.367 151.085C230.823 149.699 252.13 148.134 280.505 148.041C310.67 148.142 333.191 149.723 336.718 151.108L336.772 151.131C338.516 151.894 340.525 151.77 342.159 150.797C345.133 149.022 345.273 147.045 345.943 137.563C346.495 129.716 347.328 117.852 349.383 107.631C352.505 92.0849 356.429 90.6758 356.592 90.6291C359.068 89.8506 370.986 91.0418 385.535 101.645C397.999 110.721 415.234 128.891 426.561 163.914C427.526 166.888 429.083 174.384 422.808 179.795C416.3 185.407 406.539 191.238 393.787 197.116L392.697 197.614L391.896 198.501C389.661 200.985 386.283 204.745 407.356 253.212C414.541 269.746 424.093 301.664 407.286 329.673C394.262 351.369 368.191 366.728 329.517 375.563C295.451 383.34 259.938 382.959 226.3 373.524C194.944 364.735 173.256 350.684 161.563 331.502C144.211 303.049 153.428 270.174 160.473 253.103H160.465ZM220.057 453.822L201.109 462.261C199.957 462.775 198.735 463.055 197.513 463.102L197.894 399.151C197.91 396.395 195.691 394.153 192.935 394.138C190.179 394.122 187.937 396.341 187.922 399.096L187.556 460.144C159.718 449.245 140.007 438.557 136.652 432.423C134.48 428.452 132.433 413.077 133.211 381.853C133.811 357.954 135.796 337.683 136.855 334.764C136.855 334.764 141.004 327.189 148.967 332.888C149.785 334.46 150.664 336.025 151.614 337.582C161.477 353.751 192.538 373.306 223.91 383.208C225.101 385.115 225.857 387.45 225.857 389.233V444.878C225.864 448.747 223.583 452.266 220.041 453.838L220.057 453.822ZM323.087 432.002L235.844 431.48V389.202C235.844 388.252 235.751 386.119 235.595 385.201C265.535 392.293 296.681 391.078 323.85 385.894C323.686 386.734 323.585 388.805 323.57 389.724L323.079 431.994L323.087 432.002ZM429.223 434.018C425.517 440.176 403.977 450.756 373.672 461.405L374.038 400.186C374.053 397.43 371.834 395.189 369.079 395.173C366.323 395.157 364.081 397.376 364.065 400.132L363.684 464.083C362.158 464.059 360.632 463.748 359.239 463.148L339.069 454.484C335.247 452.842 332.81 449.315 332.857 445.501L333.55 389.856C333.581 387.583 334.857 385.528 336.819 384.259C338.407 383.87 339.98 383.465 341.529 383.052C376.124 373.757 406.733 353.206 417.258 335.659C418.029 334.414 422.162 332.008 423.782 331.845C423.992 331.821 424.194 331.814 424.397 331.814C425.829 331.821 427.137 332.366 428.063 333.347C429.067 334.422 429.791 335.511 430.196 336.593C431.286 339.559 433.154 359.854 433.497 383.691C433.941 414.821 431.582 430.103 429.223 434.018Z" fill="#654F36"/>
</svg>
