<svg xmlns="http://www.w3.org/2000/svg" viewBox="0 0 128 128"><circle cx="64" cy="64" r="64" fill="#fef3c7"/><path fill="#d97706" d="M45.734 93.88h-9.816a9.7 9.7 0 0 1-4.676-1.152 9.14 9.14 0 0 1-3.426-3.196l-5.232-8.524a7.4 7.4 0 0 1-1.25-4.178c0-1.534.416-2.856 1.25-4.134l5.324-8.654-5.324-8.61a7.54 7.54 0 0 1-1.25-4.176c0-1.492.416-2.9 1.25-4.178l5.232-8.524a8.8 8.8 0 0 1 3.426-3.198 9.8 9.8 0 0 1 4.676-1.192h9.816l5.186-8.44a8.8 8.8 0 0 1 3.426-3.196 9.8 9.8 0 0 1 4.676-1.194h9.956c1.712 0 3.24.384 4.676 1.194a9.14 9.14 0 0 1 3.426 3.196l5.232 8.44h9.816c1.714 0 3.24.382 4.676 1.192a9.14 9.14 0 0 1 3.426 3.198l5.186 8.524c.834 1.28 1.25 2.644 1.25 4.178s-.416 2.898-1.25 4.176l-5.324 8.61 5.324 8.654c.834 1.28 1.25 2.642 1.25 4.134a7.53 7.53 0 0 1-1.25 4.178l-5.186 8.524a8.8 8.8 0 0 1-3.426 3.196 9.8 9.8 0 0 1-4.676 1.152h-9.816l-5.232 8.44a8.8 8.8 0 0 1-3.426 3.196 9.8 9.8 0 0 1-4.676 1.15H59.02a9.7 9.7 0 0 1-4.676-1.15 9.14 9.14 0 0 1-3.426-3.196zm36.578-34.1h9.954l5.094-8.524-5.094-8.526h-9.954l-5.232 8.526zm-23.15 12.788h9.722l5.186-8.526-5.186-8.524h-9.722l-5.186 8.524zm0-25.574h9.722l5.326-8.654-5.186-8.396h-9.956l-5.184 8.396 5.324 8.654zm-8.196 4.26L45.78 42.73h-9.816l-5.186 8.526 5.186 8.524h9.816zm0 25.576-5.186-8.524h-9.954l-5.094 8.524 5.186 8.524h9.816l5.186-8.524zm8.196 4.262-5.326 8.61 5.186 8.44h9.956l5.186-8.44-5.326-8.61h-9.722zm23.15 4.262h9.816l5.186-8.524-5.186-8.524h-9.816L77.08 76.83z"/><path fill="#26c3ef" d="M93.245.667c1.597-.889 3.55-.889 5.325 0L121.654 14c1.596.889 2.662 2.667 2.662 4.622V45.29c0 1.955-1.065 3.555-2.663 4.622L98.571 63.244c-1.598.889-3.551.889-5.326 0L70.163 49.912c-1.598-.89-2.663-2.667-2.663-4.623V18.622c0-1.956 1.065-3.556 2.663-4.622z"/><path fill="#26c3ef" d="M93.245.667c1.597-.889 3.55-.889 5.325 0L121.654 14c1.596.889 2.662 2.667 2.662 4.622V45.29c0 1.955-1.065 3.555-2.663 4.622L98.571 63.244c-1.598.889-3.551.889-5.326 0L70.163 49.912c-1.598-.89-2.663-2.667-2.663-4.623V18.622c0-1.956 1.065-3.556 2.663-4.622z"/><path fill="url(#_termax-b)" d="M68.431 59.644c21.66-41.244 81.317-30.577 108.304-19.911v114.844h-210.57V95.911h.71c49.71 10.311 74.569 15.289 101.558-36.268" mask="url(#_termax-a)" transform="translate(64)scale(.5)"/><path fill="url(#_termax-c)" d="M63.46 59.289C41.8 18.046-17.856 28.71-44.842 39.379v114.844h210.57V95.556h-.71c-49.713 9.955-74.568 14.933-101.556-36.267" mask="url(#_termax-a)" opacity=".7" transform="translate(64)scale(.5)"/><defs transform="translate(64)scale(.5)"><linearGradient id="_termax-b" x1="71.449" x2="71.449" y1="59.189" y2="154.737" gradientUnits="userSpaceOnUse"><stop stop-color="#fff"/><stop offset="1" stop-color="#fff" stop-opacity="0"/></linearGradient><linearGradient id="_termax-c" x1="60.281" x2="60.412" y1="29.615" y2="107.051" gradientUnits="userSpaceOnUse"><stop stop-color="#fff"/><stop offset="1" stop-color="#fff" stop-opacity="0"/></linearGradient><mask id="_termax-a" width="114" height="128" x="7" y="0" maskUnits="userSpaceOnUse" style="mask-type:luminance"><path fill="#fff" d="M58.489 1.333c3.196-1.777 7.102-1.777 10.652 0L115.305 28c3.194 1.777 5.325 5.333 5.325 9.244V90.58c0 3.91-2.131 7.11-5.326 9.243L69.141 126.49c-3.196 1.778-7.101 1.778-10.652 0L12.326 99.823C9.13 98.043 7 94.489 7 90.579V37.243c0-3.911 2.13-7.111 5.326-9.244z"/></mask></defs></svg>
