<svg xmlns="http://www.w3.org/2000/svg" viewBox="0 0 192 128"><path fill="#0a0a0a" d="M128 64c0 35.348-28.653 64-64 64S0 99.347 0 64 28.653 0 64 0s64 28.653 64 64"/><path fill="url(#_ir_a)" d="M127.75 64C127.75 28.793 99.207.25 64 .25S.25 28.793.25 64 28.793 127.75 64 127.75v.25C28.653 128 0 99.347 0 64S28.653 0 64 0s64 28.653 64 64-28.653 64-64 64v-.25c35.207 0 63.75-28.543 63.75-63.75"/><path fill="url(#_ir_b)" d="M64 119.775c30.802 0 55.775-24.973 55.775-55.775 0-30.803-24.973-55.775-55.775-55.775C33.197 8.225 8.225 33.197 8.225 64S33.197 119.775 64 119.775"/><path fill="#0a0a0a" d="M64 118.49c30.095 0 54.49-24.395 54.49-54.49S94.095 9.51 64 9.51 9.51 33.905 9.51 64 33.905 118.49 64 118.49"/><path fill="url(#a)" d="M45.575 33.158a3.08 3.08 0 0 1 3.072-3.085H54.8a3.06 3.06 0 0 1 2.172.904c.575.578.9 1.363.9 2.18v6.148c0 .818.325 1.602.9 2.182s1.358.905 2.173.905h6.085a3.084 3.084 0 0 0 3.075-3.087v-6.148a3.08 3.08 0 0 1 3.072-3.085h6.148a3.07 3.07 0 0 1 2.175.906c.578.58.9 1.362.9 2.18v6.172c0 .818-.325 1.602-.9 2.183a3.1 3.1 0 0 1-2.175.904h-6.123a3.07 3.07 0 0 0-2.174.905c-.578.58-.9 1.363-.9 2.183v6.148c0 .817-.326 1.602-.9 2.182a3.07 3.07 0 0 1-2.173.905h-6.153a3.06 3.06 0 0 1-2.172-.905 3.1 3.1 0 0 1-.9-2.18v-6.148c0-.817-.325-1.602-.9-2.182a3.07 3.07 0 0 0-2.175-.905H48.63a3.06 3.06 0 0 1-2.172-.905 3.1 3.1 0 0 1-.9-2.18v-6.172h.014v-.005zM42.5 79.411a3.085 3.085 0 0 1-3.072 3.085h-6.153a3.06 3.06 0 0 1-2.172-.904 3.1 3.1 0 0 1-.9-2.18v-6.175a3.084 3.084 0 0 1 3.075-3.085h6.125a3.085 3.085 0 0 0 3.072-3.088v-6.107a3.1 3.1 0 0 0-.9-2.18 3.07 3.07 0 0 0-2.172-.905h-6.125a3.06 3.06 0 0 1-2.173-.905 3.1 3.1 0 0 1-.902-2.183V48.61c0-.818.325-1.602.902-2.182a3.07 3.07 0 0 1 2.173-.905h6.152c.815 0 1.598.324 2.172.904.576.578.9 1.363.9 2.183v6.145c0 .817.325 1.602.9 2.182.578.58 1.358.906 2.173.906H51.7c.815 0 1.597.324 2.172.904s.9 1.363.9 2.18V67.1a3.08 3.08 0 0 1-3.072 3.085h-6.125c-.815 0-1.598.325-2.172.905s-.9 1.362-.9 2.182v-.012 6.15zm39.925 15.43c0 .818-.325 1.603-.9 2.183a3.06 3.06 0 0 1-2.175.902h-6.152a3.08 3.08 0 0 1-3.073-3.085v-6.147a3.085 3.085 0 0 0-3.075-3.087h-6.085c-.815 0-1.598.325-2.173.904-.575.58-.9 1.363-.9 2.18v6.148a3.085 3.085 0 0 1-3.072 3.085h-6.153a3.08 3.08 0 0 1-3.072-3.085v-6.175a3.084 3.084 0 0 1 3.072-3.088h6.126c.815 0 1.597-.325 2.172-.904.577-.58.9-1.363.9-2.183v-6.147a3.084 3.084 0 0 1 3.072-3.088h6.153a3.084 3.084 0 0 1 3.072 3.088v6.147a3.084 3.084 0 0 0 3.073 3.088h6.125c.815 0 1.597.325 2.172.904.576.578.9 1.363.9 2.18v6.176h-.012zM97.8 54.776c0 .818-.325 1.602-.9 2.18a3.07 3.07 0 0 1-2.172.905h-6.125c-.816 0-1.598.325-2.173.905s-.9 1.362-.9 2.18v6.107c0 .818.325 1.603.9 2.183.577.58 1.357.905 2.172.905h6.126c.815 0 1.597.325 2.172.905s.9 1.362.9 2.18V79.4c0 .817-.325 1.602-.9 2.182a3.07 3.07 0 0 1-2.172.906h-6.15a3.06 3.06 0 0 1-2.173-.906 3.1 3.1 0 0 1-.9-2.182v-6.148c0-.817-.325-1.602-.9-2.182a3.1 3.1 0 0 0-2.172-.905h-6.126a3.08 3.08 0 0 1-3.073-3.085v-6.175a3.084 3.084 0 0 1 3.076-3.085h6.125c.815 0 1.597-.325 2.172-.905s.9-1.362.9-2.182v-6.148a3.1 3.1 0 0 1 .9-2.182 3.06 3.06 0 0 1 2.173-.905h6.15c.815 0 1.597.325 2.172.905s.9 1.362.9 2.182v6.19z"/><defs><linearGradient id="_ir_a" x1="64" x2="64" y1="0" y2="128" gradientUnits="userSpaceOnUse"><stop stop-color="#272727" stop-opacity=".49"/><stop offset="1" stop-opacity="0"/></linearGradient><linearGradient id="_ir_b" x1="222.057" x2="-69.995" y1="61.915" y2="65.767" gradientUnits="userSpaceOnUse"><stop stop-color="#f8f29c"/><stop offset=".17" stop-color="#f6db2a"/><stop offset=".33" stop-color="#f4a435"/><stop offset=".55" stop-color="#e85a46"/><stop offset=".7" stop-color="#b93483"/><stop offset=".87" stop-color="#502b6e"/><stop offset="1" stop-color="#2a2136"/></linearGradient><linearGradient id="a" x1="147.473" x2="-6.765" y1="62.903" y2="64.93" gradientUnits="userSpaceOnUse"><stop stop-color="#f8f29c"/><stop offset=".17" stop-color="#f6db2a"/><stop offset=".33" stop-color="#f4a435"/><stop offset=".55" stop-color="#e85a46"/><stop offset=".7" stop-color="#b93483"/><stop offset=".87" stop-color="#502b6e"/><stop offset="1" stop-color="#2a2136"/></linearGradient></defs><circle cx="64" cy="64" r="64" fill="#f0b90b" transform="translate(64)"/><path fill="#fff" d="m99.2 64 .5 16.9 14.4 8.5v9.9L91.3 85.9V59.1zm0-16.9V57l-8.4-5v-9.8l8.4-5 8.4 5zm20.4-4.9 8.4-5 8.4 5-8.4 4.9z"/><path fill="#fff" d="M105.3 77.4v-9.9l8.4 5v9.9zm14.3 15.5 8.4 5 8.4-5v9.9l-8.4 5-8.4-5zm28.8-50.7 8.4-5 8.4 5v9.9l-8.4 5v-9.9zm8.4 38.8.5-16.9 8.4-5V86l-22.8 13.4v-9.9z"/><path fill="#fff" d="m150.8 77.4-8.4 4.9v-9.9l8.4-4.9z"/><path fill="#fff" d="m150.8 50.5.5 9.9-14.4 8.5v17l-8.4 4.9-8.4-4.9v-17l-14.4-8.5v-9.9l8.4-4.9 14.4 8.5 14.4-8.5 8.4 4.9zM105.3 43l22.8-13.4L150.9 43l-8.4 5-14.4-8.5-14.4 8.5z"/></svg>
