<?xml version="1.0" encoding="UTF-8"?>
<!-- Generated by @neplex/vectorizer (Using visioncortex VTracer) -->
<svg version="1.1" xmlns="http://www.w3.org/2000/svg" width="128" height="128">
<path d="M0 0 C1.08152 0.48598 2.16305 0.97195 3.27734 1.47266 C19.93573 9.69494 30.39874 22.87351 37 40 C41.35286 53.94995 41.13926 71.61021 35 85 C34.51402 86.08152 34.02805 87.16305 33.52734 88.27734 C25.30506 104.93573 12.12649 115.39874 -5 122 C-18.94995 126.35286 -36.61021 126.13926 -50 120 C-51.08152 119.51402 -52.16305 119.02805 -53.27734 118.52734 C-69.93573 110.30506 -80.39874 97.12649 -87 80 C-91.35286 66.05005 -91.13926 48.38979 -85 35 C-84.51402 33.91848 -84.02805 32.83695 -83.52734 31.72266 C-75.30506 15.06427 -62.12649 4.60126 -45 -2 C-31.05005 -6.35286 -13.38979 -6.13926 0 0 Z " fill="#E0195C" transform="translate(89,4)"/>
<path d="M0 0 C0.90105 0.45633 1.80211 0.91266 2.73047 1.38281 C9.22439 4.53546 15.10522 5.32254 22.03906 3.00781 C24.21012 2.06297 26.32054 0.98146 28.41797 -0.11719 C31.84618 -1.83129 34.62522 -1.43325 38.41797 -1.11719 C45.40866 1.2484 49.67925 4.37021 53.41797 10.88281 C54.85483 15.19339 54.94477 19.40503 54.41797 23.88281 C53.45891 25.42969 53.45891 25.42969 52.48047 27.00781 C50.18398 31.32243 50.0955 33.79837 49.91797 38.63281 C49.43834 49.93534 46.80783 58.09603 38.41797 65.88281 C28.31085 74.30541 18.18061 74.93013 5.41797 73.88281 C-2.86525 72.24797 -9.09833 67.13463 -14.58203 60.88281 C-19.1159 53.78044 -20.61892 47.47239 -20.89453 39.07031 C-21.23509 32.76436 -22.24484 29.26539 -25.58203 23.88281 C-26.31623 16.63264 -25.72869 12.10281 -21.58203 5.88281 C-15.35021 0.12747 -8.43557 -3.64988 0 0 Z " fill="#FEFCFC" transform="translate(49.58203125,29.1171875)"/>
<path d="M0 0 C2.4375 1.625 2.4375 1.625 4 4 C4.25 7.75 4.25 7.75 4 11 C2.68 11.33 1.36 11.66 0 12 C-2.57812 10.34766 -2.57812 10.34766 -5.25 8.0625 C-6.14203 7.31098 -7.03406 6.55945 -7.95312 5.78516 C-8.62859 5.19605 -9.30406 4.60695 -10 4 C-9.67 2.68 -9.34 1.36 -9 0 C-5.81453 -1.59274 -3.39809 -0.76164 0 0 Z " fill="#E62163" transform="translate(88,41)"/>
<path d="M0 0 C0.33 1.65 0.66 3.3 1 5 C-2.3 7.31 -5.6 9.62 -9 12 C-10.32 11.34 -11.64 10.68 -13 10 C-12.76583 5.94113 -12.54688 3.64339 -9.875 0.5 C-6.16153 -1.43746 -4.00336 -0.94197 0 0 Z " fill="#E72465" transform="translate(48,41)"/>
<path d="M0 0 C3.0625 0.25 3.0625 0.25 6.0625 2.25 C5.7325 3.9 5.4025 5.55 5.0625 7.25 C1.4325 7.25 -2.1975 7.25 -5.9375 7.25 C-4.56521 0.38853 -4.56521 0.38853 0 0 Z " fill="#E72768" transform="translate(75.9375,68.75)"/>
<path d="M0 0 C3.4375 0.8125 3.4375 0.8125 5.4375 3.8125 C5.4375 4.8025 5.4375 5.7925 5.4375 6.8125 C1.8075 6.8125 -1.8225 6.8125 -5.5625 6.8125 C-5.8925 5.1625 -6.2225 3.5125 -6.5625 1.8125 C-3.5625 -0.1875 -3.5625 -0.1875 0 0 Z " fill="#E72566" transform="translate(52.5625,69.1875)"/>
<path d="M0 0 C1.29937 0.02062 2.59875 0.04125 3.9375 0.0625 C3.9375 1.3825 3.9375 2.7025 3.9375 4.0625 C3.2775 4.7225 2.6175 5.3825 1.9375 6.0625 C-0.5625 5.9375 -0.5625 5.9375 -3.0625 5.0625 C-3.7225 3.7425 -4.3825 2.4225 -5.0625 1.0625 C-4.0625 0.0625 -4.0625 0.0625 0 0 Z " fill="#E62062" transform="translate(64.0625,75.9375)"/>
<path d="M0 0 C0.33 0.66 0.66 1.32 1 2 C0.03063 2.12375 -0.93875 2.2475 -1.9375 2.375 C-2.94813 2.58125 -3.95875 2.7875 -5 3 C-5.33 3.66 -5.66 4.32 -6 5 C-6.66 5 -7.32 5 -8 5 C-7.67 3.68 -7.34 2.36 -7 1 C-5 0 -5 0 0 0 Z " fill="#E93471" transform="translate(86,40)"/>
</svg>
