<svg width="37" height="37" viewBox="0 0 37 37" fill="none" xmlns="http://www.w3.org/2000/svg">
<g clip-path="url(#clip0_6330_17832)">
<path d="M18.5 37C28.7173 37 37 28.7173 37 18.5C37 8.28273 28.7173 0 18.5 0C8.28273 0 0 8.28273 0 18.5C0 28.7173 8.28273 37 18.5 37Z" fill="black"/>
<path d="M18.4515 28.8947C18.1611 28.5863 17.907 28.2457 17.6941 27.8795C17.153 27.0285 16.2465 25.0305 16.2442 22.8337C14.3306 23.9506 12.1233 24.168 11.1081 24.124C10.725 24.1234 10.3429 24.0831 9.96804 24.0038C10.3935 26.0758 11.46 27.5882 13.1674 28.5409C14.8247 29.4659 16.586 29.5839 18.4515 28.8947ZM25.3196 19.795C25.8666 19.101 26.2539 18.2948 26.4539 17.434C26.6913 16.4419 26.6959 15.4456 26.4677 14.4451L28.4912 13.8716C28.6472 13.8324 28.7935 13.7617 28.9211 13.6639C29.0488 13.566 29.1551 13.4431 29.2335 13.3027C29.3114 13.1622 29.3598 13.0073 29.3757 12.8474C29.3916 12.6876 29.3747 12.5262 29.326 12.3731C29.2872 12.2171 29.2169 12.0707 29.1195 11.9428C29.0221 11.815 28.8995 11.7084 28.7594 11.6296C28.6188 11.5515 28.4637 11.503 28.3036 11.4871C28.1435 11.4712 27.9819 11.4882 27.8286 11.5371L25.5716 12.1777C24.8216 11.2134 24.0489 10.5146 23.2534 10.0814C22.4579 9.64895 21.5398 9.42618 20.4992 9.41308L19.8366 7.07745C19.7976 6.92157 19.7271 6.77532 19.6294 6.64767C19.5318 6.52002 19.4091 6.41367 19.2689 6.33514C19.1283 6.25706 18.9732 6.20858 18.8131 6.19267C18.653 6.17676 18.4914 6.19377 18.3381 6.24264C18.1824 6.28157 18.0362 6.3519 17.9085 6.44932C17.7809 6.54675 17.6745 6.66921 17.5958 6.8092C17.5176 6.94976 17.4689 7.10484 17.4528 7.26491C17.4367 7.42498 17.4535 7.58665 17.5022 7.73998L18.0757 9.76342C17.1151 10.0906 16.2487 10.647 15.5516 11.3845C14.9863 11.9734 14.5375 12.6638 14.2288 13.4195L20.9813 14.252L25.3196 19.795ZM11.0885 14.1502C9.91304 14.1547 8.78753 14.6259 7.95953 15.4602C7.13153 16.2945 6.66886 17.4235 6.67331 18.5989C6.67776 19.7743 7.14895 20.8998 7.98324 21.7278C8.81753 22.5558 9.94657 23.0185 11.122 23.014H11.1474C12.1788 23.0626 14.6867 22.7782 16.472 21.334L20.017 15.251L11.0885 14.1502ZM17.4201 21.9121L20.9039 15.9343L26.3463 22.9146C26.9297 23.9352 27.0838 25.1457 26.7747 26.2799C26.4656 27.414 25.7186 28.379 24.6981 28.9624C23.6775 29.5458 22.467 29.6999 21.3328 29.3908C20.1987 29.0817 19.2337 28.3347 18.6503 27.3141L18.6376 27.291C18.0861 26.4319 17.0952 24.1576 17.4201 21.9121Z" fill="url(#paint0_linear_6330_17832)"/>
</g>
<circle cx="18.5" cy="18.5" r="17.5" stroke="#1BE3C2" stroke-width="2"/>
<rect y="22" width="19.999" height="14" rx="7" fill="url(#paint1_radial_6330_17832)"/>
<path d="M4.63916 32.8L5.73673 26.1887H7.13452L6.23064 31.6475H9.06495L8.87126 32.8H4.63916Z" fill="white"/>
<path d="M9.79693 32.8L10.8945 26.1887H13.5028C14.0021 26.1887 14.4121 26.2845 14.7328 26.476C15.0556 26.6654 15.2816 26.929 15.4107 27.2669C15.542 27.6026 15.5721 27.99 15.5011 28.4291C15.4279 28.8702 15.2686 29.2587 15.0233 29.5944C14.7801 29.928 14.4638 30.1884 14.0742 30.3756C13.6847 30.5629 13.2349 30.6565 12.7249 30.6565H11.0624L11.2464 29.5363H12.6829C12.9541 29.5363 13.1854 29.49 13.377 29.3975C13.5706 29.3028 13.7245 29.1726 13.8386 29.0069C13.9526 28.839 14.0269 28.6464 14.0613 28.4291C14.0979 28.2074 14.0861 28.0148 14.0258 27.8512C13.9655 27.6877 13.8547 27.5607 13.6933 27.4703C13.5341 27.3778 13.3199 27.3315 13.0509 27.3315H12.1083L11.1947 32.8H9.79693Z" fill="white"/>
<defs>
<linearGradient id="paint0_linear_6330_17832" x1="43.0183" y1="18.0329" x2="-5.71417" y2="18.6978" gradientUnits="userSpaceOnUse">
<stop stop-color="#F8F29C"/>
<stop offset="0.165" stop-color="#F6DB2A"/>
<stop offset="0.333" stop-color="#F4A435"/>
<stop offset="0.55" stop-color="#E85A46"/>
<stop offset="0.699" stop-color="#B93483"/>
<stop offset="0.867" stop-color="#502B6E"/>
<stop offset="1" stop-color="#2A2136"/>
</linearGradient>
<radialGradient id="paint1_radial_6330_17832" cx="0" cy="0" r="1" gradientUnits="userSpaceOnUse" gradientTransform="translate(9.99951 29) rotate(-180) scale(13.1812 25.64)">
<stop stop-color="#090D18"/>
<stop offset="0.5" stop-color="#090D18" stop-opacity="0.505208"/>
<stop offset="1" stop-color="#090D18" stop-opacity="0"/>
</radialGradient>
<clipPath id="clip0_6330_17832">
<rect width="37" height="37" fill="white"/>
</clipPath>
</defs>
</svg>
