<svg xmlns="http://www.w3.org/2000/svg" viewBox="0 0 128 128"><path d="M64 128c35.346 0 64-28.654 64-64S99.346 0 64 0 0 28.654 0 64s28.654 64 64 64"/><path fill="url(#a)" d="M63.832 99.96a19.2 19.2 0 0 1-2.62-3.512c-1.872-2.944-5.008-9.856-5.016-17.456-6.62 3.864-14.256 4.616-17.768 4.464a19.2 19.2 0 0 1-3.944-.416q2.208 10.752 11.068 15.696 8.6 4.8 18.28 1.224m23.76-31.48a20.8 20.8 0 0 0 3.924-8.168q1.23-5.148.048-10.34l7-1.984a4.07 4.07 0 0 0 3.06-3.543 4.1 4.1 0 0 0-.172-1.641 4.08 4.08 0 0 0-1.96-2.572 4.08 4.08 0 0 0-3.22-.32l-7.808 2.216q-3.892-5.004-8.02-7.252-4.128-2.244-9.528-2.312l-2.292-8.08a4.08 4.08 0 0 0-1.964-2.568 4.08 4.08 0 0 0-3.22-.32 4.08 4.08 0 0 0-2.568 1.96 4.08 4.08 0 0 0-.324 3.22l1.984 7a21.6 21.6 0 0 0-8.732 5.608 22.4 22.4 0 0 0-4.576 7.04l23.36 2.88zM38.36 48.952a15.332 15.332 0 0 0 .116 30.664h.088c3.568.168 12.244-.816 18.42-5.812L69.248 52.76zm21.904 26.852 12.052-20.68 18.828 24.148a15.334 15.334 0 0 1-26.624 15.22l-.044-.08c-1.908-2.972-5.336-10.84-4.212-18.608"/><path fill="none" stroke="#1be3c2" stroke-width="2" d="M64 124.081c33.436 0 60.541-27.105 60.541-60.54S97.436 3 64 3 3.46 30.105 3.46 63.54 30.563 124.082 64 124.082Z"/><path fill="url(#b)" d="M44.97 75.649H24.215C10.842 75.649 0 86.49 0 99.865s10.842 24.216 24.216 24.216H44.97c13.375 0 24.217-10.842 24.217-24.216S58.344 75.649 44.969 75.649"/><path fill="#fff" d="m16.052 113.011 3.795-22.87h4.836l-3.127 18.885h9.804l-.675 3.985zm17.84 0 3.799-22.87h9.022q2.595 0 4.255.992 1.678.986 2.346 2.733.681 1.748.311 4.023a9.35 9.35 0 0 1-1.654 4.031q-1.262 1.73-3.283 2.705-2.024.969-4.67.969h-5.75l.637-3.875h4.971q1.405 0 2.401-.481a4 4 0 0 0 1.599-1.349q.591-.868.768-2a3.8 3.8 0 0 0-.122-2 2.42 2.42 0 0 0-1.152-1.314q-.826-.484-2.22-.484h-3.263l-3.158 18.92z"/><defs><radialGradient id="b" cx="0" cy="0" r="1" gradientTransform="matrix(-45.5998 0 0 -88.7005 34.595 99.865)" gradientUnits="userSpaceOnUse"><stop stop-color="#090d18"/><stop offset=".5" stop-color="#090d18" stop-opacity=".505"/><stop offset="1" stop-color="#090d18" stop-opacity="0"/></radialGradient><linearGradient id="a" x1="148.82" x2="-19.768" y1="62.384" y2="64.684" gradientUnits="userSpaceOnUse"><stop stop-color="#f8f29c"/><stop offset=".165" stop-color="#f6db2a"/><stop offset=".333" stop-color="#f4a435"/><stop offset=".55" stop-color="#e85a46"/><stop offset=".699" stop-color="#b93483"/><stop offset=".867" stop-color="#502b6e"/><stop offset="1" stop-color="#2a2136"/></linearGradient></defs></svg>
