<?xml version="1.0" encoding="UTF-8" standalone="no"?>
<!-- Created with Inkscape (http://www.inkscape.org/) -->

<svg
   width="289"
   height="205"
   viewBox="0 0 76.464589 54.239615"
   version="1.1"
   id="svg1"
   xml:space="preserve"
   xmlns="http://www.w3.org/2000/svg"
   xmlns:svg="http://www.w3.org/2000/svg"><defs
     id="defs1" /><g
     id="layer1"><g
       id="g1"
       transform="matrix(0.42386118,0,0,0.42386118,0.01014666,0.09146774)"><circle
         cx="64"
         cy="64"
         r="64"
         fill="#78350f"
         id="circle1" /><circle
         cx="64"
         cy="64"
         r="58"
         fill="#ffffff"
         id="circle2" /><path
         fill="#78350f"
         d="m 47.52,41.136 a 10,10 0 0 0 -3.486,-1.37 9.2,9.2 0 0 0 -3.668,0.042 9,9 0 0 0 -3.288,1.442 8.6,8.6 0 0 0 -2.414,2.634 9,9 0 0 0 -1.168,3.424 9.4,9.4 0 0 0 0.252,3.682 c 0.538,2.012 3.024,2.396 4.732,1.172 l 4.352,-3.112 4.364,-3.12 c 1.706,-1.226 2.104,-3.674 0.324,-4.794 m 46.014,2.748 a 8.66,8.66 0 0 0 -5.702,-4.076 9.2,9.2 0 0 0 -3.668,-0.04 10,10 0 0 0 -3.488,1.368 c -1.78,1.12 -1.38,3.568 0.326,4.792 l 4.364,3.122 4.352,3.112 c 1.708,1.224 4.194,0.84 4.732,-1.172 a 9.4,9.4 0 0 0 0.252,-3.682 9,9 0 0 0 -1.168,-3.424 M 67.63,77.598 a 10.16,10.16 0 0 0 -6.47,0 c -1.16,0.394 -2.172,1.006 -2.108,1.928 0.116,1.412 2.36,3.828 3.982,4.326 0.992,0.3 1.614,0.28 2.72,0 1.622,-0.416 3.878,-2.914 3.984,-4.326 0.074,-0.922 -0.95,-1.532 -2.108,-1.928 M 56.512,73.054 a 7.2,7.2 0 0 0 -2.128,-1.888 6.8,6.8 0 0 0 -2.666,-0.88 7,7 0 0 0 -2.804,0.258 c -0.906,0.28 -1.76,0.736 -2.508,1.36 a 7.6,7.6 0 0 0 -1.834,2.25 c -0.77,1.44 0.454,2.956 2.098,3.142 l 4.152,0.468 4.184,0.476 c 1.644,0.188 3.192,-1.006 2.77,-2.582 a 7.6,7.6 0 0 0 -1.264,-2.604 m 25.736,-1.298 a 7.4,7.4 0 0 0 -2.51,-1.36 7,7 0 0 0 -2.802,-0.258 6.8,6.8 0 0 0 -2.666,0.882 7.2,7.2 0 0 0 -2.13,1.888 7.5,7.5 0 0 0 -1.264,2.604 c -0.42,1.576 1.128,2.77 2.76,2.582 l 4.186,-0.476 4.16,-0.468 c 1.646,-0.186 2.868,-1.7 2.1,-3.142 a 7.8,7.8 0 0 0 -1.834,-2.252"
         id="path2" /><path
         fill="#78350f"
         d="m 102.018,61.8 a 20.7,20.7 0 0 0 5.438,-14.22 20.6,20.6 0 0 0 -2.076,-8.788 C 101.648,31.074 92.206,25.048 82.542,27.06 q -0.59,0.13 -1.168,0.302 a 11.6,11.6 0 0 0 -3.92,2.08 c -2.582,2.06 -7.326,3.44 -12.752,3.44 h -0.616 c -5.424,0 -10.168,-1.384 -12.75,-3.444 A 11.6,11.6 0 0 0 47.414,27.36 16,16 0 0 0 46.246,27.058 C 36.584,25.046 27.142,31.072 23.41,38.79 a 20.6,20.6 0 0 0 -2.076,8.786 20.72,20.72 0 0 0 5.44,14.222 1.46,1.46 0 0 1 0.356,1.204 c -2.328,13.1 1.108,23.88 8.18,31.554 7.428,8.06 18.324,12.076 28.894,12.294 h 0.382 c 10.568,-0.218 21.466,-4.232 28.894,-12.292 7.072,-7.676 10.508,-18.454 8.18,-31.556 a 1.45,1.45 0 0 1 0.356,-1.204 z m -6.186,-2.272 a 1.74,1.74 0 0 0 -0.6,1.764 c 5.49,22.872 -8.62,36.224 -24.83,39.086 h -0.01 a 38,38 0 0 1 -4.732,0.54 c -0.094,0 -0.2,0.01 -0.294,0.01 -0.296,0.02 -0.6,0.02 -0.896,0.032 h -0.074 l -0.02,-0.002 h -0.054 c -0.296,-0.01 -0.6,-0.01 -0.896,-0.03 -0.094,0 -0.2,-0.012 -0.296,-0.012 a 38,38 0 0 1 -4.73,-0.54 H 58.388 C 42.18,97.516 28.068,84.164 33.56,61.29 a 1.74,1.74 0 0 0 -0.6,-1.762 15,15 0 0 1 -5.66,-11.9 14.9,14.9 0 0 1 1.486,-6.306 c 2.76,-5.716 9.706,-9.876 16.23,-8.516 0.764,0.156 2.812,0.82 4.808,1.756 0.724,0.34 1.404,0.764 2.04,1.244 2.616,1.976 7.25,3.29 12.532,3.296 5.284,-0.004 9.92,-1.32 12.534,-3.294 0.636,-0.48 1.314,-0.904 2.04,-1.244 1.994,-0.936 4.042,-1.6 4.808,-1.758 6.522,-1.36 13.468,2.8 16.23,8.518 a 14.9,14.9 0 0 1 1.484,6.306 15,15 0 0 1 -5.66,11.898"
         id="path3" /></g><g
       id="layer1-7"
       transform="matrix(0.1240475,0,0,0.1240475,22.347351,0.16756374)"><path
         style="fill:#3e3e3e;fill-opacity:1;stroke:none;stroke-width:1.99799;stroke-linecap:round;stroke-miterlimit:23.8;stroke-dasharray:none;stroke-opacity:0"
         d="m 37.5559,306.2471 130.3003,130.3025 138.391,-5e-4 130.3018,-130.302 -4e-4,-138.3911 -130.3014,-130.3003 -138.391,5e-4 -130.3011,130.2998 3e-4,23.5729 z"
         id="path68062-4-6-4-4-8-1" /><g
         id="g3675"
         transform="translate(-3438.5117,-1053.6264)"><path
           d="m 3619.2544,1474.5183 h 27.5988 v -112.6185 l -27.5988,27.5987 z"
           fill="url(#paint0_linear_162_190)"
           id="path49684-2-81-5-7"
           style="fill:#e3e6e3;fill-opacity:1;stroke-width:1.90191" /><path
           d="m 3731.8729,1474.5183 h -27.5987 v -112.6185 l 27.5987,27.5987 z"
           fill="url(#paint0_linear_162_190)"
           id="path49684-9-5-0-7-0"
           style="fill:#e3e6e3;fill-opacity:1;stroke-width:1.90191" /><path
           d="m 3491.7246,1354.443 27.5988,27.599 -5e-4,-182.7269 -27.5989,27.5988 z"
           fill="url(#paint1_linear_162_190)"
           id="path49686-4-3-4-4"
           style="fill:#e3e6e3;fill-opacity:1;stroke-width:1.90191" /><path
           d="m 3859.4034,1354.443 -27.5989,27.599 v -182.7276 l 27.5989,27.5989 z"
           fill="url(#paint1_linear_162_190)"
           id="path49686-2-49-0-1-0"
           style="fill:#e3e6e3;fill-opacity:1;stroke-width:1.90191" /><path
           d="m 3739.328,1106.8397 27.5989,27.5989 h -182.7271 l 27.5987,-27.5982 z"
           fill="url(#paint1_linear_162_190)"
           id="path49686-2-4-9-4-8-8"
           style="fill:#e3e6e3;fill-opacity:1;stroke-width:1.90191" /><path
           d="m 3626.7097,1261.9686 27.5988,-27.5988 h -85.0198 l 27.599,27.5988 z"
           fill="url(#paint2_linear_162_190)"
           id="path49688-3-4-5-5"
           style="fill:#e3e6e3;fill-opacity:1;stroke-width:1.90191" /><path
           d="m 3754.2395,1261.9686 27.5987,-27.5988 h -85.0195 l 27.5987,27.5988 z"
           fill="url(#paint2_linear_162_190)"
           id="path49688-2-5-44-9-1"
           style="fill:#e3e6e3;fill-opacity:1;stroke-width:1.90191" /><path
           d="m 3689.3631,1361.8998 h -27.5989 v 112.6185 h 27.5989 z"
           fill="url(#paint4_linear_162_190)"
           id="path49692-0-7-7-6"
           style="fill:#e3e6e3;fill-opacity:1;stroke-width:1.90191" /><path
           d="m 3689.3631,1234.3698 h -27.5989 v 70.1087 h 27.5989 z"
           fill="url(#paint10_linear_162_190)"
           id="path49704-2-6-5-6"
           style="fill:#e3e6e3;fill-opacity:1;stroke-width:1.90191" /><path
           d="m 3569.2886,1149.3498 -35.0544,35.0541 v 99.9316 l 27.5989,27.5988 v -116.0979 l 18.888,-18.8878 h 189.6851 l 18.8881,18.8881 v 116.0976 l 27.5989,-27.5988 v -99.9316 l -35.055,-35.0542 z"
           fill="url(#paint11_linear_162_190)"
           id="path49706-9-31-3-2"
           style="fill:#e3e6e3;fill-opacity:1;stroke-width:1.90191" /><path
           d="m 3534.2344,1396.9531 27.5992,27.5987 -6e-4,-105.162 -27.5988,27.5988 z"
           fill="url(#paint12_linear_162_190)"
           id="path49708-4-7-8-1"
           style="fill:#e3e6e3;fill-opacity:1;stroke-width:1.90191" /><path
           d="m 3816.8934,1396.9531 -27.5988,27.5987 -5e-4,-105.162 27.5989,27.5988 z"
           fill="url(#paint12_linear_162_190)"
           id="path49708-6-3-5-8-9"
           style="fill:#e3e6e3;fill-opacity:1;stroke-width:1.90191" /><path
           d="m 3629.2446,1319.3898 -52.5007,52.5006 6e-4,67.5726 27.5991,27.5988 -7e-4,-83.7396 36.3336,-36.3336 h 69.7738 l 36.3336,36.3336 6e-4,83.7396 27.5989,-27.5988 -6e-4,-68.6094 -51.0375,-51.4638 z"
           fill="url(#paint14_linear_162_190)"
           id="path49712-5-9-3-6"
           style="fill:#e3e6e3;fill-opacity:1;stroke-width:1.90191" /></g><path
         id="path49688-6-5-0-2-9-1-2-1-1-4"
         style="color:#000000;fill:#3e3e3e;fill-opacity:1;stroke-width:3.5008;-inkscape-stroke:none;paint-order:markers stroke fill"
         d="M 245.9183,0 436.5486,190.6369 V 107.5951 L 400.3499,71.3914 h -35.186 V 36.2054 L 328.9602,0 Z M 145.1505,0 108.9452,36.1986 V 71.3849 H 73.7608 l -36.2054,36.2034 v 83.0418 L 228.1922,0 Z" /><path
         id="path49688-6-5-0-2-9-1-6-8-8"
         style="fill:#2fd70a;fill-opacity:1;stroke:none;stroke-width:31.1231;stroke-dasharray:none;stroke-opacity:1;paint-order:markers stroke fill"
         d="m 283.3869,15.5637 66.1156,66.1177 V 42.65 L 322.4183,15.5637 Z m -131.7019,0 -27.0841,27.0845 v 39.0314 l 66.1155,-66.1159 z m 203.0902,71.3865 66.1157,66.1157 V 114.0361 L 393.8061,86.9522 Z m -274.478,0 -27.0847,27.0843 v 39.0314 l 66.1159,-66.1157 z" /></g></g></svg>
