<svg xmlns="http://www.w3.org/2000/svg" viewBox="0 0 128 128"><circle cx="64" cy="64" r="64"/><path fill="#fff" d="M83.528 77.848v-4.804c2.948-1.015 5.095-4.164 5.095-7.892s-2.147-6.887-5.095-7.892v-4.805c2.776-.952 4.847-3.808 5.076-7.26h-3.377v1.468c0 1.13-.687 2.127-1.699 2.625v-.685c0-1.005-.878-1.824-1.956-1.824h-.171c-1.078 0-1.956.819-1.956 1.824v.685c-1.011-.498-1.699-1.486-1.699-2.625v-1.468H74.37c.23 3.452 2.3 6.308 5.076 7.26v4.805c-2.939 1.005-5.095 4.155-5.095 7.892s2.147 6.886 5.095 7.892v4.804c-2.777.952-4.847 3.808-5.076 7.26h3.377V83.64c0-1.13.688-2.126 1.699-2.624v.685c0 1.005.878 1.824 1.956 1.824h.172c1.078 0 1.955-.819 1.955-1.824v-.685c1.012.498 1.698 1.485 1.698 2.624v1.468h3.378c-.229-3.452-2.3-6.308-5.076-7.26m-5.782-10.597v-4.208c0-1.13.688-2.126 1.699-2.625v.685c0 1.006.878 1.825 1.956 1.825h.172c1.078 0 1.955-.82 1.955-1.825v-.685c1.012.499 1.698 1.486 1.698 2.625v4.208c0 1.13-.686 2.127-1.698 2.625v-.685c0-1.005-.878-1.824-1.956-1.824h-.171c-1.078 0-1.956.819-1.956 1.824v.685c-1.002-.498-1.699-1.486-1.699-2.625m26.504.454V62.59c2.948-1.014 5.095-4.163 5.095-7.892 0-3.727-2.147-6.886-5.095-7.891v-1.61h-4.074v1.61c-2.948 1.014-5.095 4.164-5.095 7.892 0 3.727 2.147 6.886 5.095 7.891v5.116c-2.948 1.014-5.095 4.164-5.095 7.892s2.147 6.887 5.095 7.892v1.61h4.074v-1.61c2.948-1.014 5.095-4.164 5.095-7.892s-2.147-6.877-5.095-7.892m-5.782-10.908V52.59c0-1.13.687-2.126 1.698-2.625v.685c0 1.006.878 1.824 1.956 1.824h.163c1.078 0 1.955-.818 1.955-1.824v-.685c1.012.498 1.699 1.486 1.699 2.625v4.208c0 1.13-.687 2.127-1.699 2.625v-.685c0-1.006-.877-1.824-1.955-1.824h-.172c-1.078 0-1.956.819-1.956 1.824v.685c-.992-.498-1.689-1.486-1.689-2.625m7.48 20.909c0 1.13-.687 2.126-1.698 2.624v-1.005c0-1.005-.878-1.824-1.956-1.824h-.162c-1.078 0-1.956.819-1.956 1.824v1.005c-1.011-.498-1.698-1.486-1.698-2.624v-4.209c0-1.13.687-2.126 1.698-2.624v.364c0 1.006.878 1.824 1.956 1.824h.172c1.078 0 1.955-.818 1.955-1.824v-.364c1.012.498 1.699 1.486 1.699 2.624v4.209zm-45.766-16.63a3 3 0 0 0-.163-.587c.029-.045 6.364-8.275.496-13.364-5.858-5.09-12.698 1.548-12.737 1.584a16.3 16.3 0 0 0-3.272-.605h-.01c-2.232-.347-5.362 0-5.362 0a16.6 16.6 0 0 0-3.243.596c-.039-.036-6.88-6.673-12.737-1.584s.467 13.328.496 13.364a4.5 4.5 0 0 0-.163.587c-.63 3.523-4.951 4.609-4.951 10.748 0 6.254 4.513 11.183 13.73 11.183h3.777c.02.018 1.479 1.958 4.494 2.074 0 0 .696.07 2.3.017 3.195 0 4.75-2.055 4.76-2.082h3.778c9.217 0 13.73-4.929 13.73-11.183.028-6.13-4.294-7.225-4.923-10.748"/></svg>
