<svg xmlns="http://www.w3.org/2000/svg" fill="none" viewBox="0 0 128 128"><g clip-path="url(#a)"><path fill="#fef3c7" d="M64 128c35.346 0 64-28.654 64-64S99.346 0 64 0 0 28.654 0 64s28.654 64 64 64"/><path fill="#d97706" d="M45.734 93.88h-9.816a9.7 9.7 0 0 1-4.676-1.152 9.14 9.14 0 0 1-3.426-3.196l-5.232-8.524a7.4 7.4 0 0 1-1.25-4.178c0-1.534.416-2.856 1.25-4.134l5.324-8.654-5.324-8.61a7.54 7.54 0 0 1-1.25-4.176c0-1.492.416-2.9 1.25-4.178l5.232-8.524a8.8 8.8 0 0 1 3.426-3.198 9.8 9.8 0 0 1 4.676-1.192h9.816l5.186-8.44a8.8 8.8 0 0 1 3.426-3.196 9.8 9.8 0 0 1 4.676-1.194h9.956c1.712 0 3.24.384 4.676 1.194a9.14 9.14 0 0 1 3.426 3.196l5.232 8.44h9.816c1.714 0 3.24.382 4.676 1.192a9.14 9.14 0 0 1 3.426 3.198l5.186 8.524c.834 1.28 1.25 2.644 1.25 4.178s-.416 2.898-1.25 4.176l-5.324 8.61 5.324 8.654c.834 1.28 1.25 2.642 1.25 4.134a7.5 7.5 0 0 1-1.25 4.178l-5.186 8.524a8.8 8.8 0 0 1-3.426 3.196 9.8 9.8 0 0 1-4.676 1.152h-9.816l-5.232 8.44a8.8 8.8 0 0 1-3.426 3.196 9.8 9.8 0 0 1-4.676 1.15H59.02a9.7 9.7 0 0 1-4.676-1.15 9.14 9.14 0 0 1-3.426-3.196zm36.578-34.1h9.954l5.094-8.524-5.094-8.526h-9.954l-5.232 8.526zm-23.15 12.788h9.722l5.186-8.526-5.186-8.524h-9.722l-5.186 8.524zm0-25.574h9.722l5.326-8.654-5.186-8.396h-9.956l-5.184 8.396 5.324 8.654zm-8.196 4.26L45.78 42.73h-9.816l-5.186 8.526 5.186 8.524h9.816zm0 25.576-5.186-8.524h-9.954l-5.094 8.524 5.186 8.524h9.816l5.186-8.524zm8.196 4.262-5.326 8.61 5.186 8.44h9.956l5.186-8.44-5.326-8.61h-9.722zm23.15 4.262h9.816l5.186-8.524-5.186-8.524h-9.816L77.08 76.83z"/></g><g clip-path="url(#b)"><mask id="c" width="64" height="64" x="64" y="0" maskUnits="userSpaceOnUse" style="mask-type:alpha"><circle cx="96" cy="32" r="32" fill="#d9d9d9"/></mask><g mask="url(#c)"><path fill="url(#d)" d="M112 0H80c-8.837 0-16 7.163-16 16v32c0 8.837 7.163 16 16 16h32c8.837 0 16-7.163 16-16V16c0-8.837-7.163-16-16-16"/><path fill="url(#e)" d="M112 0H80c-8.837 0-16 7.163-16 16v32c0 8.837 7.163 16 16 16h32c8.837 0 16-7.163 16-16V16c0-8.837-7.163-16-16-16"/><mask id="g" width="40" height="40" x="76" y="12" maskUnits="userSpaceOnUse" style="mask-type:luminance"><path fill="#fff" d="M76 12h40v40H76z"/></mask><g filter="url(#f)" mask="url(#g)"><path fill="#fff" d="M84.584 21.792c-.82 0-1.56-.755-1.56-1.59 0-1.925 4.763-3.35 10.184-3.35.491 0 .82 0 .82-.417 0-.753-1.642-1.003-1.642-2.259 0-1.34 1.56-2.176 3.53-2.176 1.972 0 3.535.837 3.535 2.176 0 1.256-1.643 1.422-1.643 2.26 0 .25.246.417.82.417 5.418 0 10.266 1.339 10.266 3.349a1.58 1.58 0 0 1-.451 1.118 1.58 1.58 0 0 1-1.11.47zm24.554 7.611c1.971 1.256 2.71 3.515 2.384 5.608l-2.301 12.634c-.495 2.515-2.631 4.353-5.178 4.353H87.952c-2.544 0-4.68-1.84-5.173-4.352l-2.3-12.635a5.52 5.52 0 0 1 2.467-5.525c1.15-.835 1.392-2.257 0-2.76-1.973-.752-1.564-3.179.408-3.179h11.988c1.888 0 4.19 1.421 4.19 6.024s-2.137 4.184-2.137 7.447c0 1.424 1.15 2.93 2.544 3.099 2.384.25 3.779-.67 3.779-4.016 0-3.434-1.969-5.023-1.969-7.867 0-3.432 2.133-4.772 3.529-4.772h3.452c1.968 0 2.384 2.428.409 3.181-1.395.584-1.152 2.008-.001 2.76"/><path fill="#fff" d="M84.584 21.792c-.82 0-1.56-.755-1.56-1.59 0-1.925 4.763-3.35 10.184-3.35.491 0 .82 0 .82-.417 0-.753-1.642-1.003-1.642-2.259 0-1.34 1.56-2.176 3.53-2.176 1.972 0 3.535.837 3.535 2.176 0 1.256-1.643 1.422-1.643 2.26 0 .25.246.417.82.417 5.418 0 10.266 1.339 10.266 3.349a1.58 1.58 0 0 1-.451 1.118 1.58 1.58 0 0 1-1.11.47zm24.554 7.611c1.971 1.256 2.71 3.515 2.384 5.608l-2.301 12.634c-.495 2.515-2.631 4.353-5.178 4.353H87.952c-2.544 0-4.68-1.84-5.173-4.352l-2.3-12.635a5.52 5.52 0 0 1 2.467-5.525c1.15-.835 1.392-2.257 0-2.76-1.973-.752-1.564-3.179.408-3.179h11.988c1.888 0 4.19 1.421 4.19 6.024s-2.137 4.184-2.137 7.447c0 1.424 1.15 2.93 2.544 3.099 2.384.25 3.779-.67 3.779-4.016 0-3.434-1.969-5.023-1.969-7.867 0-3.432 2.133-4.772 3.529-4.772h3.452c1.968 0 2.384 2.428.409 3.181-1.395.584-1.152 2.008-.001 2.76"/><path stroke="#000" stroke-width=".3" d="M105.277 23.704h3.449c.872 0 1.362.525 1.447 1.102.08.544-.192 1.188-.96 1.548l-.16.067-.008.003c-.776.325-1.139.912-1.101 1.552.037.618.442 1.224 1.062 1.63 1.877 1.196 2.592 3.352 2.277 5.368L108.984 47.6c-.472 2.408-2.514 4.16-4.941 4.16H87.952c-2.422 0-4.464-1.752-4.938-4.155L80.715 34.97a5.28 5.28 0 0 1 2.045-5.061l.315-.218.011-.008c.615-.448 1.018-1.072 1.053-1.686a1.36 1.36 0 0 0-.248-.883 1.76 1.76 0 0 0-.86-.608c-.892-.341-1.207-1.037-1.124-1.616.085-.576.573-1.101 1.447-1.101h11.988c.884 0 1.861.331 2.623 1.203.761.875 1.328 2.318 1.328 4.58 0 1.134-.131 1.946-.323 2.577-.192.63-.448 1.094-.71 1.526-.26.427-.545.848-.753 1.36-.214.523-.352 1.141-.352 1.984 0 .775.312 1.56.803 2.171.49.612 1.18 1.072 1.952 1.167h.005c1.219.128 2.251-.035 2.975-.725.716-.685 1.07-1.834 1.07-3.53 0-1.768-.512-3.06-1.005-4.248-.496-1.188-.966-2.254-.966-3.619 0-3.317 2.04-4.531 3.288-4.531Zm-9.36-11.464c.957 0 1.795.203 2.384.552s.91.822.91 1.384c0 .5-.317.792-.725 1.094-.192.141-.42.296-.592.466-.176.176-.326.4-.326.698 0 .224.118.404.32.515.184.1.437.144.74.144 2.692 0 5.234.334 7.094.91.931.288 1.676.634 2.184 1.02.51.383.747.783.747 1.179v.003a1.34 1.34 0 0 1-1.323 1.344H84.56c-.674-.015-1.296-.648-1.296-1.347 0-.373.23-.76.734-1.144.501-.381 1.237-.732 2.159-1.024 1.838-.59 4.358-.941 7.051-.941q.183 0 .35-.008.167-.006.325-.06a.56.56 0 0 0 .285-.217.64.64 0 0 0 .1-.374c0-.284-.16-.5-.33-.666-.168-.16-.396-.32-.586-.464-.408-.312-.726-.624-.726-1.128 0-.56.323-1.037.908-1.384.59-.349 1.426-.552 2.383-.552Z"/></g></g></g><defs><radialGradient id="d" cx="0" cy="0" r="1" gradientTransform="matrix(38.4 44 -44 38.4 80 15.2)" gradientUnits="userSpaceOnUse"><stop stop-color="#8a7beb"/><stop offset="1" stop-color="#7464e5"/></radialGradient><radialGradient id="e" cx="0" cy="0" r="1" gradientTransform="matrix(0 32 -32 0 96 32)" gradientUnits="userSpaceOnUse"><stop stop-color="#c7c2eb"/><stop offset="1" stop-color="#7464e5"/></radialGradient><clipPath id="a"><path fill="#fff" d="M0 0h128v128H0z"/></clipPath><clipPath id="b"><path fill="#fff" d="M64 0h64v64H64z"/></clipPath><filter id="f" width="39.188" height="47.998" x="76.408" y="6" color-interpolation-filters="sRGB" filterUnits="userSpaceOnUse"><feFlood flood-opacity="0" result="BackgroundImageFix"/><feColorMatrix in="SourceAlpha" result="hardAlpha" values="0 0 0 0 0 0 0 0 0 0 0 0 0 0 0 0 0 0 127 0"/><feOffset dy="-2"/><feGaussianBlur stdDeviation="2"/><feComposite in2="hardAlpha" operator="out"/><feColorMatrix values="0 0 0 0 0.454902 0 0 0 0 0.392157 0 0 0 0 0.898039 0 0 0 0.75 0"/><feBlend in2="BackgroundImageFix" result="effect1_dropShadow_2016_128"/><feBlend in="SourceGraphic" in2="effect1_dropShadow_2016_128" result="shape"/><feColorMatrix in="SourceAlpha" result="hardAlpha" values="0 0 0 0 0 0 0 0 0 0 0 0 0 0 0 0 0 0 127 0"/><feOffset dy=".5"/><feGaussianBlur stdDeviation=".5"/><feComposite in2="hardAlpha" k2="-1" k3="1" operator="arithmetic"/><feColorMatrix values="0 0 0 0 0 0 0 0 0 0 0 0 0 0 0 0 0 0 0.45 0"/><feBlend in2="shape" result="effect2_innerShadow_2016_128"/></filter></defs></svg>
