<svg xmlns="http://www.w3.org/2000/svg" viewBox="0 0 128 128"><circle cx="64" cy="64" r="64" fill="#fef3c7"/><path fill="#d97706" d="M45.734 93.88h-9.816a9.7 9.7 0 0 1-4.676-1.152 9.14 9.14 0 0 1-3.426-3.196l-5.232-8.524a7.4 7.4 0 0 1-1.25-4.178c0-1.534.416-2.856 1.25-4.134l5.324-8.654-5.324-8.61a7.54 7.54 0 0 1-1.25-4.176c0-1.492.416-2.9 1.25-4.178l5.232-8.524a8.8 8.8 0 0 1 3.426-3.198 9.8 9.8 0 0 1 4.676-1.192h9.816l5.186-8.44a8.8 8.8 0 0 1 3.426-3.196 9.8 9.8 0 0 1 4.676-1.194h9.956c1.712 0 3.24.384 4.676 1.194a9.14 9.14 0 0 1 3.426 3.196l5.232 8.44h9.816c1.714 0 3.24.382 4.676 1.192a9.14 9.14 0 0 1 3.426 3.198l5.186 8.524c.834 1.28 1.25 2.644 1.25 4.178s-.416 2.898-1.25 4.176l-5.324 8.61 5.324 8.654c.834 1.28 1.25 2.642 1.25 4.134a7.53 7.53 0 0 1-1.25 4.178l-5.186 8.524a8.8 8.8 0 0 1-3.426 3.196 9.8 9.8 0 0 1-4.676 1.152h-9.816l-5.232 8.44a8.8 8.8 0 0 1-3.426 3.196 9.8 9.8 0 0 1-4.676 1.15H59.02a9.7 9.7 0 0 1-4.676-1.15 9.14 9.14 0 0 1-3.426-3.196zm36.578-34.1h9.954l5.094-8.524-5.094-8.526h-9.954l-5.232 8.526zm-23.15 12.788h9.722l5.186-8.526-5.186-8.524h-9.722l-5.186 8.524zm0-25.574h9.722l5.326-8.654-5.186-8.396h-9.956l-5.184 8.396 5.324 8.654zm-8.196 4.26L45.78 42.73h-9.816l-5.186 8.526 5.186 8.524h9.816zm0 25.576-5.186-8.524h-9.954l-5.094 8.524 5.186 8.524h9.816l5.186-8.524zm8.196 4.262-5.326 8.61 5.186 8.44h9.956l5.186-8.44-5.326-8.61h-9.722zm23.15 4.262h9.816l5.186-8.524-5.186-8.524h-9.816L77.08 76.83z"/><circle cx="64" cy="64" r="64" fill="#d9d9d9" transform="translate(64)scale(.5)"/><path fill="url(#a)" d="M96 0H32C14.327 0 0 14.327 0 32v64c0 17.673 14.327 32 32 32h64c17.673 0 32-14.327 32-32V32c0-17.673-14.327-32-32-32" transform="translate(64)scale(.5)"/><path fill="url(#b)" d="M96 0H32C14.327 0 0 14.327 0 32v64c0 17.673 14.327 32 32 32h64c17.673 0 32-14.327 32-32V32c0-17.673-14.327-32-32-32" transform="translate(64)scale(.5)"/><path fill="#fff" d="M76 12h40v40H76z"/><path fill="#fff" d="M84.584 21.792c-.821 0-1.56-.755-1.56-1.59 0-1.925 4.763-3.351 10.184-3.351.491 0 .819 0 .819-.416 0-.753-1.641-1.003-1.641-2.259 0-1.339 1.56-2.176 3.531-2.176s3.534.837 3.534 2.176c0 1.256-1.643 1.423-1.643 2.259 0 .252.247.418.819.418 5.42 0 10.268 1.339 10.268 3.349a1.574 1.574 0 0 1-1.562 1.589zm24.554 7.611c1.971 1.256 2.71 3.515 2.383 5.608l-2.3 12.634c-.495 2.515-2.63 4.354-5.178 4.354H87.952c-2.544 0-4.68-1.84-5.173-4.352l-2.3-12.635a5.52 5.52 0 0 1 2.466-5.525c1.151-.835 1.393-2.258 0-2.76-1.972-.752-1.562-3.18.409-3.18h11.988c1.889 0 4.19 1.421 4.19 6.024 0 4.604-2.137 4.184-2.137 7.447 0 1.424 1.15 2.931 2.544 3.099 2.384.25 3.78-.67 3.78-4.016 0-3.434-1.97-5.022-1.97-7.867 0-3.432 2.132-4.771 3.53-4.771h3.45c1.968 0 2.384 2.427.41 3.18-1.395.584-1.152 2.008-.002 2.76"/><path fill="#fff" d="M84.584 21.792c-.821 0-1.56-.755-1.56-1.59 0-1.925 4.763-3.351 10.184-3.351.491 0 .819 0 .819-.416 0-.753-1.641-1.003-1.641-2.259 0-1.339 1.56-2.176 3.531-2.176s3.534.837 3.534 2.176c0 1.256-1.643 1.423-1.643 2.259 0 .252.247.418.819.418 5.42 0 10.268 1.339 10.268 3.349a1.574 1.574 0 0 1-1.562 1.589zm24.554 7.611c1.971 1.256 2.71 3.515 2.383 5.608l-2.3 12.634c-.495 2.515-2.63 4.354-5.178 4.354H87.952c-2.544 0-4.68-1.84-5.173-4.352l-2.3-12.635a5.52 5.52 0 0 1 2.466-5.525c1.151-.835 1.393-2.258 0-2.76-1.972-.752-1.562-3.18.409-3.18h11.988c1.889 0 4.19 1.421 4.19 6.024 0 4.604-2.137 4.184-2.137 7.447 0 1.424 1.15 2.931 2.544 3.099 2.384.25 3.78-.67 3.78-4.016 0-3.434-1.97-5.022-1.97-7.867 0-3.432 2.132-4.771 3.53-4.771h3.45c1.968 0 2.384 2.427.41 3.18-1.395.584-1.152 2.008-.002 2.76"/><path stroke="#000" stroke-width=".15" d="M105.277 23.704h3.45c.871 0 1.361.525 1.446 1.103.08.544-.192 1.187-.96 1.547l-.16.067-.008.003c-.776.325-1.14.912-1.101 1.552.037.618.442 1.224 1.063 1.63 1.876 1.195 2.592 3.352 2.276 5.368L108.984 47.6c-.472 2.408-2.513 4.16-4.941 4.16H87.952c-2.422 0-4.464-1.752-4.937-4.155l-2.3-12.635a5.28 5.28 0 0 1 2.045-5.061l.315-.218.012-.008c.614-.448 1.017-1.072 1.052-1.686a1.36 1.36 0 0 0-.248-.883 1.75 1.75 0 0 0-.86-.609c-.892-.34-1.207-1.036-1.124-1.616.085-.576.573-1.1 1.446-1.1h11.99c.882 0 1.86.331 2.622 1.203.761.875 1.328 2.318 1.328 4.581 0 1.132-.132 1.945-.324 2.576-.191.63-.447 1.094-.71 1.526-.259.428-.544.848-.752 1.36-.214.524-.352 1.141-.352 1.984 0 .775.312 1.56.804 2.172.489.61 1.178 1.071 1.951 1.166h.006c1.218.128 2.25-.035 2.973-.725.718-.685 1.071-1.833 1.071-3.53 0-1.767-.512-3.06-1.005-4.247-.496-1.19-.966-2.255-.966-3.62 0-3.316 2.04-4.531 3.288-4.531Zm-9.36-11.464c.957 0 1.795.203 2.384.552s.91.823.91 1.384c0 .499-.316.792-.725 1.095-.191.14-.42.295-.591.465-.176.176-.327.4-.327.698 0 .224.119.405.32.515.184.1.437.144.739.144 2.693 0 5.235.334 7.095.91.931.288 1.677.634 2.184 1.02.51.384.747.784.747 1.179v.003a1.335 1.335 0 0 1-1.323 1.344H84.56c-.673-.015-1.296-.648-1.296-1.347 0-.373.23-.76.735-1.144.5-.381 1.236-.731 2.158-1.024 1.838-.589 4.358-.941 7.051-.941q.183.002.35-.008.167-.005.325-.06a.56.56 0 0 0 .285-.217.65.65 0 0 0 .099-.374c0-.283-.158-.5-.33-.666-.167-.16-.394-.32-.585-.464-.408-.312-.726-.624-.726-1.128 0-.56.323-1.037.908-1.384.59-.349 1.426-.552 2.383-.552Z"/><defs transform="translate(64)scale(.5)"><radialGradient id="a" cx="0" cy="0" r="1" gradientTransform="rotate(48.888 -17.44 50.4)scale(116.8)" gradientUnits="userSpaceOnUse"><stop stop-color="#8a7beb"/><stop offset="1" stop-color="#7464e5"/></radialGradient><radialGradient id="b" cx="0" cy="0" r="1" gradientTransform="rotate(90 0 64)scale(64)" gradientUnits="userSpaceOnUse"><stop stop-color="#c7c2eb"/><stop offset="1" stop-color="#7464e5"/></radialGradient></defs></svg>
