<svg xmlns="http://www.w3.org/2000/svg" viewBox="0 0 192 128"><path fill="#fff" d="M0 0h128v128H0z"/><path d="M128 64.038a63 63 0 0 1-.308 6.257 63.5 63.5 0 0 1-1.611 9.251 65 65 0 0 1-.838 3.02q-.457 1.498-.986 2.975a65 65 0 0 1-2.404 5.787 64 64 0 0 1-8.387 13.2 64.5 64.5 0 0 1-6.496 6.801 65 65 0 0 1-2.38 2.046 62 62 0 0 1-2.478 1.927 63 63 0 0 1-2.57 1.803 63 63 0 0 1-5.388 3.221 64 64 0 0 1-8.613 3.805q-1.48.528-2.983.983a65 65 0 0 1-6.096 1.522 64 64 0 0 1-6.216.919q-1.563.154-3.134.23a63 63 0 0 1-6.283 0 63 63 0 0 1-6.254-.614 64 64 0 0 1-6.163-1.222 65 65 0 0 1-3.029-.835 65 65 0 0 1-5.916-2.11q-1.451-.6-2.873-1.269a64.2 64.2 0 0 1-13.244-8.36 63.5 63.5 0 0 1-6.823-6.475 64 64 0 0 1-3.986-4.842 64 64 0 0 1-6.453-10.73 64 64 0 0 1-3.39-8.761 64 64 0 0 1-1.527-6.077 64 64 0 0 1-1.153-9.32 63 63 0 0 1 0-6.263 63 63 0 0 1 .616-6.233 63 63 0 0 1 1.226-6.143 64 64 0 0 1 1.823-5.995A63.9 63.9 0 0 1 14.474 23.55a65 65 0 0 1 4.22-4.64 64 64 0 0 1 4.657-4.207 65 65 0 0 1 5.046-3.732A64.3 64.3 0 0 1 42.4 3.945a66 66 0 0 1 6.012-1.817A64 64 0 0 1 54.575.906a65 65 0 0 1 6.254-.614 63 63 0 0 1 6.283 0q1.57.076 3.134.23a65 65 0 0 1 6.216.919q1.542.306 3.066.687a65 65 0 0 1 6.013 1.817 64 64 0 0 1 5.806 2.398 64 64 0 0 1 8.196 4.627 64 64 0 0 1 5.047 3.732q1.216.993 2.38 2.047a64 64 0 0 1 4.444 4.428 65 65 0 0 1 3.986 4.841q.935 1.26 1.809 2.562.872 1.302 1.681 2.646a63.5 63.5 0 0 1 4.235 8.388 63 63 0 0 1 2.118 5.897 64 64 0 0 1 1.526 6.076 64 64 0 0 1 .923 6.195 64 64 0 0 1 .308 6.256"/><path fill="#fff" d="M26.534 11.506h54.789v83.056H26.534z"/><path fill="#fff" d="M80.998 11.771c-.723 5.096-2.694 10.233-3.742 15.318-1.078 5.227-1.917 10.508-2.433 15.82a114 114 0 0 0-.453 6.497C55.411 59.583 41.14 83.694 35.468 94.485c-4.583-3.468-8.08-8.121-8.743-14.156-.9-8.186 1.74-16.7 5.41-23.934 6.743-13.3 17.95-24.056 29.828-32.854 5.2-3.855 10.544-7.169 16.211-10.282.925-.506 1.85-1.097 2.823-1.488"/><path fill="url(#a)" d="M25.826 11.771v82.714h55.172V11.77z"/><path fill="#fff" d="M35.185 49.259H95.74V111.1H35.185z"/><path fill="#fff" d="M95.433 110.986c-6.974-.785-13.902-1.944-20.77-3.375-10.487-2.181-21.74-4.365-31.588-8.722-2.664-1.178-5.274-2.635-7.606-4.401 5.673-10.791 19.945-34.902 38.904-45.08-.366 8.47.225 17.002 2.32 25.228 2.38 9.338 6.381 18.253 11.5 26.411a91 91 0 0 0 5.146 7.391c.302.384 1.549 2.489 2.094 2.548"/><path fill="url(#b)" d="M35.47 49.409v61.577h59.963V49.409z"/><defs><linearGradient id="a" x1="15.924" x2="93.111" y1="77.39" y2="32.683" gradientUnits="userSpaceOnUse"><stop stop-color="#012f8a"/><stop offset=".063" stop-color="#012f8a"/><stop offset=".078" stop-color="#012f8a"/><stop offset=".086" stop-color="#01308b"/><stop offset=".094" stop-color="#01318c"/><stop offset=".102" stop-color="#01318d"/><stop offset=".109" stop-color="#01328e"/><stop offset=".117" stop-color="#01338f"/><stop offset=".125" stop-color="#013390"/><stop offset=".133" stop-color="#013491"/><stop offset=".141" stop-color="#013592"/><stop offset=".148" stop-color="#013693"/><stop offset=".156" stop-color="#013694"/><stop offset=".164" stop-color="#013795"/><stop offset=".172" stop-color="#013896"/><stop offset=".18" stop-color="#013897"/><stop offset=".188" stop-color="#013998"/><stop offset=".195" stop-color="#013a99"/><stop offset=".203" stop-color="#013a9a"/><stop offset=".211" stop-color="#013b9b"/><stop offset=".219" stop-color="#013c9c"/><stop offset=".227" stop-color="#013c9d"/><stop offset=".234" stop-color="#013d9d"/><stop offset=".242" stop-color="#013e9e"/><stop offset=".25" stop-color="#013e9f"/><stop offset=".258" stop-color="#013fa0"/><stop offset=".266" stop-color="#0140a1"/><stop offset=".273" stop-color="#0141a2"/><stop offset=".281" stop-color="#0141a3"/><stop offset=".289" stop-color="#0142a4"/><stop offset=".297" stop-color="#0143a5"/><stop offset=".305" stop-color="#0143a6"/><stop offset=".313" stop-color="#0144a7"/><stop offset=".32" stop-color="#0145a8"/><stop offset=".328" stop-color="#0145a9"/><stop offset=".336" stop-color="#0146aa"/><stop offset=".344" stop-color="#0147ab"/><stop offset=".352" stop-color="#0147ac"/><stop offset=".359" stop-color="#0148ad"/><stop offset=".367" stop-color="#0149ae"/><stop offset=".375" stop-color="#014aaf"/><stop offset=".383" stop-color="#014ab0"/><stop offset=".391" stop-color="#014bb1"/><stop offset=".398" stop-color="#014cb2"/><stop offset=".406" stop-color="#014cb2"/><stop offset=".414" stop-color="#014db3"/><stop offset=".422" stop-color="#014eb4"/><stop offset=".43" stop-color="#014eb5"/><stop offset=".438" stop-color="#014fb6"/><stop offset=".445" stop-color="#0150b7"/><stop offset=".453" stop-color="#0150b8"/><stop offset=".461" stop-color="#0151b9"/><stop offset=".465" stop-color="#0152ba"/><stop offset=".469" stop-color="#0152bb"/><stop offset=".477" stop-color="#0153bb"/><stop offset=".484" stop-color="#0153bc"/><stop offset=".492" stop-color="#0154bd"/><stop offset=".5" stop-color="#0155be"/><stop offset=".508" stop-color="#0155bf"/><stop offset=".516" stop-color="#0156c0"/><stop offset=".523" stop-color="#0157c1"/><stop offset=".531" stop-color="#0157c2"/><stop offset=".535" stop-color="#0158c3"/><stop offset=".539" stop-color="#0158c3"/><stop offset=".547" stop-color="#0159c4"/><stop offset=".551" stop-color="#0159c5"/><stop offset=".555" stop-color="#015ac5"/><stop offset=".559" stop-color="#015ac6"/><stop offset=".563" stop-color="#015bc6"/><stop offset=".566" stop-color="#015bc7"/><stop offset=".57" stop-color="#015bc7"/><stop offset=".574" stop-color="#015cc8"/><stop offset=".578" stop-color="#015cc8"/><stop offset=".582" stop-color="#015cc9"/><stop offset=".586" stop-color="#015dc9"/><stop offset=".59" stop-color="#015dca"/><stop offset=".594" stop-color="#015eca"/><stop offset=".598" stop-color="#015ecb"/><stop offset=".602" stop-color="#015ecb"/><stop offset=".605" stop-color="#015fcc"/><stop offset=".609" stop-color="#015fcc"/><stop offset=".613" stop-color="#015fcd"/><stop offset=".617" stop-color="#0160cd"/><stop offset=".621" stop-color="#0160ce"/><stop offset=".625" stop-color="#0160ce"/><stop offset=".629" stop-color="#0161cf"/><stop offset=".633" stop-color="#0161cf"/><stop offset=".637" stop-color="#0162d0"/><stop offset=".641" stop-color="#0162d0"/><stop offset=".645" stop-color="#0162d1"/><stop offset=".648" stop-color="#0163d1"/><stop offset=".652" stop-color="#0163d2"/><stop offset=".656" stop-color="#0163d2"/><stop offset=".66" stop-color="#0164d3"/><stop offset=".664" stop-color="#0164d3"/><stop offset=".668" stop-color="#0165d4"/><stop offset=".672" stop-color="#0165d4"/><stop offset=".676" stop-color="#0165d5"/><stop offset=".68" stop-color="#0166d5"/><stop offset=".684" stop-color="#0166d6"/><stop offset=".688" stop-color="#0166d6"/><stop offset=".691" stop-color="#0167d7"/><stop offset=".695" stop-color="#0167d7"/><stop offset=".699" stop-color="#0168d8"/><stop offset=".703" stop-color="#0168d8"/><stop offset=".707" stop-color="#0168d9"/><stop offset=".711" stop-color="#0169d9"/><stop offset=".715" stop-color="#0169da"/><stop offset=".719" stop-color="#0169da"/><stop offset=".723" stop-color="#016adb"/><stop offset=".727" stop-color="#016adb"/><stop offset=".73" stop-color="#016adc"/><stop offset=".734" stop-color="#016bdc"/><stop offset=".738" stop-color="#016bdd"/><stop offset=".742" stop-color="#016cde"/><stop offset=".746" stop-color="#016cde"/><stop offset=".75" stop-color="#016cdf"/><stop offset=".754" stop-color="#016ddf"/><stop offset=".758" stop-color="#016de0"/><stop offset=".762" stop-color="#016de0"/><stop offset=".766" stop-color="#016ee1"/><stop offset=".77" stop-color="#016ee1"/><stop offset=".773" stop-color="#006fe2"/><stop offset=".777" stop-color="#006fe2"/><stop offset=".781" stop-color="#006fe3"/><stop offset=".785" stop-color="#0070e3"/><stop offset=".789" stop-color="#0070e4"/><stop offset=".793" stop-color="#0070e4"/><stop offset=".797" stop-color="#0071e5"/><stop offset=".801" stop-color="#0071e5"/><stop offset=".805" stop-color="#0072e6"/><stop offset=".809" stop-color="#0072e6"/><stop offset=".813" stop-color="#0072e7"/><stop offset=".816" stop-color="#0073e7"/><stop offset=".82" stop-color="#0073e8"/><stop offset=".824" stop-color="#0073e8"/><stop offset=".828" stop-color="#0074e9"/><stop offset=".832" stop-color="#0074e9"/><stop offset=".836" stop-color="#0074ea"/><stop offset=".84" stop-color="#0075ea"/><stop offset=".844" stop-color="#0075eb"/><stop offset=".848" stop-color="#0076eb"/><stop offset=".852" stop-color="#0076ec"/><stop offset=".855" stop-color="#0076ec"/><stop offset=".859" stop-color="#0077ed"/><stop offset=".863" stop-color="#0077ed"/><stop offset=".867" stop-color="#07e"/><stop offset=".871" stop-color="#0078ee"/><stop offset=".875" stop-color="#0078ef"/><stop offset=".879" stop-color="#0079ef"/><stop offset=".883" stop-color="#0079f0"/><stop offset=".887" stop-color="#0079f0"/><stop offset=".891" stop-color="#007af1"/><stop offset=".895" stop-color="#007af1"/><stop offset=".898" stop-color="#007af2"/><stop offset=".902" stop-color="#007bf2"/><stop offset=".906" stop-color="#007bf3"/><stop offset=".91" stop-color="#007bf3"/><stop offset=".914" stop-color="#007cf4"/><stop offset=".918" stop-color="#007cf4"/><stop offset=".922" stop-color="#007df5"/><stop offset=".926" stop-color="#007df5"/><stop offset=".93" stop-color="#007df6"/><stop offset=".934" stop-color="#007ef6"/><stop offset=".938" stop-color="#007ef7"/><stop offset=".941" stop-color="#007ef7"/><stop offset=".945" stop-color="#007ff8"/><stop offset=".949" stop-color="#007ff8"/><stop offset=".953" stop-color="#0080f9"/><stop offset=".957" stop-color="#0080f9"/><stop offset=".961" stop-color="#0080fa"/><stop offset=".965" stop-color="#0081fa"/><stop offset=".969" stop-color="#0081fb"/><stop offset=".973" stop-color="#0081fb"/><stop offset=".977" stop-color="#0082fc"/><stop offset=".98" stop-color="#0082fc"/><stop offset=".984" stop-color="#0083fd"/><stop offset=".988" stop-color="#0083fd"/><stop offset=".992" stop-color="#0083fe"/><stop offset=".996" stop-color="#0084fe"/><stop offset="1" stop-color="#0084ff"/></linearGradient><linearGradient id="b" x1="35.47" x2="95.432" y1="80.198" y2="80.198" gradientUnits="userSpaceOnUse"><stop stop-color="#2ea7ff"/><stop offset=".008" stop-color="#2ea7ff"/><stop offset=".016" stop-color="#2fa8ff"/><stop offset=".023" stop-color="#30a8ff"/><stop offset=".031" stop-color="#31a9ff"/><stop offset=".039" stop-color="#32aaff"/><stop offset=".047" stop-color="#32aaff"/><stop offset=".055" stop-color="#33abff"/><stop offset=".063" stop-color="#34abff"/><stop offset=".07" stop-color="#35acff"/><stop offset=".078" stop-color="#35adff"/><stop offset=".086" stop-color="#36adff"/><stop offset=".094" stop-color="#37aeff"/><stop offset=".102" stop-color="#38aeff"/><stop offset=".109" stop-color="#39afff"/><stop offset=".117" stop-color="#39afff"/><stop offset=".125" stop-color="#3ab0ff"/><stop offset=".133" stop-color="#3bb1ff"/><stop offset=".141" stop-color="#3cb1ff"/><stop offset=".148" stop-color="#3cb2ff"/><stop offset=".156" stop-color="#3db2ff"/><stop offset=".164" stop-color="#3eb3ff"/><stop offset=".172" stop-color="#3fb3ff"/><stop offset=".18" stop-color="#40b4ff"/><stop offset=".188" stop-color="#40b5ff"/><stop offset=".195" stop-color="#41b5ff"/><stop offset=".203" stop-color="#42b6ff"/><stop offset=".211" stop-color="#43b6ff"/><stop offset=".219" stop-color="#43b7ff"/><stop offset=".227" stop-color="#44b8ff"/><stop offset=".234" stop-color="#45b8ff"/><stop offset=".242" stop-color="#46b9ff"/><stop offset=".25" stop-color="#47b9ff"/><stop offset=".258" stop-color="#47baff"/><stop offset=".266" stop-color="#48baff"/><stop offset=".273" stop-color="#49bbff"/><stop offset=".281" stop-color="#4abcff"/><stop offset=".289" stop-color="#4abcff"/><stop offset=".297" stop-color="#4bbdff"/><stop offset=".305" stop-color="#4cbdff"/><stop offset=".313" stop-color="#4dbeff"/><stop offset=".32" stop-color="#4ebfff"/><stop offset=".328" stop-color="#4ebfff"/><stop offset=".336" stop-color="#4fc0ff"/><stop offset=".344" stop-color="#50c0ff"/><stop offset=".352" stop-color="#51c1ff"/><stop offset=".359" stop-color="#51c1ff"/><stop offset=".367" stop-color="#52c2ff"/><stop offset=".375" stop-color="#53c3ff"/><stop offset=".383" stop-color="#54c3ff"/><stop offset=".391" stop-color="#55c4ff"/><stop offset=".398" stop-color="#55c4ff"/><stop offset=".406" stop-color="#56c5ff"/><stop offset=".414" stop-color="#57c5ff"/><stop offset=".422" stop-color="#58c6ff"/><stop offset=".43" stop-color="#58c7ff"/><stop offset=".438" stop-color="#59c7ff"/><stop offset=".445" stop-color="#5ac8ff"/><stop offset=".453" stop-color="#5bc8ff"/><stop offset=".461" stop-color="#5cc9ff"/><stop offset=".469" stop-color="#5ccaff"/><stop offset=".477" stop-color="#5dcaff"/><stop offset=".484" stop-color="#5ecbff"/><stop offset=".492" stop-color="#5fcbff"/><stop offset=".5" stop-color="#60ccff"/><stop offset=".508" stop-color="#60ccff"/><stop offset=".512" stop-color="#61cdff"/><stop offset=".516" stop-color="#62cdff"/><stop offset=".52" stop-color="#63ceff"/><stop offset=".523" stop-color="#64ceff"/><stop offset=".527" stop-color="#65ceff"/><stop offset=".531" stop-color="#66cfff"/><stop offset=".535" stop-color="#67cfff"/><stop offset=".539" stop-color="#67cfff"/><stop offset=".543" stop-color="#68d0ff"/><stop offset=".547" stop-color="#69d0ff"/><stop offset=".551" stop-color="#6ad0ff"/><stop offset=".555" stop-color="#6bd1ff"/><stop offset=".559" stop-color="#6cd1ff"/><stop offset=".563" stop-color="#6dd1ff"/><stop offset=".566" stop-color="#6ed2ff"/><stop offset=".57" stop-color="#6fd2ff"/><stop offset=".574" stop-color="#70d2ff"/><stop offset=".578" stop-color="#71d2ff"/><stop offset=".582" stop-color="#71d3ff"/><stop offset=".586" stop-color="#72d3ff"/><stop offset=".59" stop-color="#73d3ff"/><stop offset=".594" stop-color="#74d4ff"/><stop offset=".598" stop-color="#75d4ff"/><stop offset=".602" stop-color="#76d4ff"/><stop offset=".605" stop-color="#77d5ff"/><stop offset=".609" stop-color="#78d5ff"/><stop offset=".613" stop-color="#79d5ff"/><stop offset=".617" stop-color="#7ad6ff"/><stop offset=".621" stop-color="#7ad6ff"/><stop offset=".625" stop-color="#7bd6ff"/><stop offset=".629" stop-color="#7cd7ff"/><stop offset=".633" stop-color="#7dd7ff"/><stop offset=".637" stop-color="#7ed7ff"/><stop offset=".641" stop-color="#7fd8ff"/><stop offset=".645" stop-color="#80d8ff"/><stop offset=".648" stop-color="#81d8ff"/><stop offset=".652" stop-color="#82d9ff"/><stop offset=".656" stop-color="#83d9ff"/><stop offset=".66" stop-color="#83d9ff"/><stop offset=".664" stop-color="#84daff"/><stop offset=".668" stop-color="#85daff"/><stop offset=".672" stop-color="#86daff"/><stop offset=".676" stop-color="#87daff"/><stop offset=".68" stop-color="#88dbff"/><stop offset=".684" stop-color="#89dbff"/><stop offset=".688" stop-color="#8adbff"/><stop offset=".691" stop-color="#8bdcff"/><stop offset=".695" stop-color="#8cdcff"/><stop offset=".699" stop-color="#8cdcff"/><stop offset=".703" stop-color="#8dddff"/><stop offset=".707" stop-color="#8eddff"/><stop offset=".711" stop-color="#8fddff"/><stop offset=".715" stop-color="#90deff"/><stop offset=".719" stop-color="#91deff"/><stop offset=".723" stop-color="#92deff"/><stop offset=".727" stop-color="#93dfff"/><stop offset=".73" stop-color="#94dfff"/><stop offset=".734" stop-color="#95dfff"/><stop offset=".738" stop-color="#96e0ff"/><stop offset=".742" stop-color="#96e0ff"/><stop offset=".746" stop-color="#97e0ff"/><stop offset=".75" stop-color="#98e1ff"/><stop offset=".754" stop-color="#99e1ff"/><stop offset=".758" stop-color="#9ae1ff"/><stop offset=".762" stop-color="#9be2ff"/><stop offset=".766" stop-color="#9ce2ff"/><stop offset=".77" stop-color="#9de2ff"/><stop offset=".773" stop-color="#9ee2ff"/><stop offset=".777" stop-color="#9fe3ff"/><stop offset=".781" stop-color="#9fe3ff"/><stop offset=".785" stop-color="#a0e3ff"/><stop offset=".789" stop-color="#a1e4ff"/><stop offset=".793" stop-color="#a2e4ff"/><stop offset=".797" stop-color="#a3e4ff"/><stop offset=".801" stop-color="#a4e5ff"/><stop offset=".805" stop-color="#a5e5ff"/><stop offset=".809" stop-color="#a6e5ff"/><stop offset=".813" stop-color="#a7e6ff"/><stop offset=".816" stop-color="#a8e6ff"/><stop offset=".82" stop-color="#a8e6ff"/><stop offset=".824" stop-color="#a9e7ff"/><stop offset=".828" stop-color="#aae7ff"/><stop offset=".832" stop-color="#abe7ff"/><stop offset=".836" stop-color="#ace8ff"/><stop offset=".84" stop-color="#ade8ff"/><stop offset=".844" stop-color="#aee8ff"/><stop offset=".848" stop-color="#afe9ff"/><stop offset=".852" stop-color="#b0e9ff"/><stop offset=".855" stop-color="#b1e9ff"/><stop offset=".859" stop-color="#b1e9ff"/><stop offset=".863" stop-color="#b2eaff"/><stop offset=".867" stop-color="#b3eaff"/><stop offset=".871" stop-color="#b4eaff"/><stop offset=".875" stop-color="#b5ebff"/><stop offset=".879" stop-color="#b6ebff"/><stop offset=".883" stop-color="#b7ebff"/><stop offset=".887" stop-color="#b8ecff"/><stop offset=".891" stop-color="#b9ecff"/><stop offset=".895" stop-color="#baecff"/><stop offset=".898" stop-color="#bbedff"/><stop offset=".902" stop-color="#bbedff"/><stop offset=".906" stop-color="#bcedff"/><stop offset=".91" stop-color="#bdeeff"/><stop offset=".914" stop-color="#beeeff"/><stop offset=".918" stop-color="#bfeeff"/><stop offset=".922" stop-color="#c0efff"/><stop offset=".926" stop-color="#c1efff"/><stop offset=".93" stop-color="#c2efff"/><stop offset=".934" stop-color="#c3f0ff"/><stop offset=".938" stop-color="#c4f0ff"/><stop offset=".941" stop-color="#c4f0ff"/><stop offset=".945" stop-color="#c5f1ff"/><stop offset=".949" stop-color="#c6f1ff"/><stop offset=".953" stop-color="#c7f1ff"/><stop offset=".957" stop-color="#c8f1ff"/><stop offset=".961" stop-color="#c9f2ff"/><stop offset=".965" stop-color="#caf2ff"/><stop offset=".969" stop-color="#cbf2ff"/><stop offset=".973" stop-color="#ccf3ff"/><stop offset=".977" stop-color="#cdf3ff"/><stop offset=".98" stop-color="#cdf3ff"/><stop offset=".984" stop-color="#cef4ff"/><stop offset=".988" stop-color="#cff4ff"/><stop offset=".992" stop-color="#d0f4ff"/><stop offset=".996" stop-color="#d1f5ff"/><stop offset="1" stop-color="#d2f5ff"/></linearGradient></defs><circle cx="64" cy="64" r="64" fill="#111" transform="translate(64)"/><circle cx="64" cy="64" r="64" fill="url(#_usde)" fill-opacity=".7" transform="translate(64)"/><path fill="none" stroke="url(#_usde-b)" stroke-width="2.3" d="M64.016 1.16C29.3 1.16 1.16 29.3 1.16 64.016s28.14 62.856 62.856 62.856 62.856-28.14 62.856-62.856S98.732 1.16 64.016 1.16Z" transform="translate(64)"/><path fill="#fff" d="M117.96 12.281c-24.273 4.674-42.614 26.045-42.614 51.67 0 25.626 18.341 46.997 42.613 51.671v-4.931c-21.596-4.61-37.778-23.789-37.778-46.74 0-22.95 16.182-42.129 37.778-46.738zm20.113 4.964v-4.932c24.24 4.706 42.516 26.045 42.516 51.639 0 25.593-18.276 46.932-42.516 51.638v-4.932c21.532-4.641 37.681-23.788 37.681-46.706s-16.149-42.065-37.681-46.707"/><path fill="#fff" d="M135.462 62.211c4.03.774 7.124 2.256 9.348 4.416 2.224 2.127 3.32 4.867 3.32 8.187v5.255c0 3.996-1.45 7.22-4.32 9.67-2.868 2.417-6.672 3.61-11.346 3.61h-1.611v8.348h-5.544v-8.348H123.6c-3.094 0-5.802-.677-8.187-2.063-2.353-1.418-4.223-3.385-5.544-5.899-1.29-2.579-1.934-5.512-1.934-8.864h5.544c0 3.384.934 6.156 2.772 8.284 1.902 2.063 4.416 3.126 7.478 3.126h8.574q4.545 0 7.35-2.127c1.837-1.483 2.772-3.384 2.772-5.737v-5.255c0-1.87-.71-3.449-2.096-4.77-1.353-1.322-3.19-2.16-5.544-2.547l-13.892-2.45c-3.9-.709-6.963-2.191-9.123-4.415-2.16-2.257-3.255-5.061-3.255-8.446V47.77c0-3.997 1.386-7.156 4.158-9.509 2.836-2.417 6.575-3.61 11.185-3.61h1.386v-8.348h5.544v8.348h1.773c4.384 0 7.897 1.418 10.573 4.255 2.675 2.772 4.029 6.479 4.029 11.056h-5.544c0-2.998-.838-5.415-2.482-7.22q-2.466-2.708-6.576-2.708h-8.735c-2.934 0-5.287.71-7.027 2.128-1.74 1.354-2.611 3.223-2.611 5.576v4.416q0 2.853 1.934 4.835c1.354 1.322 3.159 2.192 5.48 2.611z"/><defs transform="translate(64)"><radialGradient id="_usde" cx="0" cy="0" r="1" gradientTransform="matrix(0 132.529 -93.2872 0 64.088 19.482)" gradientUnits="userSpaceOnUse"><stop offset=".031" stop-color="#3a3a3a"/><stop offset="1" stop-color="#1c1c1c"/></radialGradient><linearGradient id="_usde-b" x1="64.008" x2="64.008" y1="0" y2="128.016" gradientUnits="userSpaceOnUse"><stop stop-color="#fff"/><stop offset="1" stop-color="#111"/></linearGradient></defs></svg>
