<svg xmlns="http://www.w3.org/2000/svg" viewBox="0 0 128 128"><path fill="#0a0a0a" d="M128 64c0 35.348-28.652 64-64 64S0 99.348 0 64 28.652 0 64 0s64 28.652 64 64"/><path fill="url(#_sir_a)" d="M127.75 64C127.75 28.792 99.208.25 64 .25S.25 28.792.25 64 28.792 127.75 64 127.75v.25C28.652 128 0 99.348 0 64S28.652 0 64 0s64 28.652 64 64-28.652 64-64 64v-.25c35.208 0 63.75-28.542 63.75-63.75"/><path fill="url(#_sir_b)" d="M64 119.775c30.802 0 55.775-24.973 55.775-55.775S94.802 8.225 64 8.225 8.225 33.198 8.225 64 33.198 119.775 64 119.775"/><path d="M45.573 33.158a3.08 3.08 0 0 1 3.072-3.085h6.153c.815 0 1.597.324 2.172.904s.9 1.363.9 2.18v6.148c0 .817.325 1.602.9 2.182a3.06 3.06 0 0 0 2.172.905h6.086a3.085 3.085 0 0 0 3.075-3.087v-6.148a3.08 3.08 0 0 1 3.072-3.084h6.148a3.07 3.07 0 0 1 2.175.904c.576.58.9 1.363.9 2.18v6.173a3.1 3.1 0 0 1-.9 2.183 3.1 3.1 0 0 1-2.175.904H73.2a3.085 3.085 0 0 0-3.075 3.087v6.149c0 .817-.324 1.602-.9 2.182a3.07 3.07 0 0 1-2.173.905H60.9a3.06 3.06 0 0 1-2.172-.905 3.1 3.1 0 0 1-.9-2.18v-6.148a3.1 3.1 0 0 0-.9-2.182 3.07 3.07 0 0 0-2.176-.905h-6.124a3.06 3.06 0 0 1-2.173-.905 3.1 3.1 0 0 1-.9-2.18v-6.172h.015v-.005zm-3.076 46.254a3.085 3.085 0 0 1-3.072 3.085h-6.153a3.06 3.06 0 0 1-2.172-.905 3.1 3.1 0 0 1-.9-2.18v-6.175a3.085 3.085 0 0 1 3.075-3.084H39.4a3.06 3.06 0 0 0 2.173-.905c.577-.58.9-1.365.9-2.183v-6.108a3.09 3.09 0 0 0-1.897-2.848 3.1 3.1 0 0 0-1.176-.236h-6.125a3.06 3.06 0 0 1-2.172-.905 3.1 3.1 0 0 1-.903-2.183V48.61a3.1 3.1 0 0 1 1.899-2.852 3.1 3.1 0 0 1 1.176-.236h6.152a3.06 3.06 0 0 1 2.173.905c.577.58.9 1.365.9 2.183v6.145c0 .818.324 1.602.9 2.182a3.06 3.06 0 0 0 2.173.905h6.124a3.06 3.06 0 0 1 2.173.905c.576.58.9 1.364.9 2.18V67.1a3.08 3.08 0 0 1-3.073 3.085h-6.124a3.06 3.06 0 0 0-2.173.905c-.576.58-.9 1.364-.9 2.182v-.012 6.15zm39.926 15.43a3.1 3.1 0 0 1-.9 2.183 3.07 3.07 0 0 1-2.175.903h-6.153a3.06 3.06 0 0 1-2.172-.906 3.08 3.08 0 0 1-.9-2.18v-6.147a3.085 3.085 0 0 0-3.075-3.087h-6.085c-.815 0-1.598.324-2.173.905-.576.58-.9 1.363-.9 2.18v6.147a3.085 3.085 0 0 1-3.072 3.085h-6.153a3.06 3.06 0 0 1-2.172-.905 3.08 3.08 0 0 1-.9-2.18v-6.175c0-.817.324-1.602.9-2.183a3.1 3.1 0 0 1 2.172-.905h6.125c.815 0 1.597-.324 2.173-.905.577-.58.9-1.364.9-2.182v-6.147c0-.818.325-1.603.9-2.183a3.1 3.1 0 0 1 2.172-.905h6.152a3.084 3.084 0 0 1 3.073 3.088v6.147a3.085 3.085 0 0 0 3.072 3.087h6.125a3.06 3.06 0 0 1 2.173.905c.576.58.9 1.364.9 2.18v6.175h-.013zm15.374-40.067a3.09 3.09 0 0 1-1.895 2.849 3.1 3.1 0 0 1-1.177.236H88.6a3.06 3.06 0 0 0-2.173.905 3.1 3.1 0 0 0-.9 2.18v6.107c0 .818.326 1.603.9 2.183a3.06 3.06 0 0 0 2.173.905h6.125c.815 0 1.598.325 2.173.905s.899 1.363.9 2.18V79.4a3.1 3.1 0 0 1-.9 2.182 3.07 3.07 0 0 1-2.173.906h-6.15a3.06 3.06 0 0 1-2.172-.906 3.1 3.1 0 0 1-.9-2.182v-6.147a3.1 3.1 0 0 0-.9-2.183 3.1 3.1 0 0 0-2.173-.905h-6.125a3.06 3.06 0 0 1-2.173-.905 3.08 3.08 0 0 1-.9-2.18v-6.175a3.083 3.083 0 0 1 3.076-3.085h6.124a3.06 3.06 0 0 0 2.173-.905c.576-.58.9-1.365.9-2.183v-6.147c0-.818.324-1.602.9-2.182a3.06 3.06 0 0 1 2.173-.905h6.15c.815 0 1.597.324 2.172.905.576.58.9 1.364.9 2.182v6.19z"/><defs><linearGradient id="_sir_a" x1="64" x2="64" y1="0" y2="128" gradientUnits="userSpaceOnUse"><stop stop-color="#272727" stop-opacity=".49"/><stop offset="1" stop-opacity="0"/></linearGradient><linearGradient id="_sir_b" x1="201.738" x2="-52.776" y1="62.196" y2="65.554" gradientUnits="userSpaceOnUse"><stop stop-color="#f8f29c"/><stop offset=".17" stop-color="#f6db2a"/><stop offset=".33" stop-color="#f4a435"/><stop offset=".55" stop-color="#e85a46"/><stop offset=".7" stop-color="#b93483"/><stop offset=".87" stop-color="#502b6e"/><stop offset="1" stop-color="#2a2136"/></linearGradient></defs></svg>
