<svg xmlns="http://www.w3.org/2000/svg" viewBox="0 0 128 128"><circle cx="64" cy="64" r="64" fill="#8177ff"/><path fill="#eff3f2" d="M59.238 54.353V28.845h-12.66c-4.35 7.296-7.194 15.787-8.591 25.508zm9.559 0V28.845h12.66c4.35 7.296 7.194 15.787 8.591 25.508zm37.242 11.922q-1.719 12.591-6.814 20.905c-1.764 3.563-4.36 6.509-7.74 8.895q-.905.63-1.85 1.198-9.108 6.07-23.038 6.07-.926 0-1.832-.02-.915.02-1.85.02-17.196 0-27.943-9.968c-7.165-6.749-11.465-15.678-13.076-26.892H37.12v18.066h53.553V66.275z"/></svg>
