<svg width="400" height="400" viewBox="0 0 400 400" fill="none" xmlns="http://www.w3.org/2000/svg">
<rect width="400" height="400" rx="200" fill="#8177FF"/>
<path d="M185.12 169.852V90.1413H145.557C131.963 112.941 123.076 139.475 118.709 169.852H185.12Z" fill="#EFF3F2"/>
<path d="M214.99 169.852V90.1414H254.552C268.146 112.941 277.033 139.475 281.4 169.852H214.99Z" fill="#EFF3F2"/>
<path d="M331.372 207.109C327.791 233.342 320.695 255.117 310.077 272.439C304.567 283.571 296.454 292.778 285.888 300.234C284.02 301.539 282.092 302.786 280.108 303.977C261.13 316.622 237.14 322.947 208.114 322.947C206.185 322.947 204.278 322.925 202.392 322.885C200.485 322.925 198.557 322.947 196.607 322.947C160.783 322.947 131.676 312.564 109.286 291.797C86.8957 270.707 73.4613 242.802 68.4235 207.758H116.003V264.216H283.357V207.109H331.372Z" fill="#EFF3F2"/>
</svg>
