<svg xmlns="http://www.w3.org/2000/svg" viewBox="0 0 128 128"><circle cx="64" cy="64" r="64" fill="#014518"/><circle cx="64" cy="64" r="56" fill="#fff"/><path fill="#014518" d="M66.65 23.67c.419-.064.892.028 1.3.136.404.208.708.646 1.038.957l.022.707c.22-.181.444-.36.662-.546.516.069.892.303 1.323.566.64.232 1.313.322 1.936.618.61.291 1.256.44 1.906.61.489.119.903.565 1.283.881.544.415.67 1.218.937 1.836 1.093.446 2.173.872 3.319 1.175.607.15.983.617 1.201 1.178.316.8.736 1.543 1.49 2.006.968.583 1.942 1.157 2.912 1.74.874.489 1.383 1.595 2.19 2.136.512.187 1.084.217 1.595.408.616.418 1.052 1.205 1.81 1.531.683.293 1.476.35 2.198.53.411.817.944 1.59 1.283 2.44-.416.346-.894.644-1.346.941-.298.184-.565.387-.929.398-.949.042-1.902-.016-2.853.01-.57-.015-1.082.49-1.653.571-.72.11-1.43.107-2.145.268-.537.12-1.133.085-1.686.088-1.168-.013-2.335.009-3.503-.003-1.007.01-2.014-.925-2.996-.65-.884.067-1.585 1.001-2.354 1.224-1.316.115-2.646.07-3.962.212a2.4 2.4 0 0 0-1.269.657q-.957.959-1.912 1.919c-1.147-.067-2.279-.241-3.424-.325-.11.598-.213 1.195-.352 1.788a2 2 0 0 0-.367.176c-.284.85-.394 1.78-.39 2.672.645.556 1.126 1.24 1.712 1.842.862-.108 1.71-.386 2.548-.609.73-.127 1.037-1.114 1.656-1.466 1.245-.676 2.705-1.127 4.128-1.114.544-.01 1.068.142 1.606.158.44-.17.844-.454 1.245-.7.702.086 1.055.17 1.534.712.118-.286.222-.596.39-.857.296-.311.68-.548 1.033-.79.683-.46 1.417-.542 2.02-1.13.465-.387.868-.925 1.482-1.043.806-.204 1.616-.41 2.43-.577 1.31-.235 2.458.03 3.742.22.807.1 1.594.57 2.35.885.517.243 1.096.424 1.57.744.317.316.493.795.66 1.203.727.293.89 1.054 1.586 1.377 1.406.675 2.746 1.464 4.108 2.223.539.318 1.111.32 1.722.418.363.414.774.809 1.079 1.268.04.26-.045.548-.073.81-.738.247-1.395.535-2.186.567-1.218.033-2.438-.012-3.656.021-.208.117-.428.295-.668.337-.769.011-1.398-.4-2.168-.358-1.56-.004-3.131.303-4.657.589-1.19.168-2.046-.744-3.17-.486-.663.075-1.206.381-1.787.68-.68-.22-1.348-.539-2.04-.705-.626.165-1.157.423-1.833.351-1.238.01-1.927-.769-2.957-1.248-.426-.178-.88-.693-1.01-1.125.096-.603.297-1.18.389-1.785-.737.233-1.471.495-2.252.536-.57.002-1.143-.111-1.708-.181-.336.336-.722.669-.988 1.063-.47.723-.774 1.557-1.269 2.26-.366.345-.893.535-1.32.798-.445.243-.767.592-1.12.947.119.712.079 1.363.46 1.98.486.868 1.132 1.798 1.996 2.322.95.606 1.892 1.225 2.84 1.836.363.22.545.556.756.907.513.889 1.065 1.691 1.355 2.69.724-.047 1.448-.097 2.174-.133.313-.032.624-.01.893-.19 1.716-1.142 3.25-2.507 4.687-3.981.748-.127 1.498-.213 2.245-.33.64-.08 1.265-.47 1.866-.706.658-.282 1.38-.394 2.036-.674.168-.144.276-.372.404-.554.308-.534.864-.947 1.343-1.33.308-.256.79-.28 1.172-.367 1.202-.197 2.257-.663 3.412-1.019.374-.117.789-.17 1.177-.106.34.212.574.632.83.938.628.014 1.278-.05 1.9.042.97.376 1.852.973 2.83 1.345.49.183.994.332 1.49.497.083.503.048 1.127.275 1.58 1.198 1.348 2.633 2.501 4.061 3.6.389.301.828.492 1.256.729.571.316.987.958 1.503 1.354.524.24 1.157.232 1.686.46.706.56.687 1.251.792 2.075-.449.302-.873.664-1.354.912-.939.292-2.076.202-3.051.217-1.67-.027-3.334.015-4.995.188-.531.083-.939.36-1.49.354-1.501.004-3.004-.001-4.505.004-.75.03-1.3-.423-1.989-.528-.959-.023-1.92.16-2.878.148-.53-.3-.845-.749-1.486-.845a51 51 0 0 1-4.16-.99c-1.02-.209-1.93-.851-2.882-1.325-1.055-.575-2.04-1.104-3.284-.8-.774.94-1.646 1.825-2.318 2.842-1.115.006-2.232.001-3.347.001-.208.698-.46 1.35-.826 1.981-.62 1.084-.972 2.119-1.817 3.01-.862 1.1-2.05 1.823-2.921 2.91-.316.381-.74.743-.955 1.192-.102.767-.022 1.571-.042 2.347.999.665 1.907 1.63 3.032 1.987 2.16.792 4.265 1.714 6.365 2.648.597.283 1.223.278 1.87.328.835.045 1.663.148 2.497.184.516.029 1.002.04 1.463.302 1.125.589 2.249 1.181 3.379 1.762.754.381 1.356.907 2.04 1.42q.094.658.19 1.311l-.566.768-.942.001c.055 1.374-.095 2.735-.393 4.073-.233.534-.579 1.049-.928 1.515-1.074 1.131-2.26 2.085-3.763 2.576-.064.601-.115 1.203-.2 1.801q-.644.189-1.29.364c-.163.383-.311.774-.496 1.147-.103.21-.225.38-.483.376-.853.035-1.71-.005-2.566.015a23 23 0 0 1-.64-.635q.004-.543.004-1.086c-8.202.09-16.407.129-24.61.167a2.5 2.5 0 0 0-.462.048c-.276.405-.39.919-.659 1.333a.43.43 0 0 1-.358.158c-.857.037-1.716-.015-2.573.027-.14-.16-.314-.315-.411-.504-.072-.341-.048-.708-.062-1.055-.409-.059-.855-.072-1.25-.209-.524-.476-.459-1.23-.587-1.87-1.07-.703-2.214-1.333-3.21-2.137-.452-.346-.6-.81-.853-1.297-.32-.676-.764-1.365-.805-2.127-.029-.837.005-1.674-.01-2.511a85 85 0 0 0-1.114-.139c-.51-.607-.37-1.203-.374-1.939.552-.464 1.077-.937 1.726-1.268 1.266-.67 2.514-1.375 3.781-2.047.73-.43 1.546-.286 2.404-.391 1.268-.155 2.67-.073 3.856-.501q1.767-.572 3.548-1.095c.453-.143.939-.28 1.348-.525.212-.346.333-.74.545-1.09.436-.717.978-1.37 1.421-2.082.223-.331.156-.844.185-1.228.043-1.248.02-2.653.203-3.875 1.181-1.528 2.7-2.88 4.047-4.272.517-.548 1.084-1.025 1.661-1.503.272-.26.645-.583.576-.997-.044-1.476-.595-2.993-1.038-4.399-.756-.225-1.581-.596-2.37-.574q-1.916.003-3.832.003c-1.15-.874-2.276-1.779-3.431-2.648-.493.107-1.01.13-1.434.395-.529.307-1.043.639-1.577.938-.55-.116-1.07-.263-1.566-.532-.633-.355-1.483-.315-2.124.005-1.027.476-2.059.943-3.09 1.416-.559.291-1.306.203-1.927.198-.597-.015-1.086-.418-1.656-.304-.456.053-.955.11-1.37.308-.31.131-.624.332-.956.389-.668.052-1.344-.015-2.013.018-.454 0-.873.365-1.318.351-.724-.016-1.444-.106-2.169-.134-.755-.017-1.276-.416-1.973-.615-.893-.23-1.775-.168-2.687-.178-.947-.008-1.895.082-2.84.148-.387.017-.642.232-.965.417-1.62-.242-3.165-.81-4.77-1.149-.91-.175-1.442-.797-2.178-1.321l.21-.753.572-.23c.162-.645.175-1.56.71-2.013.206-.206.424-.446.685-.58.699-.138 1.566-.016 2.223-.277.9-.734 1.4-1.984 2.404-2.697.596-.32 1.415-.387 1.959-.818.725-.553 1.448-1.094 2.073-1.763.675-.706 1.434-1.36 2.03-2.132.406-.496.49-1.097.667-1.701.504-.474 1.022-.594 1.657-.799.606-.746 1.345-1.237 2.207-1.643.695-.228 1.382-.296 1.994-.742.803.043 1.602.12 2.404.181q.466-.373.94-.742l.732.158.024-.358q.643.098 1.291.175l.443.39c.563.011 1.069-.067 1.574.238.972.574 2.058.447 3.065.928 1.266.496 2.58 1.357 2.912 2.767.836.264 1.691.429 2.533.654.54.128.896.51 1.33.837.117.506.221 1.015.36 1.514.084.312.394.57.615.793.611.622 1.49.817 2.194 1.298.358.266.666.61.985.922l.01.757c-.38.451-.76.9-1.153 1.338-.949.082-1.91.112-2.854.223-.435.082-.137.546-.002.774.636.641 1.528 1.009 2.167 1.661.454.403.724.917 1.41.874 1.208.107 2.087-.424 3.215-.756-.023-.32.012-.682-.1-.985-.34-.7-.902-1.306-1.206-2.024-.232-1.216-.015-2.634-.39-3.823-.213-.755-.388-1.528-.637-2.273-.197-.581-.501-1.139-.65-1.734-.074-.768-.023-1.552-.013-2.322 1.197-1.026 2.46-2.006 3.542-3.154-.314-.198-.68-.566-1.068-.56-1.227-.046-2.455-.071-3.684-.098-.394-.016-.86.03-1.216-.166-.738-.398-1.412-.917-2.156-1.302-.186-.101-.459-.021-.659.012-.817.175-1.616.682-2.388.964-.45.101-.944.051-1.403.066-.401-.018-.758.048-1.117-.153-.75-.423-1.71-.388-2.555-.634-.574-.17-1.147-.215-1.732-.068-.623.158-1.267.175-1.891.316-.266.131-.498.346-.73.528-.836-.085-1.625-.372-2.457-.465-1.219-.166-2.49-.27-3.675-.599-.436-.087-.766-.543-1.08-.835.141-.926.848-1.264 1.273-2.018a2.93 2.93 0 0 1 1.286-1.178c.721-.113 1.46-.108 2.184-.208.627-.693 1.232-1.415 1.906-2.06.677-.553 1.424-1.02 2.122-1.547.682-.53 1.53-.642 2.17-1.241.421-.089.904-.105 1.298-.265.446-.385.786-.892 1.199-1.313a9.4 9.4 0 0 1 1.767-1.387c.526-.298.75-.862 1.318-1.105.005-.582.005-1.165-.011-1.747.145-.19.288-.388.454-.561.586-.155 1.223-.135 1.826-.192.126-.32.256-.64.381-.962.47-.123.967-.2 1.416-.378.463-.236.794-.86 1.329-.938.888-.16 1.794-.23 2.688-.365q.39-.472.779-.948c.56-.002 1.126-.029 1.685.005.545.026 1.09.634 1.637.489.704-.143 1.436-.168 2.127-.351.384-.228.692-.581 1.062-.832"/></svg>
