<svg xmlns="http://www.w3.org/2000/svg" viewBox="0 0 192 128"><path fill="url(#_sol-a)" d="m127.331 96.884-21.13 22.561a4.92 4.92 0 0 1-3.578 1.555H2.454a2.453 2.453 0 0 1-2.414-2.855c.08-.469.293-.904.615-1.254l21.104-22.56a4.9 4.9 0 0 1 3.578-1.555h100.169a2.45 2.45 0 0 1 2.285 1.45 2.425 2.425 0 0 1-.46 2.658m-21.13-45.446a4.96 4.96 0 0 0-3.578-1.555H2.454a2.46 2.46 0 0 0-2.25 1.468 2.44 2.44 0 0 0 .451 2.64L21.76 76.569a4.96 4.96 0 0 0 3.578 1.555h100.169a2.454 2.454 0 0 0 2.403-2.858 2.44 2.44 0 0 0-.614-1.25zM2.454 35.23h100.169a4.93 4.93 0 0 0 3.578-1.555l21.13-22.566a2.438 2.438 0 0 0-1.825-4.108H25.336a4.93 4.93 0 0 0-3.577 1.554L.655 31.122a2.442 2.442 0 0 0 1.8 4.108"/><defs><linearGradient id="_sol-a" x1="10.804" x2="115.344" y1="123.724" y2="5.369" gradientUnits="userSpaceOnUse"><stop offset=".08" stop-color="#9945ff"/><stop offset=".3" stop-color="#8752f3"/><stop offset=".5" stop-color="#5497d5"/><stop offset=".6" stop-color="#43b4ca"/><stop offset=".72" stop-color="#28e0b9"/><stop offset=".97" stop-color="#19fb9b"/></linearGradient></defs><circle cx="64" cy="64" r="64" fill="#fef3c7" transform="translate(64)"/><path fill="#d97706" d="M109.734 93.88h-9.816a9.7 9.7 0 0 1-4.676-1.152 9.14 9.14 0 0 1-3.426-3.196l-5.232-8.524a7.4 7.4 0 0 1-1.25-4.178c0-1.534.416-2.856 1.25-4.134l5.324-8.654-5.324-8.61a7.54 7.54 0 0 1-1.25-4.176c0-1.492.416-2.9 1.25-4.178l5.232-8.524a8.8 8.8 0 0 1 3.426-3.198 9.8 9.8 0 0 1 4.676-1.192h9.816l5.186-8.44a8.8 8.8 0 0 1 3.426-3.196 9.8 9.8 0 0 1 4.676-1.194h9.956c1.712 0 3.24.384 4.676 1.194a9.14 9.14 0 0 1 3.426 3.196l5.232 8.44h9.816c1.714 0 3.24.382 4.676 1.192a9.14 9.14 0 0 1 3.426 3.198l5.186 8.524c.834 1.28 1.25 2.644 1.25 4.178s-.416 2.898-1.25 4.176l-5.324 8.61 5.324 8.654c.834 1.28 1.25 2.642 1.25 4.134a7.53 7.53 0 0 1-1.25 4.178l-5.186 8.524a8.8 8.8 0 0 1-3.426 3.196 9.8 9.8 0 0 1-4.676 1.152h-9.816l-5.232 8.44a8.8 8.8 0 0 1-3.426 3.196 9.8 9.8 0 0 1-4.676 1.15h-9.958a9.7 9.7 0 0 1-4.676-1.15 9.14 9.14 0 0 1-3.426-3.196zm36.578-34.1h9.954l5.094-8.524-5.094-8.526h-9.954l-5.232 8.526zm-23.15 12.788h9.722l5.186-8.526-5.186-8.524h-9.722l-5.186 8.524zm0-25.574h9.722l5.326-8.654-5.186-8.396h-9.956l-5.184 8.396 5.324 8.654zm-8.196 4.26-5.186-8.524h-9.816l-5.186 8.526 5.186 8.524h9.816zm0 25.576-5.186-8.524h-9.954l-5.094 8.524 5.186 8.524h9.816l5.186-8.524zm8.196 4.262-5.326 8.61 5.186 8.44h9.956l5.186-8.44-5.326-8.61h-9.722zm23.15 4.262h9.816l5.186-8.524-5.186-8.524h-9.816l-5.232 8.524z"/></svg>
