<svg width="128" height="128" viewBox="0 0 128 128" fill="none" xmlns="http://www.w3.org/2000/svg">
<g clip-path="url(#clip0_11142_575)">
<path d="M126.084 79.4824C117.535 113.768 82.8057 134.634 48.5121 126.084C14.2325 117.536 -6.63578 82.8083 1.91712 48.5247C10.462 14.235 45.1918 -6.63274 79.4754 1.91517C113.767 10.4631 134.633 45.1947 126.084 79.4824Z" fill="url(#paint0_linear_11142_575)"/>
<path fill-rule="evenodd" clip-rule="evenodd" d="M74.7813 29.4092C75.3531 27.275 77.5468 26.0085 79.6809 26.5804C81.8151 27.1522 83.0816 29.3459 82.5098 31.48L80.8152 37.8043L81.8661 38.0859C89.4327 40.1133 93.9231 47.8909 91.8956 55.4575L91.8015 55.8088C90.2207 61.7085 85.0522 65.6888 79.2723 66.0314L79.271 66.0363L79.179 66.0369L79.1721 66.037L79.1437 66.0384C78.7229 66.073 78.6443 66.6786 79.0639 66.8092L79.0633 66.8115C86.3456 69.6952 90.4688 77.6446 88.3926 85.3933C86.1571 93.736 77.5819 98.6869 69.2393 96.4515L66.7833 95.7934L65.0892 102.116C64.5174 104.25 62.3237 105.517 60.1895 104.945C58.0554 104.373 56.7888 102.179 57.3607 100.045L59.0548 93.7226L52.0282 91.8398L50.3342 98.1619C49.7624 100.296 47.5687 101.563 45.4345 100.991C43.3004 100.419 42.0338 98.2252 42.6057 96.0911L44.2997 89.7689L37.2713 87.8857L37.2714 87.8854L33.4084 86.8503C31.0802 86.2265 29.6986 83.8334 30.3224 81.5052C30.9462 79.177 33.3393 77.7954 35.6675 78.4192L39.5305 79.4543L50.4497 38.7034L46.9405 37.7631C44.6123 37.1393 43.2306 34.7462 43.8545 32.418C44.4783 30.0898 46.8714 28.7081 49.1996 29.332L52.7125 30.2733L52.7123 30.2741L58.3318 31.7798L60.0263 25.4558C60.5981 23.3216 62.7918 22.0551 64.926 22.627C67.0601 23.1988 68.3266 25.3925 67.7548 27.5267L66.0603 33.8507L73.0867 35.7334L74.7813 29.4092ZM55.8073 56.4139C55.0723 53.6706 56.7003 50.8508 59.4436 50.1157L73.8334 46.26C76.5767 45.5249 79.3965 47.1529 80.1315 49.8962C80.8666 52.6396 79.2386 55.4593 76.4953 56.1944L62.1055 60.0501C59.3622 60.7852 56.5424 59.1572 55.8073 56.4139ZM49.227 79.683C48.4919 76.9396 50.1199 74.1199 52.8632 73.3848L67.253 69.5291C69.9963 68.794 72.8161 70.422 73.5512 73.1653C74.2862 75.9086 72.6582 78.7284 69.9149 79.4635L55.5251 83.3192C52.7818 84.0543 49.962 82.4263 49.227 79.683Z" fill="white"/>
</g>
<defs>
<linearGradient id="paint0_linear_11142_575" x1="64" y1="0" x2="64" y2="128" gradientUnits="userSpaceOnUse">
<stop stop-color="#FEDF70"/>
<stop offset="1" stop-color="#D88528"/>
</linearGradient>
<clipPath id="clip0_11142_575">
<rect width="128" height="128" fill="white"/>
</clipPath>
</defs>
</svg>
