<svg viewBox="0 0 128 128" fill="none" xmlns="http://www.w3.org/2000/svg">
<path fill-rule="evenodd" clip-rule="evenodd" d="M45.7965 1.99594C35.8611 4.80944 25.8801 11.0718 17.2095 19.931C10.9004 26.3752 4.11962 37.9414 4.11962 42.2534C4.11962 43.6086 14.1939 54.7104 26.5088 66.9264C52.1421 92.3526 58.1734 95.5738 71.8448 91.1331C82.3318 87.7283 84.8506 83.5101 79.5648 78.1987C76.0922 74.7094 74.9206 74.4618 70.8211 76.3366C61.745 80.4925 58.9248 79.0032 39.4947 59.7901C29.0859 49.4982 20.5688 40.1654 20.5688 39.0525C20.5688 35.4237 35.905 21.8593 44.329 18.0376C53.6336 13.8173 70.8486 13.1599 80.305 16.6621C92.7098 21.2569 102.197 29.9619 108.236 42.2883C113.861 53.768 125.392 67.448 127.588 65.2442C129.384 63.4371 124.972 43.4013 120.929 35.0067C115.426 23.5874 102.477 11.0369 90.5238 5.53667C78.1667 -0.147233 58.784 -1.68253 45.7965 1.99594ZM52.0966 38.0515C47.8253 40 44.329 42.3178 44.329 43.201C44.329 44.0845 46.3082 46.6739 48.7261 48.9565C52.303 52.3338 53.8128 52.736 56.8301 51.1146C64.7242 46.8685 68.3229 48.8262 87.5446 67.8336C97.9533 78.1254 106.47 87.5299 106.47 88.7312C106.47 92.3379 93.1171 105.024 85.3731 108.772C74.9866 113.803 57.2067 114.629 46.641 110.574C35.249 106.203 22.7493 94.3232 17.7249 83.095C15.4659 78.0445 10.5531 71.0202 6.80998 67.4848L0 61.0573L0.961366 72.4048C4.02275 108.576 42.3475 135.1 78.841 126.304C97.487 121.81 119.383 102.572 122.124 88.2774C123.022 83.6019 120.922 80.9206 100.631 60.8256C73.1424 33.6054 67.5734 30.9921 52.0966 38.0515Z" fill="#343433"/>
</svg>
