<svg xmlns="http://www.w3.org/2000/svg" version="1.1" xmlns:xlink="http://www.w3.org/1999/xlink" width="256" height="128"><circle cx="64" cy="64" r="64" transform="matrix(1,0,0,1,0,0)"></circle><circle cx="64" cy="64" r="61.5" fill="#fff" transform="matrix(1,0,0,1,0,0)"></circle><path d="M53.765 11.228c-24.37 4.709-42.78 26.211-42.78 52.026s18.41 47.318 42.78 52.026v-4.965c-21.672-4.633-37.928-23.943-37.928-47.06s16.256-42.428 37.928-47.06zm20.195 4.984v-4.965c24.328 4.743 42.692 26.225 42.692 52.007 0 25.783-18.364 47.266-42.69 52.009v-4.968c21.627-4.667 37.836-23.955 37.836-47.04S95.588 20.88 73.961 16.213" transform="matrix(1,0,0,1,0,0)"></path><path d="M71.345 61.484q6.046 1.155 9.38 4.458 3.334 3.22 3.334 8.255v5.283q0 6.027-4.34 9.74-4.342 3.634-11.397 3.633h-1.626v8.421h-5.583v-8.42h-1.705q-4.651 0-8.216-2.064-3.568-2.147-5.583-5.944-1.936-3.88-1.938-8.915h5.583q0 5.117 2.79 8.337 2.868 3.137 7.52 3.137h8.606q4.572 0 7.364-2.147 2.79-2.229 2.791-5.778v-5.283q0-2.806-2.094-4.788-2.015-1.98-5.582-2.56l-13.955-2.475q-5.892-1.074-9.147-4.459t-3.256-8.502v-4.457q0-6.028 4.186-9.576 4.263-3.632 11.24-3.632h1.396v-8.42h5.582v8.42h1.782q6.59 0 10.622 4.292 4.03 4.21 4.03 11.143h-5.583q0-4.539-2.478-7.263-2.481-2.725-6.59-2.725h-8.76q-4.42 0-7.054 2.147-2.637 2.064-2.636 5.613v4.458q0 2.89 1.937 4.87 2.015 1.981 5.504 2.642z" transform="matrix(1,0,0,1,0,0)"></path><circle cx="64" cy="64" r="64" fill="#111" transform="matrix(1,0,0,1,64,0)"></circle><circle cx="64" cy="64" r="64" fill="url(#_usde)" fill-opacity=".7" transform="matrix(1,0,0,1,64,0)"></circle><path fill="none" stroke="url(#_usde-b)" stroke-width="2.3" d="M64.016 1.16C29.3 1.16 1.16 29.3 1.16 64.016s28.14 62.856 62.856 62.856 62.856-28.14 62.856-62.856S98.732 1.16 64.016 1.16Z" transform="matrix(1,0,0,1,64,0)"></path><path fill="#fff" d="M53.96 12.281c-24.273 4.674-42.614 26.045-42.614 51.67 0 25.626 18.341 46.997 42.613 51.671v-4.931c-21.596-4.61-37.778-23.789-37.778-46.74 0-22.95 16.182-42.129 37.778-46.738zm20.113 4.964v-4.932c24.24 4.706 42.516 26.045 42.516 51.639 0 25.593-18.276 46.932-42.516 51.638v-4.932c21.532-4.641 37.681-23.788 37.681-46.706S95.605 21.887 74.073 17.245" transform="matrix(1,0,0,1,64,0)"></path><path fill="#fff" d="M71.462 62.211c4.03.774 7.124 2.256 9.348 4.416 2.224 2.127 3.32 4.867 3.32 8.187v5.255c0 3.996-1.45 7.22-4.32 9.67-2.868 2.417-6.672 3.61-11.346 3.61h-1.611v8.348h-5.544v-8.348H59.6c-3.094 0-5.802-.677-8.187-2.063-2.353-1.418-4.223-3.385-5.544-5.899-1.29-2.579-1.934-5.512-1.934-8.864h5.544c0 3.384.934 6.156 2.772 8.284 1.902 2.063 4.416 3.126 7.478 3.126h8.574q4.545 0 7.35-2.127c1.837-1.483 2.772-3.384 2.772-5.737v-5.255c0-1.87-.71-3.449-2.096-4.77-1.353-1.322-3.19-2.16-5.544-2.547l-13.892-2.45c-3.9-.709-6.963-2.191-9.123-4.415-2.16-2.257-3.255-5.061-3.255-8.446V47.77c0-3.997 1.386-7.156 4.158-9.509 2.836-2.417 6.575-3.61 11.185-3.61h1.386v-8.348h5.544v8.348h1.773c4.384 0 7.897 1.418 10.573 4.255 2.675 2.772 4.029 6.479 4.029 11.056h-5.544c0-2.998-.838-5.415-2.482-7.22q-2.466-2.708-6.576-2.708h-8.735c-2.934 0-5.287.71-7.027 2.128-1.74 1.354-2.611 3.223-2.611 5.576v4.416q0 2.853 1.934 4.835c1.354 1.322 3.159 2.192 5.48 2.611z" transform="matrix(1,0,0,1,64,0)"></path><defs transform="matrix(1,0,0,1,64,0)"><radialGradient id="_usde" cx="0" cy="0" r="1" gradientTransform="matrix(0 132.529 -93.2872 0 64.088 19.482)" gradientUnits="userSpaceOnUse"><stop offset=".031" stop-color="#3a3a3a"></stop><stop offset="1" stop-color="#1c1c1c"></stop></radialGradient><linearGradient id="_usde-b" x1="64.008" x2="64.008" y1="0" y2="128.016" gradientUnits="userSpaceOnUse"><stop stop-color="#fff"></stop><stop offset="1" stop-color="#111"></stop></linearGradient></defs><circle cx="64" cy="64" r="64" fill="#fef3c7" transform="matrix(1,0,0,1,128,0)"></circle><path fill="#d97706" d="M45.734 93.88h-9.816a9.7 9.7 0 0 1-4.676-1.152 9.14 9.14 0 0 1-3.426-3.196l-5.232-8.524a7.4 7.4 0 0 1-1.25-4.178c0-1.534.416-2.856 1.25-4.134l5.324-8.654-5.324-8.61a7.54 7.54 0 0 1-1.25-4.176c0-1.492.416-2.9 1.25-4.178l5.232-8.524a8.8 8.8 0 0 1 3.426-3.198 9.8 9.8 0 0 1 4.676-1.192h9.816l5.186-8.44a8.8 8.8 0 0 1 3.426-3.196 9.8 9.8 0 0 1 4.676-1.194h9.956c1.712 0 3.24.384 4.676 1.194a9.14 9.14 0 0 1 3.426 3.196l5.232 8.44h9.816c1.714 0 3.24.382 4.676 1.192a9.14 9.14 0 0 1 3.426 3.198l5.186 8.524c.834 1.28 1.25 2.644 1.25 4.178s-.416 2.898-1.25 4.176l-5.324 8.61 5.324 8.654c.834 1.28 1.25 2.642 1.25 4.134a7.53 7.53 0 0 1-1.25 4.178l-5.186 8.524a8.8 8.8 0 0 1-3.426 3.196 9.8 9.8 0 0 1-4.676 1.152h-9.816l-5.232 8.44a8.8 8.8 0 0 1-3.426 3.196 9.8 9.8 0 0 1-4.676 1.15H59.02a9.7 9.7 0 0 1-4.676-1.15 9.14 9.14 0 0 1-3.426-3.196zm36.578-34.1h9.954l5.094-8.524-5.094-8.526h-9.954l-5.232 8.526zm-23.15 12.788h9.722l5.186-8.526-5.186-8.524h-9.722l-5.186 8.524zm0-25.574h9.722l5.326-8.654-5.186-8.396h-9.956l-5.184 8.396 5.324 8.654zm-8.196 4.26L45.78 42.73h-9.816l-5.186 8.526 5.186 8.524h9.816zm0 25.576-5.186-8.524h-9.954l-5.094 8.524 5.186 8.524h9.816l5.186-8.524zm8.196 4.262-5.326 8.61 5.186 8.44h9.956l5.186-8.44-5.326-8.61h-9.722zm23.15 4.262h9.816l5.186-8.524-5.186-8.524h-9.816L77.08 76.83z" transform="matrix(1,0,0,1,128,0)"></path></svg>