<svg width="1024" height="1024" viewBox="0 0 1024 1024" fill="none" xmlns="http://www.w3.org/2000/svg">
<g clip-path="url(#clip0_6003_3)">
<rect width="1024" height="1024" rx="512" fill="#0F172A"/>
<path d="M511.998 1048C794.768 1048 1024 818.768 1024 535.998C1024 393.832 966.056 265.199 872.498 172.427L149.998 898.075C242.649 990.706 370.633 1048 511.998 1048Z" fill="#D9D9D9"/>
<path d="M499.655 0H499.635C217.067 0 -12 229.067 -12 511.635V511.655C-12 794.223 217.067 1023.29 499.635 1023.29H499.655C782.223 1023.29 1011.29 794.223 1011.29 511.655V511.635C1011.29 229.067 782.223 0 499.655 0Z" fill="white"/>
<path d="M499.655 0H499.635C217.067 0 -12 229.067 -12 511.635V511.655C-12 794.223 217.067 1023.29 499.635 1023.29H499.655C782.223 1023.29 1011.29 794.223 1011.29 511.655V511.635C1011.29 229.067 782.223 0 499.655 0Z" fill="url(#paint0_radial_6003_3)" fill-opacity="0.7"/>
<path d="M417.777 130.827C242.062 168.285 110.268 324.386 110.268 511.275C110.268 698.163 242.062 854.264 417.777 891.722V931.871C220.187 893.811 70.9315 719.974 70.9314 511.275C70.9318 302.575 220.187 128.738 417.777 90.6785V130.827Z" fill="black"/>
<path d="M581.505 90.8246C778.73 129.174 927.615 302.834 927.615 511.275C927.615 719.715 778.73 893.376 581.505 931.725V891.566C756.853 853.83 888.279 697.903 888.279 511.275C888.279 324.646 756.853 168.716 581.505 130.981V90.8246Z" fill="black"/>
<path d="M560.304 496.961C592.986 503.19 618.336 515.203 636.353 532.999C654.371 550.35 663.379 572.596 663.379 599.735V642.446C663.379 674.925 651.647 701.174 628.183 721.195C604.718 740.771 573.922 750.559 535.792 750.559H522.593V818.63H477.341V750.559H463.514C438.373 750.559 416.166 744.998 396.892 733.875C377.617 722.307 362.533 706.291 351.639 685.825C341.164 664.914 335.926 640.889 335.926 613.75H381.179C381.179 641.334 388.721 663.802 403.805 681.153C419.309 698.06 439.63 706.513 464.771 706.513H534.535C559.256 706.513 579.159 700.729 594.243 689.162C609.327 677.149 616.87 661.577 616.87 642.446V599.735C616.87 584.608 611.213 571.706 599.9 561.028C589.006 550.35 573.922 543.454 554.647 540.34L441.516 520.319C409.671 514.535 384.95 502.523 367.352 484.281C349.754 466.04 340.954 443.127 340.954 415.543V379.505C340.954 347.027 352.268 321.222 374.894 302.091C397.939 282.515 428.317 272.727 466.028 272.727H477.341V204.656H522.593V272.727H537.049C572.664 272.727 601.366 284.295 623.155 307.43C644.943 330.121 655.837 360.152 655.837 397.524H610.584C610.584 373.054 603.88 353.478 590.472 338.796C577.064 324.114 559.256 316.773 537.049 316.773H466.028C442.144 316.773 423.08 322.557 408.833 334.125C394.587 345.247 387.464 360.374 387.464 379.505V415.543C387.464 431.115 392.702 444.24 403.177 454.917C414.071 465.595 428.946 472.714 447.801 476.273L560.304 496.961Z" fill="black"/>
<g clip-path="url(#clip1_6003_3)">
<mask id="mask0_6003_3" style="mask-type:alpha" maskUnits="userSpaceOnUse" x="149" y="172" width="875" height="876">
<path d="M511.998 1048C794.768 1048 1024 818.768 1024 535.998C1024 393.832 966.056 265.199 872.498 172.427L149.998 898.075C242.649 990.706 370.633 1048 511.998 1048Z" fill="#D9D9D9"/>
</mask>
<g mask="url(#mask0_6003_3)">
<path d="M512.121 24.4636C229.546 24.4636 0.474496 253.535 0.474471 536.11C0.474446 818.684 229.546 1047.76 512.121 1047.76C794.695 1047.76 1023.77 818.684 1023.77 536.11C1023.77 253.535 794.695 24.4637 512.121 24.4636Z" fill="#FEF3C7"/>
<path d="M658.147 297.238L736.619 297.238C750.313 297.238 762.53 300.304 774.003 306.44C785.479 312.573 794.362 321.092 801.395 331.996L843.223 400.146C849.886 410.369 853.217 421.273 853.217 433.54C853.217 445.809 849.886 456.371 843.223 466.594L800.655 535.767L843.223 604.601C849.886 614.824 853.217 626.068 853.217 637.995C853.217 649.922 849.886 661.166 843.223 671.389L801.395 739.539C794.733 750.443 785.479 758.964 774.003 765.097C762.53 771.231 749.944 774.637 736.619 774.637L658.147 774.637L616.688 842.107C610.026 853.011 600.771 861.53 589.298 867.664C577.822 873.798 565.236 877.205 551.912 877.205L472.329 877.205C458.632 877.205 446.418 874.138 434.943 867.664C423.469 861.53 414.584 853.011 407.552 842.107L365.725 774.637L287.252 774.637C273.556 774.637 261.341 771.57 249.866 765.097C238.393 758.964 229.507 750.443 222.476 739.538L181.017 671.389C174.355 661.166 171.024 650.261 171.024 637.995C171.024 625.728 174.355 614.824 181.017 604.601L223.586 535.767L181.017 466.594C174.355 456.371 171.024 445.467 171.024 433.54C171.024 421.615 174.355 410.369 181.017 400.146L222.476 331.996C229.138 321.092 238.393 312.573 249.866 306.44C261.341 300.304 273.927 297.238 287.252 297.238L365.725 297.238L407.552 229.769C414.215 218.865 423.469 210.346 434.943 204.213C446.418 198.079 459.004 195.013 472.329 195.013L551.912 195.013C565.608 195.013 577.822 198.079 589.298 204.213C600.771 210.346 609.657 218.865 616.688 229.769L658.147 297.238ZM365.725 569.842L286.142 569.842L245.424 637.995L286.142 706.145L365.725 706.145L407.552 637.995L365.725 569.842ZM550.801 467.617L473.07 467.617L431.611 535.767L473.07 603.92L550.801 603.92L592.257 535.767L550.801 467.617ZM550.801 672.07L473.07 672.07L430.501 741.243L471.959 808.372L551.543 808.372L592.998 741.243L550.432 672.07L550.801 672.07ZM616.319 637.995L657.775 706.145L736.248 706.145L777.706 637.995L736.248 569.842L657.775 569.842L616.319 637.995ZM616.319 433.54L657.775 501.692L737.358 501.692L778.075 433.54L736.619 365.39L658.147 365.39L616.688 433.54L616.319 433.54ZM550.801 399.465L593.37 330.634L551.912 263.163L472.329 263.163L430.87 330.634L473.439 399.465L551.171 399.465L550.801 399.465ZM365.725 365.39L287.252 365.39L245.794 433.54L287.252 501.692L365.725 501.692L407.552 433.54L365.725 365.39Z" fill="#D97706"/>
</g>
</g>
<path d="M888.141 171.062L152.205 906.998" stroke="#B0C0D4" stroke-width="44"/>
<circle cx="512" cy="512" r="490" stroke="url(#paint1_linear_6003_3)" stroke-width="44"/>
</g>
<defs>
<radialGradient id="paint0_radial_6003_3" cx="0" cy="0" r="1" gradientUnits="userSpaceOnUse" gradientTransform="translate(500.744 149.414) rotate(90) scale(1078.77 759.345)">
<stop offset="0.03125" stop-color="#FAFAFA"/>
<stop offset="1" stop-color="#E3E3E3"/>
</radialGradient>
<linearGradient id="paint1_linear_6003_3" x1="512" y1="0" x2="512" y2="1024" gradientUnits="userSpaceOnUse">
<stop stop-color="#D1DAE6"/>
<stop offset="0.5" stop-color="#7B97B7"/>
<stop offset="1" stop-color="#D1DAE6"/>
</linearGradient>
<clipPath id="clip0_6003_3">
<rect width="1024" height="1024" rx="512" fill="white"/>
</clipPath>
<clipPath id="clip1_6003_3">
<rect width="1048" height="1048" fill="white" transform="translate(1036 1048) rotate(-180)"/>
</clipPath>
</defs>
</svg>
