<svg width="128" height="128" viewBox="0 0 128 128" fill="none" xmlns="http://www.w3.org/2000/svg">
<g clip-path="url(#clip0_2116_2302)">
<path d="M127.972 0H0V127.972H127.972V0Z" fill="black"/>
<path d="M109.993 44.0057C108.556 42.5664 106.98 41.2945 105.297 40.2066C105.102 36.3631 104.118 32.5975 102.396 29.1388C100.468 25.2616 97.6618 21.8755 94.2072 19.248C90.7473 16.6205 86.7338 14.8242 82.4633 13.993C78.1926 13.1618 73.7934 13.3235 69.5957 14.4616C67.7286 14.9692 65.9176 15.661 64.2071 16.5312C60.6799 14.6624 56.7951 13.5578 52.7983 13.2956C48.4664 13.0111 44.1231 13.7196 40.1096 15.3764C36.1072 17.0333 32.5299 19.5883 29.6624 22.8406C26.8003 26.0929 24.721 29.9587 23.5974 34.1373C23.0384 36.2123 22.7198 38.3323 22.6472 40.4688C18.8909 42.8845 15.755 46.1645 13.5135 50.0417C11.0316 54.3261 9.72363 59.1849 9.72363 64.1387C9.72363 67.8372 10.4503 71.5025 11.8701 74.9221C13.2899 78.3417 15.3693 81.4491 17.9965 84.0653C19.489 85.5492 21.1323 86.8602 22.9098 87.9758C23.2731 94.9325 26.1855 101.537 31.1212 106.491C36.4036 111.796 43.5697 114.781 51.0487 114.787L51.0375 114.77C55.5597 114.77 59.9924 113.682 63.9724 111.624C68.0082 113.704 72.4855 114.792 77.0412 114.787C81.3845 114.781 85.6718 113.782 89.5622 111.869C93.4583 109.95 96.8568 107.172 99.5007 103.735C102.145 100.305 103.956 96.3103 104.8 92.065C105.079 90.6593 105.253 89.2366 105.314 87.8085C109.082 85.3763 112.223 82.0738 114.47 78.1633C116.947 73.8621 118.249 68.981 118.249 64.0105C118.249 56.5073 115.275 49.3109 109.993 44.0057ZM110.468 76.0656C109.043 78.4925 107.203 80.6457 105.029 82.4309C104.873 81.3653 104.649 80.3053 104.369 79.2621C103.548 76.2164 102.223 73.3321 100.451 70.7326C100.06 72.8691 99.484 74.9444 98.7406 76.936C100.077 79.9596 100.77 83.2396 100.77 86.5645V88.5561C100.703 89.3371 100.602 90.1125 100.457 90.888C99.8194 94.3132 98.4387 97.5487 96.3985 100.383C94.3638 103.211 91.7254 105.56 88.6791 107.261C85.6327 108.962 82.2451 109.972 78.7573 110.223C75.2748 110.474 71.7756 109.955 68.5111 108.711C71.8649 106.078 74.5761 102.72 76.443 98.8988C74.4196 99.6184 72.3178 100.171 70.149 100.533C68.6397 102.597 66.8064 104.416 64.6934 105.911C60.6967 108.739 55.923 110.262 51.0264 110.262C45.3919 110.262 39.9363 108.248 35.649 104.578C31.3952 100.935 28.561 95.9031 27.6555 90.3692C30.9368 91.6523 34.436 92.3105 37.9631 92.3049H37.9966C38.6507 92.3049 39.299 92.2825 39.9475 92.2379C38.2762 90.821 36.7334 89.2533 35.3359 87.5631C32.1386 87.1894 29.0418 86.1629 26.2357 84.5395L24.2458 83.3848C23.1838 82.6317 22.1776 81.7892 21.2497 80.8632C18.779 78.4087 16.8785 75.4409 15.6879 72.1719C14.4973 68.9028 14.0445 65.4106 14.3575 61.9463C14.6706 58.4821 15.7494 55.1292 17.5102 52.128C18.9411 49.7181 20.7857 47.5816 22.9603 45.8132C23.0217 46.1924 23.0887 46.5663 23.1615 46.9399C23.6702 49.5006 24.5366 51.9663 25.7159 54.2758C26.2413 55.3191 26.8284 56.3288 27.4767 57.305C27.8737 55.1627 28.4494 53.0877 29.1983 51.0905C29.0306 50.7111 28.8685 50.3318 28.7232 49.9468C27.7395 47.3082 27.2308 44.5077 27.2308 41.6737V39.5261C27.4934 36.3575 28.3935 33.2669 29.8859 30.4385C31.6802 27.0356 34.2795 24.1181 37.46 21.9425C40.6406 19.7668 44.3019 18.3889 48.131 17.937C51.9598 17.4852 55.8447 17.9649 59.4446 19.3428C56.074 21.9926 53.374 25.3565 51.5239 29.15C53.5922 28.4192 55.7442 27.8613 57.9576 27.4986C58.6508 26.5726 59.4111 25.6969 60.2382 24.8824C62.7147 22.4278 65.705 20.5478 68.9919 19.3707C72.2787 18.1936 75.7891 17.7585 79.2716 18.0876C82.7483 18.4168 86.1133 19.5046 89.1207 21.2729C92.128 23.0414 94.7104 25.4512 96.6779 28.3243C98.612 31.1471 99.9089 34.3548 100.479 37.7241C97.1922 36.4078 93.6539 35.7158 90.0486 35.7158C89.3387 35.7158 88.6344 35.7438 87.9301 35.794C89.6236 37.2277 91.1888 38.812 92.603 40.5302C95.8787 40.8818 99.0537 41.9136 101.927 43.5594L103.503 44.4686C106.404 46.4825 108.824 49.1267 110.58 52.2117C112.654 55.8489 113.732 59.966 113.704 64.1554C113.704 68.3505 112.581 72.4564 110.468 76.0656Z" fill="#94FF0B"/>
<path d="M63.8757 97.562C82.4796 97.562 97.561 82.4805 97.561 63.8767C97.561 45.2729 82.4796 30.1914 63.8757 30.1914C45.2719 30.1914 30.1904 45.2729 30.1904 63.8767C30.1904 82.4805 45.2719 97.562 63.8757 97.562Z" fill="#78350F"/>
<path fill-rule="evenodd" clip-rule="evenodd" d="M55.2026 51.8413C54.6369 51.4864 54.0157 51.2408 53.3666 51.1206C52.7177 51.0007 52.0688 51.0061 51.4364 51.1425C50.8097 51.279 50.2216 51.5356 49.7059 51.9014C49.1899 52.2672 48.7573 52.7422 48.4356 53.2883C48.114 53.8343 47.9031 54.4457 47.82 55.0901C47.7368 55.7342 47.7811 56.3893 47.9531 57.0281C48.236 58.0874 49.545 58.2894 50.4437 57.6451L52.7344 56.0072L55.0306 54.3638C55.9293 53.7195 56.14 52.431 55.2026 51.8413Z" fill="white"/>
<path fill-rule="evenodd" clip-rule="evenodd" d="M79.4198 53.2883C79.0981 52.7422 78.6655 52.2728 78.1497 51.9014C77.6338 51.5356 77.0459 51.2736 76.4192 51.1425C75.7922 51.0061 75.1323 51.0007 74.4888 51.1206C73.8399 51.2408 73.2185 51.4864 72.653 51.8413C71.7154 52.431 71.9263 53.7195 72.8248 54.3638L75.1212 56.0072L77.4119 57.6451C78.3106 58.2894 79.6196 58.0874 79.9025 57.0281C80.0745 56.3893 80.1188 55.7288 80.0356 55.0901C79.9523 54.4457 79.7416 53.8396 79.4198 53.2883Z" fill="white"/>
<path fill-rule="evenodd" clip-rule="evenodd" d="M65.786 71.0324C64.6877 70.6611 63.4787 70.6611 62.3804 71.0324C61.7702 71.2396 61.2377 71.562 61.271 72.0478C61.332 72.7903 62.5134 74.0625 63.3678 74.3245C63.8891 74.4829 64.2163 74.4719 64.7988 74.3245C65.653 74.1061 66.8399 72.7903 66.8954 72.0478C66.9342 71.562 66.3962 71.2396 65.786 71.0324Z" fill="white"/>
<path fill-rule="evenodd" clip-rule="evenodd" d="M59.9349 68.6406C59.6297 68.2366 59.2471 67.8981 58.8143 67.647C58.3817 67.3958 57.9047 67.2374 57.4111 67.1828C56.9173 67.1282 56.4125 67.1718 55.9357 67.3193C55.4586 67.4667 55.0093 67.707 54.6156 68.0345C54.2216 68.3621 53.8945 68.7661 53.6505 69.2194C53.2454 69.9783 53.8889 70.7755 54.7541 70.8737L56.9396 71.1194L59.1417 71.3706C60.0069 71.4688 60.8222 70.841 60.6005 70.011C60.4674 69.5087 60.2399 69.0447 59.9349 68.6406Z" fill="white"/>
<path fill-rule="evenodd" clip-rule="evenodd" d="M73.4797 67.9602C73.086 67.6327 72.6366 67.3926 72.1596 67.2451C71.6827 67.0977 71.178 67.0539 70.6842 67.1087C70.1906 67.1633 69.7135 67.3215 69.2809 67.5727C68.8483 67.8239 68.4656 68.1622 68.1604 68.5663C67.8554 68.9704 67.6281 69.4344 67.4949 69.9369C67.273 70.7667 68.0884 71.3945 68.9482 71.2963L71.1501 71.0452L73.3412 70.7994C74.2063 70.7011 74.8499 69.904 74.4448 69.1451C74.2008 68.6918 73.868 68.288 73.4797 67.9602Z" fill="white"/>
<path fill-rule="evenodd" clip-rule="evenodd" d="M83.8849 62.7184C85.6877 60.7365 86.7803 58.1104 86.747 55.233C86.7303 53.6389 86.3587 52.0555 85.6544 50.6086C83.6908 46.5465 78.7209 43.3742 73.6346 44.4336C73.4677 44.469 73.2591 44.5231 73.02 44.593C72.2634 44.8151 71.5686 45.1973 70.9555 45.6865C69.5971 46.7715 67.1006 47.4982 64.2447 47.4982C64.1903 47.4982 64.1365 47.4975 64.0828 47.4971C64.0288 47.4971 63.975 47.4971 63.9206 47.4971C61.0652 47.4971 58.568 46.7699 57.2096 45.6855C56.5969 45.1958 55.9017 44.8141 55.1453 44.5918C54.9063 44.5215 54.6976 44.4679 54.5307 44.4326C49.4449 43.3732 44.4752 46.5453 42.5116 50.6076C41.807 52.0543 41.4354 53.6378 41.4187 55.2319C41.3856 58.1091 42.4783 60.7355 44.2808 62.7173C44.4363 62.8921 44.5083 63.1268 44.4696 63.3507C43.2438 70.2464 45.0519 75.9191 48.7738 79.9595C52.6841 84.2017 58.4195 86.3146 63.9829 86.4292H64.0828C64.0881 86.4298 64.0937 86.4298 64.0993 86.4298H64.1824C69.7458 86.315 75.4812 84.2021 79.3917 79.9599C83.1134 75.9197 84.9217 70.2468 83.6959 63.3511C83.657 63.1274 83.7296 62.8931 83.8849 62.7184ZM80.6291 61.5227C80.3518 61.7467 80.2296 62.1069 80.3129 62.4508C83.2027 74.4898 75.7756 81.5166 67.2447 83.0234H67.2393C66.4184 83.1709 65.5865 83.2637 64.7488 83.3073C64.699 83.3073 64.6434 83.3127 64.5935 83.3127C64.4382 83.3237 64.2774 83.3237 64.1221 83.3293H64.0832C64.0792 83.3286 64.0749 83.3286 64.0722 83.3286H64.0443C63.889 83.3233 63.7283 83.3233 63.5728 83.3123C63.523 83.3123 63.4676 83.3067 63.4175 83.3067C62.5801 83.2631 61.7482 83.1702 60.927 83.0228H60.9216C52.3907 81.516 44.9638 74.4892 47.8534 62.4504C47.9368 62.1065 47.8148 61.7461 47.5375 61.5221C45.6958 60.048 44.531 57.7876 44.5587 55.2598C44.5699 54.1132 44.8418 52.9776 45.341 51.9401C46.7941 48.9318 50.4494 46.7426 53.8827 47.4576C54.2851 47.5401 55.3633 47.8902 56.4137 48.3826C56.7948 48.561 57.1526 48.7846 57.4876 49.0373C58.8637 50.0768 61.3032 50.7685 64.0838 50.7714C66.8644 50.7697 69.3039 50.078 70.68 49.0377C71.0148 48.785 71.3721 48.5619 71.7539 48.3832C72.8037 47.8906 73.8821 47.5414 74.2847 47.4582C77.718 46.743 81.3733 48.9324 82.8266 51.9407C83.3258 52.9782 83.5977 54.1136 83.6087 55.2603C83.6364 57.7882 82.4715 60.0486 80.6301 61.5227H80.6291Z" fill="white"/>
</g>
<defs>
<clipPath id="clip0_2116_2302">
<rect width="128" height="128" fill="white"/>
</clipPath>
</defs>
</svg>
