<svg xmlns="http://www.w3.org/2000/svg" viewBox="0 0 59.88 60.08"><defs><linearGradient id="未命名的渐变" x1="-.53" x2="-.53" y1="62.85" y2="62.61" gradientTransform="matrix(31.9 0 0 -33.45 46.64 2109.75)" gradientUnits="userSpaceOnUse"><stop offset="0" stop-color="#ee8775"/><stop offset="1" stop-color="#f6e6c7"/></linearGradient><style>.cls-13{fill:#fff}.cls-2{fill:#febf41}.cls-5{fill:#ebeaea}.cls-6{fill:#6c6a69}.cls-7{fill:#413937}.cls-15{fill:#131313}</style><mask id="mask" width="28.64" height="15.1" x="15.58" y="43.35" maskUnits="userSpaceOnUse"><g id="mask-2"><path id="path-1" fill="#fff" fill-rule="evenodd" d="M15.58 43.35h28.6v15.1h-28.6z"/></g></mask></defs><g id="图层_2" data-name="图层 2"><g id="图层_1-2" data-name="图层 1"><g id="画板"><g id="tTERP"><circle id="椭圆形" cx="29.85" cy="30.04" r="29.36"/><path id="形状" d="M31.28.05a29.67 29.67 0 0 1 16.3 5.8 30.8 30.8 0 0 1 8.4 9.6 30 30 0 0 1 2.4 5.5 28.6 28.6 0 0 1 1 4.3 11.5 11.5 0 0 1 .3 2.6v1.6l.2 1.6v.3a24 24 0 0 1-.4 3.7 28.6 28.6 0 0 1-1.4 5.3 30.29 30.29 0 0 1-21.4 19l-3.2.5a31 31 0 0 1-5.1.2 24 24 0 0 1-2.7-.3 30 30 0 0 1-4-.9 30.4 30.4 0 0 1-4.4-1.5 29.6 29.6 0 0 1-5.9-3.7 29.93 29.93 0 0 1-11.3-21 28 28 0 0 1 0-4.3 29.5 29.5 0 0 1 2.1-9.8 30 30 0 0 1 19.5-17.4 27 27 0 0 1 4-.8l2.4-.3a24 24 0 0 1 3.2 0m-1.4 1.7a28.3 28.3 0 1 0 28.2 28.3 28.3 28.3 0 0 0-28.2-28.3m1.2.5a27.79 27.79 0 0 1 24.2 16.5 27.5 27.5 0 0 1 2 6.2l.3 2.9a29 29 0 0 1 0 3.2 28 28 0 0 1-.2 2.9 28 28 0 0 1-1 4.4 28 28 0 0 1-5.1 9.4l-.3.3c-.2.2-.2.2-.2 0l-.3-.4a.2.2 0 0 1 0-.3l.3-.3a2.32 2.32 0 0 0 .4-1.4A1.3 1.3 0 0 0 51 45a1 1 0 0 0-.8-.4c-.2 0-.2 0-.1-.2a2 2 0 0 0 0-.7 1 1 0 0 0-1-1 1.3 1.3 0 0 0-.4 0c-.1 0-.2 0-.3-.2l-.5-1.3-.1-.3a.2.2 0 0 1 0-.4 2 2 0 0 0 .2-.2.42.42 0 0 0 0-.5 13 13 0 0 0-1.6-2.6 11.1 11.1 0 0 0-2.4-2.3c-.2 0-.2 0-.1-.3a3.8 3.8 0 0 0 .2-1l.2.1a.49.49 0 0 0 .45.11.52.52 0 0 0 .35-.31 1.6 1.6 0 0 0 .2-.7 3 3 0 0 0-.4-1.6 3 3 0 0 0-.4-.6.7.7 0 0 1 .2 0 4 4 0 0 0 1.9-1 1.93 1.93 0 0 0 .6-1.8 1 1 0 0 0-.5-.7 1.5 1.5 0 0 0-.4-.1 3.62 3.62 0 0 1-2-1.1 6.7 6.7 0 0 1-1.2-1.6 10.2 10.2 0 0 1-1.2-3.2 17.2 17.2 0 0 0-1-3.3 8.07 8.07 0 0 0-3-3.7 13 13 0 0 0-1.9-1 7.7 7.7 0 0 1-1.3-.7 2.1 2.1 0 0 1-.6-.6 1.29 1.29 0 0 1 .6-1.9 1 1 0 0 1 1 .1l.8.8a.38.38 0 0 0 .7 0 2.35 2.35 0 0 0 .2-1.5A4.84 4.84 0 0 0 36 6.45a4.6 4.6 0 0 0-1.5-1 2.9 2.9 0 0 0-1.2-.2c-.2 0-.2 0-.3-.2a2.7 2.7 0 0 0-1.6-1.7 3.4 3.4 0 0 0-1-.2 4.5 4.5 0 0 0-1.9.2A2.7 2.7 0 0 0 26.78 5v.2a.13.13 0 0 1-.05.15.11.11 0 0 1-.15 0 3.5 3.5 0 0 0-2.8 1 4.57 4.57 0 0 0-1.5 3 3.2 3.2 0 0 0 .2 1.4l.1.1q.3.45.6 0L24 10a1 1 0 0 1 1.2 0 1.15 1.15 0 0 1 .5 1.4 1.73 1.73 0 0 1-.6 1 7 7 0 0 1-1.6 1l-1.2.5a7.6 7.6 0 0 0-2.5 2.1 9.6 9.6 0 0 0-1.4 2.8 22 22 0 0 0-.6 2.5 10.5 10.5 0 0 1-1.9 4 5.7 5.7 0 0 1-1.3 1.2 2.9 2.9 0 0 1-1 .4l-.4.1a1 1 0 0 0-.7 1 2 2 0 0 0 .6 1.5 4.1 4.1 0 0 0 1.8 1l.3.1v.1a2.67 2.67 0 0 0-.8 1.6l.1 1 .1.2a.48.48 0 0 0 .34.31.52.52 0 0 0 .46-.11.64.64 0 0 1 .2-.2v.4a1.18 1.18 0 0 0 .2.7l-.1.3a12 12 0 0 0-1.8 1.4 9.9 9.9 0 0 0-2 3l-.2.5a.5.5 0 0 0 0 .5l.2.3a.1.1 0 0 1 .1.1.11.11 0 0 1-.1.1l-.8 1.8a.2.2 0 0 1-.2.1 1.4 1.4 0 0 0-.7 0 1 1 0 0 0-.7 1 1.65 1.65 0 0 0 0 .7v.2h-.2a1 1 0 0 0-1 1 2.16 2.16 0 0 0 .6 1.5l.3.3a.1.1 0 0 1 .1.1.11.11 0 0 1-.1.1l-.4.7a5 5 0 0 1-.5-.6 27.65 27.65 0 0 1-5.4-10.6 24.6 24.6 0 0 1-.6-3.6l-.2-2.7v-2.1a26.3 26.3 0 0 1 .6-4.6A27.91 27.91 0 0 1 16.9 5.5a27 27 0 0 1 6.7-2.4 28 28 0 0 1 3-.5 27 27 0 0 1 4.5-.2" class="cls-2"/><g id="Clipped" mask="url(#mask)"><path id="路径" fill="#474645" d="M43.88 53.65a27.3 27.3 0 0 0 .3-5.7l-.3-2.3a3.9 3.9 0 0 0-.2-1.5v-.8a8 8 0 0 0-.9.2v.2l-.4.2a25 25 0 0 1-4.5 1.8 35 35 0 0 1-3.8.8l-2.2.2h-4a6.2 6.2 0 0 1-1.9-.2 34 34 0 0 1-4-.8 19.2 19.2 0 0 1-4.9-1.9H17a7 7 0 0 1-1-.5v1l-.1 1c-.05.5-.12 1-.2 1.5s-.09 1.07-.1 1.6v3.1l.3 2V54h-.2v.5a26.83 26.83 0 0 0 14.2 4 27.6 27.6 0 0 0 13.9-3.8l.1-.7a.8.8 0 0 1 0-.3"/></g><path id="路径-2" d="M31.88 46.05V46l-.5-2.4a14.6 14.6 0 0 0-.3-2.2l.1-.4a.7.7 0 0 0 .2-.3l.4-1.3a.29.29 0 0 1 .2-.3 6 6 0 0 0 1.2-.5 2 2 0 0 1 .4-.2 20 20 0 0 0 2.5-.8h.3a3.6 3.6 0 0 0 2.3-1h.1c0-.1.1-.1.2 0a.82.82 0 0 0 .5.2 1.57 1.57 0 0 0 1.1-.2h.3a15.7 15.7 0 0 1 2.4 5.8c0 .1.2.3 0 .5l-.3.2a22.4 22.4 0 0 1-4.8 1.8 39 39 0 0 1-4 .9 14.6 14.6 0 0 1-2.2.3" class="cls-5" data-name="路径"/><path id="路径-3" d="M28.88 41.15s-1.7 9.9-1.6 10.7a16.4 16.4 0 0 0 2.5 3.5c1.66-1.8 2.46-2.93 2.4-3.4q-.21-3.11-1.4-10.8Z" class="cls-6" data-name="路径"/><path id="形状-2" d="M30.88 41.05H31q1.2 7.7 1.4 11c0 .4-.7 1.6-2.4 3.4a.23.23 0 0 1-.15.07.2.2 0 0 1-.15-.07c-1.6-1.8-2.5-3-2.6-3.6l.7-5.4.1-.6.8-4.7a.2.2 0 0 1 .2-.2Zm-.3.3h-1.5v.4c-.31 1.63-.61 3.26-.9 4.9l-.7 5.2a14.5 14.5 0 0 0 2.5 3.5l-.2-.2a10 10 0 0 0 2.2-3q-.21-3.19-1.4-10.8" data-name="形状"/><path id="路径-4" d="m28.88 41.65 1 .3.9-.2v-.6h-1.6l-.1-.1z" class="cls-7" data-name="路径"/><path id="路径-5" d="M27.88 39.05a12 12 0 0 0 .7 1.9c.3.4 1.3.5 1.3.5s.9 0 1.2-.5a5.8 5.8 0 0 0 .6-2Z" class="cls-6" data-name="路径"/><path id="形状-3" d="M31.68 38.85s.2.1.1.2c0 .33-.05.67-.1 1l-.4 1a1.93 1.93 0 0 1-.9.5 3 3 0 0 1-.6 0 4 4 0 0 1-.5 0c-.4-.2-.7-.3-.8-.5a1.9 1.9 0 0 1-.4-1 9 9 0 0 1-.3-1 .14.14 0 0 1 .2-.2Zm-.2.3h-3.3v.2l.2.6a1.9 1.9 0 0 0 .3.9l.7.4.4.1.5-.1.7-.4.4-.8c0-.27.08-.53.1-.8Z" data-name="形状"/><path id="路径-6" d="m28.18 39.55 1.7.3 1.5-.1.2-.7h-3.5z" class="cls-7" data-name="路径"/><path id="路径-7" d="M24.68 36.65a6.5 6.5 0 0 0 10.4 0Z" class="cls-6" data-name="路径"/><path id="形状-4" d="M35.08 36.55a.1.1 0 0 1 .1.1.11.11 0 0 1-.1.1l-.3.4a7.3 7.3 0 0 1-1 1 6.6 6.6 0 0 1-7.9 0 6.8 6.8 0 0 1-1-1 3 3 0 0 1-.4-.4.14.14 0 1 1 .2-.2Zm-.4.3H25l.1.1 1 .9a6.3 6.3 0 0 0 7.5 0 7 7 0 0 0 1.1-1Z" data-name="形状"/><path id="路径-8" d="m27.68 46.05-2-.2a37 37 0 0 1-4.3-1 21.7 21.7 0 0 1-5-2c-.2 0-.2 0-.1-.3a18 18 0 0 1 .6-2.5 14.3 14.3 0 0 1 1.3-2.7l.4-.7h.3a1.65 1.65 0 0 0 1 .2.83.83 0 0 0 .6-.3h.3a3.9 3.9 0 0 0 1.4.8l1 .2h.3l2.4.9a1 1 0 0 1 .4.1 6 6 0 0 0 1.3.6.2.2 0 0 1 .1.2l.3 1.2.4.6a.23.23 0 0 1 0 .2c-.2 1.4-.3 2.9-.6 4.3a1.5 1.5 0 0 0 0 .3.14.14 0 0 1-.2.2" class="cls-5" data-name="路径"/><path id="路径-9" fill="url(#未命名的渐变)" d="M44.88 27a8.5 8.5 0 0 1-1.8-1.5 12.1 12.1 0 0 1-1.9-4.4 17.3 17.3 0 0 0-.9-3 8 8 0 0 0-2.6-3.2 10.6 10.6 0 0 0-1.5-1 6.8 6.8 0 0 1-2.4-1.7v-.1l-.1-.1a.5.5 0 0 0-.1-.2 1.68 1.68 0 0 1 .4-2 1.38 1.38 0 0 1 1.4-.4 2.24 2.24 0 0 1 1.2.7l.2.2a1.63 1.63 0 0 0 .1-.9 4.1 4.1 0 0 0-.5-1.4 3.8 3.8 0 0 0-2.2-2 2.72 2.72 0 0 0-1.8.2.29.29 0 0 1-.3-.1.27.27 0 0 1 0-.3 1.5 1.5 0 0 1 .4-.4c.2 0 .2 0 .1-.2a2.43 2.43 0 0 0-1.1-1.3 3.7 3.7 0 0 0-2.9-.1A2.5 2.5 0 0 0 27 5.05l.1.4a.55.55 0 0 1 .5.3.32.32 0 0 1 0 .3s-.2.2-.3 0a1.4 1.4 0 0 0-.5 0 2.6 2.6 0 0 0-1.8.2 4 4 0 0 0-1.2 1 3.78 3.78 0 0 0-1 2.4 1 1 0 0 0 .1.6.64.64 0 0 0 .2-.2 2.34 2.34 0 0 1 1-.6 1.48 1.48 0 0 1 1.3 0 1.71 1.71 0 0 1 .8 2.1.55.55 0 0 1-.2.5.2.2 0 0 1-.1.2 4 4 0 0 1-.7.6 11 11 0 0 1-1.2.8l-1 .6a7.64 7.64 0 0 0-3.4 3.7 15.6 15.6 0 0 0-1 3.2 11.6 11.6 0 0 1-1.3 3.4 7.4 7.4 0 0 1-1.4 1.7 5.5 5.5 0 0 1-2.1 1.2 1.7 1.7 0 0 0 .6 1 2.8 2.8 0 0 0 1.2 1l.6.4.2.5a.42.42 0 0 1-.1.4l-.2.2-.6.9a.63.63 0 0 0-.1.3c0 .2.1.3.3.2h.2a.66.66 0 0 1 .6.1l.5.8.3.2.4.1c.3 0 .5 0 .7.3l.4.7a1.6 1.6 0 0 0 .9.9h.2c0-.23.24-.3.45-.37s.45-.13.65.07a.85.85 0 0 1 .5.3 4.6 4.6 0 0 0 1.3.8h.33c.2-.2.27-.28.47-.08h.3a.32.32 0 0 1 .19.15.36.36 0 0 1 0 .25c0 .2.1.2.2.2l.8.1h.3s.1 0 0-.1a.7.7 0 0 1 0-.2.72.72 0 0 1 0-.5.18.18 0 0 1 .12-.12.19.19 0 0 1 .18 0 .32.32 0 0 0 .3 0 .4.4 0 0 1 .5.1c.07.1.14.2.2.3h.2a1 1 0 0 1 1.3 0 1 1 0 0 0 .4.3 4.7 4.7 0 0 0 1.3.3 4.3 4.3 0 0 0 1-.2h.2a1.14 1.14 0 0 0 .5-.4 1 1 0 0 1 1-.2c.07 0 .1.11.16.16s.24.14.34-.06l.2-.2a.3.3 0 0 1 .25-.13.31.31 0 0 1 .25.13.34.34 0 0 0 .2 0c.2-.2.3-.2.4 0a.5.5 0 0 1 0 .3c0 .1-.06.2-.1.3l.1.2a3.4 3.4 0 0 0 1 0c.2 0 .2 0 .3-.4a.29.29 0 0 1 .2-.3h.67a.66.66 0 0 0 .42.1 3.4 3.4 0 0 0 1.23-.72c.3-.2.57-.52 1-.52a.58.58 0 0 1 .61.34h.3c.3-.15.66-.28.81-.58a4 4 0 0 1 .45-.82.73.73 0 0 1 .84-.4l.23.06a2.3 2.3 0 0 0 .37-.66c0-.12.13-.13.23-.2s.11-.16.17-.2a.52.52 0 0 1 .8-.2h.2c.13-.09.26-.28.18-.42s-.07-.11-.08-.18a3.5 3.5 0 0 0-.7-1 .2.2 0 0 1-.2-.2c-.1-.2.08-.5.28-.7a2.8 2.8 0 0 1 .82-.7 3.86 3.86 0 0 0 1.24-1.3c.07-.12 0-.36 0-.5-.3 0-.4-.3-.7-.4" data-name="路径"/><path id="形状-5" fill="#f6e6c7" d="m48.28 46.15.4-.3a1.44 1.44 0 0 0 .4-.6m.1 0h.7a.8.8 0 0 1 .3 0h.2c-.13 0-.1.32-.09.45a5 5 0 0 1-.26.75 3.5 3.5 0 0 1-1 1c-.16.13-.14.18-.18.37s0 .17.11.26 0 .2.07.15a1.7 1.7 0 0 0 .4-.2l.3-.2.5.8c.2.3 0 .1 0 .2a29 29 0 0 1-2.4 2.2 27 27 0 0 1-3.1 2.3.75.75 0 0 1-.3.2.8.8 0 0 1 0-.3 31 31 0 0 0 .2-6l-.2-2.4-.3-1.6a.2.2 0 0 1 0-.21.2.2 0 0 1 .2-.09l1.1-.7 1.4-1a.24.24 0 0 1 .1-.1 1 1 0 0 1 .2.3l.7 1.5a.5.5 0 0 0 .7.4.9.9 0 0 1 .4 0m-39.5 1.9h1l.2.2.7.59.4.11v-.3a5.4 5.4 0 0 0-.4-.8 6.6 6.6 0 0 1-.5-.9c-.09-.24-.19-.47-.3-.7a.8.8 0 0 1 .3 0h.2a.5.5 0 0 0 .6-.3l.5-1.2a5 5 0 0 1 .4-.7l.8.6 1.8 1.2c.2.1.2.1.1.4a38 38 0 0 0-.5 4.4 26 26 0 0 0 0 3.3l.3 2v.5a.57.57 0 0 1-.3-.2 27.2 27.2 0 0 1-5.4-4.4c-.2-.1-.2 0 0-.3 0-.3.4-.6.5-.8.1 0 .33-.18.43 0l.31.18h.26a.7.7 0 0 0-.2-.5l-.4-.5a4.7 4.7 0 0 1-.9-1.3 1.1 1.1 0 0 0-.1-.4c0-.2.2-.2.3-.1" data-name="形状"/><path id="形状-6" d="M15.58 42.15h-.2a20 20 0 0 1-2.7-2c-.5-.4-.4-.2-.2-.7a9.77 9.77 0 0 1 3.4-4l.1-.1c0-.1.1 0 .2 0l.3.3.4.2a.7.7 0 0 0 .9-.3l.1-.2.4.6v.1l-.8 1.2a16.7 16.7 0 0 0-1.8 4.4Zm26.3-6.8.1.3a.6.6 0 0 0 .7.3 1.54 1.54 0 0 0 .9-.6h.3a10 10 0 0 1 3.5 4.3c.1.2.1.2 0 .4a20 20 0 0 1-2.3 1.6l-.9.6a1.1 1.1 0 0 1-.1-.4 18.2 18.2 0 0 0-2.5-5.6l-.1-.2V36l.4-.6" class="cls-5" data-name="形状"/><path id="形状-7" fill="#c6b699" d="M25.68 36a.32.32 0 0 0 .3 0 .41.41 0 0 1 .4 0 3 3 0 0 1 .3.4h.1a1 1 0 0 1 1.4 0 1 1 0 0 0 .4.3 4.7 4.7 0 0 0 1.3.3 4 4 0 0 0 .9-.2h.3a1.14 1.14 0 0 0 .5-.4 1 1 0 0 1 1-.2.5.5 0 0 1 .2.1c.1.2.2.1.3 0l.2-.2a.28.28 0 0 1 .22-.19.3.3 0 0 1 .28.09.34.34 0 0 0 .2 0 2.9 2.9 0 0 1-.4.8l-.6.5c-.2 0-.3 0-.4-.2v-.3a.32.32 0 0 0-.11-.29.35.35 0 0 0-.3-.05.31.31 0 0 0-.19.24l-.2.1a3 3 0 0 1-1.9 1 3 3 0 0 1-1.9-1l-.2-.1a.3.3 0 0 0-.28-.09.28.28 0 0 0-.22.19v.3c-.2.2-.3.2-.5.1a1.46 1.46 0 0 1-.6-.5 1.7 1.7 0 0 1-.3-.6c0-.1-.1-.2-.4 0a.18.18 0 0 1 .12-.12.19.19 0 0 1 .18 0m-9.4-5.2-.2.2a2.6 2.6 0 0 0-.6 1 .7.7 0 0 0 0 .2c0 .2 0 .2.2.2h.1a.61.61 0 0 1 .7.1l.6.7.2.2a.41.41 0 0 0 .4.2.71.71 0 0 1 .7.2l.5.7a1.6 1.6 0 0 0 .8 1h.1a.59.59 0 0 1 .5-.5 1 1 0 0 1 .7.1l.5.4a3.2 3.2 0 0 0 1.3.7.18.18 0 0 0 .2 0c.3-.2.4-.2.6 0h.2c-.2.1-.2.1-.2.3a.43.43 0 0 1-.4.4 3 3 0 0 1-1.6-.6 4.3 4.3 0 0 1-.6-.6.8.8 0 0 0-.2-.2.3.3 0 0 0-.5.3V36a.2.2 0 0 1-.2.2 1 1 0 0 1-.9-.3 2.4 2.4 0 0 1-.9-1.4.7.7 0 0 0 0-.2.29.29 0 0 0-.3-.1.3.3 0 0 0-.2.1.7.7 0 0 0 0 .2 4 4 0 0 1-.4.8q0 .3-.3 0a1.3 1.3 0 0 1-.4-.4 2.72 2.72 0 0 1-.4-1.8l.1-.3a.32.32 0 0 0-.13-.35.3.3 0 0 0-.37.05q-.29.31-.6.6a.7.7 0 0 1-.2 0 2.06 2.06 0 0 1 0-1.3 1.69 1.69 0 0 1 1.2-1m27-.2a2.55 2.55 0 0 1 1 .7 2.3 2.3 0 0 1 .3 1.6.23.23 0 0 1 0 .2 1 1 0 0 1-.4-.3l-.4-.3a.3.3 0 0 0-.4-.1.29.29 0 0 0-.1.3v.9a2.57 2.57 0 0 1-.3 1.3 1.3 1.3 0 0 1-.4.4l-.3-.1a4 4 0 0 1-.3-.8v-.1l-.3-.3a.29.29 0 0 0-.3.3 2.8 2.8 0 0 1-.2.7 2.44 2.44 0 0 1-.8 1 1.05 1.05 0 0 1-.7 0c-.2 0-.2 0-.3-.2v-.2a.3.3 0 0 0-.23-.19.28.28 0 0 0-.27.09 1.3 1.3 0 0 0-.2.2 3.5 3.5 0 0 1-1.7 1 2 2 0 0 1-.5 0c-.3 0-.4-.1-.4-.3a.2.2 0 0 0-.2-.2h.2a.39.39 0 0 1 .5 0 .3.3 0 0 0 .4 0 3.3 3.3 0 0 0 1.2-.8 1.52 1.52 0 0 1 .9-.4.7.7 0 0 1 .8.4h.1a1.56 1.56 0 0 0 .8-.7 3.5 3.5 0 0 1 .4-.8.79.79 0 0 1 .9-.3.34.34 0 0 0 .2 0 1.75 1.75 0 0 0 .4-.6.6.6 0 0 1 .3-.3 1 1 0 0 0 .1-.1.59.59 0 0 1 .37-.37.62.62 0 0 1 .53.07h.2a.34.34 0 0 0 0-.2.8.8 0 0 0 0-.3 3.5 3.5 0 0 0-.7-1 .2.2 0 0 1-.1-.2m2.3-3.2.6.2c.3 0 .3.2.3.5a1.34 1.34 0 0 1-.4 1 3.9 3.9 0 0 1-2 1l-.6.1c-.2 0-.3.1-.3.4a.17.17 0 0 0 0 .1.68.68 0 0 1 .2-.8 4.5 4.5 0 0 1 .8-.7 4.5 4.5 0 0 0 1.3-1.3 1.4 1.4 0 0 0 0-.5m-31.6 0a1.8 1.8 0 0 0 .4 1 4.9 4.9 0 0 0 1.3 1l.5.5.2.4a.7.7 0 0 0-.4-.2 7 7 0 0 1-1-.2 3.4 3.4 0 0 1-1.5-.8 1.3 1.3 0 0 1-.4-1 .39.39 0 0 1 .3-.5 4 4 0 0 1 .6-.2m-3.4 16 .4.8.4.9a1.5 1.5 0 0 1 .4.7.28.28 0 1 1-.4.4 2.8 2.8 0 0 1-.8-.7l-.1-.2a.6.6 0 0 0 0-.7 1.56 1.56 0 0 1-.1-.8c0-.2 0-.3.2-.4m38.6 2a1.3 1.3 0 0 1-.4.5l-.5.3a.32.32 0 0 1-.3 0 .29.29 0 0 1-.1-.3 4.5 4.5 0 0 1 .4-1l.5-1 .3-.5c.2 0 .3.2.3.4l-.1.5a1.5 1.5 0 0 1 0 .3.6.6 0 0 0 0 .7m.6 2.6-.4.2a1.7 1.7 0 0 1-.4.2.3.3 0 0 1-.34-.06.29.29 0 0 1-.06-.34.86.86 0 0 1 .4-.5 4.4 4.4 0 0 0 .8-1.1 3.6 3.6 0 0 0 .3-.7.29.29 0 0 1 .2-.2.32.32 0 0 1 0 .3 1 1 0 0 1-.2.9l-.3.6a.6.6 0 0 0 0 .7m-40.7-2.5.2.3a3.3 3.3 0 0 0 1 1.4l.4.4a.7.7 0 0 1 .2.5.32.32 0 0 1-.12.26.31.31 0 0 1-.28 0 .94.94 0 0 1-.4-.2l-.4-.2a.61.61 0 0 0 0-.8 5 5 0 0 1-.4-.5 1.62 1.62 0 0 1-.3-1 .26.26 0 0 1 .1-.2" data-name="形状"/><path id="形状-8" fill="#ef8472" d="M25.18 27.15a2.67 2.67 0 0 1-.2 1.6 3 3 0 0 1-4.5 1.2 2.9 2.9 0 0 1 .4-4.8 1 1 0 0 1 .5-.2l.1.2a3.29 3.29 0 0 0 2.3 2zm13.2-2.4a3 3 0 0 1 1.3.9 3 3 0 0 1 .8 1.7 2.93 2.93 0 0 1-.6 2 3 3 0 0 1-5.4-1.7v-.5h1a3.51 3.51 0 0 0 2.5-1.6 9 9 0 0 0 .4-.8" data-name="形状"/><path id="形状-9" fill="#1d1e1f" d="M31.08 7.55a2.3 2.3 0 0 1 .4-1 .3.3 0 0 1 .2-.1.18.18 0 0 1 .2 0 .23.23 0 0 1 0 .2v.2l-.4.5v.3a.12.12 0 0 1 .05.15.12.12 0 0 1-.15 0h-.2a.4.4 0 0 1 0-.3m-3 .1a.34.34 0 0 0 0-.2l-.4-.6a.7.7 0 0 1 0-.2.2.2 0 0 1 .2-.2.34.34 0 0 1 .2 0 2.6 2.6 0 0 1 .4 1 .4.4 0 0 1 0 .3c0 .1-.1.2-.2.1l-.1-.2" data-name="形状"/><path id="路径-10" d="M24.38 27.05a3.27 3.27 0 0 1-3-4 3 3 0 0 1 2.1-2.05 3.2 3.2 0 0 1 4 3 2.93 2.93 0 0 1-1.3 2.5 3 3 0 0 1-1.8.6" class="cls-13" data-name="路径"/><path id="形状-10" d="M21.88 26.05a3.3 3.3 0 0 1 1.5-5.2 3.41 3.41 0 0 1 4.3 3 3.1 3.1 0 0 1-1.4 2.8 3.3 3.3 0 0 1-1.9.6 3.18 3.18 0 0 1-2.5-1.2m4.2-4.4a3 3 0 0 0-2.6-.4 2.9 2.9 0 0 0-1.2 4.6 2.8 2.8 0 0 0 2.1 1 3.37 3.37 0 0 0 1.7-.5 2.72 2.72 0 0 0 1.2-2.4 3 3 0 0 0-1.2-2.3" data-name="形状"/><path id="路径-11" d="M35.28 27.05a3 3 0 0 1-3-3.1 3.19 3.19 0 0 1 3-3 3 3 0 0 1 3 3 3.1 3.1 0 0 1-3 3" class="cls-13" data-name="路径"/><path id="形状-11" d="M35.38 20.65a3.31 3.31 0 0 1 3.2 3.4 3.41 3.41 0 0 1-3.3 3.2A3.3 3.3 0 0 1 32 24a3.4 3.4 0 0 1 3.4-3.3m0 .4a3 3 0 0 0-3 2.9 2.9 2.9 0 0 0 2.9 2.9h.2a3 3 0 0 0 2.6-2.7v-.1a2.91 2.91 0 0 0-2.7-3" data-name="形状"/><path id="路径-12" d="M26 24a.2.2 0 0 1-.1.2h-.8a.59.59 0 0 0-.5.5 5.3 5.3 0 0 0-.2.9v.4l-.3.2c-.1 0-.2 0-.2-.2a4.5 4.5 0 0 0 0-.9v-.2a.71.71 0 0 0-.34-.57.7.7 0 0 0-.66 0l-.2-.2c0-.2 0-.3.2-.3h.4a.41.41 0 0 0 .3-.3l.3-.8v-.8a.19.19 0 0 1 .3-.2.2.2 0 0 1 .2.2v.6l.2.5a.68.68 0 0 0 .4.5l1 .3z" class="cls-2" data-name="路径"/><path id="形状-12" d="M24.88 21.85a.8.8 0 0 1 0 .3.15.15 0 0 1-.15.15.15.15 0 0 1-.15-.15.7.7 0 0 1 0-.4.2.2 0 0 1 .1-.2.2.2 0 0 1 .2.2zm-2.8 2.8c-.1 0-.2 0-.2-.2a.2.2 0 0 1 .2-.2.3.3 0 0 1 .3.2c0 .1-.1.2-.3.2m4.2-.6.2.1-.2.2a.15.15 0 0 1-.2 0 .13.13 0 0 1 0-.2zm10.7 0a.21.21 0 0 1-.2.2.7.7 0 0 1-.2 0 .62.62 0 0 0-.46.1.6.6 0 0 0-.24.4 2.9 2.9 0 0 0-.2 1V26l-.1.2a.2.2 0 0 1-.2-.2l-.1-.6a6 6 0 0 0-.2-.7.49.49 0 0 0-.5-.4 3 3 0 0 0-.4 0 .8.8 0 0 1-.3 0 .2.2 0 0 1-.2-.09.45.45 0 0 1 .06-.35.17.17 0 0 1 .14-.06 6 6 0 0 0 .7-.2.8.8 0 0 0 .6-.6l.2-.8a.7.7 0 0 1 0-.2.2.2 0 0 1 .2-.1l.1.1.2.9a2.5 2.5 0 0 0 .2.6.4.4 0 0 0 .3.3h.4a.19.19 0 0 1 .19.09.2.2 0 0 1 0 .21m-2.2-2.2a.7.7 0 0 1 0-.2.18.18 0 0 1 .2 0h.2a.87.87 0 0 1-.1.5.13.13 0 0 1 0 .15.11.11 0 0 1-.15-.05v-.1l-.1-.3m2.8 2.8a.34.34 0 0 1-.2 0 .17.17 0 0 1 0-.1l.2-.3a.2.2 0 0 1 .2.2c0 .1 0 .2-.2.2m-4-.4-.2.1-.2-.1.2-.2a.21.21 0 0 1 .2.2m1.5 1.7a.1.1 0 0 1 0 .07.3.3 0 0 0-.17.13.1.1 0 0 1-.1-.1l.1-.2a.1.1 0 0 1 .05-.1.12.12 0 0 1 0 .15" class="cls-2" data-name="形状"/><path id="路径-13" fill="#ce8452" d="M26.88 27.25a3.11 3.11 0 0 1 6 0Z" data-name="路径"/><path id="形状-13" d="M29.88 24.75a3.13 3.13 0 0 1 2.4 1.2l.7 1.2v.2h-6.1v-.2a.36.36 0 0 1 .2-.3 1.8 1.8 0 0 1 .4-.9 3 3 0 0 1 2.5-1.2m0 .3a2.53 2.53 0 0 0-2.2 1.1 3.5 3.5 0 0 0-.5.9h5.4V27a3.5 3.5 0 0 0-.5-.8 2.57 2.57 0 0 0-2.2-1" class="cls-15" data-name="形状"/><path id="路径-14" fill="#7d7d7d" d="M29.88 35.85a2.49 2.49 0 0 1-1.9-1c-.8-.8-1.6-3.8-1.6-4l-.5-1a5.4 5.4 0 0 1 1.3-3 3.53 3.53 0 0 1 2.6-1H30a3.35 3.35 0 0 1 2.5 1 5.4 5.4 0 0 1 1.3 3l-.4 1c-.1.2-.8 3.2-1.7 4a2.36 2.36 0 0 1-1.82 1" data-name="路径"/><path id="形状-14" d="m33.48 30.85-.6 2.2v.1a6.1 6.1 0 0 1-1.1 2 3 3 0 0 1-2 1 3 3 0 0 1-1.9-1 5.9 5.9 0 0 1-1-2l-.2-.7-.1-.2c-.15-.43-.28-.86-.4-1.3l-.3-.6a2 2 0 0 1-.1-.2v-.1a5 5 0 0 1 1.3-3.2 3.94 3.94 0 0 1 2.7-1H30a3.7 3.7 0 0 1 2.6 1 4.76 4.76 0 0 1 1.4 3.2c-.06.1-.13.2-.2.3l-.3.6m0-.6v-.3h.1v-.2a5 5 0 0 0-1.2-3 3.4 3.4 0 0 0-2.4-1h-.2a3.47 3.47 0 0 0-2.5 1 5.22 5.22 0 0 0-1.3 3l.2.2.3.6.6 2.1v.1a7.8 7.8 0 0 0 1 1.9 4 4 0 0 0 1.7.9 2.56 2.56 0 0 0 1.8-1 5.3 5.3 0 0 0 1-1.8l.2-.9.1-.2.3-1q.14-.3.3-.6" class="cls-15" data-name="形状"/><path id="形状-15" d="M28.68 27.05a.13.13 0 0 1 .2 0 .15.15 0 0 1 0 .2c-.13.17-.26.34-.4.5l-.4.2-.2-.2a.64.64 0 0 1 .2-.2v-.1a2 2 0 0 1 .2-.2.09.09 0 0 1 .11 0 .12.12 0 0 1 .05.1.11.11 0 0 1-.06.09 2 2 0 0 0-.2.2v.1l.1-.1c.07-.06.13-.13.2-.2l.2-.3m2.3 0a.1.1 0 0 0-.1-.1.09.09 0 0 0-.1.1 5 5 0 0 0 .4.6l.4.2c.2 0 .2-.1.2-.2a1.2 1.2 0 0 0-.1-.2l-.1-.1c-.07-.07-.13-.14-.2-.2a.09.09 0 0 0-.11 0 .09.09 0 0 0-.05.1.1.1 0 0 0 .06.09l.2.2v.1l-.1-.1a2 2 0 0 1-.2-.2c-.07-.1-.14-.2-.2-.3m-13.8 24.3a.3.3 0 0 1 .56.2.3.3 0 0 1-.36.2l-.5.2a.3.3 0 0 1-.2-.5zm1.3-.6a.3.3 0 0 1 .58.12.3.3 0 0 1-.28.28l-.5.2a.3.3 0 0 1-.38.17.3.3 0 0 1-.19-.37.31.31 0 0 1 .37-.2zm1.2-.8a.29.29 0 0 1 .27-.28.3.3 0 0 1 .13.58l-.2.2-.3.2a.3.3 0 0 1-.26-.12.28.28 0 0 1 0-.28l.3-.2Zm1-1.2a.29.29 0 0 1 .27-.28.3.3 0 0 1 .13.58l-.3.4a.31.31 0 0 1-.28 0 .3.3 0 0 1-.12-.26l.3-.4m.9-1.4a.32.32 0 0 1 .2.3l-.2.5a.3.3 0 0 1-.56.17.29.29 0 0 1 .06-.37c.07-.13.14-.26.2-.4a.28.28 0 0 1 .3-.2m.3-1.5a.32.32 0 0 1 .2.3 4 4 0 0 1 0 .5.3.3 0 0 1-.06.39.29.29 0 0 1-.39 0 .29.29 0 0 1-.05-.39v-.5a.29.29 0 0 1 .3-.3m21 5.5a.29.29 0 0 0-.1.4l.5.2a.3.3 0 0 0 .1-.5l-.4-.1m-1.4-.6a.3.3 0 0 0-.38-.17.3.3 0 0 0-.19.37.31.31 0 0 0 .37.2l.5.2a.3.3 0 0 0 .56-.2.3.3 0 0 0-.36-.2zm-1.2-.8a.3.3 0 0 0-.3-.3.29.29 0 0 0-.3.3.3.3 0 0 0 .3.3l.2.2.2.2a.28.28 0 0 0 .25-.12.32.32 0 0 0 .05-.28l-.2-.2Zm-1-1.2a.3.3 0 0 0-.3-.3.29.29 0 0 0-.3.3.3.3 0 0 0 .3.3l.3.4a.31.31 0 0 0 .28 0 .32.32 0 0 0 .12-.26 4 4 0 0 1-.3-.4m-1-1.4a.29.29 0 0 0-.1.3.65.65 0 0 0 .2.5.3.3 0 0 0 .24 0 .33.33 0 0 0 .16-.19c-.07-.13-.14-.26-.2-.4a.3.3 0 0 0-.3-.2Zm-.2-1.5a.29.29 0 0 0-.3.3l.1.5a.3.3 0 0 0 .25.13.31.31 0 0 0 .25-.13 2 2 0 0 1 0-.5.3.3 0 0 0-.3-.3" data-name="形状"/></g></g></g></g></svg>
