<svg width="1024" height="1024" viewBox="0 0 1024 1024" fill="none" xmlns="http://www.w3.org/2000/svg">
<g clip-path="url(#clip0_6003_104)">
<rect width="1024" height="1024" rx="512" fill="#0F172A"/>
<path d="M512 1048C794.769 1048 1024 818.77 1024 536C1024 393.834 966.057 265.201 872.5 172.429L150 898.077C242.65 990.708 370.634 1048 512 1048Z" fill="#D9D9D9"/>
<mask id="mask0_6003_104" style="mask-type:alpha" maskUnits="userSpaceOnUse" x="0" y="22" width="874" height="876">
<path d="M512 22.4297C229.23 22.4297 -2.00399e-05 251.66 -4.47605e-05 534.43C-5.7189e-05 676.596 57.9423 805.228 151.5 898.001L874 172.352C781.349 79.7214 653.365 22.4297 512 22.4297Z" fill="#D9D9D9"/>
</mask>
<g mask="url(#mask0_6003_104)">
<circle cx="524" cy="546" r="524" transform="rotate(-180 524 546)" fill="#F2F4F7"/>
<path d="M485.93 106L480.93 123.018V616.841L485.93 621.838L714.862 486.343L485.93 106Z" fill="#343434"/>
<path d="M485.932 106L257 486.343L485.932 621.84V382.154V106Z" fill="#8C8C8C"/>
<path d="M485.93 665.24L483.112 668.679V844.59L485.93 852.832L714.998 529.812L485.93 665.24Z" fill="#3C3C3B"/>
<path d="M485.932 852.83V665.238L257 529.811L485.932 852.83Z" fill="#8C8C8C"/>
<path d="M485.93 621.837L714.858 486.344L485.93 382.154V621.837Z" fill="#141414"/>
<path d="M257.001 486.344L485.929 621.837V382.154L257.001 486.344Z" fill="#393939"/>
</g>
<path d="M499.655 0H499.635C217.067 0 -12 229.067 -12 511.635V511.655C-12 794.223 217.067 1023.29 499.635 1023.29H499.655C782.223 1023.29 1011.29 794.223 1011.29 511.655V511.635C1011.29 229.067 782.223 0 499.655 0Z" fill="#111111"/>
<path d="M499.655 0H499.635C217.067 0 -12 229.067 -12 511.635V511.655C-12 794.223 217.067 1023.29 499.635 1023.29H499.655C782.223 1023.29 1011.29 794.223 1011.29 511.655V511.635C1011.29 229.067 782.223 0 499.655 0Z" fill="url(#paint0_radial_6003_104)" fill-opacity="0.7"/>
<path d="M417.784 119.693C236.008 157.329 99.3822 318.348 99.3821 511.278C99.3823 704.208 236.008 865.225 417.784 902.861V920.776C226.247 882.872 81.8293 713.941 81.8291 511.278C81.8292 308.615 226.247 139.683 417.784 101.778V119.693Z" fill="white"/>
<path d="M581.51 101.926C772.681 140.116 916.729 308.874 916.729 511.278C916.729 713.681 772.681 882.439 581.51 920.629V902.709C762.919 864.792 899.176 703.948 899.176 511.278C899.176 318.608 762.919 157.762 581.51 119.845V101.926Z" fill="white"/>
<path d="M560.306 496.97C592.988 503.199 618.338 515.211 636.355 533.007C654.373 550.359 663.381 572.604 663.381 599.744V642.455C663.381 674.933 651.649 701.183 628.185 721.204C604.72 740.78 573.924 750.568 535.794 750.568H522.595V818.639H477.343V750.568H463.516C438.375 750.568 416.168 745.006 396.894 733.884C377.62 722.316 362.535 706.299 351.641 685.834C341.166 664.923 335.928 640.898 335.928 613.758H381.181C381.181 641.343 388.723 663.811 403.807 681.162C419.311 698.069 439.632 706.522 464.773 706.522H534.537C559.258 706.522 579.161 700.738 594.245 689.17C609.33 677.158 616.872 661.586 616.872 642.455V599.744C616.872 584.617 611.215 571.714 599.902 561.037C589.008 550.359 573.924 543.463 554.649 540.348L441.518 520.328C409.673 514.544 384.952 502.531 367.354 484.29C349.756 466.049 340.957 443.136 340.957 415.552V379.514C340.957 347.036 352.27 321.231 374.896 302.1C397.941 282.524 428.319 272.736 466.03 272.736H477.343V204.665H522.595V272.736H537.051C572.667 272.736 601.368 284.304 623.157 307.439C644.945 330.129 655.839 360.16 655.839 397.533H610.587C610.587 373.063 603.882 353.487 590.474 338.805C577.066 324.123 559.258 316.782 537.051 316.782H466.03C442.146 316.782 423.082 322.566 408.835 334.133C394.589 345.256 387.466 360.383 387.466 379.514V415.552C387.466 431.123 392.704 444.248 403.179 454.926C414.073 465.604 428.948 472.722 447.803 476.282L560.306 496.97Z" fill="white"/>
<g clip-path="url(#clip1_6003_104)">
<mask id="mask1_6003_104" style="mask-type:alpha" maskUnits="userSpaceOnUse" x="149" y="172" width="875" height="876">
<path d="M512 1048C794.769 1048 1024 818.77 1024 536C1024 393.834 966.057 265.201 872.5 172.429L150 898.077C242.65 990.708 370.634 1048 512 1048Z" fill="#D9D9D9"/>
</mask>
<g mask="url(#mask1_6003_104)">
<path d="M512.122 24.4656C229.548 24.4656 0.475961 253.537 0.475936 536.112C0.475911 818.686 229.548 1047.76 512.122 1047.76C794.696 1047.76 1023.77 818.686 1023.77 536.112C1023.77 253.537 794.696 24.4656 512.122 24.4656Z" fill="#FEF3C7"/>
<path d="M658.148 297.24L736.621 297.24C750.315 297.24 762.531 300.306 774.004 306.442C785.48 312.575 794.364 321.094 801.397 331.998L843.224 400.148C849.887 410.371 853.218 421.275 853.218 433.542C853.218 445.811 849.887 456.373 843.224 466.596L800.657 535.769L843.224 604.603C849.887 614.826 853.218 626.07 853.218 637.997C853.218 649.924 849.887 661.168 843.224 671.391L801.397 739.54C794.734 750.445 785.48 758.966 774.004 765.099C762.531 771.233 749.945 774.639 736.621 774.639L658.148 774.638L616.69 842.109C610.027 853.013 600.773 861.532 589.299 867.666C577.824 873.8 565.238 877.207 551.913 877.207L472.33 877.207C458.634 877.207 446.42 874.14 434.944 867.666C423.471 861.532 414.585 853.013 407.554 842.109L365.726 774.638L287.253 774.638C273.557 774.638 261.343 771.572 249.867 765.099C238.394 758.966 229.509 750.445 222.477 739.54L181.019 671.391C174.356 661.168 171.025 650.263 171.025 637.997C171.025 625.73 174.356 614.826 181.019 604.603L223.587 535.769L181.019 466.596C174.356 456.373 171.025 445.469 171.025 433.542C171.025 421.617 174.356 410.371 181.019 400.148L222.477 331.998C229.139 321.094 238.394 312.575 249.867 306.442C261.343 300.306 273.929 297.24 287.253 297.24L365.726 297.24L407.554 229.771C414.216 218.867 423.471 210.348 434.944 204.215C446.42 198.081 459.006 195.015 472.33 195.015L551.913 195.015C565.61 195.015 577.824 198.081 589.299 204.215C600.773 210.348 609.658 218.867 616.69 229.771L658.148 297.24ZM365.726 569.844L286.143 569.844L245.426 637.997L286.143 706.147L365.726 706.147L407.554 637.997L365.726 569.844ZM550.803 467.619L473.071 467.619L431.613 535.769L473.071 603.922L550.803 603.922L592.259 535.769L550.803 467.619ZM550.803 672.072L473.071 672.072L430.503 741.245L471.961 808.374L551.544 808.374L593 741.245L550.434 672.072L550.803 672.072ZM616.32 637.997L657.776 706.147L736.249 706.147L777.707 637.997L736.249 569.844L657.776 569.844L616.32 637.997ZM616.32 433.542L657.776 501.694L737.359 501.694L778.077 433.542L736.621 365.392L658.148 365.392L616.69 433.542L616.32 433.542ZM550.803 399.467L593.372 330.636L551.913 263.165L472.33 263.165L430.872 330.636L473.441 399.467L551.172 399.467L550.803 399.467ZM365.726 365.392L287.253 365.392L245.795 433.542L287.253 501.694L365.726 501.694L407.554 433.542L365.726 365.392Z" fill="#D97706"/>
</g>
</g>
<path d="M888.143 171.064L152.207 907" stroke="#B0C0D4" stroke-width="44"/>
<circle cx="512" cy="512" r="490" stroke="url(#paint1_linear_6003_104)" stroke-width="44"/>
</g>
<defs>
<radialGradient id="paint0_radial_6003_104" cx="0" cy="0" r="1" gradientUnits="userSpaceOnUse" gradientTransform="translate(500.744 149.414) rotate(90) scale(1078.77 759.345)">
<stop offset="0.03125" stop-color="#3A3A3A"/>
<stop offset="1" stop-color="#1C1C1C"/>
</radialGradient>
<linearGradient id="paint1_linear_6003_104" x1="512" y1="0" x2="512" y2="1024" gradientUnits="userSpaceOnUse">
<stop stop-color="#D1DAE6"/>
<stop offset="0.5" stop-color="#7B97B7"/>
<stop offset="1" stop-color="#D1DAE6"/>
</linearGradient>
<clipPath id="clip0_6003_104">
<rect width="1024" height="1024" rx="512" fill="white"/>
</clipPath>
<clipPath id="clip1_6003_104">
<rect width="1048" height="1048" fill="white" transform="translate(1036 1048) rotate(-180)"/>
</clipPath>
</defs>
</svg>
