<svg width="192" height="128" viewBox="0 0 192 128" fill="none" xmlns="http://www.w3.org/2000/svg">
<g clip-path="url(#clip0_71_2063)">
<g clip-path="url(#clip1_71_2063)">
<g clip-path="url(#clip2_71_2063)">
<path d="M64 128C99.3462 128 128 99.3462 128 64C128 28.6538 99.3462 0 64 0C28.6538 0 0 28.6538 0 64C0 99.3462 28.6538 128 64 128Z" fill="#00B988"/>
<path d="M31.36 27.5195H96.81V42.0495H71.357V56.5785H56.813V42.0485H31.36V27.5195ZM56.813 56.5785V85.6375H42.268V56.5785H56.813ZM71.359 85.6375H85.9V56.5785H71.357V85.6375H56.815V100.167H71.359V85.6375Z" fill="white"/>
</g>
</g>
<path d="M192 64C192 99.3475 163.347 128 128 128C92.6525 128 64 99.3475 64 64C64 28.6525 92.6525 0 128 0C163.347 0 192 28.6525 192 64Z" fill="#0A0A0A"/>
<path d="M191.75 64C191.75 28.7925 163.208 0.25 128 0.25C92.7925 0.25 64.25 28.7925 64.25 64C64.25 99.2075 92.7925 127.75 128 127.75V128C92.6525 128 64 99.3475 64 64C64 28.6525 92.6525 0 128 0C163.347 0 192 28.6525 192 64C192 99.3475 163.347 128 128 128V127.75C163.208 127.75 191.75 99.2075 191.75 64Z" fill="url(#paint0_linear_71_2063)"/>
<path d="M128 119.775C158.802 119.775 183.775 94.8021 183.775 63.9996C183.775 33.1971 158.802 8.22461 128 8.22461C97.1975 8.22461 72.225 33.1971 72.225 63.9996C72.225 94.8021 97.1975 119.775 128 119.775Z" fill="url(#paint1_linear_71_2063)"/>
<path d="M128 118.49C158.095 118.49 182.49 94.0948 182.49 63.9998C182.49 33.9048 158.095 9.50977 128 9.50977C97.905 9.50977 73.51 33.9048 73.51 63.9998C73.51 94.0948 97.905 118.49 128 118.49Z" fill="#0A0A0A"/>
<path d="M109.575 33.1573C109.575 32.3398 109.9 31.5548 110.475 30.9773C111.051 30.3999 111.832 30.0745 112.648 30.0723H118.8C119.615 30.0723 120.398 30.3973 120.973 30.9773C121.548 31.5548 121.873 32.3398 121.873 33.1573V39.3048C121.873 40.1223 122.198 40.9073 122.773 41.4873C123.348 42.0673 124.13 42.3923 124.945 42.3923H131.03C131.845 42.3923 132.628 42.0673 133.205 41.4873C133.783 40.9098 134.105 40.1248 134.105 39.3048V33.1573C134.105 32.3398 134.43 31.5548 135.005 30.9773C135.581 30.3999 136.362 30.0745 137.178 30.0723H143.325C144.14 30.0723 144.923 30.3973 145.5 30.9773C146.078 31.5573 146.4 32.3398 146.4 33.1573V39.3298C146.4 40.1473 146.075 40.9323 145.5 41.5123C144.923 42.0898 144.141 42.4152 143.325 42.4173H137.203C136.388 42.4173 135.605 42.7423 135.028 43.3223C134.45 43.9023 134.128 44.6848 134.128 45.5048V51.6523C134.128 52.4698 133.803 53.2548 133.228 53.8348C132.653 54.4123 131.87 54.7398 131.055 54.7398H124.903C124.088 54.7398 123.305 54.4148 122.73 53.8348C122.154 53.2555 121.83 52.4718 121.83 51.6548V45.5073C121.83 44.6898 121.505 43.9048 120.93 43.3248C120.645 43.0379 120.306 42.8103 119.933 42.655C119.56 42.4996 119.159 42.4197 118.755 42.4198H112.63C111.815 42.4198 111.033 42.0948 110.458 41.5148C109.883 40.9348 109.558 40.1523 109.558 39.3348V33.1623H109.573V33.1573H109.575ZM106.5 79.4123C106.5 80.2298 106.175 81.0148 105.6 81.5923C105.024 82.1692 104.243 82.4945 103.428 82.4973H97.275C96.46 82.4973 95.6775 82.1723 95.1025 81.5923C94.5275 81.0123 94.2025 80.2298 94.2025 79.4123V73.2373C94.2025 72.4198 94.5275 71.6348 95.105 71.0573C95.6825 70.4798 96.4625 70.1548 97.2775 70.1523H103.403C104.218 70.1523 105 69.8273 105.575 69.2473C106.153 68.6673 106.475 67.8848 106.475 67.0648V60.9573C106.475 60.1398 106.15 59.3548 105.575 58.7773C105 58.1998 104.218 57.8723 103.403 57.8723H97.2775C96.4625 57.8723 95.68 57.5473 95.105 56.9673C94.53 56.3873 94.205 55.6048 94.2025 54.7848V48.6098C94.2025 47.7923 94.5275 47.0073 95.105 46.4273C95.6825 45.8473 96.4625 45.5248 97.2775 45.5223H103.43C104.245 45.5223 105.028 45.8473 105.603 46.4273C106.178 47.0048 106.503 47.7898 106.503 48.6098V54.7548C106.503 55.5723 106.828 56.3573 107.403 56.9373C107.98 57.5173 108.76 57.8423 109.575 57.8423H115.7C116.515 57.8423 117.298 58.1673 117.873 58.7473C118.448 59.3273 118.773 60.1098 118.773 60.9273V67.0998C118.773 67.9173 118.448 68.7023 117.873 69.2798C117.297 69.8571 116.515 70.1826 115.7 70.1848H109.575C108.76 70.1848 107.978 70.5098 107.403 71.0898C106.828 71.6698 106.503 72.4523 106.503 73.2723V73.2598V79.4098L106.5 79.4123ZM146.425 94.8423C146.425 95.6598 146.1 96.4448 145.525 97.0248C145.24 97.3113 144.901 97.5385 144.528 97.6934C144.154 97.8483 143.754 97.9278 143.35 97.9273H137.198C136.383 97.9273 135.6 97.6023 135.025 97.0223C134.448 96.4448 134.125 95.6598 134.125 94.8423V88.6948C134.125 87.8773 133.8 87.0923 133.223 86.5123C132.646 85.9354 131.865 85.61 131.05 85.6073H124.965C124.15 85.6073 123.368 85.9323 122.793 86.5123C122.218 87.0923 121.893 87.8748 121.893 88.6923V94.8398C121.893 95.6573 121.568 96.4423 120.993 97.0198C120.416 97.5967 119.635 97.922 118.82 97.9248H112.668C111.853 97.9248 111.07 97.5998 110.495 97.0198C109.918 96.4423 109.595 95.6573 109.595 94.8398V88.6648C109.595 87.8473 109.92 87.0623 110.495 86.4823C111.073 85.9048 111.853 85.5798 112.668 85.5773H118.793C119.608 85.5773 120.39 85.2523 120.965 84.6723C121.543 84.0923 121.865 83.3098 121.865 82.4898V76.3423C121.865 75.5248 122.19 74.7398 122.765 74.1598C123.343 73.5823 124.123 73.2573 124.938 73.2548H131.09C131.905 73.2548 132.688 73.5798 133.263 74.1598C133.84 74.7373 134.163 75.5223 134.163 76.3423V82.4898C134.163 83.3073 134.488 84.0923 135.063 84.6723C135.64 85.2498 136.42 85.5748 137.235 85.5773H143.36C144.175 85.5773 144.958 85.9023 145.533 86.4823C146.108 87.0598 146.433 87.8448 146.433 88.6623V94.8373H146.42L146.425 94.8423ZM161.8 54.7748C161.8 55.5923 161.475 56.3773 160.9 56.9548C160.325 57.5323 159.543 57.8598 158.728 57.8598H152.603C151.788 57.8598 151.005 58.1848 150.43 58.7648C149.855 59.3448 149.53 60.1273 149.53 60.9448V67.0523C149.53 67.8698 149.855 68.6548 150.43 69.2348C151.008 69.8148 151.788 70.1398 152.603 70.1398H158.728C159.543 70.1398 160.325 70.4648 160.9 71.0448C161.475 71.6248 161.8 72.4073 161.8 73.2248V79.3998C161.8 80.2173 161.475 81.0023 160.9 81.5823C160.325 82.1623 159.543 82.4848 158.728 82.4873H152.578C151.763 82.4873 150.98 82.1623 150.405 81.5823C149.83 81.0048 149.505 80.2198 149.505 79.3998V73.2523C149.505 72.4348 149.18 71.6498 148.605 71.0698C148.029 70.4929 147.248 70.1675 146.433 70.1648H140.308C139.493 70.1648 138.71 69.8398 138.135 69.2598C137.558 68.6823 137.235 67.8973 137.235 67.0798V60.9048C137.235 60.0873 137.56 59.3023 138.138 58.7248C138.713 58.1474 139.495 57.822 140.31 57.8198H146.435C147.25 57.8198 148.033 57.4948 148.608 56.9148C149.183 56.3348 149.508 55.5523 149.508 54.7323V48.5848C149.508 47.7673 149.833 46.9823 150.408 46.4023C150.983 45.8223 151.765 45.4973 152.58 45.4973H158.73C159.545 45.4973 160.328 45.8223 160.903 46.4023C161.478 46.9823 161.803 47.7648 161.803 48.5848V54.7748H161.8Z" fill="url(#paint2_linear_71_2063)"/>
</g>
<defs>
<linearGradient id="paint0_linear_71_2063" x1="128" y1="0" x2="128" y2="128" gradientUnits="userSpaceOnUse">
<stop stop-color="#272727" stop-opacity="0.49"/>
<stop offset="1" stop-opacity="0"/>
</linearGradient>
<linearGradient id="paint1_linear_71_2063" x1="286.057" y1="61.9146" x2="-5.99503" y2="65.7671" gradientUnits="userSpaceOnUse">
<stop stop-color="#F8F29C"/>
<stop offset="0.17" stop-color="#F6DB2A"/>
<stop offset="0.33" stop-color="#F4A435"/>
<stop offset="0.55" stop-color="#E85A46"/>
<stop offset="0.7" stop-color="#B93483"/>
<stop offset="0.87" stop-color="#502B6E"/>
<stop offset="1" stop-color="#2A2136"/>
</linearGradient>
<linearGradient id="paint2_linear_71_2063" x1="211.473" y1="62.9023" x2="57.235" y2="64.9298" gradientUnits="userSpaceOnUse">
<stop stop-color="#F8F29C"/>
<stop offset="0.17" stop-color="#F6DB2A"/>
<stop offset="0.33" stop-color="#F4A435"/>
<stop offset="0.55" stop-color="#E85A46"/>
<stop offset="0.7" stop-color="#B93483"/>
<stop offset="0.87" stop-color="#502B6E"/>
<stop offset="1" stop-color="#2A2136"/>
</linearGradient>
<clipPath id="clip0_71_2063">
<rect width="192" height="128" fill="white"/>
</clipPath>
<clipPath id="clip1_71_2063">
<rect width="128" height="128" fill="white"/>
</clipPath>
<clipPath id="clip2_71_2063">
<rect width="128" height="128" fill="white"/>
</clipPath>
</defs>
</svg>
