<?xml version="1.0" encoding="utf-8"?>
<!-- Generator: Adobe Illustrator 28.2.0, SVG Export Plug-In . SVG Version: 6.00 Build 0)  -->
<svg version="1.1" id="Layer_1" xmlns="http://www.w3.org/2000/svg" xmlns:xlink="http://www.w3.org/1999/xlink" x="0px" y="0px"
	 viewBox="0 0 192 128" style="enable-background:new 0 0 192 128;" xml:space="preserve">
<style type="text/css">
	.st0{fill:#78350F;}
	.st1{fill:#FFFFFF;}
	.st2{fill:#2775CA;}
</style>
<circle class="st0" cx="64" cy="64" r="64"/>
<circle class="st1" cx="64" cy="64" r="58"/>
<path class="st0" d="M47.5,41.1c-1.1-0.7-2.2-1.1-3.5-1.4c-1.2-0.2-2.5-0.2-3.7,0c-1.2,0.3-2.3,0.7-3.3,1.4c-1,0.7-1.8,1.6-2.4,2.6
	c-0.6,1.1-1,2.2-1.2,3.4c-0.2,1.2-0.1,2.5,0.3,3.7c0.5,2,3,2.4,4.7,1.2l4.4-3.1l4.4-3.1C48.9,44.7,49.3,42.3,47.5,41.1 M93.5,43.9
	c-1.2-2.1-3.3-3.6-5.7-4.1c-1.2-0.3-2.5-0.3-3.7,0c-1.2,0.2-2.4,0.7-3.5,1.4c-1.8,1.1-1.4,3.6,0.3,4.8l4.4,3.1l4.4,3.1
	c1.7,1.2,4.2,0.8,4.7-1.2c0.3-1.2,0.4-2.5,0.3-3.7C94.5,46.1,94.2,44.9,93.5,43.9 M67.6,77.6c-2.1-0.7-4.4-0.7-6.5,0
	c-1.2,0.4-2.2,1-2.1,1.9c0.1,1.4,2.4,3.8,4,4.3c1,0.3,1.6,0.3,2.7,0c1.6-0.4,3.9-2.9,4-4.3C69.8,78.6,68.8,78,67.6,77.6 M56.5,73.1
	c-0.6-0.8-1.3-1.4-2.1-1.9c-0.8-0.5-1.7-0.8-2.7-0.9c-0.9-0.1-1.9,0-2.8,0.3c-0.9,0.3-1.8,0.7-2.5,1.4c-0.8,0.6-1.4,1.4-1.8,2.2
	c-0.8,1.4,0.5,3,2.1,3.1l4.2,0.5l4.2,0.5c1.6,0.2,3.2-1,2.8-2.6C57.5,74.7,57.1,73.8,56.5,73.1 M82.2,71.8c-0.7-0.6-1.6-1.1-2.5-1.4
	c-0.9-0.3-1.9-0.4-2.8-0.3c-0.9,0.1-1.8,0.4-2.7,0.9c-0.8,0.5-1.6,1.1-2.1,1.9c-0.6,0.8-1,1.7-1.3,2.6c-0.4,1.6,1.1,2.8,2.8,2.6
	l4.2-0.5l4.2-0.5c1.6-0.2,2.9-1.7,2.1-3.1C83.6,73.1,83,72.4,82.2,71.8"/>
<path class="st0" d="M102,61.8c3.6-3.9,5.5-9,5.4-14.2c0-3-0.7-6-2.1-8.8c-3.7-7.7-13.2-13.7-22.8-11.7c-0.4,0.1-0.8,0.2-1.2,0.3
	c-1.4,0.4-2.8,1.1-3.9,2.1c-2.6,2.1-7.3,3.4-12.8,3.4h-0.6c-5.4,0-10.2-1.4-12.8-3.4c-1.2-0.9-2.5-1.6-3.9-2.1
	c-0.4-0.1-0.8-0.2-1.2-0.3c-9.7-2-19.1,4-22.8,11.7c-1.3,2.7-2,5.7-2.1,8.8c-0.1,5.3,1.9,10.3,5.4,14.2c0.3,0.3,0.4,0.8,0.4,1.2
	c-2.3,13.1,1.1,23.9,8.2,31.6c7.4,8.1,18.3,12.1,28.9,12.3h0.4c10.6-0.2,21.5-4.2,28.9-12.3c7.1-7.7,10.5-18.5,8.2-31.6
	C101.6,62.6,101.7,62.1,102,61.8L102,61.8z M95.8,59.5c-0.5,0.4-0.8,1.1-0.6,1.8c5.5,22.9-8.6,36.2-24.8,39.1h0
	c-1.6,0.3-3.1,0.5-4.7,0.5c-0.1,0-0.2,0-0.3,0c-0.3,0-0.6,0-0.9,0h-0.1l0,0h-0.1c-0.3,0-0.6,0-0.9,0c-0.1,0-0.2,0-0.3,0
	c-1.6-0.1-3.2-0.3-4.7-0.5h0c-16.2-2.9-30.3-16.2-24.8-39.1c0.2-0.7-0.1-1.3-0.6-1.8c-3.6-2.9-5.7-7.3-5.7-11.9
	c0-2.2,0.5-4.3,1.5-6.3c2.8-5.7,9.7-9.9,16.2-8.5c0.8,0.2,2.8,0.8,4.8,1.8c0.7,0.3,1.4,0.8,2,1.2c2.6,2,7.2,3.3,12.5,3.3
	c5.3,0,9.9-1.3,12.5-3.3c0.6-0.5,1.3-0.9,2-1.2c2-0.9,4-1.6,4.8-1.8c6.5-1.4,13.5,2.8,16.2,8.5c1,2,1.5,4.1,1.5,6.3
	C101.5,52.3,99.5,56.6,95.8,59.5"/>
<g>
	<circle class="st2" cx="128" cy="63.9" r="64"/>
	<path class="st1" d="M145.6,74c0-9.3-5.6-12.5-16.8-13.9c-8-1.1-9.6-3.2-9.6-6.9s2.7-6.1,8-6.1c4.8,0,7.5,1.6,8.8,5.6
		c0.3,0.8,1.1,1.3,1.9,1.3h4.3c1.1,0,1.9-0.8,1.9-1.9v-0.3C143,46,138.2,41.5,132,41v-6.4c0-1.1-0.8-1.9-2.1-2.1h-4
		c-1.1,0-1.9,0.8-2.1,2.1v6.1c-8,1.1-13.1,6.4-13.1,13.1c0,8.8,5.3,12.3,16.5,13.6c7.5,1.3,9.9,2.9,9.9,7.2s-3.7,7.2-8.8,7.2
		c-6.9,0-9.3-2.9-10.1-6.9c-0.3-1.1-1.1-1.6-1.9-1.6h-4.5c-1.1,0-1.9,0.8-1.9,1.9v0.3c1.1,6.7,5.3,11.5,14.1,12.8v6.4
		c0,1.1,0.8,1.9,2.1,2.1h4c1.1,0,1.9-0.8,2.1-2.1v-6.4C140.3,86.8,145.6,81.2,145.6,74"/>
	<path class="st1" d="M114.4,102C93.6,94.6,83,71.4,90.7,50.8c4-11.2,12.8-19.7,23.7-23.7c1.1-0.5,1.6-1.3,1.6-2.7v-3.7
		c0-1.1-0.5-1.9-1.6-2.1c-0.3,0-0.8,0-1.1,0.3c-25.3,8-39.2,34.9-31.2,60.3c4.8,14.9,16.3,26.4,31.2,31.2c1.1,0.5,2.1,0,2.4-1.1
		c0.3-0.3,0.3-0.5,0.3-1.1v-3.7C116,103.6,115.2,102.6,114.4,102 M142.7,18.8c-1.1-0.5-2.1,0-2.4,1.1c-0.3,0.3-0.3,0.5-0.3,1.1v3.7
		c0,1.1,0.8,2.1,1.6,2.7c20.8,7.5,31.5,30.7,23.7,51.2c-4,11.2-12.8,19.7-23.7,23.7c-1.1,0.5-1.6,1.3-1.6,2.7v3.7
		c0,1.1,0.5,1.9,1.6,2.1c0.3,0,0.8,0,1.1-0.3c25.3-8,39.2-34.9,31.2-60.3C169.1,35.1,157.4,23.6,142.7,18.8"/>
</g>
</svg>
