<svg xmlns="http://www.w3.org/2000/svg" viewBox="0 0 192 128"><circle cx="64" cy="64" r="64" fill="#78350f"/><circle cx="64" cy="64" r="58" fill="#fff"/><path fill="#78350f" d="M47.52 41.136a10 10 0 0 0-3.486-1.37 9.2 9.2 0 0 0-3.668.042 9 9 0 0 0-3.288 1.442 8.6 8.6 0 0 0-2.414 2.634 9 9 0 0 0-1.168 3.424 9.4 9.4 0 0 0 .252 3.682c.538 2.012 3.024 2.396 4.732 1.172l4.352-3.112 4.364-3.12c1.706-1.226 2.104-3.674.324-4.794m46.014 2.748a8.66 8.66 0 0 0-5.702-4.076 9.2 9.2 0 0 0-3.668-.04 10 10 0 0 0-3.488 1.368c-1.78 1.12-1.38 3.568.326 4.792l4.364 3.122 4.352 3.112c1.708 1.224 4.194.84 4.732-1.172a9.4 9.4 0 0 0 .252-3.682 9 9 0 0 0-1.168-3.424M67.63 77.598a10.16 10.16 0 0 0-6.47 0c-1.16.394-2.172 1.006-2.108 1.928.116 1.412 2.36 3.828 3.982 4.326.992.3 1.614.28 2.72 0 1.622-.416 3.878-2.914 3.984-4.326.074-.922-.95-1.532-2.108-1.928m-11.118-4.544a7.2 7.2 0 0 0-2.128-1.888 6.8 6.8 0 0 0-2.666-.88 7 7 0 0 0-2.804.258c-.906.28-1.76.736-2.508 1.36a7.6 7.6 0 0 0-1.834 2.25c-.77 1.44.454 2.956 2.098 3.142l4.152.468 4.184.476c1.644.188 3.192-1.006 2.77-2.582a7.6 7.6 0 0 0-1.264-2.604m25.736-1.298a7.4 7.4 0 0 0-2.51-1.36 7 7 0 0 0-2.802-.258 6.8 6.8 0 0 0-2.666.882 7.2 7.2 0 0 0-2.13 1.888 7.5 7.5 0 0 0-1.264 2.604c-.42 1.576 1.128 2.77 2.76 2.582l4.186-.476 4.16-.468c1.646-.186 2.868-1.7 2.1-3.142a7.8 7.8 0 0 0-1.834-2.252"/><path fill="#78350f" d="M102.018 61.8a20.7 20.7 0 0 0 5.438-14.22 20.6 20.6 0 0 0-2.076-8.788c-3.732-7.718-13.174-13.744-22.838-11.732q-.59.13-1.168.302a11.6 11.6 0 0 0-3.92 2.08c-2.582 2.06-7.326 3.44-12.752 3.44h-.616c-5.424 0-10.168-1.384-12.75-3.444a11.6 11.6 0 0 0-3.922-2.078 16 16 0 0 0-1.168-.302c-9.662-2.012-19.104 4.014-22.836 11.732a20.6 20.6 0 0 0-2.076 8.786 20.72 20.72 0 0 0 5.44 14.222 1.46 1.46 0 0 1 .356 1.204c-2.328 13.1 1.108 23.88 8.18 31.554 7.428 8.06 18.324 12.076 28.894 12.294h.382c10.568-.218 21.466-4.232 28.894-12.292 7.072-7.676 10.508-18.454 8.18-31.556a1.45 1.45 0 0 1 .356-1.204zm-6.186-2.272a1.74 1.74 0 0 0-.6 1.764c5.49 22.872-8.62 36.224-24.83 39.086h-.01a38 38 0 0 1-4.732.54c-.094 0-.2.01-.294.01-.296.02-.6.02-.896.032h-.074l-.02-.002h-.054c-.296-.01-.6-.01-.896-.03-.094 0-.2-.012-.296-.012a38 38 0 0 1-4.73-.54h-.012C42.18 97.516 28.068 84.164 33.56 61.29a1.74 1.74 0 0 0-.6-1.762 15 15 0 0 1-5.66-11.9 14.9 14.9 0 0 1 1.486-6.306c2.76-5.716 9.706-9.876 16.23-8.516.764.156 2.812.82 4.808 1.756.724.34 1.404.764 2.04 1.244 2.616 1.976 7.25 3.29 12.532 3.296 5.284-.004 9.92-1.32 12.534-3.294.636-.48 1.314-.904 2.04-1.244 1.994-.936 4.042-1.6 4.808-1.758 6.522-1.36 13.468 2.8 16.23 8.518a14.9 14.9 0 0 1 1.484 6.306 15 15 0 0 1-5.66 11.898"/><path fill="#0a0a0a" d="M192 64c0 35.348-28.653 64-64 64S64 99.347 64 64 92.653 0 128 0s64 28.653 64 64"/><path fill="url(#_ir_a)" d="M127.75 64C127.75 28.793 99.207.25 64 .25S.25 28.793.25 64 28.793 127.75 64 127.75v.25C28.653 128 0 99.347 0 64S28.653 0 64 0s64 28.653 64 64-28.653 64-64 64v-.25c35.207 0 63.75-28.543 63.75-63.75" transform="translate(64)"/><path fill="url(#_ir_b)" d="M64 119.775c30.802 0 55.775-24.973 55.775-55.775 0-30.803-24.973-55.775-55.775-55.775C33.197 8.225 8.225 33.197 8.225 64S33.197 119.775 64 119.775" transform="translate(64)"/><path fill="#0a0a0a" d="M128 118.49c30.095 0 54.49-24.395 54.49-54.49S158.095 9.51 128 9.51 73.51 33.905 73.51 64s24.395 54.49 54.49 54.49"/><path fill="url(#a)" d="M45.575 33.158a3.08 3.08 0 0 1 3.072-3.085H54.8a3.06 3.06 0 0 1 2.172.904c.575.578.9 1.363.9 2.18v6.148c0 .818.325 1.602.9 2.182s1.358.905 2.173.905h6.085a3.084 3.084 0 0 0 3.075-3.087v-6.148a3.08 3.08 0 0 1 3.072-3.085h6.148a3.07 3.07 0 0 1 2.175.906c.578.58.9 1.362.9 2.18v6.172c0 .818-.325 1.602-.9 2.183a3.1 3.1 0 0 1-2.175.904h-6.123a3.07 3.07 0 0 0-2.174.905c-.578.58-.9 1.363-.9 2.183v6.148c0 .817-.326 1.602-.9 2.182a3.07 3.07 0 0 1-2.173.905h-6.153a3.06 3.06 0 0 1-2.172-.905 3.1 3.1 0 0 1-.9-2.18v-6.148c0-.817-.325-1.602-.9-2.182a3.07 3.07 0 0 0-2.175-.905H48.63a3.06 3.06 0 0 1-2.172-.905 3.1 3.1 0 0 1-.9-2.18v-6.172h.014v-.005zM42.5 79.411a3.085 3.085 0 0 1-3.072 3.085h-6.153a3.06 3.06 0 0 1-2.172-.904 3.1 3.1 0 0 1-.9-2.18v-6.175a3.084 3.084 0 0 1 3.075-3.085h6.125a3.085 3.085 0 0 0 3.072-3.088v-6.107a3.1 3.1 0 0 0-.9-2.18 3.07 3.07 0 0 0-2.172-.905h-6.125a3.06 3.06 0 0 1-2.173-.905 3.1 3.1 0 0 1-.902-2.183V48.61c0-.818.325-1.602.902-2.182a3.07 3.07 0 0 1 2.173-.905h6.152c.815 0 1.598.324 2.172.904.576.578.9 1.363.9 2.183v6.145c0 .817.325 1.602.9 2.182.578.58 1.358.906 2.173.906H51.7c.815 0 1.597.324 2.172.904s.9 1.363.9 2.18V67.1a3.08 3.08 0 0 1-3.072 3.085h-6.125c-.815 0-1.598.325-2.172.905s-.9 1.362-.9 2.182v-.012 6.15zm39.925 15.43c0 .818-.325 1.603-.9 2.183a3.06 3.06 0 0 1-2.175.902h-6.152a3.08 3.08 0 0 1-3.073-3.085v-6.147a3.085 3.085 0 0 0-3.075-3.087h-6.085c-.815 0-1.598.325-2.173.904-.575.58-.9 1.363-.9 2.18v6.148a3.085 3.085 0 0 1-3.072 3.085h-6.153a3.08 3.08 0 0 1-3.072-3.085v-6.175a3.084 3.084 0 0 1 3.072-3.088h6.126c.815 0 1.597-.325 2.172-.904.577-.58.9-1.363.9-2.183v-6.147a3.084 3.084 0 0 1 3.072-3.088h6.153a3.084 3.084 0 0 1 3.072 3.088v6.147a3.084 3.084 0 0 0 3.073 3.088h6.125c.815 0 1.597.325 2.172.904.576.578.9 1.363.9 2.18v6.176h-.012zM97.8 54.776c0 .818-.325 1.602-.9 2.18a3.07 3.07 0 0 1-2.172.905h-6.125c-.816 0-1.598.325-2.173.905s-.9 1.362-.9 2.18v6.107c0 .818.325 1.603.9 2.183.577.58 1.357.905 2.172.905h6.126c.815 0 1.597.325 2.172.905s.9 1.362.9 2.18V79.4c0 .817-.325 1.602-.9 2.182a3.07 3.07 0 0 1-2.172.906h-6.15a3.06 3.06 0 0 1-2.173-.906 3.1 3.1 0 0 1-.9-2.182v-6.148c0-.817-.325-1.602-.9-2.182a3.1 3.1 0 0 0-2.172-.905h-6.126a3.08 3.08 0 0 1-3.073-3.085v-6.175a3.084 3.084 0 0 1 3.076-3.085h6.125c.815 0 1.597-.325 2.172-.905s.9-1.362.9-2.182v-6.148a3.1 3.1 0 0 1 .9-2.182 3.06 3.06 0 0 1 2.173-.905h6.15c.815 0 1.597.325 2.172.905s.9 1.362.9 2.182v6.19z" transform="translate(64)"/><defs transform="translate(64)"><linearGradient id="_ir_a" x1="64" x2="64" y1="0" y2="128" gradientUnits="userSpaceOnUse"><stop stop-color="#272727" stop-opacity=".49"/><stop offset="1" stop-opacity="0"/></linearGradient><linearGradient id="_ir_b" x1="222.057" x2="-69.995" y1="61.915" y2="65.767" gradientUnits="userSpaceOnUse"><stop stop-color="#f8f29c"/><stop offset=".17" stop-color="#f6db2a"/><stop offset=".33" stop-color="#f4a435"/><stop offset=".55" stop-color="#e85a46"/><stop offset=".7" stop-color="#b93483"/><stop offset=".87" stop-color="#502b6e"/><stop offset="1" stop-color="#2a2136"/></linearGradient><linearGradient id="a" x1="147.473" x2="-6.765" y1="62.903" y2="64.93" gradientUnits="userSpaceOnUse"><stop stop-color="#f8f29c"/><stop offset=".17" stop-color="#f6db2a"/><stop offset=".33" stop-color="#f4a435"/><stop offset=".55" stop-color="#e85a46"/><stop offset=".7" stop-color="#b93483"/><stop offset=".87" stop-color="#502b6e"/><stop offset="1" stop-color="#2a2136"/></linearGradient></defs></svg>
