<svg xmlns="http://www.w3.org/2000/svg" viewBox="0 0 128 128">
<circle cx="64" cy="64" r="64" fill="#F0B90B"/>
<path fill="#fff" d="M35.2 64l0.5 16.9 14.4 8.5v9.9l-22.8-13.4V59.1L35.2 64zm0-16.9v9.9l-8.4-5V42.2l8.4-5 8.4 5L35.2 47.1zm20.4-4.9l8.4-5 8.4 5-8.4 4.9-8.4-4.9z"/>
<path fill="#fff" d="M41.3 77.4V67.5l8.4 5v9.9l-8.4-5zm14.3 15.5l8.4 5 8.4-5v9.9l-8.4 5-8.4-5V92.9zm28.8-50.7l8.4-5 8.4 5v9.9l-8.4 5v-9.9l-8.4-5zm8.4 38.8l0.5-16.9 8.4-5v26.9l-22.8 13.4v-9.9l13.9-8.5z"/>
<polygon fill="#fff" points="86.8 77.4 78.4 82.3 78.4 72.4 86.8 67.5"/>
<path fill="#fff" d="M86.8 50.5l0.5 9.9l-14.4 8.5v17l-8.4 4.9-8.4-4.9v-17l-14.4-8.5V50.5l8.4-4.9 14.4 8.5 14.4-8.5 8.4 4.9zm-45.5-7.5l22.8-13.4 22.8 13.4-8.4 5-14.4-8.5-14.4 8.5-8.4-5z"/>
</svg>
