<svg xmlns="http://www.w3.org/2000/svg" viewBox="0 0 128 128"><circle cx="64" cy="64" r="64" fill="#f0b90b"/><path fill="#fff" d="m35.2 64 .5 16.9 14.4 8.5v9.9L27.3 85.9V59.1zm0-16.9V57l-8.4-5v-9.8l8.4-5 8.4 5zm20.4-4.9 8.4-5 8.4 5-8.4 4.9z"/><path fill="#fff" d="M41.3 77.4v-9.9l8.4 5v9.9zm14.3 15.5 8.4 5 8.4-5v9.9l-8.4 5-8.4-5zm28.8-50.7 8.4-5 8.4 5v9.9l-8.4 5v-9.9zM92.8 81l.5-16.9 8.4-5V86L78.9 99.4v-9.9z"/><path fill="#fff" d="m86.8 77.4-8.4 4.9v-9.9l8.4-4.9z"/><path fill="#fff" d="m86.8 50.5.5 9.9-14.4 8.5v17l-8.4 4.9-8.4-4.9v-17l-14.4-8.5v-9.9l8.4-4.9 14.4 8.5 14.4-8.5 8.4 4.9zM41.3 43l22.8-13.4L86.9 43l-8.4 5-14.4-8.5L49.7 48z"/></svg>
