<svg width="256" height="128" viewBox="0 0 256 128" fill="none" xmlns="http://www.w3.org/2000/svg">
<g clip-path="url(#clip0_1_29)">
<path d="M64 128C99.3462 128 128 99.3462 128 64C128 28.6538 99.3462 0 64 0C28.6538 0 0 28.6538 0 64C0 99.3462 28.6538 128 64 128Z" fill="#282138"/>
<path d="M64 123C96.5848 123 123 96.5848 123 64C123 31.4152 96.5848 5 64 5C31.4152 5 5 31.4152 5 64C5 96.5848 31.4152 123 64 123Z" fill="white"/>
<path d="M104.37 26.863L100.856 30.377C109.242 39.5482 113.893 51.5257 113.893 63.953C113.893 76.3803 109.242 88.3578 100.856 97.529L104.37 101.043C113.697 90.9272 118.876 77.6716 118.876 63.912C118.876 50.1524 113.697 36.8968 104.37 26.781V26.863ZM30.46 27.168C39.6309 18.782 51.608 14.1316 64.035 14.1316C76.462 14.1316 88.4391 18.782 97.61 27.168L101.125 23.653C91.0088 14.3267 77.7533 9.14877 63.994 9.14877C50.2347 9.14877 36.9792 14.3267 26.863 23.653L30.46 27.168ZM27.167 97.564C18.7906 88.3951 14.1461 76.425 14.1461 64.006C14.1461 51.587 18.7906 39.6169 27.167 30.448L23.653 26.933C14.3264 37.0493 9.1483 50.3049 9.1483 64.0645C9.1483 77.8241 14.3264 91.0797 23.653 101.196L27.167 97.564ZM97.564 100.809C88.3928 109.195 76.4156 113.845 63.9885 113.845C51.5614 113.845 39.5842 109.195 30.413 100.809L26.898 104.324C37.0143 113.651 50.2699 118.829 64.0295 118.829C77.7891 118.829 91.0447 113.651 101.161 104.324L97.564 100.809Z" fill="#5A5564"/>
<path d="M86.189 52.273C85.486 44.939 79.159 42.479 71.158 41.729V31.632H64.972V41.543H60.03V31.632H53.89V41.8H41.344V48.419C41.344 48.419 45.913 48.337 45.843 48.419C46.6666 48.329 47.4931 48.5619 48.1485 49.0689C48.8039 49.5758 49.2371 50.3172 49.357 51.137V78.972C49.3392 79.2612 49.2636 79.5438 49.1348 79.8034C49.006 80.0629 48.8265 80.294 48.607 80.483C48.3914 80.6755 48.1392 80.8225 47.8655 80.9152C47.5918 81.008 47.3022 81.0447 47.014 81.023C47.096 81.093 42.515 81.023 42.515 81.023L41.344 88.414H53.774V98.747H59.959V88.567H64.903V98.7H71.1V88.485C81.55 87.852 88.837 85.275 89.751 75.493C90.489 67.62 86.787 64.105 80.871 62.688C84.467 60.918 86.692 57.638 86.189 52.273ZM77.52 74.274C77.52 81.959 64.352 81.081 60.158 81.081V67.444C64.353 67.456 77.52 66.249 77.52 74.274ZM74.65 55.061C74.65 62.091 63.661 61.235 60.17 61.235V48.841C63.661 48.841 74.65 47.739 74.65 55.061Z" fill="#F09242"/>
<path d="M190.084 79.482C181.535 113.768 146.806 134.634 112.512 126.084C78.232 117.536 57.364 82.808 65.917 48.524C74.462 14.236 109.192 -6.632 143.475 1.916C177.767 10.464 198.633 45.195 190.084 79.482Z" fill="url(#paint0_linear_1_29)"/>
<path fill-rule="evenodd" clip-rule="evenodd" d="M138.781 29.41C138.917 28.9025 139.151 28.4268 139.471 28.0099C139.791 27.5931 140.19 27.2433 140.645 26.9805C141.1 26.7178 141.602 26.5472 142.123 26.4786C142.644 26.41 143.173 26.4446 143.68 26.5805C144.188 26.7164 144.664 26.951 145.081 27.2707C145.497 27.5905 145.847 27.9893 146.11 28.4442C146.373 28.8992 146.543 29.4015 146.612 29.9223C146.681 30.4432 146.646 30.9725 146.51 31.48L144.815 37.804L145.866 38.086C153.433 40.113 157.923 47.891 155.896 55.458L155.802 55.808C154.221 61.708 149.052 65.688 143.272 66.031L143.271 66.036H143.179L143.172 66.037L143.144 66.038C142.723 66.073 142.644 66.678 143.064 66.809V66.811C150.346 69.695 154.469 77.645 152.393 85.393C150.157 93.736 141.582 98.687 133.239 96.451L130.783 95.793L129.089 102.116C128.953 102.623 128.718 103.099 128.399 103.516C128.079 103.933 127.68 104.282 127.225 104.545C126.77 104.808 126.268 104.978 125.747 105.047C125.226 105.115 124.697 105.08 124.19 104.945C123.682 104.809 123.206 104.574 122.79 104.254C122.373 103.934 122.023 103.536 121.761 103.081C121.498 102.626 121.327 102.123 121.259 101.603C121.19 101.082 121.225 100.552 121.361 100.045L123.055 93.723L116.028 91.84L114.334 98.162C114.198 98.6694 113.964 99.1451 113.644 99.5619C113.324 99.9787 112.925 100.328 112.47 100.591C111.552 101.122 110.46 101.265 109.435 100.991C108.928 100.855 108.452 100.621 108.035 100.301C107.618 99.981 107.269 99.5823 107.006 99.1274C106.475 98.2087 106.332 97.1168 106.606 96.092L108.3 89.769L101.271 87.886L97.408 86.85C96.8502 86.7055 96.3265 86.452 95.8672 86.1041C95.4079 85.7562 95.0221 85.3208 94.7319 84.8229C94.4418 84.3251 94.2531 83.7748 94.1767 83.2036C94.1004 82.6325 94.1379 82.0519 94.2871 81.4954C94.4363 80.9388 94.6942 80.4173 95.046 79.961C95.3978 79.5046 95.8365 79.1225 96.3368 78.8366C96.837 78.5507 97.389 78.3666 97.9607 78.2951C98.5325 78.2236 99.1127 78.2661 99.668 78.42L103.531 79.454L114.45 38.704L110.94 37.764C110.382 37.6199 109.857 37.3666 109.397 37.0188C108.937 36.6709 108.551 36.2354 108.26 35.7373C107.97 35.2392 107.781 34.6885 107.704 34.117C107.628 33.5454 107.665 32.9644 107.814 32.4074C107.964 31.8504 108.222 31.3285 108.574 30.8718C108.926 30.4152 109.365 30.0328 109.866 29.7469C110.367 29.4609 110.919 29.277 111.492 29.2058C112.064 29.1346 112.644 29.1775 113.2 29.332L116.712 30.273L122.332 31.78L124.026 25.456C124.162 24.9485 124.396 24.4728 124.716 24.0559C125.036 23.6391 125.435 23.2893 125.89 23.0265C126.345 22.7638 126.847 22.5932 127.368 22.5246C127.889 22.456 128.418 22.4906 128.926 22.6265C129.433 22.7624 129.909 22.997 130.326 23.3167C130.742 23.6365 131.092 24.0353 131.355 24.4902C131.618 24.9452 131.788 25.4475 131.857 25.9683C131.926 26.4892 131.891 27.0185 131.755 27.526L130.06 33.851L137.087 35.733L138.781 29.41ZM119.807 56.413C119.454 55.0955 119.639 53.6919 120.321 52.5108C121.003 51.3298 122.127 50.468 123.444 50.115L137.834 46.259C138.486 46.0843 139.167 46.0397 139.836 46.1279C140.506 46.2161 141.151 46.4353 141.736 46.773C142.321 47.1107 142.833 47.5602 143.244 48.096C143.655 48.6317 143.957 49.2432 144.132 49.8955C144.306 50.5478 144.351 51.2281 144.263 51.8976C144.174 52.5671 143.955 53.2126 143.618 53.7974C143.28 54.3822 142.83 54.8947 142.295 55.3057C141.759 55.7168 141.147 56.0183 140.495 56.193L126.105 60.049C125.453 60.2241 124.772 60.2689 124.103 60.1809C123.433 60.0929 122.787 59.8738 122.202 59.5362C121.618 59.1985 121.105 58.7489 120.694 58.213C120.283 57.6771 119.982 57.0654 119.807 56.413ZM113.227 79.682C113.052 79.0297 113.007 78.3493 113.095 77.6797C113.183 77.0101 113.402 76.3644 113.74 75.7795C114.078 75.1946 114.527 74.682 115.063 74.271C115.599 73.8599 116.211 73.5585 116.863 73.384L131.253 69.528C131.908 69.3453 132.592 69.2942 133.267 69.3777C133.942 69.4612 134.593 69.6776 135.184 70.0145C135.774 70.3514 136.292 70.8021 136.708 71.3404C137.123 71.8787 137.427 72.494 137.603 73.1507C137.779 73.8074 137.823 74.4924 137.733 75.1662C137.642 75.8401 137.419 76.4893 137.076 77.0763C136.733 77.6633 136.277 78.1765 135.734 78.5861C135.192 78.9958 134.573 79.2938 133.915 79.463L119.525 83.318C118.873 83.4931 118.192 83.5379 117.523 83.4499C116.853 83.3619 116.207 83.1428 115.622 82.8052C115.038 82.4675 114.525 82.0179 114.114 81.482C113.703 80.9461 113.402 80.3344 113.227 79.682Z" fill="white"/>
</g>
<path d="M254.084 79.4824C245.535 113.768 210.806 134.634 176.512 126.084C142.232 117.536 121.364 82.8083 129.917 48.5247C138.462 14.235 173.192 -6.63274 207.475 1.91517C241.767 10.4631 262.633 45.1947 254.084 79.4824Z" fill="#E5A441"/>
<path d="M225.036 103.118C216.119 110.656 204.59 115.2 192 115.2C178.218 115.2 165.708 109.755 156.504 100.898L152.883 104.519C163.014 114.302 176.804 120.32 192 120.32C206.004 120.32 218.815 115.209 228.668 106.75L225.036 103.118Z" fill="#F4EDFF"/>
<path d="M228.898 28.504C237.755 37.7081 243.2 50.2182 243.2 64C243.2 77.8438 237.706 90.4043 228.779 99.6199L232.399 103.241C242.253 93.0982 248.32 79.2577 248.32 64C248.32 48.8043 242.302 35.0142 232.519 24.883L228.898 28.504Z" fill="#F4EDFF"/>
<path d="M228.799 21.363C218.928 12.8368 206.066 7.68 192 7.68C176.742 7.68 162.902 13.7472 152.759 23.6006L156.38 27.2214C165.596 18.2944 178.156 12.8 192 12.8C204.652 12.8 216.233 17.3893 225.167 24.9941L228.799 21.363Z" fill="#F4EDFF"/>
<path d="M152.882 30.9644L149.25 27.3324C140.791 37.1852 135.68 49.9957 135.68 64C135.68 78.0664 140.837 90.9284 149.363 100.799L152.994 97.1675C145.389 88.2328 140.8 76.6523 140.8 64C140.8 51.4098 145.344 39.881 152.882 30.9644Z" fill="#F4EDFF"/>
<path d="M204.111 33.9345C205.811 34.3903 206.82 36.1381 206.365 37.8384L205.015 42.8746L205.859 43.1006C211.888 44.7163 215.465 50.9133 213.85 56.9424L213.775 57.2225C212.517 61.9186 208.405 65.0851 203.805 65.3638L203.803 65.3722L203.729 65.3727C203.369 65.3752 203.294 65.8813 203.638 65.9882L203.636 65.9948C209.432 68.2964 212.712 74.626 211.059 80.7964C209.277 87.4436 202.444 91.3894 195.797 89.6085L193.826 89.0803L192.474 94.1259C192.018 95.8263 190.27 96.8354 188.57 96.3798C186.869 95.9241 185.86 94.1764 186.316 92.4759L187.668 87.4303L182.073 85.9312L180.721 90.9778C180.265 92.6784 178.516 93.6881 176.816 93.2324C175.115 92.7766 174.107 91.028 174.562 89.3276L175.914 84.281L170.324 82.7829L182.625 36.875L187.104 38.0753L188.453 33.041C188.909 31.3407 190.657 30.3316 192.357 30.7871C194.058 31.2428 195.067 32.9908 194.612 34.6913L193.263 39.7256L198.857 41.2244L200.206 36.1882C200.662 34.4879 202.41 33.4789 204.111 33.9345ZM170.317 82.7842L167.238 81.9592C165.383 81.4622 164.282 79.5552 164.779 77.7001C165.276 75.845 167.183 74.7431 169.039 75.2402L172.118 76.0652L170.317 82.7842ZM199.222 71.0491C198.636 68.8635 196.39 67.5663 194.204 68.1517L182.737 71.224C180.552 71.81 179.255 74.0572 179.841 76.243C180.427 78.4282 182.673 79.7255 184.858 79.1404L196.325 76.0681C198.511 75.4822 199.808 73.2348 199.222 71.0491ZM204.481 52.5121C203.895 50.3264 201.648 49.0296 199.462 49.6153L187.996 52.687C185.811 53.2729 184.514 55.5201 185.1 57.7059C185.686 59.8913 187.932 61.1885 190.117 60.6033L201.584 57.5307C203.769 56.9451 205.067 54.6978 204.481 52.5121ZM180.815 43.5946L178.015 42.8444C176.16 42.3473 175.059 40.4405 175.556 38.5853C176.053 36.7302 177.96 35.6293 179.815 36.1264L182.615 36.8765L180.815 43.5946Z" fill="#F4EDFF"/>
<defs>
<linearGradient id="paint0_linear_1_29" x1="128" y1="-6.04545e-07" x2="128" y2="128" gradientUnits="userSpaceOnUse">
<stop stop-color="#FEDF70"/>
<stop offset="1" stop-color="#D88528"/>
</linearGradient>
<clipPath id="clip0_1_29">
<rect width="192" height="128" fill="white"/>
</clipPath>
</defs>
</svg>
