<svg width="1024" height="1024" viewBox="0 0 1024 1024" fill="none" xmlns="http://www.w3.org/2000/svg">
<rect width="1024" height="1024" fill="white"/>
<g clip-path="url(#clip0_45_2)">
<path d="M158.09 316.348H507.156V393.879H371.407V471.405H293.839V393.874H158.09V316.348ZM293.839 471.405V626.462H216.266V471.405H293.839ZM371.418 626.462H448.97V471.405H371.407V626.462H293.85V703.988H371.418V626.462Z" fill="white"/>
<path d="M185.222 854.834C358.9 854.834 358.9 852.243 388.354 843.508C426.834 832.085 279.695 730.228 185.222 730.228C90.7493 730.228 14.1562 758.127 14.1562 792.526C14.1562 826.946 90.7493 854.834 185.222 854.834Z" fill="black"/>
<path d="M579.609 325.032L587.598 333.637L580.613 343.073C354.094 649.348 223.603 788.013 168.237 769.42C134.518 758.084 100.703 724.02 66.876 674.548C55.0036 657.084 43.9255 639.092 33.6756 620.629C28.2468 610.967 23.0946 601.152 18.2253 591.196C14.4355 583.239 12.8268 578.348 11.5636 571.913L11.4124 571.136C11.1101 569.426 10.7394 567.731 10.3003 566.051C3.43849 540.153 -0.0239935 513.473 0.000125135 486.683C0.000125135 316.2 138.2 178 308.683 178C362.095 178 413.564 191.593 459.18 217.106L460.357 217.84C497.693 243.847 537.443 279.577 579.609 325.032ZM444.745 241.486C403.133 218.35 356.294 206.245 308.683 206.32C153.845 206.32 28.3203 331.845 28.3203 486.683C28.3203 511.289 31.4838 535.463 37.6704 558.784C38.2858 561.095 38.5666 562.401 39.2144 565.737L39.3439 566.428C40.1645 570.574 41.0283 573.23 43.7815 579.007C48.3972 588.42 53.2757 597.701 58.4112 606.841C68.2364 624.553 78.8713 641.812 90.262 658.558C120.817 703.257 151.113 733.791 177.263 742.569C212.126 754.283 343.384 615.338 550.814 335.721C513.14 295.981 477.783 264.569 444.745 241.486Z" fill="black"/>
<path d="M444.745 241.486C403.133 218.35 356.294 206.245 308.683 206.32C153.845 206.32 28.3203 331.845 28.3203 486.683C28.3203 511.289 31.4838 535.463 37.6704 558.784C38.2858 561.095 38.5665 562.401 39.2144 565.737L39.3439 566.428C40.1645 570.574 41.0282 573.23 43.7814 579.007C48.3972 588.42 53.2757 597.701 58.4112 606.841C68.2364 624.553 78.8713 641.812 90.262 658.558C120.817 703.257 151.113 733.791 177.263 742.569C212.126 754.283 343.384 615.338 550.814 335.721C513.14 295.981 477.783 264.569 444.745 241.486Z" fill="#EC1C79"/>
<path d="M365.323 852.006C194.841 852.006 56.6406 713.806 56.6406 543.323C56.6406 372.84 194.841 234.64 365.323 234.64C535.806 234.64 674.006 372.84 674.006 543.323C674.006 713.806 535.806 852.006 365.323 852.006ZM365.323 823.686C520.161 823.686 645.686 698.161 645.686 543.323C645.686 388.485 520.161 262.961 365.323 262.961C210.485 262.961 84.9608 388.485 84.9608 543.323C84.9608 698.161 210.485 823.686 365.323 823.686Z" fill="black"/>
<path d="M365.323 823.685C520.161 823.685 645.686 698.161 645.686 543.323C645.686 388.485 520.161 262.961 365.323 262.961C210.485 262.961 84.9609 388.485 84.9609 543.323C84.9609 698.161 210.485 823.685 365.323 823.685Z" fill="white"/>
<path d="M155.595 600.752L118.486 488.95H150.996L170.344 553.181L191.754 488.637H218.239L239.649 553.181L258.997 488.939H290.88L253.761 600.762H226.952L204.602 536.845L182.393 600.762L155.595 600.752ZM303.081 599.963V488.95H392.371V515.111H333.549V531.922H386.832V556.193H333.549V573.792H393.181V599.963H303.081ZM435.99 599.963V515.91H402.682V488.95H500.059V515.91H466.751V599.963H435.99ZM513.533 599.963V488.95H544.305V530.496H583.789V488.95H614.56V599.963H583.789V557.78H544.305V599.963H513.533ZM18.3887 455.555C14.6274 453.674 11.7676 450.376 10.4383 446.386C9.10905 442.396 9.41919 438.041 11.3005 434.28C13.1818 430.519 16.4802 427.659 20.4701 426.33C24.46 425 28.8145 425.311 32.5758 427.192L77.8903 449.844C81.5573 451.779 84.3206 455.074 85.5882 459.022C86.8557 462.97 86.5268 467.257 84.6719 470.966C82.817 474.674 79.5835 477.509 75.6642 478.862C71.7448 480.216 67.4512 479.981 63.7031 478.207L18.3887 455.555ZM13.1738 530.691C9.35385 528.928 6.39053 525.72 4.9357 521.773C3.48088 517.826 3.65372 513.462 5.41621 509.642C7.1787 505.822 10.3865 502.859 14.3338 501.404C18.2812 499.949 22.6448 500.122 26.4647 501.885L71.7792 522.798C75.5604 524.583 78.4836 527.79 79.9128 531.719C81.3421 535.649 81.1618 539.984 79.4112 543.781C77.6606 547.578 74.4813 550.531 70.5649 551.996C66.6486 553.461 62.3122 553.32 58.4991 551.604L13.1738 530.691Z" fill="black"/>
<path d="M682.667 853C871.18 853 1024 700.329 1024 512C1024 323.671 871.18 171 682.667 171C494.154 171 341.334 323.671 341.334 512C341.334 700.329 494.154 853 682.667 853Z" fill="#2775CA"/>
<path d="M776.533 565.99C776.533 516.262 746.666 499.212 686.933 492.11C644.266 486.425 635.733 475.06 635.733 455.165C635.733 435.27 649.957 422.487 678.4 422.487C704 422.487 718.224 431.012 725.333 452.325C726.757 456.587 731.024 459.427 735.29 459.427H758.042C763.733 459.427 768 455.165 768 449.485V448.062C762.309 416.802 736.709 392.65 704 389.81V355.71C704 350.025 699.733 345.762 692.624 344.34H671.29C665.6 344.34 661.333 348.602 659.909 355.71V388.387C617.242 394.073 590.224 422.487 590.224 458.01C590.224 504.898 618.666 523.365 678.4 530.473C718.224 537.575 731.024 546.1 731.024 568.835C731.024 591.57 711.109 607.198 684.09 607.198C647.109 607.198 634.309 591.565 630.042 570.252C628.624 564.573 624.357 561.727 620.09 561.727H595.909C590.224 561.727 585.957 565.99 585.957 571.675V573.098C591.642 608.615 614.4 634.19 661.333 641.298V675.398C661.333 681.077 665.6 685.34 672.709 686.762H694.042C699.733 686.762 704 682.5 705.424 675.398V641.298C748.09 634.19 776.533 604.352 776.533 565.99Z" fill="white"/>
<path d="M610.134 715.177C499.201 675.398 442.31 551.785 483.558 442.377C504.892 382.702 551.825 337.237 610.134 315.925C615.825 313.085 618.668 308.823 618.668 301.715V281.825C618.668 276.14 615.825 271.877 610.134 270.46C608.71 270.46 605.868 270.46 604.444 271.877C469.334 314.502 395.377 458.01 438.044 592.987C463.644 672.552 524.801 733.65 604.444 759.225C610.134 762.065 615.825 759.225 617.244 753.54C618.668 752.123 618.668 750.7 618.668 747.86V727.965C618.668 723.702 614.401 718.023 610.134 715.177ZM760.892 271.877C755.201 269.037 749.51 271.877 748.092 277.562C746.668 278.985 746.668 280.402 746.668 283.248V303.137C746.668 308.823 750.934 314.502 755.201 317.348C866.134 357.127 923.025 480.74 881.777 590.148C860.444 649.823 813.51 695.288 755.201 716.6C749.51 719.44 746.668 723.702 746.668 730.81V750.7C746.668 756.385 749.51 760.648 755.201 762.065C756.625 762.065 759.468 762.065 760.892 760.648C896.001 718.023 969.958 574.515 927.292 439.537C901.692 358.55 839.11 297.452 760.892 271.877Z" fill="white"/>
</g>
<defs>
<clipPath id="clip0_45_2">
<rect width="1024" height="682" fill="white" transform="translate(0 171)"/>
</clipPath>
</defs>
</svg>
