<svg id="b13c5741-a8d7-46de-8c37-0aad6ad3dc30" data-name="图层 1" xmlns="http://www.w3.org/2000/svg" viewBox="0 0 256 256"><defs><style>.efcf95bd-263a-4aab-8fd0-8132426b1da8{fill:#ffd869;}.b6a230d5-0bda-4100-96c3-87a3cb0c6c11{fill:#25131a;}.e4225cbf-2755-4b6a-ad00-18f264cb1305{fill:#c09344;}.a60e2b7e-04a2-46fc-8671-8bce3fd080b0{fill:#868c21;}.ab28abc7-a630-4e7c-8470-109908a2b27b{fill:#fff1cc;}.b6ff9544-5046-4b53-ab1d-3ae70a346c09{fill:#96e3ab;}.b2fe88cc-b5e8-4f7b-beb0-0165ada20a76{fill:#3ac361;}</style></defs><rect class="efcf95bd-263a-4aab-8fd0-8132426b1da8" x="153.6" y="51.2" width="25.6" height="25.6"/><rect class="efcf95bd-263a-4aab-8fd0-8132426b1da8" x="153.6" y="153.6" width="25.6" height="25.6"/><rect class="efcf95bd-263a-4aab-8fd0-8132426b1da8" x="179.2" y="153.6" width="25.6" height="25.6"/><rect class="efcf95bd-263a-4aab-8fd0-8132426b1da8" x="179.2" y="128" width="25.6" height="25.6"/><rect class="b6a230d5-0bda-4100-96c3-87a3cb0c6c11" x="153.6" width="25.6" height="25.6"/><rect class="b6a230d5-0bda-4100-96c3-87a3cb0c6c11" x="128" width="25.6" height="25.6"/><rect class="b6a230d5-0bda-4100-96c3-87a3cb0c6c11" x="102.4" width="25.6" height="25.6"/><rect class="b6a230d5-0bda-4100-96c3-87a3cb0c6c11" x="76.8" width="25.6" height="25.6"/><rect class="b6a230d5-0bda-4100-96c3-87a3cb0c6c11" x="51.2" y="25.6" width="25.6" height="25.6"/><rect class="b6a230d5-0bda-4100-96c3-87a3cb0c6c11" x="25.6" y="51.2" width="25.6" height="25.6"/><rect class="b6a230d5-0bda-4100-96c3-87a3cb0c6c11" y="76.8" width="25.6" height="25.6"/><rect class="b6a230d5-0bda-4100-96c3-87a3cb0c6c11" y="102.4" width="25.6" height="25.6"/><rect class="b6a230d5-0bda-4100-96c3-87a3cb0c6c11" y="128" width="25.6" height="25.6"/><rect class="b6a230d5-0bda-4100-96c3-87a3cb0c6c11" y="153.6" width="25.6" height="25.6"/><rect class="b6a230d5-0bda-4100-96c3-87a3cb0c6c11" x="76.8" y="230.4" width="25.6" height="25.6" transform="translate(179.2 486.4) rotate(180)"/><rect class="b6a230d5-0bda-4100-96c3-87a3cb0c6c11" x="102.4" y="230.4" width="25.6" height="25.6" transform="translate(230.4 486.4) rotate(180)"/><rect class="b6a230d5-0bda-4100-96c3-87a3cb0c6c11" x="128" y="230.4" width="25.6" height="25.6" transform="translate(281.6 486.4) rotate(180)"/><rect class="b6a230d5-0bda-4100-96c3-87a3cb0c6c11" x="153.6" y="230.4" width="25.6" height="25.6" transform="translate(332.8 486.4) rotate(180)"/><rect class="b6a230d5-0bda-4100-96c3-87a3cb0c6c11" x="179.2" y="204.8" width="25.6" height="25.6" transform="translate(384 435.2) rotate(180)"/><rect class="b6a230d5-0bda-4100-96c3-87a3cb0c6c11" x="204.8" y="179.2" width="25.6" height="25.6" transform="translate(435.2 384) rotate(180)"/><rect class="b6a230d5-0bda-4100-96c3-87a3cb0c6c11" x="230.4" y="153.6" width="25.6" height="25.6" transform="translate(486.4 332.8) rotate(180)"/><rect class="b6a230d5-0bda-4100-96c3-87a3cb0c6c11" x="230.4" y="128" width="25.6" height="25.6" transform="translate(486.4 281.6) rotate(180)"/><rect class="b6a230d5-0bda-4100-96c3-87a3cb0c6c11" x="230.4" y="102.4" width="25.6" height="25.6" transform="translate(486.4 230.4) rotate(180)"/><rect class="b6a230d5-0bda-4100-96c3-87a3cb0c6c11" x="230.4" y="76.8" width="25.6" height="25.6" transform="translate(486.4 179.2) rotate(180)"/><rect class="b6a230d5-0bda-4100-96c3-87a3cb0c6c11" x="25.6" y="179.2" width="25.6" height="25.6" transform="translate(-153.6 230.4) rotate(-90)"/><rect class="b6a230d5-0bda-4100-96c3-87a3cb0c6c11" x="51.2" y="204.8" width="25.6" height="25.6" transform="translate(-153.6 281.6) rotate(-90)"/><rect class="b6a230d5-0bda-4100-96c3-87a3cb0c6c11" x="204.8" y="51.2" width="25.6" height="25.6" transform="translate(281.6 -153.6) rotate(90)"/><rect class="b6a230d5-0bda-4100-96c3-87a3cb0c6c11" x="179.2" y="25.6" width="25.6" height="25.6" transform="translate(230.4 -153.6) rotate(90)"/><rect class="e4225cbf-2755-4b6a-ad00-18f264cb1305" x="76.8" y="25.6" width="25.6" height="25.6"/><rect class="e4225cbf-2755-4b6a-ad00-18f264cb1305" x="102.4" y="25.6" width="25.6" height="25.6"/><rect class="e4225cbf-2755-4b6a-ad00-18f264cb1305" x="128" y="25.6" width="25.6" height="25.6"/><rect class="e4225cbf-2755-4b6a-ad00-18f264cb1305" x="153.6" y="25.6" width="25.6" height="25.6"/><rect class="e4225cbf-2755-4b6a-ad00-18f264cb1305" x="51.2" y="51.2" width="25.6" height="25.6"/><rect class="e4225cbf-2755-4b6a-ad00-18f264cb1305" x="25.6" y="76.8" width="25.6" height="25.6"/><rect class="e4225cbf-2755-4b6a-ad00-18f264cb1305" x="25.6" y="102.4" width="25.6" height="25.6"/><rect class="e4225cbf-2755-4b6a-ad00-18f264cb1305" x="25.6" y="128" width="25.6" height="25.6"/><rect class="e4225cbf-2755-4b6a-ad00-18f264cb1305" x="25.6" y="153.6" width="25.6" height="25.6"/><rect class="e4225cbf-2755-4b6a-ad00-18f264cb1305" x="153.6" y="204.8" width="25.6" height="25.6" transform="translate(332.8 435.2) rotate(180)"/><rect class="e4225cbf-2755-4b6a-ad00-18f264cb1305" x="128" y="204.8" width="25.6" height="25.6" transform="translate(281.6 435.2) rotate(180)"/><rect class="e4225cbf-2755-4b6a-ad00-18f264cb1305" x="102.4" y="204.8" width="25.6" height="25.6" transform="translate(230.4 435.2) rotate(180)"/><rect class="e4225cbf-2755-4b6a-ad00-18f264cb1305" x="76.8" y="204.8" width="25.6" height="25.6" transform="translate(179.2 435.2) rotate(180)"/><rect class="e4225cbf-2755-4b6a-ad00-18f264cb1305" x="179.2" y="179.2" width="25.6" height="25.6" transform="translate(384 384) rotate(180)"/><rect class="e4225cbf-2755-4b6a-ad00-18f264cb1305" x="204.8" y="153.6" width="25.6" height="25.6" transform="translate(435.2 332.8) rotate(180)"/><rect class="e4225cbf-2755-4b6a-ad00-18f264cb1305" x="204.8" y="128" width="25.6" height="25.6" transform="translate(435.2 281.6) rotate(180)"/><rect class="e4225cbf-2755-4b6a-ad00-18f264cb1305" x="204.8" y="102.4" width="25.6" height="25.6" transform="translate(435.2 230.4) rotate(180)"/><rect class="e4225cbf-2755-4b6a-ad00-18f264cb1305" x="204.8" y="76.8" width="25.6" height="25.6" transform="translate(435.2 179.2) rotate(180)"/><rect class="e4225cbf-2755-4b6a-ad00-18f264cb1305" x="179.2" y="51.2" width="25.6" height="25.6"/><rect class="e4225cbf-2755-4b6a-ad00-18f264cb1305" x="51.2" y="179.2" width="25.6" height="25.6"/><rect class="e4225cbf-2755-4b6a-ad00-18f264cb1305" x="102.4" y="76.8" width="25.6" height="25.6"/><rect class="e4225cbf-2755-4b6a-ad00-18f264cb1305" x="128" y="76.8" width="25.6" height="25.6"/><rect class="e4225cbf-2755-4b6a-ad00-18f264cb1305" x="76.8" y="102.4" width="25.6" height="25.6"/><rect class="e4225cbf-2755-4b6a-ad00-18f264cb1305" x="76.8" y="128" width="25.6" height="25.6"/><rect class="a60e2b7e-04a2-46fc-8671-8bce3fd080b0" x="153.6" y="102.4" width="25.6" height="25.6"/><rect class="a60e2b7e-04a2-46fc-8671-8bce3fd080b0" x="153.6" y="128" width="25.6" height="25.6"/><rect class="a60e2b7e-04a2-46fc-8671-8bce3fd080b0" x="102.4" y="153.6" width="25.6" height="25.6"/><rect class="a60e2b7e-04a2-46fc-8671-8bce3fd080b0" x="128" y="153.6" width="25.6" height="25.6"/><rect class="ab28abc7-a630-4e7c-8470-109908a2b27b" x="76.8" y="51.2" width="25.6" height="25.6"/><rect class="ab28abc7-a630-4e7c-8470-109908a2b27b" x="102.4" y="51.2" width="25.6" height="25.6"/><rect class="ab28abc7-a630-4e7c-8470-109908a2b27b" x="128" y="51.2" width="25.6" height="25.6"/><rect class="ab28abc7-a630-4e7c-8470-109908a2b27b" x="76.8" y="76.8" width="25.6" height="25.6"/><rect class="ab28abc7-a630-4e7c-8470-109908a2b27b" x="51.2" y="76.8" width="25.6" height="25.6"/><rect class="ab28abc7-a630-4e7c-8470-109908a2b27b" x="51.2" y="102.4" width="25.6" height="25.6"/><rect class="ab28abc7-a630-4e7c-8470-109908a2b27b" x="51.2" y="153.6" width="25.6" height="25.6"/><rect class="b6ff9544-5046-4b53-ab1d-3ae70a346c09" x="102.4" y="102.4" width="25.6" height="25.6"/><rect class="ab28abc7-a630-4e7c-8470-109908a2b27b" x="179.2" y="76.8" width="25.6" height="25.6"/><rect class="efcf95bd-263a-4aab-8fd0-8132426b1da8" x="179.2" y="102.4" width="25.6" height="25.6"/><rect class="efcf95bd-263a-4aab-8fd0-8132426b1da8" x="153.6" y="76.8" width="25.6" height="25.6"/><rect class="b2fe88cc-b5e8-4f7b-beb0-0165ada20a76" x="128" y="102.4" width="25.6" height="25.6"/><rect class="b2fe88cc-b5e8-4f7b-beb0-0165ada20a76" x="128" y="128" width="25.6" height="25.6"/><rect class="b2fe88cc-b5e8-4f7b-beb0-0165ada20a76" x="102.4" y="128" width="25.6" height="25.6"/><rect class="efcf95bd-263a-4aab-8fd0-8132426b1da8" x="51.2" y="128" width="25.6" height="25.6"/><rect class="efcf95bd-263a-4aab-8fd0-8132426b1da8" x="76.8" y="153.6" width="25.6" height="25.6"/><rect class="efcf95bd-263a-4aab-8fd0-8132426b1da8" x="76.8" y="179.2" width="25.6" height="25.6"/><rect class="efcf95bd-263a-4aab-8fd0-8132426b1da8" x="102.4" y="179.2" width="25.6" height="25.6"/><rect class="efcf95bd-263a-4aab-8fd0-8132426b1da8" x="128" y="179.2" width="25.6" height="25.6"/><rect class="efcf95bd-263a-4aab-8fd0-8132426b1da8" x="153.6" y="179.2" width="25.6" height="25.6"/></svg>