<?xml version="1.0" encoding="UTF-8"?>
<!-- Generated by @neplex/vectorizer (Using visioncortex VTracer) -->
<svg version="1.1" xmlns="http://www.w3.org/2000/svg" width="128" height="128">
<path d="M0 0 C13.96735 11.30589 23.57368 24.86756 26 43 C27.5203 59.36228 23.15845 75.17258 13.1875 88.1875 C2.84664 100.46607 -9.98617 107.64253 -26 110 C-39.3804 111.13074 -53.11425 107.10948 -63.72266 98.89062 C-66.25146 96.6784 -68.64107 94.39175 -71 92 C-71.6484 91.36191 -72.2968 90.72383 -72.96484 90.06641 C-85.08046 77.31452 -87.57645 61.91809 -87.27734 44.96484 C-86.95207 39.14198 -86.25337 34.36286 -84 29 C-83.32131 27.34484 -83.32131 27.34484 -82.62891 25.65625 C-75.7538 10.48814 -64.72748 -0.47701 -49.125 -6.375 C-32.80654 -11.97686 -14.21324 -10.02541 0 0 Z " fill="#4587C3" transform="translate(94,16)"/>
<path d="M0 0 C13.96735 11.30589 23.57368 24.86756 26 43 C27.5203 59.36228 23.15845 75.17258 13.1875 88.1875 C2.84664 100.46607 -9.98617 107.64253 -26 110 C-39.3804 111.13074 -53.11425 107.10948 -63.72266 98.89062 C-66.25146 96.6784 -68.64107 94.39175 -71 92 C-71.6484 91.36191 -72.2968 90.72383 -72.96484 90.06641 C-85.08046 77.31452 -87.57645 61.91809 -87.27734 44.96484 C-86.95207 39.14198 -86.25337 34.36286 -84 29 C-83.32131 27.34484 -83.32131 27.34484 -82.62891 25.65625 C-75.7538 10.48814 -64.72748 -0.47701 -49.125 -6.375 C-32.80654 -11.97686 -14.21324 -10.02541 0 0 Z M-34 10 C-36.42547 10.46516 -38.85104 10.9298 -41.27734 11.39062 C-45.00359 12.22462 -48.46966 13.56171 -52 15 C-52 16.32 -52 17.64 -52 19 C-53.03641 19.04898 -54.07281 19.09797 -55.14062 19.14844 C-56.49672 19.2232 -57.85281 19.29797 -59.25 19.375 C-60.59578 19.44461 -61.94156 19.51422 -63.32812 19.58594 C-67.18982 19.8081 -67.18982 19.8081 -71 22 C-71 22.66 -71 23.32 -71 24 C-71.66 24 -72.32 24 -73 24 C-74.10261 27.30783 -74.23741 29.95559 -74.3125 33.4375 C-74.34988 34.57059 -74.38727 35.70367 -74.42578 36.87109 C-73.91232 40.64436 -72.78148 41.53656 -70 44 C-69.1284 48.8422 -70.24264 51.75077 -72.5 55.9375 C-74.94781 60.49334 -75.63255 63.75884 -75 69 C-74.34 70.32 -73.68 71.64 -73 73 C-73 74.62937 -73 76.25875 -73 77.9375 C-72.72614 81.19985 -72.56136 82.50895 -70.06641 84.69141 C-59.73182 90.09248 -48.71333 90.27325 -37.25 90.25 C-34.71828 90.25516 -32.18656 90.26031 -29.57812 90.26562 C-20.00526 89.93008 -11.10431 89.03477 -2 86 C-0.31804 85.80019 1.37102 85.65096 3.0625 85.5625 C7.51324 85.05545 9.60846 84.75563 13 82 C15.80733 77.789 15.38984 75.00292 15 70 C14.04094 68.08187 14.04094 68.08187 13.0625 66.125 C10.83189 61.66378 10.49307 58.60445 10.37109 53.71094 C9.5396 47.63663 6.21918 43.84306 1.9375 39.6875 C0.62072 38.39393 0.62072 38.39393 -0.72266 37.07422 C-2.81633 34.97865 -2.81633 34.97865 -5 34 C-6.21947 29.12212 -6.36928 24.41963 -6.62109 19.41016 C-6.97553 16.22023 -7.64666 13.8875 -9 11 C-9.66 11 -10.32 11 -11 11 C-11.495 9.02 -11.495 9.02 -12 7 C-14.74871 4.73635 -16.72744 4.04193 -20.25 3.5 C-25.28057 4.17074 -30.32682 6.32682 -34 10 Z " fill="#4586C2" transform="translate(94,16)"/>
<path d="M0 0 C7.30468 5.11328 14.19861 14.59582 17 23 C17.56685 28.89527 16.65147 32.30525 13 37 C6.54614 41.75358 -0.10762 43.15173 -8 42 C-12.43632 40.55351 -14.35207 38.87733 -17 35 C-19.43909 27.68274 -19.0089 18.54814 -16.25 11.375 C-12.4601 4.00574 -9.01447 -1.47778 0 0 Z " fill="#F5F5F5" transform="translate(59,47)"/>
<path d="M0 0 C4.30376 2.48662 6.33281 5.34943 8 10 C8.65854 18.12195 8.65854 18.12195 5 23 C5.11859 22.29875 5.23719 21.5975 5.35938 20.875 C6.28565 14.05761 5.9893 9.93004 2 4 C-2.66064 1.66968 -4.05223 1.65823 -9 3 C-10.05187 3.94875 -11.10375 4.8975 -12.1875 5.875 C-16.56219 9.46081 -19.65451 10.08247 -25.05859 11.21875 C-29.37922 12.36633 -32.34419 14.45399 -36 17 C-37.98 17.99 -37.98 17.99 -40 19 C-40.33 18.67 -40.66 18.34 -41 18 C-46.4644 17.53903 -46.4644 17.53903 -51.5 19.375 C-53.7873 23.37778 -53.80096 27.49731 -53 32 C-50.47434 36.15811 -50.47434 36.15811 -47 37 C-47.93016 42.24271 -49.08428 46.43223 -51.625 51.125 C-53.81517 55.31095 -54.73823 58.2015 -54 63 C-53.48438 63.96937 -52.96875 64.93875 -52.4375 65.9375 C-50.54473 69.96992 -51.18477 72.7015 -52 77 C-49.83438 77.68062 -49.83438 77.68062 -47.625 78.375 C-46.40684 78.75785 -46.40684 78.75785 -45.16406 79.14844 C-21.77115 85.44431 5.58542 83.69286 27 72 C27.33 71.67 27.66 71.34 28 71 C27.65773 65.86593 27.02515 62.2089 24 58 C23.29875 58.70125 22.5975 59.4025 21.875 60.125 C20.92625 61.07375 19.9775 62.0225 19 63 C17.96875 64.09313 16.9375 65.18625 15.875 66.3125 C13 69 13 69 10 69 C12 65 12 65 15.4375 62.5625 C19.71809 59.50503 19.71809 59.50503 22 55 C22.82373 47.0716 21.71441 43.36445 17 37 C21.88646 39.44323 22.82928 41.03835 25 46 C24.96826 48.50712 24.93361 51.01533 24.80859 53.51953 C25.12676 57.6427 27.79913 60.58865 30 64 C30.6875 68.1875 30.6875 68.1875 30 72 C26.00735 75.93878 22.30347 77.9673 17 79.6875 C15.82438 80.08324 14.64875 80.47898 13.4375 80.88672 C2.33265 83.67271 -8.65222 84.29488 -20.0625 84.3125 C-22.56973 84.32926 -25.07695 84.34602 -27.66016 84.36328 C-36.71412 83.91516 -47.91506 83.27983 -55 77 C-55.62365 74.42367 -55.81184 72.08637 -55.83203 69.4375 C-55.86913 66.62063 -55.86913 66.62063 -58 63 C-58.78172 56.52291 -57.10074 52.90639 -54.12891 47.39453 C-52.55465 44.05535 -52.34865 41.61863 -53 38 C-53.66516 37.4109 -54.33031 36.8218 -55.01562 36.21484 C-57.7 33.2187 -57.44314 31.39722 -57.3125 27.4375 C-57.28801 26.30184 -57.26352 25.16617 -57.23828 23.99609 C-57 21 -57 21 -56 18 C-55.34 18 -54.68 18 -54 18 C-54 17.34 -54 16.68 -54 16 C-49.63398 13.81699 -46.64589 13.54604 -41.8125 13.125 C-34.94089 12.39522 -30.11903 11.05952 -24 8 C-22.845 7.89688 -21.69 7.79375 -20.5 7.6875 C-16.64411 6.93009 -15.487 5.93707 -12.5625 3.4375 C-8.30407 -0.08822 -5.62888 -1.03196 0 0 Z " fill="#4975A0" transform="translate(77,22)"/>
<path d="M0 0 C3.4375 1.8125 3.4375 1.8125 6 4 C6 4.99 6 5.98 6 7 C6.99 7.33 7.98 7.66 9 8 C10.22585 12.90341 10.42014 17.6538 10.71875 22.6875 C11.17445 28.0546 11.55248 29.59799 15.6875 33.3125 C16.40422 33.91191 17.12094 34.51133 17.85938 35.12891 C22.36182 39.06444 26.722 43.17601 27.17578 49.41797 C27.2209 50.33191 27.26602 51.24586 27.3125 52.1875 C27.63826 56.31919 28.1471 58.29421 30.0625 62.125 C32.41836 66.83672 32.67892 69.79497 32 75 C29.81841 77.75569 28.12823 79.43589 25 81 C23.0004 81.03999 20.99953 81.04347 19 81 C21.65735 78.34265 24.73782 76.83868 28 75 C29.39749 73.81224 29.39749 73.81224 29.375 70.4375 C29.33766 65.85784 29.33766 65.85784 26.5 62.125 C23.41622 57.03677 24 53.85872 24 48 C22.71815 44.72719 21.25572 42.80712 19 40 C17.7915 39.5282 17.7915 39.5282 16.55859 39.04688 C11.99449 37.17943 9.55271 33.08296 7 29 C5.52874 23.94253 5.52874 23.94253 7 21 C7.69007 13.40926 6.42612 9.90149 2 4 C-1.51627 2.24186 -4.11525 2.56228 -8 3 C-10.36718 4.62345 -12.46142 6.44933 -14.63672 8.32031 C-18.50833 11.07204 -22.34334 11.27429 -27 12 C-29.02813 12.94163 -31.04072 13.9224 -33 15 C-33.66 15 -34.32 15 -35 15 C-35 13.68 -35 12.36 -35 11 C-25.01672 7.11862 -25.01672 7.11862 -20.25 6.5625 C-15.92222 5.81346 -13.44179 3.64753 -10 1 C-6.38069 -0.20644 -3.80769 -0.32269 0 0 Z " fill="#4977A4" transform="translate(77,20)"/>
<path d="M0 0 C4.88646 2.44323 5.82928 4.03835 8 9 C7.96826 11.50712 7.93361 14.01533 7.80859 16.51953 C8.12676 20.6427 10.79913 23.58865 13 27 C13.6875 31.1875 13.6875 31.1875 13 35 C9.00735 38.93878 5.30347 40.9673 0 42.6875 C-1.17562 43.08324 -2.35125 43.47898 -3.5625 43.88672 C-14.66735 46.67271 -25.65222 47.29488 -37.0625 47.3125 C-39.56973 47.32926 -42.07695 47.34602 -44.66016 47.36328 C-62.52072 46.47928 -62.52072 46.47928 -69 40 C-66.72135 40.71615 -64.44271 41.43229 -62.16406 42.14844 C-38.77115 48.44431 -11.41458 46.69286 10 35 C10.33 34.67 10.66 34.34 11 34 C10.65773 28.86593 10.02515 25.2089 7 21 C6.29875 21.70125 5.5975 22.4025 4.875 23.125 C3.92625 24.07375 2.9775 25.0225 2 26 C0.96875 27.09313 -0.0625 28.18625 -1.125 29.3125 C-4 32 -4 32 -7 32 C-5 28 -5 28 -1.5625 25.5625 C2.71809 22.50503 2.71809 22.50503 5 18 C5.82373 10.0716 4.71441 6.36445 0 0 Z " fill="#273B4F" transform="translate(94,59)"/>
<path d="M0 0 C4.30376 2.48662 6.33281 5.34943 8 10 C8.65854 18.12195 8.65854 18.12195 5 23 C5.11859 22.29875 5.23719 21.5975 5.35938 20.875 C6.28565 14.05761 5.9893 9.93004 2 4 C-2.66064 1.66968 -4.05223 1.65823 -9 3 C-10.05187 3.94875 -11.10375 4.8975 -12.1875 5.875 C-16.56219 9.46081 -19.65451 10.08247 -25.05859 11.21875 C-29.37922 12.36633 -32.34419 14.45399 -36 17 C-37.98 17.99 -37.98 17.99 -40 19 C-40.33 18.67 -40.66 18.34 -41 18 C-46.4644 17.53903 -46.4644 17.53903 -51.5 19.375 C-53.7873 23.37778 -53.80096 27.49731 -53 32 C-50.47434 36.15811 -50.47434 36.15811 -47 37 C-48.01402 42.22608 -48.88998 46.6177 -52 51 C-53 49 -53 49 -52.22266 46.39844 C-51.8398 45.4007 -51.45695 44.40297 -51.0625 43.375 C-50.68223 42.37211 -50.30195 41.36922 -49.91016 40.33594 C-49.45963 39.17965 -49.45963 39.17965 -49 38 C-50.32 37.34 -51.64 36.68 -53 36 C-55.8615 31.60555 -56.56746 28.20175 -56 23 C-54.34861 19.4613 -53.28395 18.1893 -50 16 C-47.94202 15.82827 -45.87712 15.73349 -43.8125 15.6875 C-37.33633 15.2985 -34.18006 13.79254 -29 10 C-26.00265 8.53788 -24.10285 8.00593 -20.75 7.8125 C-16.76482 6.94904 -15.57554 6.0201 -12.5625 3.4375 C-8.30407 -0.08822 -5.62888 -1.03196 0 0 Z " fill="#293848" transform="translate(77,22)"/>
<path d="M0 0 C0 0.66 0 1.32 0 2 C-17.17158 8.99583 -36.87031 7.2321 -55 7 C-55 6.34 -55 5.68 -55 5 C-56.65 5 -58.3 5 -60 5 C-60 4.67 -60 4.34 -60 4 C-57.56367 4.0232 -55.12734 4.04641 -52.61719 4.07031 C-49.40227 4.08836 -46.18734 4.10641 -42.875 4.125 C-38.10676 4.1598 -38.10676 4.1598 -33.24219 4.19531 C-21.96049 3.9569 -10.8672 0 0 0 Z " fill="#476F96" transform="translate(96,101)"/>
<path d="M0 0 C1 1 1 1 1.1875 3.8125 C1 7 1 7 -1 11 C-3.8125 12.0625 -3.8125 12.0625 -7 12 C-9.9375 9.8125 -9.9375 9.8125 -12 7 C-10.26562 0.0625 -6.46568 -0.48798 0 0 Z " fill="#2D3679" transform="translate(58,59)"/>
<path d="M0 0 C4.19997 3.92901 5.03354 6.5365 5.3125 12.1875 C5.63826 16.31919 6.1471 18.29421 8.0625 22.125 C10.41836 26.83672 10.67892 29.79497 10 35 C7.81841 37.75569 6.12823 39.43589 3 41 C1.0004 41.03999 -1.00047 41.04347 -3 41 C-0.34265 38.34265 2.73782 36.83868 6 35 C7.39749 33.81224 7.39749 33.81224 7.375 30.4375 C7.33766 25.85784 7.33766 25.85784 4.5 22.125 C1.71966 17.53744 1.66365 15.59885 1.95703 10.47656 C2.02085 6.79838 1.03785 3.50274 0 0 Z " fill="#497AAA" transform="translate(99,60)"/>
<path d="M0 0 C-8.70809 5.6086 -14.49769 7.737 -25 7 C-28.75 6 -28.75 6 -31 5 C-31 4.34 -31 3.68 -31 3 C-29.91203 2.96262 -28.82406 2.92523 -27.70312 2.88672 C-19.55757 2.52231 -12.048 1.86996 -4.22266 -0.47656 C-2 -1 -2 -1 0 0 Z " fill="#194067" transform="translate(80,94)"/>
<path d="M0 0 C0.33 0.66 0.66 1.32 1 2 C0.67 2.99 0.34 3.98 0 5 C-0.29967 8.97066 -0.35918 11.3391 1.5625 14.875 C3.54236 19.17904 2.76442 22.41349 2 27 C1.01 26.67 0.02 26.34 -1 26 C-1.19531 23.52604 -1.39062 21.05208 -1.58594 18.57812 C-1.92357 15.65332 -1.92357 15.65332 -4 12 C-4.0784 9.33449 -4.08884 6.66519 -4 4 C-3.01 3.67 -2.02 3.34 -1 3 C-0.67 2.01 -0.34 1.02 0 0 Z " fill="#3A5775" transform="translate(23,73)"/>
<path d="M0 0 C4 2 4 2 6 5 C6 6.65 6 8.3 6 10 C5.01 10.33 4.02 10.66 3 11 C0.3125 9.0625 0.3125 9.0625 -2 7 C-1.125 1.125 -1.125 1.125 0 0 Z " fill="#123F6D" transform="translate(72,26)"/>
<path d="M0 0 C0 0.66 0 1.32 0 2 C-8.45149 4.90126 -15.04059 6.11946 -24 6 C-24 5.34 -24 4.68 -24 4 C-23.05898 3.87883 -22.11797 3.75766 -21.14844 3.63281 C-19.28059 3.38145 -19.28059 3.38145 -17.375 3.125 C-16.14523 2.96258 -14.91547 2.80016 -13.64844 2.63281 C-10.02968 2.09876 -10.02968 2.09876 -6.78906 0.92969 C-4 0 -4 0 0 0 Z " fill="#4877A5" transform="translate(96,101)"/>
<path d="M0 0 C2.65675 2.56514 4.76007 5.01343 7 8 C7.33 7.34 7.66 6.68 8 6 C9.32467 7.21604 10.63432 8.44845 11.9375 9.6875 C12.6684 10.37199 13.3993 11.05648 14.15234 11.76172 C16.1943 14.23538 16.6525 15.85044 17 19 C16.44312 18.38125 15.88625 17.7625 15.3125 17.125 C13.17901 14.88724 13.17901 14.88724 10.58984 14.14062 C7.50015 12.77986 6.26439 11.30789 4.25 8.625 C3.65703 7.85414 3.06406 7.08328 2.45312 6.28906 C1 4 1 4 0 0 Z " fill="#3A5B7B" transform="translate(83,45)"/>
<path d="M0 0 C0.33 0 0.66 0 1 0 C1.33 3.3 1.66 6.6 2 10 C3.4025 10.63938 4.805 11.27875 6.25 11.9375 C7.03891 12.29715 7.82781 12.6568 8.64062 13.02734 C11.22268 14.15875 11.22268 14.15875 15 15 C15 15.66 15 16.32 15 17 C16.65 17 18.3 17 20 17 C20 17.33 20 17.66 20 18 C14.13407 18.30873 10.20768 17.75123 5 15 C4.03063 14.505 3.06125 14.01 2.0625 13.5 C-1.25628 9.47724 -0.38883 5.01157 0 0 Z " fill="#497CAD" transform="translate(21,89)"/>
<path d="M0 0 C2.21371 0.00528 3.99494 1.78651 4.00022 4.00022 C3.99494 6.21393 2.21371 7.99516 0 8.00044 C-2.21371 7.99516 -3.99494 6.21393 -4.00022 4.00022 C-3.99494 1.78651 -2.21371 0.00528 0 0 Z " fill="#164772" transform="translate(30,44.99977924)"/>
<path d="M0 0 C-1.32 0.33 -2.64 0.66 -4 1 C-4.33 1.99 -4.66 2.98 -5 4 C-13.11429 8 -13.11429 8 -16 8 C-16 6.68 -16 5.36 -16 4 C-14.27477 3.3232 -12.54461 2.65898 -10.8125 2 C-9.84957 1.62875 -8.88664 1.2575 -7.89453 0.875 C-5 0 -5 0 0 0 Z " fill="#4881B5" transform="translate(58,27)"/>
<path d="M0 0 C0 0.33 0 0.66 0 1 C-1.76344 1.30937 -1.76344 1.30937 -3.5625 1.625 C-8.17549 2.73054 -8.17549 2.73054 -11.625 6.125 C-15 9 -15 9 -18.4375 9.375 C-19.28312 9.25125 -20.12875 9.1275 -21 9 C-21 8.34 -21 7.68 -21 7 C-19.96875 6.5875 -18.9375 6.175 -17.875 5.75 C-14.01204 4.17201 -14.01204 4.17201 -11.0625 1.8125 C-7.18444 -0.48268 -4.42904 -0.30545 0 0 Z " fill="#476E95" transform="translate(75,21)"/>
<path d="M0 0 C3.33233 3.11734 4.92734 4.99156 5.09766 9.69922 C5.08605 10.68535 5.07445 11.67148 5.0625 12.6875 C5.05348 13.68137 5.04445 14.67523 5.03516 15.69922 C5.02355 16.45848 5.01195 17.21773 5 18 C0.94579 13.94579 0.88436 5.60093 0 0 Z " fill="#487CAC" transform="translate(99,60)"/>
<path d="M0 0 C-2.94354 2.94354 -5.53456 2.41701 -9.625 2.625 C-11.68621 2.73715 -11.68621 2.73715 -13.78906 2.85156 C-14.84867 2.90055 -15.90828 2.94953 -17 3 C-17 2.34 -17 1.68 -17 1 C-14.34909 -0.32545 -12.0132 -0.37464 -9.0625 -0.625 C-7.47115 -0.76809 -7.47115 -0.76809 -5.84766 -0.91406 C-3 -1 -3 -1 0 0 Z " fill="#487199" transform="translate(42,36)"/>
<path d="M0 0 C0.66 0.33 1.32 0.66 2 1 C0.58792 2.6082 -0.82986 4.21141 -2.25 5.8125 C-3.03891 6.70582 -3.82781 7.59914 -4.64062 8.51953 C-7 11 -7 11 -11 14 C-9.31935 10.63871 -7.94949 8.60473 -5.5 5.875 C-4.89156 5.1918 -4.28312 4.50859 -3.65625 3.80469 C-2.46695 2.5088 -1.24374 1.24374 0 0 Z " fill="#3F6B94" transform="translate(28,19)"/>
<path d="M0 0 C0.99 0.495 0.99 0.495 2 1 C2 1.66 2 2.32 2 3 C2.99 3.33 3.98 3.66 5 4 C6.98835 8.3953 7.19118 12.22038 7 17 C6.67 17 6.34 17 6 17 C5.7525 15.80375 5.505 14.6075 5.25 13.375 C4.04001 9.14003 2.48723 6.56502 0 3 C0 2.01 0 1.02 0 0 Z " fill="#487097" transform="translate(101,75)"/>
<path d="M0 0 C0.66 0 1.32 0 2 0 C2.30938 0.94875 2.61875 1.8975 2.9375 2.875 C3.87395 5.8608 3.87395 5.8608 5 8 C2.0625 7.25 2.0625 7.25 -1 6 C-1.33 4.68 -1.66 3.36 -2 2 C-1.34 1.34 -0.68 0.68 0 0 Z " fill="#1F1F27" transform="translate(48,61)"/>
<path d="M0 0 C0.66 0 1.32 0 2 0 C2.33 1.65 2.66 3.3 3 5 C3.66 5 4.32 5 5 5 C5 5.66 5 6.32 5 7 C2.03 6.505 2.03 6.505 -1 6 C-0.67 4.02 -0.34 2.04 0 0 Z " fill="#112C48" transform="translate(71,27)"/>
<path d="M0 0 C1.98 0 3.96 0 6 0 C5.34 1.98 4.68 3.96 4 6 C3.34 6 2.68 6 2 6 C2 5.01 2 4.02 2 3 C1.34 2.67 0.68 2.34 0 2 C0 1.34 0 0.68 0 0 Z " fill="#142F48" transform="translate(28,45)"/>
<path d="M0 0 C2.21371 0.00528 3.99494 1.78651 4.00022 3.00022 C3.99494 5.21393 2.21371 6.99516 0 7.00044 C-1.66028 6.99643 -2.99621 5.6605 -3.00017 3.00022 C-2.99621 1.33994 -1.66028 0.00401 0 0.00006 Z " fill="#1A4C7D" transform="translate(74,30.99977924)"/>
<path d="M0 0 C-8.75 4 -8.75 4 -11 4 C-11 3.34 -11 2.68 -11 2 C-4.5 -1.125 -4.5 -1.125 0 0 Z " fill="#486E93" transform="translate(53,31)"/>
<path d="M0 0 C-1.98 1.32 -3.96 2.64 -6 4 C-6.33 3.34 -6.66 2.68 -7 2 C-7.66 1.67 -8.32 1.34 -9 1 C-2.25 -1.125 -2.25 -1.125 0 0 Z " fill="#1E4367" transform="translate(80,94)"/>
</svg>
