<svg xmlns="http://www.w3.org/2000/svg" viewBox="0 0 128 128"><path fill="#4587c3" d="M94 16c13.967 11.306 23.574 24.868 26 43 1.52 16.362-2.842 32.173-12.812 45.188C96.847 116.466 84.014 123.643 68 126c-13.38 1.13-27.114-2.89-37.723-11.11A136 136 0 0 1 23 108l-1.965-1.934C8.92 93.315 6.424 77.918 6.723 60.965 7.048 55.142 7.747 50.363 10 45l1.371-3.344c6.875-15.168 17.902-26.133 33.504-32.031C61.193 4.023 79.787 5.975 94 16"/><path fill="#4586c2" d="M94 16c13.967 11.306 23.574 24.868 26 43 1.52 16.362-2.842 32.173-12.812 45.188C96.847 116.466 84.014 123.643 68 126c-13.38 1.13-27.114-2.89-37.723-11.11A136 136 0 0 1 23 108l-1.965-1.934C8.92 93.315 6.424 77.918 6.723 60.965 7.048 55.142 7.747 50.363 10 45l1.371-3.344c6.875-15.168 17.902-26.133 33.504-32.031C61.193 4.023 79.787 5.975 94 16M60 26q-3.638.699-7.277 1.39C48.996 28.226 45.53 29.563 42 31v4l-3.14.148-4.11.227c-1.346.07-2.692.14-4.078.21-3.862.223-3.862.223-7.672 2.415v2h-2c-1.103 3.308-1.237 5.956-1.312 9.438l-.114 3.433C20.088 56.644 21.22 57.537 24 60c.872 4.842-.243 7.75-2.5 11.938-2.448 4.555-3.133 7.82-2.5 13.062l2 4v4.938c.274 3.262.439 4.57 2.934 6.753 10.334 5.401 21.353 5.582 32.816 5.559l7.672.016C73.995 105.93 82.896 105.035 92 102c1.682-.2 3.371-.349 5.063-.437 4.45-.508 6.545-.807 9.937-3.563 2.807-4.211 2.39-6.997 2-12-.96-1.918-.96-1.918-1.937-3.875-2.231-4.461-2.57-7.52-2.692-12.414-.831-6.074-4.152-9.868-8.433-14.023l-2.66-2.614C91.183 50.98 91.183 50.98 89 50c-1.22-4.878-1.37-9.58-1.621-14.59-.355-3.19-1.026-5.522-2.379-8.41h-2l-1-4c-2.749-2.264-4.727-2.958-8.25-3.5-5.03.67-10.077 2.827-13.75 6.5"/><path fill="#f5f5f5" d="M59 47c7.305 5.113 14.199 14.596 17 23 .567 5.895-.349 9.305-4 14-6.454 4.754-13.108 6.152-21 5-4.436-1.446-6.352-3.123-9-7-2.44-7.317-2.009-16.452.75-23.625C46.54 51.005 49.986 45.522 59 47"/><path fill="#4975a0" d="M77 22c4.304 2.487 6.333 5.35 8 10 .659 8.122.659 8.122-3 13l.36-2.125C83.285 36.058 82.99 31.93 79 26c-4.66-2.33-6.052-2.342-11-1l-3.187 2.875c-4.375 3.586-7.468 4.207-12.872 5.344C47.621 34.366 44.656 36.454 41 39l-4 2-1-1c-5.464-.461-5.464-.461-10.5 1.375C23.213 45.378 23.199 49.497 24 54c2.526 4.158 2.526 4.158 6 5-.93 5.243-2.084 9.432-4.625 14.125C23.185 77.311 22.262 80.202 23 85l1.563 2.938C26.455 91.97 25.815 94.7 25 99l4.375 1.375 2.46.773C55.23 107.444 82.586 105.693 104 94l1-1c-.342-5.134-.975-8.791-4-13l-2.125 2.125L96 85l-3.125 3.313C90 91 90 91 87 91c2-4 2-4 5.438-6.437 4.28-3.058 4.28-3.058 6.562-7.563.824-7.928-.286-11.636-5-18 4.886 2.443 5.83 4.038 8 9-.032 2.507-.066 5.015-.191 7.52.318 4.123 2.99 7.069 5.191 10.48.688 4.188.688 4.188 0 8-3.993 3.939-7.697 5.967-13 7.688l-3.562 1.199c-11.105 2.786-22.09 3.408-33.5 3.425l-7.598.051C40.286 105.915 29.085 105.28 22 99c-.624-2.576-.812-4.914-.832-7.562C21.131 88.62 21.131 88.62 19 85c-.782-6.477.9-10.094 3.871-15.605 1.574-3.34 1.78-5.776 1.129-9.395l-2.016-1.785c-2.684-2.996-2.427-4.818-2.297-8.778l.075-3.44C20 43 20 43 21 40h2v-2c4.366-2.183 7.354-2.454 12.188-2.875C42.059 34.395 46.88 33.06 53 30l3.5-.312c3.856-.758 5.013-1.75 7.938-4.25C68.696 21.912 71.37 20.968 77 22"/><path fill="#4977a4" d="M77 20c3.438 1.813 3.438 1.813 6 4v3l3 1c1.226 4.903 1.42 9.654 1.719 14.688.455 5.367.833 6.91 4.969 10.624l2.171 1.817c4.503 3.935 8.863 8.047 9.317 14.289l.136 2.77c.326 4.131.835 6.106 2.75 9.937 2.356 4.712 2.617 7.67 1.938 12.875-2.182 2.756-3.872 4.436-7 6-2 .04-4 .043-6 0 2.657-2.657 5.738-4.161 9-6 1.397-1.188 1.397-1.188 1.375-4.562-.037-4.58-.037-4.58-2.875-8.313-3.084-5.088-2.5-8.266-2.5-14.125-1.282-3.273-2.744-5.193-5-8l-2.441-.953C88.994 57.179 86.553 53.083 84 49c-1.471-5.057-1.471-5.057 0-8 .69-7.59-.574-11.099-5-17-3.516-1.758-6.115-1.438-10-1-2.367 1.623-4.461 3.45-6.637 5.32C58.492 31.072 54.657 31.274 50 32c-2.028.942-4.04 1.922-6 3h-2v-4c9.983-3.881 9.983-3.881 14.75-4.437 4.328-.75 6.808-2.915 10.25-5.563 3.62-1.206 6.192-1.323 10-1"/><path fill="#273b4f" d="M94 59c4.886 2.443 5.83 4.038 8 9-.032 2.507-.066 5.015-.191 7.52.318 4.123 2.99 7.069 5.191 10.48.688 4.188.688 4.188 0 8-3.993 3.939-7.697 5.967-13 7.688l-3.562 1.199c-11.105 2.786-22.09 3.408-33.5 3.425l-7.598.051C31.48 105.48 31.48 105.48 25 99l6.836 2.148C55.229 107.444 82.586 105.693 104 94l1-1c-.342-5.134-.975-8.791-4-13l-2.125 2.125L96 85l-3.125 3.313C90 91 90 91 87 91c2-4 2-4 5.438-6.437 4.28-3.058 4.28-3.058 6.562-7.563.824-7.928-.286-11.636-5-18"/><path fill="#293848" d="M77 22c4.304 2.487 6.333 5.35 8 10 .659 8.122.659 8.122-3 13l.36-2.125C83.285 36.058 82.99 31.93 79 26c-4.66-2.33-6.052-2.342-11-1l-3.187 2.875c-4.375 3.586-7.468 4.207-12.872 5.344C47.621 34.366 44.656 36.454 41 39l-4 2-1-1c-5.464-.461-5.464-.461-10.5 1.375C23.213 45.378 23.199 49.497 24 54c2.526 4.158 2.526 4.158 6 5-1.014 5.226-1.89 9.618-5 14-1-2-1-2-.223-4.602l1.16-3.023 1.153-3.04L28 60l-4-2c-2.861-4.394-3.567-7.798-3-13 1.651-3.539 2.716-4.81 6-7a101 101 0 0 1 6.188-.312C39.664 37.298 42.82 35.793 48 32c2.997-1.462 4.897-1.994 8.25-2.187 3.985-.864 5.174-1.793 8.188-4.375C68.696 21.912 71.37 20.968 77 22"/><path fill="#476f96" d="M96 101v2c-17.172 6.996-36.87 5.232-55 5v-2h-5v-1l7.383.07 9.742.055 9.633.07C74.04 104.957 85.133 101 96 101"/><path fill="#2d3679" d="M58 59c1 1 1 1 1.188 3.813C59 66 59 66 57 70c-2.812 1.063-2.812 1.063-6 1-2.937-2.187-2.937-2.187-5-5 1.734-6.937 5.534-7.488 12-7"/><path fill="#497aaa" d="M99 60c4.2 3.929 5.034 6.537 5.313 12.188.325 4.131.834 6.106 2.75 9.937 2.355 4.712 2.616 7.67 1.937 12.875-2.182 2.756-3.872 4.436-7 6-2 .04-4 .043-6 0 2.657-2.657 5.738-4.161 9-6 1.397-1.188 1.397-1.188 1.375-4.562-.037-4.58-.037-4.58-2.875-8.313-2.78-4.588-2.836-6.526-2.543-11.648.064-3.679-.92-6.974-1.957-10.477"/><path fill="#194067" d="M80 94c-8.708 5.609-14.498 7.737-25 7-3.75-1-3.75-1-6-2v-2l3.297-.113c8.145-.365 15.655-1.017 23.48-3.364C78 93 78 93 80 94"/><path fill="#3a5775" d="m23 73 1 2-1 3c-.3 3.97-.36 6.34 1.563 9.875 1.98 4.304 1.201 7.538.437 12.125l-3-1-.586-7.422C21.076 88.653 21.076 88.653 19 85a128 128 0 0 1 0-8l3-1z"/><path fill="#123f6d" d="M72 26c4 2 4 2 6 5v5l-3 1c-2.687-1.937-2.687-1.937-5-4 .875-5.875.875-5.875 2-7"/><path fill="#4877a5" d="M96 101v2c-8.451 2.901-15.04 4.12-24 4v-2l2.852-.367 3.773-.508 3.727-.492c3.618-.534 3.618-.534 6.859-1.703C92 101 92 101 96 101"/><path fill="#3a5b7b" d="M83 45c2.657 2.565 4.76 5.013 7 8l1-2a308 308 0 0 1 3.938 3.688l2.214 2.074c2.042 2.473 2.5 4.088 2.848 7.238l-1.687-1.875c-2.134-2.238-2.134-2.238-4.723-2.984-3.09-1.361-4.326-2.833-6.34-5.516l-1.797-2.336C84 49 84 49 83 45"/><path fill="#497cad" d="M21 89h1l1 10 4.25 1.938 2.39 1.09c2.583 1.13 2.583 1.13 6.36 1.972v2h5v1c-5.866.309-9.792-.249-15-3l-2.937-1.5C19.743 98.477 20.61 94.012 21 89"/><path fill="#164772" d="M30 45a4.001 4.001 0 0 1 0 8 4.001 4.001 0 0 1 0-8"/><path fill="#4881b5" d="m58 27-4 1-1 3c-8.114 4-8.114 4-11 4v-4a539 539 0 0 1 5.188-2l2.917-1.125C53 27 53 27 58 27"/><path fill="#476e95" d="M75 21v1l-3.562.625c-4.613 1.106-4.613 1.106-8.063 4.5C60 30 60 30 56.563 30.375L54 30v-2l3.125-1.25c3.863-1.578 3.863-1.578 6.813-3.937C67.816 20.517 70.57 20.695 75 21"/><path fill="#487cac" d="M99 60c3.332 3.117 4.927 4.992 5.098 9.7l-.035 2.987-.028 3.012L104 78c-4.054-4.054-4.116-12.4-5-18"/><path fill="#487199" d="M42 36c-2.944 2.944-5.535 2.417-9.625 2.625l-4.164.227L25 39v-2c2.65-1.325 4.987-1.375 7.938-1.625l3.214-.29C39 35 39 35 42 36"/><path fill="#3f6b94" d="m28 19 2 1q-2.119 2.411-4.25 4.813l-2.39 2.707C21 30 21 30 17 33c1.68-3.361 3.05-5.395 5.5-8.125l1.844-2.07A123 123 0 0 1 28 19"/><path fill="#487097" d="m101 75 2 1v2l3 1c1.988 4.395 2.191 8.22 2 13h-1l-.75-3.625c-1.21-4.235-2.763-6.81-5.25-10.375z"/><path fill="#1f1f27" d="M48 61h2l.938 2.875c.936 2.986.936 2.986 2.062 5.125-2.937-.75-2.937-.75-6-2l-1-4z"/><path fill="#112c48" d="M71 27h2l1 5h2v2l-6-1z"/><path fill="#142f48" d="M28 45h6l-2 6h-2v-3l-2-1z"/><path fill="#1a4c7d" d="M74 31c2.214.005 3.995 1.786 4 3a4 4 0 0 1-4 4c-1.66-.004-2.996-1.34-3-4a3 3 0 0 1 3-3"/><path fill="#486e93" d="M53 31c-8.75 4-8.75 4-11 4v-2c6.5-3.125 6.5-3.125 11-2"/><path fill="#1e4367" d="m80 94-6 4-1-2-2-1c6.75-2.125 6.75-2.125 9-1"/></svg>
