<svg xmlns="http://www.w3.org/2000/svg" viewBox="0 0 128 128"><circle cx="64" cy="64" r="64" fill="#468bca"/><path fill="#15406a" d="M70.464 15.833c3.665-1.49 8.07-.891 11.093 1.719 3.296 2.86 5.47 7.08 6.297 11.333.75 3.958-.478 7.373-1.588 11.093 2.306 3.915 4.612 7.7 7.722 11.04 3.774 4.175 8.668 7.645 11.192 12.8 1.892 3.654 1.044 7.874.717 11.779 2.926 4.644 6.385 9.668 6.493 15.357-.021 2.936-2.653 5.264-4.916 6.775-5.905 3.807-13.54 5.58-20.327 7.113-12.66 2.85-25.678 3.785-38.631 3.045-6.95-.424-13.976-1.577-20.566-3.871-3.046-1.077-6.885-3.122-7.81-6.472-.282-2.545.033-5.187.24-7.733-2.164-4.665-4.35-8.744-2.328-13.997 2.448-5.818 6.015-10.865 7.494-17.13-2.317-2.175-4.894-4.241-6.297-7.156-2.828-5.71-1.87-14.128 3.948-17.608 4.252-2.088 10.06-.272 14.432-1.892 3.654-1.697 6.743-4.318 10.604-5.754 3.861-1.544 8.168-1.838 12.007-3.382 3.546-1.838 6.482-5.384 10.224-7.059"/><path fill="#468bca" d="M73.552 17.03c6.134-.066 10.626 5.177 12.073 10.734 1.294 4.438-.207 8.136-1.577 12.301 2.686 4.872 5.47 9.516 9.473 13.443 3.262 3.35 7.776 6.645 9.777 10.92 2.273 5.285.794 11.974-3.263 16.02-3.72 3.534-7.917 6.199-10.767 10.625 7.711-2.12 11.148-7.885 15.531-13.91 2.208 3.85 5.003 8.287 5.612 12.736.62 2.762-1.697 4.48-3.633 5.949-5.1 3.371-11.626 5.014-17.51 6.449-19.74 4.448-40.197 5.753-59.84.055-2.25-.773-5.59-1.784-6.83-3.981-.543-2.273-.489-4.72-.641-7.048 2.588 1.338 5.155 2.698 7.798 3.948-3.59-3.523-9.212-7.037-10.31-12.192-1.175-5.231 1.707-9.549 3.991-13.964 2.11-3.753 3.437-7.766 4.524-11.899-2.24-1.598-5.122-3.165-6.438-5.677-1.523-2.817-1.577-6.515-1.218-9.614.315-2.774 1.75-5.22 4.394-6.32 3.926-1.74 8.004-.445 11.92.556 3.447-2.796 6.623-5.493 10.756-7.287 3.926-1.73 7.907-2.24 11.996-3.34 5.22-1.141 8.897-7.917 14.182-8.504"/><path fill="#1f242c" d="M74.205 19.575c.326 2.577.685 5.144 1.142 7.7a895 895 0 0 0-4.96-1.74c1.262-1.99 2.556-3.97 3.818-5.96"/><path fill="#15406a" d="M74.205 19.575c1.86 1.707 4.383 3.219 5.155 5.764.74 2.382-.272 5.384-.685 7.755-3.1-2.263-5.786-4.666-8.287-7.56 1.653.577 3.306 1.154 4.959 1.74-.457-2.555-.816-5.122-1.142-7.7"/><path fill="#1f242c" d="M67.168 38.477c1.86 1.555 2.806 1.816 1.893 4.492-2.23-.957-3.677-.533-2.284-3.415z"/><path fill="#15406a" d="M32.463 40.413c-1.36 3.687-2.73 7.374-4.252 10.996-2.6-2.393-5.275-3.753-4.188-7.875.566-3.589 5.797-2.48 8.44-3.121"/><path fill="#47739c" d="M54.193 40.968c3.916-.816 7.461 2.305 10.017 4.872 4.35 4.71 8.472 10.006 11.822 15.477 3.241 5.21 4.546 12.703 1.458 18.228-5.786 10.027-19.947 13.442-30.333 9.549-4.862-1.969-7.266-6.406-8.32-11.311-1.915-9.745-.512-20.066 4.97-28.463 2.392-3.708 5.927-7.373 10.386-8.352"/><path fill="#fff" d="M53.03 43.252c5.785-1.969 9.19 2.958 12.561 6.688 4.34 5.58 9.789 11.746 11.703 18.664 1.947 7.221-2.436 14.062-8.766 17.314-5.558 2.817-12.29 3.458-18.38 2.414-4.906-1.033-8.038-4.567-9.267-9.32-2.132-8.19-1.381-17.315 2.273-24.982 2.067-4.481 5.068-8.962 9.875-10.778"/><path fill="#15406a" d="M39.26 46.297c.762.903 1.49 1.816 2.187 2.762-1.12.838-2.252 1.675-3.383 2.502.196-1.838.457-3.557 1.197-5.264m44.135 7.341a23.5 23.5 0 0 1-3.35 1.392 4.5 4.5 0 0 1-.359-1.903c.827-2.164 2.785-.761 3.71.511M54.51 55.77c2.044-.25 4.459-.022 5.242 2.24.62 2.273-.642 5.112-1.294 7.276.021-2.871-.11-5.731-.229-8.603-2.675.523-5.634.914-8.08 2.143-.675 2.98.37 6.232 3.164 7.7 1.523.316 3.22-.065 4.764-.098-1.827 1.469-3.459 3.48-6.058 2.437-3.165-.968-7.515-4.536-6.841-8.234 2.251-2.686 5.95-4.241 9.332-4.861"/><path fill="#283590" d="M58.228 56.683c.12 2.872.25 5.732.229 8.603l-.381 1.142c-1.544.033-3.241.414-4.764.098-2.795-1.468-3.839-4.72-3.165-7.7 2.447-1.229 5.406-1.62 8.081-2.143"/><path fill="#97a6b4" d="M71.714 62.013c-4.078 7.634-11.8 11.778-20.022 13.508-3.328.707-6.026-.512-9.027-1.719 5.307-.533 10.256.228 15.085-1.98 5.6-2.349 9.179-6.318 13.964-9.81"/><path fill="#15406a" d="M30.495 65.221c1.294-1.36 3.806-.435 2.62 1.523-1.294 1.337-3.817.435-2.62-1.523m52.867 27.864c-5.981 4.84-12.953 8.212-20.686 8.875-5.644.392-10.43-1.588-15.367-4.024 6.253-.152 12.398.032 18.62-.86 6.003-.793 11.56-2.61 17.433-3.99"/></svg>
