<svg width="645" height="645" viewBox="0 0 645 645" fill="none" xmlns="http://www.w3.org/2000/svg">
<path d="M322.5 645C500.612 645 645 500.612 645 322.5C645 144.388 500.612 0 322.5 0C144.388 0 0 144.388 0 322.5C0 500.612 144.388 645 322.5 645Z" fill="#FEF3C7"/>
<path d="M230.456 473.067H180.993C172.775 473.148 164.67 471.151 157.43 467.262C150.374 463.485 144.424 457.934 140.166 451.157L113.802 408.204C109.635 401.979 107.44 394.642 107.503 387.151C107.503 379.421 109.599 372.759 113.802 366.319L140.63 322.711L113.802 279.325C109.676 273.084 107.485 265.764 107.503 258.282C107.503 250.764 109.599 243.669 113.802 237.229L140.166 194.276C144.359 187.442 150.325 181.873 157.43 178.161C164.661 174.226 172.761 172.161 180.993 172.154H230.456L256.589 129.625C260.782 122.795 266.749 117.229 273.853 113.52C281.083 109.581 289.182 107.513 297.415 107.503H347.584C356.211 107.503 363.911 109.438 371.147 113.52C378.203 117.297 384.153 122.848 388.411 129.625L414.775 172.154H464.239C472.876 172.154 480.565 174.079 487.801 178.161C494.859 181.941 500.809 187.495 505.065 194.276L531.198 237.229C535.4 243.679 537.496 250.552 537.496 258.282C537.496 266.012 535.4 272.885 531.198 279.325L504.37 322.711L531.198 366.319C535.4 372.769 537.496 379.633 537.496 387.151C537.496 394.669 535.4 401.764 531.198 408.204L505.065 451.157C500.872 457.987 494.905 463.552 487.801 467.262C480.552 471.127 472.453 473.122 464.239 473.067H414.775L388.411 515.597C384.217 522.426 378.251 527.992 371.147 531.702C363.897 535.563 355.798 537.555 347.584 537.496H297.405C289.188 537.58 281.083 535.587 273.843 531.702C266.787 527.924 260.836 522.374 256.579 515.597L230.456 473.067ZM414.775 301.235H464.934L490.603 258.282L464.934 215.319H414.775L388.411 258.282L414.775 301.235ZM298.121 365.675H347.111L373.243 322.711L347.111 279.758H298.121L271.988 322.711L298.121 365.675ZM298.121 236.806H347.111L373.949 193.197L347.816 150.89H297.647L271.525 193.197L298.353 236.806H298.121ZM256.821 258.272L230.688 215.319H181.225L155.092 258.282L181.225 301.235H230.688L256.821 258.272ZM256.821 387.151L230.688 344.198H180.529L154.86 387.151L180.993 430.104H230.456L256.589 387.151H256.821ZM298.121 408.627L271.283 452.014L297.415 494.543H347.584L373.717 452.014L346.879 408.627H297.889H298.121ZM414.775 430.104H464.239L490.371 387.151L464.239 344.198H414.775L388.411 387.151L414.775 430.104Z" fill="#D97706"/>
<circle cx="518.396" cy="518.396" r="126.5" fill="black"/>
<g clip-path="url(#clip0_2001_41)">
<path d="M437.397 455.048V480.969H562.096V495.008L551.336 505.767H462.561V506.024L462.304 505.767L449.471 518.599L467.792 536.933L473.037 531.689H562.096L588.02 505.767V480.969V455.048H562.096H437.397Z" fill="white"/>
<path d="M462.629 581.744H588.02V555.822H437.397L462.629 581.744Z" fill="white"/>
</g>
<defs>
<clipPath id="clip0_2001_41">
<rect width="150.623" height="126.696" fill="white" transform="translate(437.397 455.048)"/>
</clipPath>
</defs>
</svg>
