<svg width="40" height="40" viewBox="0 0 40 40" fill="none" xmlns="http://www.w3.org/2000/svg">
<circle cx="20" cy="20" r="19" fill="#101B24" stroke="#FFEA00" stroke-width="2"/>
<g clip-path="url(#clip0_380_2899)">
<path d="M26.3568 29.9999H13.6388C12.4087 29.9974 11.2295 29.3145 10.3598 28.1011C9.49023 26.8876 9.00119 25.2426 9.00001 23.5269C8.99668 20.1729 9.9144 16.9444 11.5647 14.5048L11.5803 14.4766C11.813 14.1176 12.0654 13.7844 12.3352 13.4801C13.3106 12.3236 14.4446 11.4562 15.6681 10.9308C18.0849 9.7687 20.8041 9.68124 23.7316 10.7059L23.8123 10.7341L24.0542 10.8247L24.2042 10.884L24.2737 10.9122L24.3857 10.9559C25.0992 11.2347 25.7787 11.6612 26.4015 12.2211C27.7995 13.3961 28.9568 15.0537 29.7619 17.034C30.567 19.0143 30.9926 21.2505 30.9978 23.5269C30.9966 25.2432 30.5072 26.8887 29.6371 28.1022C28.767 29.3158 27.5873 29.9982 26.3568 29.9999ZM12.2456 14.9796L12.1269 15.1577C10.5866 17.4128 9.72902 20.4093 9.73244 23.5238C9.73363 24.9691 10.1458 26.3548 10.8785 27.3767C11.6113 28.3987 12.6048 28.9735 13.641 28.9752H26.359C27.3956 28.9744 28.3897 28.3999 29.1229 27.3778C29.8561 26.3557 30.2686 24.9696 30.2698 23.5238C30.2644 21.4199 29.8698 19.3536 29.1243 17.5246C28.3788 15.6956 27.3075 14.1659 26.0141 13.0833H25.9961C25.4322 12.5775 24.8168 12.193 24.1706 11.943L24.0721 11.9024L24.0139 11.8806L23.8615 11.8181L23.6376 11.7369L23.5569 11.7056C20.766 10.7434 18.1812 10.8122 15.8943 11.9118C14.7592 12.3957 13.7077 13.2008 12.8055 14.2767C12.6078 14.4945 12.4201 14.7292 12.2433 14.9796H12.2456Z" fill="#FFEA00"/>
<path d="M16.0059 11.8694C17.8003 11.0087 20.2781 10.5609 23.4951 11.6721V11.6711L23.5566 11.6926V11.6936L23.7793 11.7795V11.7805L23.9307 11.8391V11.8401L24.0898 11.9055L24.0996 11.9094C24.72 12.15 25.3189 12.5226 25.873 13.0208L25.8799 13.0276L25.8867 13.0334C27.1631 14.0962 28.2365 15.6173 28.9863 17.4612C29.689 19.189 30.0805 21.1343 30.126 23.1272L30.1309 23.5266C30.1303 25.0158 29.7057 26.4234 28.9766 27.4436C28.249 28.4616 27.3033 28.9827 26.3682 28.9875H13.6523C12.7154 28.9875 11.7672 28.4688 11.0371 27.4504C10.3053 26.4298 9.87891 25.0191 9.87891 23.5266L9.88867 22.9358C9.98769 19.9932 10.8435 17.2071 12.2871 15.093L12.291 15.0872L12.2949 15.0803C12.4984 14.7624 12.7197 14.4701 12.9551 14.2063L12.96 14.2014L12.9639 14.1956C13.8589 13.1329 14.8894 12.3484 15.9863 11.8772L16.0059 11.8694Z" fill="#FFEA00" stroke="#FFEA00"/>
<path d="M25.2995 26.3637H14.703C14.6496 26.3637 14.5983 26.3162 14.5603 26.2316C14.5223 26.1471 14.5007 26.0322 14.5 25.9119C14.5 25.7906 14.5214 25.6743 14.5594 25.5886C14.5975 25.5028 14.6491 25.4546 14.703 25.4546H25.2995C25.3529 25.4561 25.4039 25.5049 25.4414 25.5905C25.479 25.6761 25.5 25.7916 25.5 25.9119C25.5 26.0317 25.4789 26.1466 25.4413 26.2313C25.4037 26.3161 25.3527 26.3637 25.2995 26.3637Z" fill="#0C1721"/>
</g>
<defs>
<clipPath id="clip0_380_2899">
<rect width="22" height="20" fill="white" transform="translate(9 10)"/>
</clipPath>
</defs>
</svg>
